<svg xmlns="http://www.w3.org/2000/svg" viewBox="0 0 151.98 72"><defs><style>.cls-1{fill:#fff;}</style></defs><title>index-banner-logo-170x210</title><g id="圖層_1" data-name="圖層 1"><path class="cls-1" d="M16.56,15.85a8.8,8.8,0,0,0-2.8-1.37,38.08,38.08,0,0,0-3.8-.89c-1.16-.2-2.22-.42-3.17-.63A8.12,8.12,0,0,1,4.37,12a4.12,4.12,0,0,1-1.55-1.63,5.72,5.72,0,0,1-.55-2.73q0-3,2-4.18A10.36,10.36,0,0,1,9.62,2.31H17a1.2,1.2,0,0,0,1.18-1.18,1.13,1.13,0,0,0-.35-.79A1.26,1.26,0,0,0,16.91,0H9.57a19.24,19.24,0,0,0-4,.39,7.9,7.9,0,0,0-3,1.31A5.86,5.86,0,0,0,.67,4.07,8.68,8.68,0,0,0,0,7.66a8.64,8.64,0,0,0,.74,3.88A5.71,5.71,0,0,0,2.8,13.81a10.23,10.23,0,0,0,3,1.24c1.15.27,2.38.54,3.7.8s2.28.48,3.18.72a7.59,7.59,0,0,1,2.23,1A3.55,3.55,0,0,1,16.2,19.1a5.82,5.82,0,0,1,.42,2.37q0,3.66-1.82,5.23a7.77,7.77,0,0,1-5.22,1.57H1.14a1.17,1.17,0,0,0-.81.32,1.13,1.13,0,0,0,0,1.59h0a1,1,0,0,0,.81.35H9.61c3.06,0,5.38-.69,7-2.09s2.36-3.72,2.36-7a8.33,8.33,0,0,0-.61-3.35A5.85,5.85,0,0,0,16.56,15.85Z"/><path class="cls-1" d="M40.23,15.68V29.36a1.06,1.06,0,0,0,.33.81,1.12,1.12,0,0,0,.81.32,1.17,1.17,0,0,0,.83-.32,1.08,1.08,0,0,0,.35-.81V15.59A8.2,8.2,0,0,0,42,12.5a6.5,6.5,0,0,0-3.71-3.7,7.22,7.22,0,0,0-2.6-.48H28.35V1.52A1.13,1.13,0,0,0,28,.67a1.21,1.21,0,0,0-.83-.33,1.08,1.08,0,0,0-.81.33,1.17,1.17,0,0,0-.33.85V29.36a1.06,1.06,0,0,0,.33.81,1.12,1.12,0,0,0,.81.32,1.17,1.17,0,0,0,.83-.32,1.08,1.08,0,0,0,.35-.81V10.5h7.34a4.32,4.32,0,0,1,3.19,1.41,5,5,0,0,1,1,1.64A5.74,5.74,0,0,1,40.23,15.68Z"/><path class="cls-1" d="M57.32,8.32a9.21,9.21,0,0,0-3.24.56,7.85,7.85,0,0,0-2.6,1.64,7.32,7.32,0,0,0-1.74,2.65,9.63,9.63,0,0,0-.64,3.6v3.4a24.73,24.73,0,0,0,.37,4.55,8,8,0,0,0,1.29,3.22,5.57,5.57,0,0,0,2.47,1.92,10.42,10.42,0,0,0,3.91.63h6.77A1,1,0,0,0,65,29.4a1,1,0,0,0-.31-.78,1.15,1.15,0,0,0-.83-.31H57.19a6.36,6.36,0,0,1-2.76-.5,4.06,4.06,0,0,1-1.75-1.48,6.62,6.62,0,0,1-.93-2.42,18.74,18.74,0,0,1-.33-3.35H63.91a1.72,1.72,0,0,0,1.29-.5,1.65,1.65,0,0,0,.51-1.24V16.74c0-2.79-.72-4.89-2.15-6.32S60.05,8.32,57.32,8.32Zm6.07,10.06h-12V16.74A6.5,6.5,0,0,1,53,12.19a5.57,5.57,0,0,1,4.35-1.69,6,6,0,0,1,4.56,1.59,6.54,6.54,0,0,1,1.48,4.65Z"/><path class="cls-1" d="M86.72,10.21a6.63,6.63,0,0,0-2.2-1.41,7.22,7.22,0,0,0-2.6-.48H74.09a1.73,1.73,0,0,0-1.33.56,2,2,0,0,0-.5,1.31V29.32a1.14,1.14,0,0,0,.33.82,1,1,0,0,0,.81.35,1.1,1.1,0,0,0,.83-.35,1.23,1.23,0,0,0,.35-.91V10.5h7.34a4.39,4.39,0,0,1,3.19,1.41,5.72,5.72,0,0,1,1,1.61,5.62,5.62,0,0,1,.37,2.07V29.32a1.14,1.14,0,0,0,.33.82,1,1,0,0,0,.81.35,1.21,1.21,0,0,0,1.18-1.17V15.59a8.2,8.2,0,0,0-.55-3.09A6.68,6.68,0,0,0,86.72,10.21Z"/><path class="cls-1" d="M125.54,25.33A4.8,4.8,0,0,1,124,27a7,7,0,0,1-2.27.91,12.17,12.17,0,0,1-2.69.28h-7.25a1.08,1.08,0,0,0-.81.35,1.21,1.21,0,0,0-.33.83,1.06,1.06,0,0,0,.33.81,1.12,1.12,0,0,0,.81.32h7.29a15.73,15.73,0,0,0,3.68-.41,8.78,8.78,0,0,0,3-1.33,6.29,6.29,0,0,0,2-2.37,7.92,7.92,0,0,0,.72-3.56v-3a7,7,0,0,0-.68-3.18,6.05,6.05,0,0,0-1.86-2.22,8.31,8.31,0,0,0-2.77-1.31,12.81,12.81,0,0,0-3.43-.44h-6.77V4.27H126.4a1.14,1.14,0,0,0,.82-.31,1,1,0,0,0,.36-.83A1.21,1.21,0,0,0,126.4,2H112.5a1.86,1.86,0,0,0-1.36.54,1.93,1.93,0,0,0-.52,1.37v9.2a1.78,1.78,0,0,0,.52,1.33,1.94,1.94,0,0,0,1.36.49h7.17a10.42,10.42,0,0,1,2.49.31,6.74,6.74,0,0,1,2.07.91,4.23,4.23,0,0,1,1.9,3.71v3A4.87,4.87,0,0,1,125.54,25.33Z"/><path class="cls-1" d="M151.17,2.44a2.73,2.73,0,0,0-2-.83H135.35a1.11,1.11,0,0,0-.79.33,1,1,0,0,0-.34.8,1,1,0,0,0,.34.76,1.24,1.24,0,0,0,.88.33H149.2a.48.48,0,0,1,.37.17.59.59,0,0,1,.16.4.29.29,0,0,1,0,.13v.08L139,28.88a2,2,0,0,0-.09.48,1.08,1.08,0,0,0,.35.81,1.16,1.16,0,0,0,.79.32,1.11,1.11,0,0,0,1-.65l10.71-24.4a2.43,2.43,0,0,0,.22-1A2.69,2.69,0,0,0,151.17,2.44Z"/><path class="cls-1" d="M69.23,70.37H65.65V60.64a2.78,2.78,0,0,0-2.76-2.76H56.54l1.29-6.76h10a.72.72,0,0,0,0-1.44H48.24a.72.72,0,0,0,0,1.44h8.12l-1.29,6.76H49.36a.72.72,0,0,0,0,1.44H54.8l-2.1,11h-5a.72.72,0,0,0,0,1.43H69.23a.72.72,0,1,0,.17-1.43h-.17Zm-13-11h6.62a1.33,1.33,0,0,1,1.32,1.32v9.73h-10Z"/><path class="cls-1" d="M96.14,54.94l-14.6,1.54V50.06a.73.73,0,0,0-1.45,0v6.57l-5.66.59a.72.72,0,0,0,.08,1.44h.08l5.5-.58v11a2.76,2.76,0,0,0,2.76,2.75h11a2.76,2.76,0,0,0,2.76-2.75.72.72,0,0,0-1.44,0,1.32,1.32,0,0,1-1.32,1.32h-11a1.31,1.31,0,0,1-1.31-1.32V57.92l14.75-1.55a.72.72,0,0,0,.64-.79A.74.74,0,0,0,96.14,54.94Z"/><path class="cls-1" d="M123.38,57h-11.3a.72.72,0,0,0,0,1.44h6.12a.81.81,0,0,0,0,.22V69.05a1.33,1.33,0,0,1-1.32,1.32h-3.31a.72.72,0,1,0-.17,1.43.49.49,0,0,0,.17,0h3.31a2.76,2.76,0,0,0,2.76-2.75V58.68a.81.81,0,0,0,0-.22h3.83a.72.72,0,0,0,0-1.44Z"/><path class="cls-1" d="M112.08,51.63h9.67a.72.72,0,1,0,0-1.44h-9.67a.72.72,0,1,0,0,1.44Z"/><path class="cls-1" d="M148.76,64.38l-5.42.1,0-2.41L150,62a.72.72,0,0,0,.71-.73h0l-.06-3a2.76,2.76,0,0,0-2.82-2.7h0l-5.36.1a.7.7,0,0,0-.69.72h0a.43.43,0,0,0,0,.16.43.43,0,0,0,0,.16L142,71.16a.71.71,0,0,0,.73.69h0l8.18-.14a.71.71,0,0,0,.7-.72h0l-.07-3.92A2.76,2.76,0,0,0,148.76,64.38Zm.44-6.11,0,2.25-6,.11-.06-3.58,4.7-.08a1.33,1.33,0,0,1,1.32,1.3Zm1,12-6.74.12-.08-4.51,5.42-.1a1.32,1.32,0,0,1,1.34,1.29Z"/><path class="cls-1" d="M151.28,51.47h-4.61V49.29a.72.72,0,0,0-1.44,0h0v2.18h-4.6a.72.72,0,0,0-.72.72h0v2.47a.72.72,0,0,0,1.44,0V52.91h9.21v1.75a.72.72,0,0,0,1.44,0V52.19a.72.72,0,0,0-.72-.72Z"/><path class="cls-1" d="M17.38,63.52V62h5.78a.72.72,0,1,0,0-1.44H17.38V58.13a.73.73,0,0,0-1.45,0v2.44H8.35V58.13a.72.72,0,0,0-1.44,0h0v2.44H1.11a.72.72,0,1,0,0,1.44h5.8V63.5L.3,69.37a.71.71,0,0,0-.06,1,.73.73,0,0,0,1,.06l5.65-5v5.85a.72.72,0,0,0,1.44,0v-5.8l3.31,2.93.1.06a.6.6,0,0,0,.34.11h.06a.69.69,0,0,0,.24,0,.24.24,0,0,0,.11-.06l.1-.06,3.32-3v5.83a.73.73,0,0,0,1.45,0V65.41l5.63,5a.73.73,0,1,0,1-1.07Zm-5.25,3.39L8.35,63.55V62h7.58v1.52Z"/><path class="cls-1" d="M2.66,51.12H10L3.74,56.66a.74.74,0,0,0-.06,1,.73.73,0,0,0,1,.06l6.73-6v5.5a.72.72,0,1,0,1.44,0V51.74l6.7,5.95a.73.73,0,0,0,1-.06.73.73,0,0,0-.06-1l-6.26-5.54H21.6a.72.72,0,0,0,0-1.44H12.87V48a.72.72,0,1,0-1.44,0h0v1.64H2.66a.72.72,0,0,0,0,1.44Z"/><path class="cls-1" d="M106.22,50.34l-5.79,4.48a.72.72,0,0,0,.45,1.29.65.65,0,0,0,.44-.16l5.78-4.47a.72.72,0,1,0-.88-1.14Z"/><path class="cls-1" d="M106.22,56.68l-5.79,4.48a.72.72,0,0,0,.45,1.29.65.65,0,0,0,.44-.16l3.14-2.43V71.09a.72.72,0,0,0,1.44,0V58.74l1.2-.94a.72.72,0,0,0-.76-1.22l-.12.09Z"/><path class="cls-1" d="M138.84,54.38a.2.2,0,0,0,0-.11.21.21,0,0,0-.06-.1.64.64,0,0,0-.1-.13h0l-4.12-3.65h-.07l-.13-.07h-.53l-.12.07h-.08L129.1,54h0a.31.31,0,0,0-.09.11.41.41,0,0,0-.07.11.24.24,0,0,0,0,.12.38.38,0,0,0,0,.15h0v.09a.38.38,0,0,0,0,.15l.06.12V55h0a.75.75,0,0,0,.17.14h.06a.78.78,0,0,0,.3.07h8.65a.67.67,0,0,0,.28-.06h0a.9.9,0,0,0,.2-.14h0l.05-.09a.64.64,0,0,0,.08-.14v-.25h0A.5.5,0,0,0,138.84,54.38ZM134,51.85l2.25,2h-4.72Z"/><path class="cls-1" d="M135.1,67.42l-.08,0a.57.57,0,0,0-.13-.08h-.53a.57.57,0,0,0-.13.08l-.08,0-2.34,2.06V65.83H138a.73.73,0,0,0,.72-.73V59.84A2.78,2.78,0,0,0,136,57.08h-4.91a.72.72,0,1,0,0,1.44H136a1.32,1.32,0,0,1,1.32,1.32h0v4.55h-5.51V62h4.34a.72.72,0,0,0,0-1.44h-5.06a.72.72,0,0,0-.72.72h0V71.29a.64.64,0,0,0,.08.14.22.22,0,0,0,.05.08h0a.52.52,0,0,0,.19.14h.05a.87.87,0,0,0,.28,0,.86.86,0,0,0,.27,0l.1-.06a.41.41,0,0,0,.11-.07l3.06-2.7,3.05,2.7a.66.66,0,0,0,.48.18.72.72,0,0,0,.48-1.25Z"/><path class="cls-1" d="M37.25,61.06a1.53,1.53,0,0,1-1.53,1.55h0a1.54,1.54,0,0,1-1.55-1.55h0a1.56,1.56,0,0,1,1.55-1.54h0a1.55,1.55,0,0,1,1.55,1.53Z"/></g></svg>