<svg xmlns="http://www.w3.org/2000/svg" viewBox="0 0 429.83 220.4"><defs><style>.cls-1,.cls-3,.cls-4{fill:none;stroke:#898989;stroke-linecap:round;stroke-linejoin:round;}.cls-1{stroke-width:0.55px;}.cls-2,.cls-5{fill:#898989;}.cls-3{stroke-width:0.49px;}.cls-4{stroke-width:0.5px;}.cls-5{writing-mode:tb;text-orientation:upright;glyph-orientation-vertical:0deg;font-size:10px;font-family:SourceHanSerifTC-SemiBold-B5pc-H, Source Han Serif TC;}</style></defs><title>room</title><g id="圖層_1" data-name="圖層 1"><line class="cls-1" x1="353.02" y1="176.81" x2="338.98" y2="176.81"/><line class="cls-1" x1="354.81" y1="166.25" x2="354.81" y2="174.93"/><line class="cls-1" x1="353.02" y1="164.46" x2="338.98" y2="164.46"/><line class="cls-1" x1="353.92" y1="174.84" x2="353.92" y2="166.35"/><line class="cls-1" x1="352.93" y1="165.45" x2="339.07" y2="165.45"/><line class="cls-1" x1="352.93" y1="175.74" x2="339.07" y2="175.74"/><line class="cls-1" x1="337.19" y1="174.93" x2="337.19" y2="166.25"/><line class="cls-1" x1="338.17" y1="166.35" x2="338.17" y2="174.84"/><polyline class="cls-1" points="352.93 175.74 353.47 175.65 353.74 175.29 353.92 174.84"/><polyline class="cls-1" points="353.92 166.35 353.74 165.9 353.47 165.54 352.93 165.45"/><polyline class="cls-1" points="354.81 166.25 354.72 165.54 354.27 165 353.65 164.56 353.02 164.47"/><polyline class="cls-1" points="353.02 176.81 353.65 176.63 354.27 176.27 354.72 175.65 354.81 174.93"/><polygon class="cls-1" points="345.95 174.21 346.31 174.12 346.67 173.77 346.76 173.41 346.67 173.05 346.31 172.69 345.95 172.6 345.51 172.69 345.24 173.05 345.15 173.41 345.24 173.77 345.51 174.12 345.95 174.21"/><polyline class="cls-1" points="353.47 166.79 353.29 166.35 353.02 165.98 352.49 165.9"/><polyline class="cls-1" points="339.51 165.9 342.02 166.44 344.7 166.79 347.3 166.79 349.98 166.44 352.49 165.9"/><polyline class="cls-1" points="339.07 165.45 338.62 165.54 338.26 165.9 338.18 166.35"/><polyline class="cls-1" points="338.18 174.84 338.26 175.29 338.62 175.65 339.07 175.74"/><polyline class="cls-1" points="337.19 174.93 337.28 175.65 337.73 176.27 338.26 176.63 338.98 176.81"/><polyline class="cls-1" points="338.98 164.47 338.26 164.56 337.73 165 337.28 165.54 337.19 166.25"/><polyline class="cls-1" points="339.51 165.9 338.98 165.98 338.71 166.35 338.53 166.79"/><line class="cls-1" x1="353.02" y1="176.81" x2="338.98" y2="176.81"/><line class="cls-1" x1="354.81" y1="166.25" x2="354.81" y2="174.93"/><line class="cls-1" x1="353.02" y1="164.46" x2="338.98" y2="164.46"/><line class="cls-1" x1="353.92" y1="174.84" x2="353.92" y2="166.35"/><line class="cls-1" x1="352.93" y1="165.45" x2="339.07" y2="165.45"/><line class="cls-1" x1="352.93" y1="175.74" x2="339.07" y2="175.74"/><line class="cls-1" x1="337.19" y1="174.93" x2="337.19" y2="166.25"/><line class="cls-1" x1="338.17" y1="166.35" x2="338.17" y2="174.84"/><polyline class="cls-1" points="352.93 175.74 353.47 175.65 353.74 175.29 353.92 174.84"/><polyline class="cls-1" points="353.92 166.35 353.74 165.9 353.47 165.54 352.93 165.45"/><polyline class="cls-1" points="354.81 166.25 354.72 165.54 354.27 165 353.65 164.56 353.02 164.47"/><polyline class="cls-1" points="353.02 176.81 353.65 176.63 354.27 176.27 354.72 175.65 354.81 174.93"/><polygon class="cls-1" points="345.95 174.21 346.31 174.12 346.67 173.77 346.76 173.41 346.67 173.05 346.31 172.69 345.95 172.6 345.51 172.69 345.24 173.05 345.15 173.41 345.24 173.77 345.51 174.12 345.95 174.21"/><polyline class="cls-1" points="339.07 165.45 338.62 165.54 338.26 165.9 338.18 166.35"/><polyline class="cls-1" points="338.18 174.84 338.26 175.29 338.62 175.65 339.07 175.74"/><polyline class="cls-1" points="337.19 174.93 337.28 175.65 337.73 176.27 338.26 176.63 338.98 176.81"/><polyline class="cls-1" points="338.98 164.47 338.26 164.56 337.73 165 337.28 165.54 337.19 166.25"/><line class="cls-1" x1="251.96" y1="73.93" x2="312.58" y2="73.93"/><line class="cls-1" x1="320.68" y1="73.93" x2="371.23" y2="73.93"/><line class="cls-1" x1="229.06" y1="45.63" x2="419.74" y2="45.63"/><line class="cls-1" x1="57.84" y1="156.8" x2="57.84" y2="140.6"/><line class="cls-1" x1="56.53" y1="155.49" x2="56.53" y2="141.99"/><line class="cls-1" x1="55.14" y1="155.49" x2="55.14" y2="141.99"/><line class="cls-1" x1="53.83" y1="156.8" x2="53.83" y2="140.6"/><line class="cls-1" x1="313.97" y1="189.19" x2="258.67" y2="189.19"/><line class="cls-1" x1="313.97" y1="187.8" x2="258.34" y2="187.8"/><line class="cls-1" x1="313.97" y1="212.11" x2="229.06" y2="212.11"/><line class="cls-1" x1="327.47" y1="210.72" x2="327.47" y2="182.4"/><line class="cls-1" x1="334.18" y1="210.72" x2="334.18" y2="182.4"/><line class="cls-1" x1="340.88" y1="210.72" x2="340.88" y2="182.4"/><line class="cls-1" x1="313.97" y1="210.72" x2="313.97" y2="189.19"/><line class="cls-1" x1="300.47" y1="210.72" x2="300.47" y2="189.19"/><line class="cls-1" x1="307.26" y1="210.72" x2="307.26" y2="189.19"/><line class="cls-1" x1="293.76" y1="210.72" x2="293.76" y2="189.19"/><line class="cls-1" x1="222.27" y1="212.11" x2="222.27" y2="189.19"/><line class="cls-1" x1="215.56" y1="212.11" x2="215.56" y2="189.19"/><line class="cls-1" x1="208.85" y1="212.11" x2="208.85" y2="189.19"/><line class="cls-1" x1="202.06" y1="212.11" x2="202.06" y2="189.19"/><line class="cls-1" x1="195.36" y1="212.11" x2="195.36" y2="189.19"/><line class="cls-1" x1="188.64" y1="212.11" x2="188.64" y2="189.19"/><line class="cls-1" x1="188.64" y1="187.8" x2="188.64" y2="182.4"/><polyline class="cls-1" points="354.38 200.65 265.46 200.65 267.91 201.39"/><line class="cls-1" x1="265.46" y1="200.65" x2="267.91" y2="199.83"/><line class="cls-1" x1="265.46" y1="210.72" x2="265.46" y2="189.19"/><line class="cls-1" x1="272.17" y1="210.72" x2="272.17" y2="189.19"/><line class="cls-1" x1="251.96" y1="69.84" x2="251.96" y2="73.93"/><line class="cls-1" x1="253.27" y1="69.84" x2="253.27" y2="73.93"/><line class="cls-1" x1="371.23" y1="178.4" x2="320.68" y2="178.4"/><line class="cls-1" x1="130.65" y1="178.4" x2="156.25" y2="178.4"/><line class="cls-1" x1="130.65" y1="182.4" x2="156.25" y2="182.4"/><line class="cls-1" x1="141.45" y1="45.63" x2="181.86" y2="45.63"/><line class="cls-1" x1="181.86" y1="49.63" x2="141.45" y2="49.63"/><rect class="cls-1" x="179.16" y="179.05" width="1.39" height="2.7"/><rect class="cls-1" x="156.25" y="179.05" width="1.39" height="2.7"/><line class="cls-1" x1="130.65" y1="178.4" x2="130.65" y2="182.4"/><line class="cls-1" x1="129.34" y1="178.4" x2="129.34" y2="182.4"/><line class="cls-1" x1="114.45" y1="178.4" x2="114.45" y2="182.4"/><line class="cls-1" x1="115.84" y1="178.4" x2="115.84" y2="182.4"/><line class="cls-1" x1="130.65" y1="182.4" x2="114.45" y2="182.4"/><line class="cls-1" x1="129.34" y1="181.1" x2="115.84" y2="181.1"/><line class="cls-1" x1="129.34" y1="179.71" x2="115.84" y2="179.71"/><line class="cls-1" x1="130.65" y1="178.4" x2="114.45" y2="178.4"/><line class="cls-1" x1="156.25" y1="178.4" x2="156.25" y2="182.4"/><line class="cls-1" x1="114.45" y1="182.4" x2="61.93" y2="182.4"/><line class="cls-1" x1="114.45" y1="178.4" x2="61.93" y2="178.4"/><line class="cls-1" x1="57.84" y1="140.6" x2="57.84" y2="59.13"/><line class="cls-1" x1="251.96" y1="69.84" x2="312.58" y2="69.84"/><line class="cls-1" x1="320.68" y1="69.84" x2="371.23" y2="69.84"/><polyline class="cls-1" points="230.37 73.93 230.37 69.84 229.06 69.84"/><line class="cls-1" x1="230.37" y1="73.93" x2="229.06" y2="73.93"/><line class="cls-1" x1="253.27" y1="71.23" x2="288.36" y2="71.23"/><line class="cls-1" x1="289.67" y1="71.23" x2="311.27" y2="71.23"/><line class="cls-1" x1="253.27" y1="72.54" x2="288.36" y2="72.54"/><line class="cls-1" x1="289.67" y1="72.54" x2="311.27" y2="72.54"/><polyline class="cls-1" points="222.51 201.39 224.97 200.65 222.51 199.83"/><polygon class="cls-1" points="189.96 200.65 189.79 199.92 189.3 199.42 188.65 199.26 187.91 199.42 187.42 199.92 187.26 200.65 187.42 201.3 187.91 201.8 188.65 201.96 189.3 201.8 189.79 201.3 189.96 200.65"/><line class="cls-1" x1="313.97" y1="187.8" x2="313.97" y2="189.19"/><line class="cls-1" x1="152.24" y1="212.11" x2="148.89" y2="212.11"/><line class="cls-1" x1="148.89" y1="218.82" x2="148.89" y2="212.11"/><line class="cls-1" x1="188.64" y1="23.38" x2="183.25" y2="23.38"/><line class="cls-1" x1="229.06" y1="73.93" x2="222.27" y2="73.93"/><line class="cls-1" x1="53.83" y1="140.6" x2="53.83" y2="56.43"/><line class="cls-1" x1="229.06" y1="23.38" x2="229.06" y2="73.93"/><polyline class="cls-1" points="222.27 73.93 222.27 23.38 229.06 23.38"/><line class="cls-1" x1="188.64" y1="23.38" x2="222.27" y2="23.38"/><line class="cls-1" x1="222.27" y1="27.47" x2="206.15" y2="27.47"/><line class="cls-1" x1="222.27" y1="34.17" x2="206.15" y2="34.17"/><polyline class="cls-1" points="206.15 37.36 202.06 37.36 202.06 23.38"/><polyline class="cls-1" points="206.15 27.47 206.15 37.36 222.27 37.36"/><line class="cls-1" x1="322.07" y1="69.84" x2="322.07" y2="73.93"/><line class="cls-1" x1="53.83" y1="155.49" x2="57.84" y2="155.49"/><polyline class="cls-1" points="180.55 168.91 180.55 182.4 188.65 182.4"/><polyline class="cls-1" points="180.55 168.91 188.65 168.91 188.65 182.4"/><line class="cls-1" x1="5.98" y1="62.48" x2="5.98" y2="5.87"/><line class="cls-1" x1="145.45" y1="1.78" x2="1.97" y2="1.78"/><polyline class="cls-1" points="5.98 5.87 141.44 5.87 141.44 45.63"/><line class="cls-1" x1="145.45" y1="45.63" x2="145.45" y2="1.78"/><line class="cls-1" x1="53.83" y1="62.48" x2="5.98" y2="62.48"/><polyline class="cls-1" points="48.44 66.49 48.44 166.29 53.83 166.29"/><line class="cls-1" x1="181.86" y1="35.48" x2="145.45" y2="35.48"/><rect class="cls-1" x="371.23" y="168.91" width="8.1" height="13.5"/><rect class="cls-1" x="371.23" y="69.84" width="8.1" height="13.49"/><line class="cls-1" x1="187.26" y1="189.19" x2="224.97" y2="189.19"/><line class="cls-1" x1="188.64" y1="187.8" x2="224.97" y2="187.8"/><line class="cls-1" x1="229.06" y1="212.11" x2="229.06" y2="216.12"/><line class="cls-1" x1="156.25" y1="212.11" x2="152.24" y2="212.11"/><line class="cls-1" x1="152.24" y1="183.79" x2="156.25" y2="183.79"/><line class="cls-1" x1="156.25" y1="182.4" x2="156.25" y2="216.12"/><line class="cls-1" x1="154.94" y1="183.79" x2="154.94" y2="212.11"/><line class="cls-1" x1="152.24" y1="182.4" x2="152.24" y2="212.11"/><line class="cls-1" x1="153.55" y1="183.79" x2="153.55" y2="212.11"/><line class="cls-1" x1="229.06" y1="212.11" x2="156.25" y2="212.11"/><line class="cls-1" x1="156.25" y1="213.42" x2="176.46" y2="213.42"/><line class="cls-1" x1="177.85" y1="213.42" x2="204.76" y2="213.42"/><line class="cls-1" x1="206.15" y1="213.42" x2="224.97" y2="213.42"/><line class="cls-1" x1="156.25" y1="216.12" x2="224.97" y2="216.12"/><line class="cls-1" x1="156.25" y1="214.81" x2="176.46" y2="214.81"/><line class="cls-1" x1="177.85" y1="214.81" x2="204.76" y2="214.81"/><line class="cls-1" x1="206.15" y1="214.81" x2="224.97" y2="214.81"/><line class="cls-1" x1="176.46" y1="212.11" x2="176.46" y2="216.12"/><line class="cls-1" x1="177.85" y1="212.11" x2="177.85" y2="216.12"/><line class="cls-1" x1="206.15" y1="212.11" x2="206.15" y2="216.12"/><line class="cls-1" x1="204.76" y1="212.11" x2="204.76" y2="216.12"/><polyline class="cls-1" points="258.34 187.8 261.86 199.92 263.5 199.92"/><polyline class="cls-1" points="262.68 202.62 261.04 202.62 263.5 199.92"/><line class="cls-1" x1="262.68" y1="202.62" x2="265.46" y2="212.11"/><line class="cls-1" x1="189.96" y1="37.36" x2="189.96" y2="33.36"/><line class="cls-1" x1="202.06" y1="37.36" x2="188.64" y2="37.36"/><line class="cls-1" x1="202.06" y1="33.36" x2="188.64" y2="33.36"/><line class="cls-1" x1="200.75" y1="33.36" x2="200.75" y2="37.36"/><line class="cls-1" x1="189.96" y1="36.06" x2="200.75" y2="36.06"/><line class="cls-1" x1="189.96" y1="34.67" x2="200.75" y2="34.67"/><line class="cls-1" x1="311.27" y1="69.84" x2="311.27" y2="73.93"/><line class="cls-1" x1="289.67" y1="69.84" x2="289.67" y2="73.93"/><line class="cls-1" x1="288.36" y1="69.84" x2="288.36" y2="73.93"/><line class="cls-1" x1="57.84" y1="140.6" x2="53.83" y2="140.6"/><line class="cls-1" x1="57.84" y1="141.99" x2="53.83" y2="141.99"/><line class="cls-1" x1="198.06" y1="187.8" x2="198.06" y2="182.4"/><rect class="cls-1" x="250.65" y="70.58" width="1.31" height="2.7"/><path class="cls-1" d="M250.57,71.89l-.16-2.38a19.11,19.11,0,0,0-16.28-15.79l-2.37-.08"/><polyline class="cls-1" points="53.83 168.91 53.83 156.8 57.84 156.8 57.84 168.91"/><line class="cls-1" x1="152.24" y1="182.4" x2="152.24" y2="214.81"/><line class="cls-1" x1="152.24" y1="216.12" x2="229.06" y2="216.12"/><line class="cls-1" x1="251.96" y1="212.11" x2="251.96" y2="210.23"/><line class="cls-1" x1="251.96" y1="209.08" x2="251.96" y2="206.95"/><line class="cls-1" x1="251.96" y1="205.89" x2="251.96" y2="203.76"/><line class="cls-1" x1="251.96" y1="202.62" x2="251.96" y2="200.49"/><line class="cls-1" x1="251.96" y1="199.42" x2="251.96" y2="197.21"/><line class="cls-1" x1="251.96" y1="196.15" x2="251.96" y2="194.02"/><line class="cls-1" x1="251.96" y1="192.96" x2="251.96" y2="190.75"/><line class="cls-1" x1="251.96" y1="189.68" x2="251.96" y2="187.8"/><line class="cls-1" x1="245.25" y1="212.11" x2="245.25" y2="210.23"/><line class="cls-1" x1="245.25" y1="209.08" x2="245.25" y2="206.95"/><line class="cls-1" x1="245.25" y1="205.89" x2="245.25" y2="203.76"/><line class="cls-1" x1="245.25" y1="202.62" x2="245.25" y2="200.49"/><line class="cls-1" x1="245.25" y1="199.42" x2="245.25" y2="197.21"/><line class="cls-1" x1="245.25" y1="196.15" x2="245.25" y2="194.02"/><line class="cls-1" x1="245.25" y1="192.96" x2="245.25" y2="190.75"/><line class="cls-1" x1="245.25" y1="189.68" x2="245.25" y2="187.8"/><line class="cls-1" x1="238.46" y1="212.11" x2="238.46" y2="210.23"/><line class="cls-1" x1="238.46" y1="209.08" x2="238.46" y2="206.95"/><line class="cls-1" x1="238.46" y1="205.89" x2="238.46" y2="203.76"/><line class="cls-1" x1="238.46" y1="202.62" x2="238.46" y2="200.49"/><line class="cls-1" x1="238.46" y1="199.42" x2="238.46" y2="197.21"/><line class="cls-1" x1="238.46" y1="196.15" x2="238.46" y2="194.02"/><line class="cls-1" x1="238.46" y1="192.96" x2="238.46" y2="190.75"/><line class="cls-1" x1="238.46" y1="189.68" x2="238.46" y2="187.8"/><line class="cls-1" x1="231.76" y1="212.11" x2="231.76" y2="210.23"/><line class="cls-1" x1="231.76" y1="209.08" x2="231.76" y2="206.95"/><line class="cls-1" x1="231.76" y1="205.89" x2="231.76" y2="203.76"/><line class="cls-1" x1="231.76" y1="202.62" x2="231.76" y2="200.49"/><line class="cls-1" x1="231.76" y1="199.42" x2="231.76" y2="197.21"/><line class="cls-1" x1="231.76" y1="196.15" x2="231.76" y2="194.02"/><line class="cls-1" x1="231.76" y1="192.96" x2="231.76" y2="190.75"/><line class="cls-1" x1="231.76" y1="189.68" x2="231.76" y2="187.8"/><line class="cls-1" x1="258.67" y1="212.11" x2="258.67" y2="210.88"/><line class="cls-1" x1="258.67" y1="209.82" x2="258.67" y2="207.61"/><line class="cls-1" x1="258.67" y1="206.54" x2="258.67" y2="204.42"/><line class="cls-1" x1="258.67" y1="203.35" x2="258.67" y2="201.14"/><line class="cls-1" x1="258.67" y1="200.08" x2="258.67" y2="197.95"/><line class="cls-1" x1="258.67" y1="196.88" x2="258.67" y2="194.67"/><line class="cls-1" x1="258.67" y1="193.61" x2="258.67" y2="191.48"/><line class="cls-1" x1="258.67" y1="190.34" x2="258.67" y2="189.19"/><line class="cls-1" x1="229.06" y1="182.4" x2="229.06" y2="212.11"/><line class="cls-1" x1="347.67" y1="210.72" x2="347.67" y2="182.4"/><line class="cls-1" x1="354.38" y1="212.11" x2="354.38" y2="182.4"/><line class="cls-1" x1="354.38" y1="210.72" x2="265.05" y2="210.72"/><polygon class="cls-1" points="355.77 200.65 355.53 199.92 355.04 199.42 354.38 199.26 353.73 199.42 353.24 199.92 353.07 200.65 353.24 201.3 353.73 201.8 354.38 201.96 355.04 201.8 355.53 201.3 355.77 200.65"/><rect class="cls-1" x="181.86" y="23.38" width="6.79" height="50.55"/><rect class="cls-1" x="222.27" y="23.38" width="6.79" height="50.55"/><line class="cls-1" x1="229.06" y1="49.63" x2="419.74" y2="49.63"/><line class="cls-1" x1="419.74" y1="212.11" x2="419.74" y2="36.22"/><polyline class="cls-1" points="229.06 23.38 419.74 23.38 419.74 36.22"/><line class="cls-1" x1="152.24" y1="214.81" x2="152.24" y2="218.82"/><line class="cls-1" x1="53.83" y1="66.49" x2="1.97" y2="66.49"/><rect class="cls-1" x="312.58" y="69.84" width="8.1" height="13.49"/><rect class="cls-1" x="53.83" y="168.91" width="8.1" height="13.5"/><line class="cls-1" x1="382.28" y1="23.38" x2="378.02" y2="23.38"/><line class="cls-1" x1="375.81" y1="23.38" x2="371.48" y2="23.38"/><polyline class="cls-1" points="149.3 218.82 152.24 218.82 152.24 213.66"/><line class="cls-1" x1="152.24" y1="211.45" x2="152.24" y2="207.2"/><line class="cls-1" x1="152.24" y1="204.99" x2="152.24" y2="200.65"/><line class="cls-1" x1="152.24" y1="198.52" x2="152.24" y2="194.18"/><line class="cls-1" x1="152.24" y1="192.06" x2="152.24" y2="187.72"/><line class="cls-1" x1="152.24" y1="185.6" x2="152.24" y2="182.4"/><line class="cls-1" x1="427.84" y1="212.11" x2="229.06" y2="212.11"/><line class="cls-1" x1="224.97" y1="212.11" x2="224.97" y2="216.12"/><line class="cls-1" x1="226.36" y1="183.79" x2="226.36" y2="212.11"/><line class="cls-1" x1="227.67" y1="183.79" x2="227.67" y2="212.11"/><line class="cls-1" x1="224.97" y1="182.4" x2="224.97" y2="212.11"/><line class="cls-1" x1="224.97" y1="200.65" x2="188.64" y2="200.65"/><line class="cls-1" x1="258.67" y1="189.19" x2="258.67" y2="189.11"/><line class="cls-1" x1="229.06" y1="187.8" x2="230.2" y2="187.8"/><line class="cls-1" x1="231.27" y1="187.8" x2="233.39" y2="187.8"/><line class="cls-1" x1="234.54" y1="187.8" x2="236.66" y2="187.8"/><line class="cls-1" x1="237.73" y1="187.8" x2="239.94" y2="187.8"/><line class="cls-1" x1="241" y1="187.8" x2="243.13" y2="187.8"/><line class="cls-1" x1="244.19" y1="187.8" x2="246.4" y2="187.8"/><line class="cls-1" x1="247.46" y1="187.8" x2="249.59" y2="187.8"/><line class="cls-1" x1="250.65" y1="187.8" x2="252.86" y2="187.8"/><line class="cls-1" x1="253.93" y1="187.8" x2="256.05" y2="187.8"/><line class="cls-1" x1="257.12" y1="187.8" x2="258.34" y2="187.8"/><line class="cls-1" x1="187.26" y1="189.19" x2="187.26" y2="182.4"/><polyline class="cls-1" points="419.74 78.35 419.74 80.64 421.62 80.64"/><line class="cls-1" x1="422.77" y1="80.64" x2="424.9" y2="80.64"/><line class="cls-1" x1="425.96" y1="80.64" x2="427.84" y2="80.64"/><polyline class="cls-1" points="427.84 170.3 427.84 168.91 425.96 168.91"/><line class="cls-1" x1="424.9" y1="168.91" x2="422.77" y2="168.91"/><polyline class="cls-1" points="421.62 168.91 419.74 168.91 419.74 170.3"/><line class="cls-1" x1="419.74" y1="177.82" x2="419.74" y2="180.03"/><polyline class="cls-1" points="419.74 181.1 419.74 182.4 421.62 182.4"/><line class="cls-1" x1="422.77" y1="182.4" x2="424.9" y2="182.4"/><line class="cls-1" x1="425.96" y1="182.4" x2="427.84" y2="182.4"/><line class="cls-1" x1="140.05" y1="48.33" x2="117.89" y2="48.33"/><line class="cls-1" x1="141.45" y1="49.63" x2="70.03" y2="49.63"/><line class="cls-1" x1="140.05" y1="46.94" x2="117.89" y2="46.94"/><line class="cls-1" x1="141.45" y1="45.63" x2="70.03" y2="45.63"/><line class="cls-1" x1="140.05" y1="49.63" x2="140.05" y2="45.63"/><line class="cls-1" x1="141.45" y1="49.63" x2="141.45" y2="45.63"/><line class="cls-1" x1="71.34" y1="49.63" x2="71.34" y2="45.63"/><line class="cls-1" x1="94.9" y1="49.63" x2="94.9" y2="45.63"/><line class="cls-1" x1="93.59" y1="49.63" x2="93.59" y2="45.63"/><line class="cls-1" x1="117.89" y1="49.63" x2="117.89" y2="45.63"/><line class="cls-1" x1="116.49" y1="49.63" x2="116.49" y2="45.63"/><line class="cls-1" x1="116.49" y1="48.33" x2="94.9" y2="48.33"/><line class="cls-1" x1="116.49" y1="46.94" x2="94.9" y2="46.94"/><line class="cls-1" x1="93.59" y1="48.33" x2="71.34" y2="48.33"/><line class="cls-1" x1="93.59" y1="46.94" x2="71.34" y2="46.94"/><polyline class="cls-1" points="70.03 49.63 70.03 45.63 53.83 45.63"/><line class="cls-1" x1="61.93" y1="49.63" x2="70.03" y2="49.63"/><line class="cls-1" x1="427.84" y1="218.82" x2="148.89" y2="218.82"/><path class="cls-1" d="M179.16,179.05v-21.6l-2.62.17a21.54,21.54,0,0,0-18.73,18.81l-.17,2.62"/><line class="cls-1" x1="280.27" y1="174.3" x2="293.76" y2="174.3"/><line class="cls-1" x1="280.27" y1="178.4" x2="293.76" y2="178.4"/><line class="cls-1" x1="281.58" y1="174.3" x2="281.58" y2="178.4"/><line class="cls-1" x1="281.58" y1="175.7" x2="292.37" y2="175.7"/><line class="cls-1" x1="281.58" y1="177.01" x2="292.37" y2="177.01"/><line class="cls-1" x1="292.37" y1="174.3" x2="292.37" y2="178.4"/><rect class="cls-1" x="308.57" y="166.29" width="12.11" height="16.12"/><line class="cls-1" x1="308.57" y1="178.4" x2="297.77" y2="178.4"/><line class="cls-1" x1="293.76" y1="182.4" x2="293.76" y2="174.3"/><line class="cls-1" x1="297.77" y1="178.4" x2="297.77" y2="174.3"/><polygon class="cls-1" points="280.27 174.3 280.27 182.4 255.97 182.4 255.97 174.3 260.06 174.3 260.06 178.4 276.26 178.4 276.26 174.3 280.27 174.3"/><polyline class="cls-1" points="188.65 182.4 204.76 182.4 204.76 174.3 200.75 174.3 200.75 178.4 188.65 178.4"/><line class="cls-1" x1="242.56" y1="174.3" x2="255.97" y2="174.3"/><line class="cls-1" x1="242.56" y1="178.4" x2="255.97" y2="178.4"/><line class="cls-1" x1="243.86" y1="174.3" x2="243.86" y2="178.4"/><line class="cls-1" x1="243.86" y1="175.7" x2="254.66" y2="175.7"/><line class="cls-1" x1="243.86" y1="177.01" x2="254.66" y2="177.01"/><line class="cls-1" x1="254.66" y1="174.3" x2="254.66" y2="178.4"/><polygon class="cls-1" points="242.56 174.3 242.56 182.4 218.26 182.4 218.26 174.3 222.27 174.3 222.27 178.4 238.47 178.4 238.47 174.3 242.56 174.3"/><line class="cls-1" x1="204.76" y1="174.3" x2="218.26" y2="174.3"/><line class="cls-1" x1="204.76" y1="178.4" x2="218.26" y2="178.4"/><line class="cls-1" x1="206.15" y1="174.3" x2="206.15" y2="178.4"/><line class="cls-1" x1="206.15" y1="175.7" x2="216.95" y2="175.7"/><line class="cls-1" x1="206.15" y1="177.01" x2="216.95" y2="177.01"/><line class="cls-1" x1="216.95" y1="174.3" x2="216.95" y2="178.4"/><line class="cls-1" x1="293.76" y1="174.3" x2="297.77" y2="174.3"/><line class="cls-1" x1="229.06" y1="183.79" x2="224.97" y2="183.79"/><rect class="cls-1" x="53.83" y="45.63" width="8.1" height="13.5"/><line class="cls-1" x1="369.92" y1="71.23" x2="346.61" y2="71.23"/><line class="cls-1" x1="369.92" y1="72.54" x2="346.61" y2="72.54"/><line class="cls-1" x1="345.3" y1="72.54" x2="322.07" y2="72.54"/><line class="cls-1" x1="345.3" y1="71.23" x2="322.07" y2="71.23"/><line class="cls-1" x1="346.61" y1="69.84" x2="346.61" y2="73.93"/><line class="cls-1" x1="345.3" y1="69.84" x2="345.3" y2="73.93"/><line class="cls-1" x1="369.92" y1="69.84" x2="369.92" y2="73.93"/><line class="cls-1" x1="53.83" y1="140.6" x2="57.84" y2="140.6"/><line class="cls-1" x1="222.27" y1="70.66" x2="188.64" y2="70.66"/><polyline class="cls-1" points="188.65 73.93 222.27 73.93 222.27 70.66"/><line class="cls-1" x1="222.27" y1="73.93" x2="222.27" y2="73.85"/><line class="cls-1" x1="57.84" y1="159.75" x2="57.84" y2="105.84"/><line class="cls-1" x1="57.84" y1="121.79" x2="57.84" y2="105.59"/><line class="cls-1" x1="56.53" y1="120.4" x2="56.53" y2="106.98"/><line class="cls-1" x1="55.14" y1="120.4" x2="55.14" y2="106.98"/><line class="cls-1" x1="53.83" y1="121.79" x2="53.83" y2="105.59"/><line class="cls-1" x1="53.83" y1="120.4" x2="57.84" y2="120.4"/><line class="cls-1" x1="57.84" y1="105.59" x2="53.83" y2="105.59"/><line class="cls-1" x1="57.84" y1="106.98" x2="53.83" y2="106.98"/><line class="cls-1" x1="53.83" y1="121.79" x2="57.84" y2="121.79"/><line class="cls-1" x1="57.84" y1="94.22" x2="57.84" y2="67.22"/><line class="cls-1" x1="379.33" y1="49.63" x2="379.33" y2="69.84"/><line class="cls-1" x1="375.32" y1="49.63" x2="375.32" y2="69.84"/><line class="cls-1" x1="379.33" y1="106.98" x2="419.74" y2="106.98"/><line class="cls-1" x1="379.33" y1="83.34" x2="379.33" y2="106.98"/><line class="cls-1" x1="389.72" y1="155.97" x2="386.53" y2="155.97"/><line class="cls-1" x1="389.72" y1="162.35" x2="386.53" y2="162.35"/><line class="cls-1" x1="389.72" y1="162.84" x2="385.96" y2="162.84"/><line class="cls-1" x1="389.72" y1="155.48" x2="385.96" y2="155.48"/><line class="cls-1" x1="389.72" y1="154.09" x2="379.33" y2="154.09"/><line class="cls-1" x1="389.72" y1="164.23" x2="379.33" y2="164.23"/><line class="cls-1" x1="387.76" y1="160.47" x2="386.04" y2="160.47"/><line class="cls-1" x1="386.04" y1="157.85" x2="387.76" y2="157.85"/><polyline class="cls-1" points="388.08 160.31 387.92 160.47 387.76 160.47"/><polyline class="cls-1" points="387.76 157.85 387.92 157.85 388 157.94 388.25 158.18 388.41 158.43 388.49 158.75 388.58 159 388.58 159.33 388.49 159.57 388.41 159.9 388.25 160.14 388.08 160.31"/><path class="cls-1" d="M389.72,156l.57.08a3.2,3.2,0,0,1,0,6.22l-.57.08"/><path class="cls-1" d="M389.72,155.48l.65.08a3.7,3.7,0,0,1,0,7.2l-.65.08"/><path class="cls-1" d="M389.72,154.09l.9.08a5.13,5.13,0,0,1,0,10l-.9.08"/><polyline class="cls-1" points="386.04 160.47 385.79 160.47 385.63 160.39 385.47 160.23 385.39 160.06 385.31 159.98 385.31 159.82"/><polyline class="cls-1" points="385.31 158.5 385.31 158.34 385.39 158.26 385.47 158.1 385.63 157.94 385.79 157.85 386.04 157.85"/><polyline class="cls-1" points="385.31 159.82 385.22 159.16 385.31 158.5"/><polyline class="cls-1" points="386.53 162.35 386.2 162.35 385.96 162.27 385.47 161.94 385.22 161.7 385.06 161.45 384.97 161.21 384.89 160.88"/><path class="cls-1" d="M386,162.84h-.33a2.11,2.11,0,0,1-1.23-1.06l-.08-.33"/><path class="cls-1" d="M384.89,157.45l.08-.33a1.51,1.51,0,0,1,1.23-1.07l.33-.08"/><path class="cls-1" d="M384.32,156.87l.08-.25a1.67,1.67,0,0,1,1.23-1.06l.33-.08"/><polyline class="cls-1" points="384.89 160.88 384.81 159.16 384.89 157.44"/><polyline class="cls-1" points="384.32 161.45 384.16 159.16 384.32 156.87"/><line class="cls-1" x1="383.26" y1="157.12" x2="383.42" y2="157.12"/><line class="cls-1" x1="383.26" y1="161.29" x2="383.42" y2="161.29"/><path class="cls-1" d="M389.72,154.09l.9.08a5.13,5.13,0,0,1,0,10l-.9.08"/><line class="cls-1" x1="427.84" y1="36.22" x2="419.74" y2="36.22"/><line class="cls-1" x1="427.84" y1="36.22" x2="427.84" y2="218.82"/><line class="cls-1" x1="1.97" y1="1.78" x2="1.97" y2="66.49"/><rect class="cls-1" x="230.37" y="53.64" width="1.39" height="19.63"/><rect class="cls-1" x="180.55" y="125.95" width="4.75" height="42.95"/><rect class="cls-1" x="374.57" y="144.04" width="4.76" height="24.86"/><rect class="cls-1" x="379.33" y="178.39" width="40.41" height="4.02"/><line class="cls-1" x1="293.76" y1="182.4" x2="371.23" y2="182.4"/><rect class="cls-1" x="320.68" y="162.88" width="50.55" height="15.52"/><path class="cls-2" d="M341.27,110.16c2.35.35,1.65,2,.8,1.43a2.89,2.89,0,0,0-.89-1.35Zm2.87-.56c-.4,1.27-1.16,3.61-1.29,4.14a3.81,3.81,0,0,0-.15.92,10.31,10.31,0,0,1,.33,1.76c0,.48-.28.77-.69.77-.21,0-.39-.16-.43-.51.16-1,.11-1.9-.12-2.06a1,1,0,0,0-.5-.15v-.21h.44c.13,0,.17,0,.27-.2.19-.37.19-.37,2-4.51ZM342,108c2.45.41,1.73,2.12.85,1.54a3.38,3.38,0,0,0-.94-1.47Zm5.88,2.1c0,.12-.14.18-.41.2a7,7,0,0,0,3.34,2.5l0,.14a1.08,1.08,0,0,0-.73.84l-.31-.2a.67.67,0,0,1-.38.17v3.14a1.13,1.13,0,0,1-.77.22h-.16v-.75h-2.74v.6c0,.07-.28.23-.75.23h-.16v-4a9.81,9.81,0,0,1-1.37.83l-.07-.12a9.32,9.32,0,0,0,3.1-4.11Zm-3.91.73a9.09,9.09,0,0,0,1.63-2.85l1.25.58c-.06.1-.14.16-.38.13A8.07,8.07,0,0,1,344,111Zm5.19,2.28a6.49,6.49,0,0,1-1.84-2.69,8.22,8.22,0,0,1-2.37,2.63l.86.34h2.59l.45-.52Zm-.72,3v-2.39h-2.74v2.39Zm-.76-8c3.35.87,2.84,3,1.79,2.41a7.47,7.47,0,0,0-1.89-2.33Z"/><path class="cls-2" d="M349.36,127.75s.67.5,1.09.86c0,.11-.13.16-.28.16h-8.76l-.09-.29h4V127h-2.92l-.08-.29h3v-1.42l1.34.11c0,.15-.09.24-.34.28v1h1.49l.57-.7s.64.48,1.05.82c0,.12-.13.17-.27.17h-2.84v1.48h2.4Zm-6.6-6.21a1.44,1.44,0,0,1-.53,1.34.5.5,0,1,1-.5-.83,1.46,1.46,0,0,0,.7-1.31h.15a2.89,2.89,0,0,1,.14.52H346a.62.62,0,0,1-.27-.11A2.06,2.06,0,0,0,345,120l.08-.07c1.9,0,1.75,1.24,1.12,1.35H349l.52-.53.92.89a.52.52,0,0,1-.38.12,5.8,5.8,0,0,1-1,1l-.11-.06c.05-.3.11-.75.14-1.11Zm-.28,3.18a1.37,1.37,0,0,0,.31-.08,7.28,7.28,0,0,0,2.23-1.72h-2.29l-.08-.29h4.9l.54-.64s.61.44,1,.77c0,.11-.13.16-.26.16h-3.23l.78.41a.34.34,0,0,1-.39.12,13,13,0,0,1-2.51,1.31c1.11,0,2.81-.05,4.6-.12a7.89,7.89,0,0,0-1-1l.1-.08c3,.67,2.51,2.59,1.53,2.07a4.1,4.1,0,0,0-.5-.82c-1.21.2-3,.46-5,.7a.6.6,0,0,1-.28.27Z"/><rect class="cls-3" x="314.3" y="83.34" width="2.66" height="83.2"/><rect class="cls-1" x="68.36" y="73.76" width="60.61" height="76.77" transform="translate(-13.47 210.81) rotate(-90)"/><line class="cls-1" x1="70.88" y1="142.45" x2="70.88" y2="81.83"/><line class="cls-1" x1="79.78" y1="142.45" x2="79.78" y2="81.83"/><rect class="cls-1" x="54.24" y="122.95" width="24.48" height="8.79" rx="0.93" transform="translate(-60.86 193.83) rotate(-90)"/><rect class="cls-1" x="54.24" y="92.61" width="24.48" height="8.79" rx="0.92" transform="translate(-30.52 163.49) rotate(-90)"/><rect class="cls-1" x="152.65" y="68.62" width="14.17" height="2.04"/><rect class="cls-1" x="152.65" y="63.2" width="14.17" height="5.42"/><polygon class="cls-1" points="152.65 63.2 166.82 63.2 181.86 63.2 181.86 49.56 137.62 49.56 137.62 63.2 152.65 63.2"/><rect class="cls-1" x="60.28" y="64.46" width="14.94" height="14.94"/><rect class="cls-1" x="60.28" y="144.89" width="14.94" height="14.94"/><rect class="cls-4" x="247.77" y="157.56" width="4.71" height="24.19" rx="0.55" transform="translate(80.47 419.77) rotate(-90)"/><rect class="cls-4" x="247.77" y="98.5" width="4.71" height="24.19" rx="0.55" transform="translate(139.53 360.72) rotate(-90)"/><rect class="cls-4" x="257.51" y="112.95" width="4.71" height="54.35" rx="0.55"/><rect class="cls-4" x="238.71" y="148.5" width="18.12" height="19.48" rx="0.94" transform="translate(89.53 406.01) rotate(-90)"/><rect class="cls-4" x="238.71" y="130.38" width="18.12" height="19.48" rx="0.94" transform="translate(107.65 387.89) rotate(-90)"/><rect class="cls-4" x="238.71" y="112.27" width="18.12" height="19.48" rx="0.94" transform="translate(125.77 369.77) rotate(-90)"/><path class="cls-1" d="M215,127c-5.28,0-9.56,6.93-9.56,15.49a21.24,21.24,0,0,0,2.7,10.76c1.73,2.91,4.16,4.72,6.86,4.72a4.9,4.9,0,0,0,.54,0c5-.46,9-7.19,9-15.44C224.59,133.89,220.32,127,215,127Z"/><text class="cls-5" transform="translate(159.74 98.51)">雙人床</text></g></svg>