<svg xmlns="http://www.w3.org/2000/svg" viewBox="0 0 430.05 221.73"><defs><style>.cls-1,.cls-3,.cls-4{fill:none;stroke:#898989;stroke-linecap:round;stroke-linejoin:round;}.cls-1{stroke-width:0.55px;}.cls-2{fill:#898989;}.cls-3{stroke-width:0.47px;}.cls-4{stroke-width:0.5px;}</style></defs><title>room</title><g id="圖層_1" data-name="圖層 1"><line class="cls-1" x1="218.09" y1="50.06" x2="277.92" y2="50.06"/><line class="cls-1" x1="304.84" y1="30.92" x2="277.92" y2="30.92"/><line class="cls-1" x1="274.34" y1="81.36" x2="274.34" y2="109.35"/><rect class="cls-1" x="137.42" y="173.66" width="133.08" height="4.47"/><line class="cls-1" x1="76.06" y1="211.04" x2="55.13" y2="211.04"/><line class="cls-1" x1="13.99" y1="116.15" x2="13.99" y2="15.98"/><line class="cls-1" x1="268.97" y1="17.32" x2="268.97" y2="12.76"/><line class="cls-1" x1="255.47" y1="6.23" x2="255.47" y2="1.76"/><line class="cls-1" x1="225.6" y1="1.76" x2="225.6" y2="26.45"/><line class="cls-1" x1="233.11" y1="6.23" x2="233.11" y2="13.75"/><line class="cls-1" x1="225.6" y1="1.76" x2="231.59" y2="1.76"/><line class="cls-1" x1="270.49" y1="1.76" x2="277.92" y2="1.76"/><line class="cls-1" x1="134.37" y1="211.04" x2="240.53" y2="211.04"/><line class="cls-1" x1="149.31" y1="211.04" x2="149.31" y2="185.64"/><line class="cls-1" x1="141.89" y1="211.04" x2="141.89" y2="185.64"/><line class="cls-1" x1="134.37" y1="211.04" x2="134.37" y2="185.64"/><line class="cls-1" x1="156.82" y1="211.04" x2="156.82" y2="185.64"/><line class="cls-1" x1="164.33" y1="211.04" x2="164.33" y2="185.64"/><line class="cls-1" x1="171.76" y1="211.04" x2="171.76" y2="185.64"/><line class="cls-1" x1="179.27" y1="211.04" x2="179.27" y2="185.64"/><line class="cls-1" x1="5.05" y1="211.04" x2="314.59" y2="211.04"/><polyline class="cls-1" points="112.55 199.06 182.76 199.06 179.99 199.95"/><line class="cls-1" x1="182.76" y1="199.06" x2="179.99" y2="198.16"/><polygon class="cls-1" points="114.07 199.06 113.89 198.34 113.36 197.8 112.55 197.54 111.84 197.8 111.3 198.34 111.03 199.06 111.3 199.86 111.84 200.4 112.55 200.58 113.36 200.4 113.89 199.86 114.07 199.06"/><polyline class="cls-1" points="5.05 218.46 314.59 218.46 314.59 211.04"/><line class="cls-1" x1="112.55" y1="178.13" x2="112.55" y2="211.04"/><line class="cls-1" x1="149.31" y1="184.12" x2="149.31" y2="178.13"/><line class="cls-1" x1="405" y1="173.66" x2="352.68" y2="173.66"/><line class="cls-1" x1="405" y1="178.13" x2="352.68" y2="178.13"/><line class="cls-1" x1="334.71" y1="178.13" x2="279.44" y2="178.13"/><line class="cls-1" x1="322.82" y1="30.92" x2="322.82" y2="20.45"/><polyline class="cls-1" points="318.25 20.45 318.25 26.45 304.84 26.45"/><line class="cls-1" x1="322.82" y1="20.45" x2="318.25" y2="20.45"/><line class="cls-1" x1="304.84" y1="30.92" x2="322.82" y2="30.92"/><rect class="cls-1" x="303.32" y="27.16" width="1.52" height="2.95"/><polyline class="cls-1" points="187.14 184.12 183.21 197.54 181.42 197.54"/><polyline class="cls-1" points="182.31 200.58 184.1 200.58 181.42 197.54"/><line class="cls-1" x1="182.31" y1="200.58" x2="179.27" y2="211.04"/><line class="cls-1" x1="5.05" y1="211.04" x2="5.05" y2="218.46"/><line class="cls-1" x1="9.52" y1="178.13" x2="9.52" y2="211.04"/><line class="cls-1" x1="13.99" y1="178.13" x2="13.99" y2="211.04"/><polyline class="cls-1" points="13.99 15.98 5.05 15.98 5.05 116.15"/><polyline class="cls-1" points="13.99 148.97 13.99 178.13 5.05 178.13"/><polyline class="cls-1" points="13.99 148.97 5.05 148.97 5.05 178.13"/><line class="cls-1" x1="270.49" y1="5.34" x2="255.47" y2="5.34"/><polyline class="cls-1" points="304.84 30.92 304.84 26.45 277.92 26.45"/><line class="cls-1" x1="231.59" y1="1.76" x2="255.47" y2="1.76"/><line class="cls-1" x1="233.11" y1="6.23" x2="251" y2="6.23"/><line class="cls-1" x1="233.11" y1="13.75" x2="251" y2="13.75"/><line class="cls-1" x1="255.47" y1="17.32" x2="270.49" y2="17.32"/><line class="cls-1" x1="255.47" y1="12.76" x2="270.49" y2="12.76"/><line class="cls-1" x1="255.47" y1="6.23" x2="255.47" y2="17.32"/><line class="cls-1" x1="256.99" y1="12.76" x2="256.99" y2="17.32"/><line class="cls-1" x1="251" y1="6.23" x2="251" y2="13.75"/><line class="cls-1" x1="233.11" y1="17.32" x2="251" y2="17.32"/><line class="cls-1" x1="123.91" y1="178.13" x2="114.97" y2="178.13"/><line class="cls-1" x1="13.99" y1="116.15" x2="5.05" y2="116.15"/><line class="cls-1" x1="251" y1="17.32" x2="255.47" y2="17.32"/><line class="cls-1" x1="268.97" y1="15.8" x2="256.99" y2="15.8"/><line class="cls-1" x1="268.97" y1="14.28" x2="256.99" y2="14.28"/><line class="cls-1" x1="334.71" y1="173.66" x2="279.44" y2="173.66"/><line class="cls-1" x1="79.82" y1="211.04" x2="75.35" y2="211.04"/><line class="cls-1" x1="79.82" y1="187.07" x2="75.35" y2="187.07"/><polygon class="cls-1" points="75.35 211.04 75.35 210.15 76.24 210.15 76.24 209.25 78.3 209.25 78.3 211.04 75.35 211.04"/><polygon class="cls-1" points="75.35 187.07 75.35 188.06 76.24 188.06 76.24 188.95 78.3 188.95 78.3 187.07 75.35 187.07"/><polyline class="cls-1" points="53.17 210.15 75.35 210.15 75.35 209.25 53.17 209.25"/><path class="cls-1" d="M75.35,188.06l-2.69.09a22.2,22.2,0,0,0-19.31,19.31l-.18,2.69"/><line class="cls-1" x1="334.71" y1="178.13" x2="334.71" y2="173.66"/><polyline class="cls-1" points="352.68 173.66 352.68 178.13 334.7 178.13"/><line class="cls-1" x1="334.71" y1="173.66" x2="352.68" y2="173.66"/><line class="cls-1" x1="336.5" y1="173.66" x2="336.5" y2="177.23"/><line class="cls-1" x1="350.9" y1="173.66" x2="350.9" y2="177.23"/><line class="cls-1" x1="336.5" y1="174.82" x2="350.9" y2="174.82"/><line class="cls-1" x1="336.5" y1="176.07" x2="350.9" y2="176.07"/><line class="cls-1" x1="334.71" y1="177.23" x2="352.68" y2="177.23"/><line class="cls-1" x1="149.31" y1="178.13" x2="132.94" y2="178.13"/><polyline class="cls-1" points="58.89 169.45 58.89 172.14 62.11 172.14"/><polyline class="cls-1" points="67.84 169.45 67.84 172.14 64.61 172.14"/><line class="cls-1" x1="425.93" y1="155.68" x2="415.47" y2="155.68"/><line class="cls-1" x1="425.93" y1="160.24" x2="419.94" y2="160.24"/><line class="cls-1" x1="415.47" y1="155.68" x2="415.47" y2="169.18"/><line class="cls-1" x1="419.94" y1="160.24" x2="419.94" y2="169.18"/><line class="cls-1" x1="425.93" y1="155.68" x2="425.93" y2="160.24"/><rect class="cls-1" x="405" y="169.18" width="14.94" height="8.95"/><line class="cls-1" x1="318.25" y1="26.45" x2="318.25" y2="21.26"/><rect class="cls-1" x="225.6" y="26.45" width="7.51" height="23.61"/><rect class="cls-1" x="270.49" y="26.45" width="7.42" height="23.61"/><line class="cls-1" x1="277.92" y1="26.45" x2="277.92" y2="1.76"/><line class="cls-1" x1="270.49" y1="26.45" x2="270.49" y2="1.76"/><line class="cls-1" x1="233.11" y1="17.32" x2="233.11" y2="26.45"/><rect class="cls-1" x="270.49" y="160.24" width="8.94" height="17.89"/><line class="cls-1" x1="132.94" y1="178.13" x2="123.91" y2="178.13"/><polyline class="cls-1" points="112.55 173.66 123.91 173.66 117.03 173.66"/><polyline class="cls-1" points="123.91 178.13 112.55 178.13 112.55 160.24"/><line class="cls-1" x1="116.13" y1="163.82" x2="116.13" y2="173.66"/><rect class="cls-1" x="123.91" y="160.24" width="13.5" height="17.89"/><line class="cls-1" x1="112.55" y1="160.24" x2="123.91" y2="160.24"/><line class="cls-1" x1="116.13" y1="163.82" x2="123.91" y2="163.82"/><line class="cls-1" x1="13.99" y1="170.71" x2="13.99" y2="165.52"/><line class="cls-1" x1="14.09" y1="172.14" x2="75.35" y2="172.14"/><line class="cls-1" x1="79.82" y1="168.47" x2="79.82" y2="187.07"/><line class="cls-1" x1="75.35" y1="172.14" x2="75.35" y2="187.07"/><line class="cls-1" x1="79.82" y1="168.47" x2="14.09" y2="168.47"/><line class="cls-1" x1="421.46" y1="155.68" x2="421.46" y2="38.34"/><line class="cls-1" x1="425.93" y1="155.68" x2="425.93" y2="38.34"/><line class="cls-1" x1="411" y1="20.45" x2="322.82" y2="20.45"/><line class="cls-1" x1="411" y1="24.93" x2="322.82" y2="24.93"/><polyline class="cls-1" points="324.24 24.93 324.24 20.45 322.82 20.45"/><line class="cls-1" x1="322.82" y1="24.93" x2="324.24" y2="24.93"/><line class="cls-1" x1="422.98" y1="154.25" x2="422.98" y2="126.61"/><line class="cls-1" x1="422.98" y1="125.09" x2="422.98" y2="97.46"/><line class="cls-1" x1="422.98" y1="95.94" x2="422.98" y2="68.3"/><line class="cls-1" x1="422.98" y1="66.78" x2="422.98" y2="39.86"/><line class="cls-1" x1="424.41" y1="154.25" x2="424.41" y2="126.61"/><line class="cls-1" x1="424.41" y1="125.09" x2="424.41" y2="97.46"/><line class="cls-1" x1="424.41" y1="95.94" x2="424.41" y2="68.3"/><line class="cls-1" x1="424.41" y1="66.78" x2="424.41" y2="39.86"/><line class="cls-1" x1="425.93" y1="38.34" x2="421.46" y2="38.34"/><line class="cls-1" x1="425.93" y1="66.78" x2="421.46" y2="66.78"/><line class="cls-1" x1="425.93" y1="68.3" x2="421.46" y2="68.3"/><line class="cls-1" x1="425.93" y1="39.86" x2="421.46" y2="39.86"/><line class="cls-1" x1="425.93" y1="154.25" x2="421.46" y2="154.25"/><line class="cls-1" x1="425.93" y1="125.09" x2="421.46" y2="125.09"/><line class="cls-1" x1="425.93" y1="126.61" x2="421.46" y2="126.61"/><line class="cls-1" x1="425.93" y1="95.94" x2="421.46" y2="95.94"/><line class="cls-1" x1="425.93" y1="97.46" x2="421.46" y2="97.46"/><line class="cls-1" x1="409.47" y1="23.41" x2="345.17" y2="23.41"/><line class="cls-1" x1="409.47" y1="21.88" x2="345.17" y2="21.88"/><line class="cls-1" x1="343.74" y1="21.88" x2="324.24" y2="21.88"/><line class="cls-1" x1="324.24" y1="24.93" x2="324.24" y2="20.45"/><line class="cls-1" x1="345.17" y1="24.93" x2="345.17" y2="20.45"/><line class="cls-1" x1="343.74" y1="24.93" x2="343.74" y2="20.45"/><line class="cls-1" x1="409.47" y1="24.93" x2="409.47" y2="20.45"/><line class="cls-1" x1="343.74" y1="23.41" x2="324.24" y2="23.41"/><rect class="cls-1" x="122.48" y="26.45" width="1.43" height="4.47"/><line class="cls-1" x1="123.91" y1="30.92" x2="13.99" y2="30.92"/><line class="cls-1" x1="122.48" y1="27.88" x2="98.51" y2="27.88"/><line class="cls-1" x1="96.99" y1="27.88" x2="40.92" y2="27.88"/><rect class="cls-1" x="39.48" y="26.45" width="1.43" height="4.47"/><rect class="cls-1" x="13.99" y="26.45" width="1.52" height="4.47"/><line class="cls-1" x1="39.48" y1="27.88" x2="15.52" y2="27.88"/><line class="cls-1" x1="13.99" y1="27.88" x2="13.99" y2="27.79"/><line class="cls-1" x1="13.99" y1="29.4" x2="13.99" y2="29.31"/><line class="cls-1" x1="39.48" y1="29.4" x2="15.52" y2="29.4"/><line class="cls-1" x1="122.48" y1="29.4" x2="98.51" y2="29.4"/><line class="cls-1" x1="96.99" y1="29.4" x2="40.92" y2="29.4"/><line class="cls-1" x1="123.91" y1="26.45" x2="13.99" y2="26.45"/><rect class="cls-1" x="96.99" y="26.45" width="1.52" height="4.47"/><rect class="cls-1" x="224.08" y="26.45" width="1.52" height="4.47"/><rect class="cls-1" x="141.89" y="26.45" width="1.52" height="4.47"/><rect class="cls-1" x="411" y="20.45" width="14.93" height="17.88"/><line class="cls-1" x1="411" y1="38.34" x2="411" y2="35.66"/><line class="cls-1" x1="411" y1="33.24" x2="411" y2="28.5"/><polyline class="cls-1" points="411 26.09 411 23.41 414.31 23.41"/><polyline class="cls-1" points="416.73 23.41 419.94 23.41 419.94 26.09"/><line class="cls-1" x1="419.94" y1="28.5" x2="419.94" y2="33.24"/><polyline class="cls-1" points="419.94 35.66 419.94 38.34 416.73 38.34"/><line class="cls-1" x1="414.3" y1="38.34" x2="411" y2="38.34"/><line class="cls-1" x1="9.52" y1="179.65" x2="13.99" y2="179.65"/><line class="cls-1" x1="9.52" y1="197.54" x2="9.52" y2="178.13"/><line class="cls-1" x1="13.99" y1="197.54" x2="13.99" y2="178.13"/><line class="cls-1" x1="13.99" y1="196.1" x2="9.52" y2="196.1"/><line class="cls-1" x1="11.04" y1="179.65" x2="11.04" y2="196.1"/><line class="cls-1" x1="12.56" y1="179.65" x2="12.56" y2="196.1"/><line class="cls-1" x1="13.99" y1="197.54" x2="9.52" y2="197.54"/><rect class="cls-1" x="2.87" y="155.52" width="1.16" height="41.12"/><polyline class="cls-1" points="9.39 200.31 4.03 200.31 4.03 196.64 9.39 196.64"/><rect class="cls-1" x="303.32" y="178.13" width="4.47" height="32.91"/><line class="cls-1" x1="45.21" y1="173.03" x2="46.46" y2="174.19"/><line class="cls-1" x1="56.39" y1="172.23" x2="44.4" y2="172.23"/><line class="cls-1" x1="53.17" y1="173.03" x2="53.17" y2="174.19"/><line class="cls-1" x1="45.21" y1="179.29" x2="46.37" y2="178.04"/><line class="cls-1" x1="56.12" y1="180.01" x2="44.67" y2="180.01"/><line class="cls-1" x1="44.4" y1="179.74" x2="44.4" y2="172.23"/><line class="cls-1" x1="56.39" y1="179.74" x2="56.39" y2="172.23"/><polyline class="cls-1" points="44.4 179.74 44.49 179.92 44.67 180.01"/><polyline class="cls-1" points="56.12 180.01 56.3 179.92 56.39 179.74"/><line class="cls-1" x1="44.94" y1="179.02" x2="44.94" y2="173.21"/><polyline class="cls-1" points="45.39 172.76 45.12 172.85 44.94 173.21"/><line class="cls-1" x1="53.35" y1="179.02" x2="53.35" y2="173.21"/><polyline class="cls-1" points="52.9 179.47 53.26 179.38 53.35 179.02"/><line class="cls-1" x1="45.39" y1="172.76" x2="52.9" y2="172.76"/><polyline class="cls-1" points="53.35 173.21 53.26 172.85 52.9 172.76"/><line class="cls-1" x1="45.39" y1="179.47" x2="52.9" y2="179.47"/><polyline class="cls-1" points="44.94 179.02 45.12 179.38 45.39 179.47"/><polyline class="cls-1" points="52.9 178.04 53.26 177.95 53.35 177.59"/><line class="cls-1" x1="52.9" y1="178.04" x2="46.82" y2="178.04"/><polyline class="cls-1" points="46.37 177.59 46.46 177.95 46.82 178.04"/><line class="cls-1" x1="46.37" y1="177.59" x2="46.37" y2="174.64"/><polyline class="cls-1" points="46.82 174.19 46.46 174.28 46.37 174.64"/><line class="cls-1" x1="46.82" y1="174.19" x2="52.9" y2="174.19"/><polyline class="cls-1" points="53.35 174.64 53.26 174.28 52.9 174.19"/><line class="cls-1" x1="53.17" y1="179.2" x2="53.17" y2="178.04"/><polyline class="cls-1" points="32.87 177.5 28.39 177.68 23.92 177.5"/><path class="cls-1" d="M33.94,176.52v.18a1.24,1.24,0,0,1-.81.8h-.26"/><path class="cls-1" d="M23.92,177.5h-.18a1.15,1.15,0,0,1-.89-.8v-.18"/><path class="cls-1" d="M28,175.18v-.27H28v-.09h.09v-.09h.44l.09.09h.09v.09h.09V175c0,.27,0,.57-.36.53l-.09.09-.09-.09h-.17v-.09H28v-.09H28Z"/><path class="cls-1" d="M33.94,176.52l-.09-2.86a1.62,1.62,0,0,0-1.52-1.43H24.55a1.47,1.47,0,0,0-1.61,1.43l-.09,2.86"/><line class="cls-1" x1="33.94" y1="187.34" x2="33.94" y2="176.61"/><path class="cls-1" d="M22.85,176.61v10.73a5.57,5.57,0,0,0,10.91,1.43l.18-1.43"/><path class="cls-1" d="M24.55,187.34l.18,1.16a3.84,3.84,0,0,0,7.33,0l.18-1.16"/><path class="cls-1" d="M24.91,187.34l.18,1.07a3.49,3.49,0,0,0,6.62,0l.17-1.07"/><polyline class="cls-1" points="32.33 183.49 32.24 182.87 31.88 182.33 31.35 181.88 30.72 181.71"/><polyline class="cls-1" points="26.07 181.71 25.44 181.88 24.91 182.33 24.64 182.87 24.46 183.49"/><polyline class="cls-1" points="30.72 181.71 28.39 181.53 26.07 181.71"/><line class="cls-1" x1="32.33" y1="183.49" x2="32.24" y2="187.34"/><line class="cls-1" x1="24.55" y1="187.34" x2="24.46" y2="183.49"/><polyline class="cls-1" points="31.79 183.94 31.7 183.41 31.43 182.87 30.99 182.51 30.45 182.33 28.39 182.15 26.34 182.33"/><line class="cls-1" x1="31.88" y1="187.34" x2="31.79" y2="183.94"/><polyline class="cls-1" points="26.34 182.33 25.8 182.51 25.35 182.87 25.09 183.41 24.99 183.94 24.91 187.34"/><polyline class="cls-1" points="29.29 182.78 28.39 182.6 27.41 182.78"/><line class="cls-1" x1="28.39" y1="187.7" x2="29.2" y2="187.52"/><polyline class="cls-1" points="30.01 186.71 30.27 185.46 30.36 184.21"/><polyline class="cls-1" points="29.2 187.52 29.65 187.25 30.01 186.71"/><polyline class="cls-1" points="30.36 184.21 30.18 183.58 29.83 183.14 29.29 182.78"/><polyline class="cls-1" points="26.43 184.21 26.52 185.46 26.78 186.71"/><polyline class="cls-1" points="27.5 182.78 26.96 183.14 26.61 183.58 26.43 184.21"/><polyline class="cls-1" points="26.78 186.71 27.14 187.25 27.68 187.52 28.39 187.7"/><line class="cls-1" x1="226.49" y1="116.86" x2="226.49" y2="114.27"/><polyline class="cls-1" points="226.49 111.94 226.49 109.35 221.75 109.35"/><polyline class="cls-1" points="219.34 109.35 214.51 109.35 214.51 111.94"/><polyline class="cls-1" points="214.51 114.27 214.51 116.86 219.34 116.86"/><line class="cls-1" x1="221.75" y1="116.86" x2="226.49" y2="116.86"/><line class="cls-1" x1="265.93" y1="116.86" x2="265.93" y2="114.27"/><polyline class="cls-1" points="265.93 111.94 265.93 109.35 270.77 109.35"/><polyline class="cls-1" points="273.18 109.35 277.92 109.35 277.92 111.94"/><polyline class="cls-1" points="277.92 114.27 277.92 116.86 273.18 116.86"/><line class="cls-1" x1="270.77" y1="116.86" x2="265.93" y2="116.86"/><polyline class="cls-1" points="214.51 116.86 277.92 116.86 277.92 109.35"/><line class="cls-1" x1="218.09" y1="109.35" x2="218.09" y2="50.06"/><line class="cls-1" x1="214.51" y1="50.06" x2="214.51" y2="116.86"/><line class="cls-1" x1="235.08" y1="50.32" x2="235.08" y2="109.35"/><line class="cls-1" x1="214.51" y1="50.06" x2="218.09" y2="50.06"/><line class="cls-1" x1="214.51" y1="116.86" x2="218.09" y2="116.86"/><line class="cls-1" x1="220.5" y1="72.77" x2="220.5" y2="86.81"/><line class="cls-1" x1="231.06" y1="70.98" x2="222.38" y2="70.98"/><line class="cls-1" x1="232.84" y1="72.77" x2="232.84" y2="86.81"/><line class="cls-1" x1="222.47" y1="71.88" x2="230.97" y2="71.88"/><line class="cls-1" x1="231.86" y1="72.86" x2="231.86" y2="86.72"/><line class="cls-1" x1="221.57" y1="72.86" x2="221.57" y2="86.72"/><line class="cls-1" x1="222.38" y1="88.6" x2="231.06" y2="88.6"/><line class="cls-1" x1="230.97" y1="87.62" x2="222.47" y2="87.62"/><polyline class="cls-1" points="222.47 71.88 222.02 72.06 221.66 72.33 221.57 72.86"/><polyline class="cls-1" points="231.86 72.86 231.77 72.33 231.41 72.06 230.97 71.88"/><polyline class="cls-1" points="232.84 72.77 232.75 72.15 232.31 71.52 231.77 71.07 231.06 70.98"/><polyline class="cls-1" points="222.38 70.98 221.66 71.07 221.04 71.52 220.68 72.15 220.5 72.77"/><polygon class="cls-1" points="224.7 79.84 224.62 79.48 224.26 79.12 223.9 79.03 223.45 79.12 223.18 79.48 223.1 79.84 223.18 80.29 223.45 80.55 223.9 80.64 224.26 80.55 224.62 80.29 224.7 79.84"/><polyline class="cls-1" points="231.41 73.31 231.32 72.77 230.97 72.51 230.52 72.33"/><polyline class="cls-1" points="231.41 73.31 230.78 75.81 230.52 78.5 230.52 81.09 230.78 83.77 231.41 86.28"/><polyline class="cls-1" points="230.97 87.62 231.41 87.53 231.77 87.17 231.86 86.72"/><polyline class="cls-1" points="221.57 86.72 221.66 87.17 222.02 87.53 222.47 87.62"/><polyline class="cls-1" points="220.5 86.81 220.68 87.53 221.04 88.06 221.66 88.51 222.38 88.6"/><polyline class="cls-1" points="231.06 88.6 231.77 88.51 232.31 88.06 232.75 87.53 232.84 86.81"/><polyline class="cls-1" points="230.52 87.26 230.97 87.08 231.32 86.81 231.41 86.28"/><line class="cls-1" x1="220.5" y1="72.77" x2="220.5" y2="86.81"/><line class="cls-1" x1="231.06" y1="70.98" x2="222.38" y2="70.98"/><line class="cls-1" x1="232.84" y1="72.77" x2="232.84" y2="86.81"/><line class="cls-1" x1="222.47" y1="71.88" x2="230.97" y2="71.88"/><line class="cls-1" x1="231.86" y1="72.86" x2="231.86" y2="86.72"/><line class="cls-1" x1="221.57" y1="72.86" x2="221.57" y2="86.72"/><line class="cls-1" x1="222.38" y1="88.6" x2="231.06" y2="88.6"/><line class="cls-1" x1="230.97" y1="87.62" x2="222.47" y2="87.62"/><polyline class="cls-1" points="222.47 71.88 222.02 72.06 221.66 72.33 221.57 72.86"/><polyline class="cls-1" points="231.86 72.86 231.77 72.33 231.41 72.06 230.97 71.88"/><polyline class="cls-1" points="232.84 72.77 232.75 72.15 232.31 71.52 231.77 71.07 231.06 70.98"/><polyline class="cls-1" points="222.38 70.98 221.66 71.07 221.04 71.52 220.68 72.15 220.5 72.77"/><polygon class="cls-1" points="224.7 79.84 224.62 79.48 224.26 79.12 223.9 79.03 223.45 79.12 223.18 79.48 223.1 79.84 223.18 80.29 223.45 80.55 223.9 80.64 224.26 80.55 224.62 80.29 224.7 79.84"/><polyline class="cls-1" points="230.97 87.62 231.41 87.53 231.77 87.17 231.86 86.72"/><polyline class="cls-1" points="221.57 86.72 221.66 87.17 222.02 87.53 222.47 87.62"/><polyline class="cls-1" points="220.5 86.81 220.68 87.53 221.04 88.06 221.66 88.51 222.38 88.6"/><polyline class="cls-1" points="231.06 88.6 231.77 88.51 232.31 88.06 232.75 87.53 232.84 86.81"/><line class="cls-1" x1="259.94" y1="97.9" x2="259.94" y2="101.39"/><line class="cls-1" x1="252.88" y1="97.9" x2="252.88" y2="101.39"/><line class="cls-1" x1="252.34" y1="97.9" x2="252.34" y2="102.02"/><line class="cls-1" x1="260.47" y1="97.9" x2="260.47" y2="102.02"/><line class="cls-1" x1="262" y1="97.9" x2="262" y2="109.35"/><line class="cls-1" x1="250.82" y1="97.9" x2="250.82" y2="109.35"/><line class="cls-1" x1="254.93" y1="100.05" x2="254.93" y2="101.93"/><line class="cls-1" x1="257.88" y1="101.93" x2="257.88" y2="100.05"/><polyline class="cls-1" points="255.12 99.69 254.93 99.87 254.93 100.05"/><polyline class="cls-1" points="257.88 100.05 257.88 99.96 257.8 99.87 257.8 99.78 257.44 99.42 257.17 99.25 256.9 99.16 255.92 99.16 255.65 99.25 255.38 99.42 255.12 99.69"/><path class="cls-1" d="M259.94,97.9l-.09-.62c-.73-3.69-6.19-3.72-6.89,0l-.08.62"/><path class="cls-1" d="M260.47,97.9l-.08-.71a4.07,4.07,0,0,0-8,0l-.09.71"/><polyline class="cls-1" points="254.93 101.93 254.93 102.11 255.02 102.2 255.02 102.38 255.12 102.47 255.29 102.56 255.38 102.65 255.56 102.73 255.65 102.83"/><polyline class="cls-1" points="257.17 102.83 257.26 102.73 257.44 102.65 257.52 102.56 257.7 102.47 257.8 102.38 257.8 102.2 257.88 102.11 257.88 101.93"/><line class="cls-1" x1="255.65" y1="102.82" x2="257.17" y2="102.82"/><path class="cls-1" d="M252.88,101.39v.36a1.69,1.69,0,0,0,1.25,1.34l.36.09"/><polyline class="cls-1" points="252.34 102.02 252.34 102.38 252.43 102.65 252.97 103.45 253.23 103.63 253.5 103.72 253.86 103.81"/><path class="cls-1" d="M258.33,103.18l.36-.09c.85-.34.94-.47,1.16-1.34l.09-.36"/><polyline class="cls-1" points="258.96 103.81 259.23 103.72 259.59 103.63 260.03 103.18 260.21 102.91 260.39 102.38 260.48 102.02"/><polyline class="cls-1" points="254.49 103.18 256.37 103.36 258.33 103.18"/><polyline class="cls-1" points="253.86 103.81 256.37 104.08 258.96 103.81"/><line class="cls-1" x1="262" y1="109.35" x2="250.82" y2="109.35"/><path class="cls-1" d="M262,97.9l-.09-1c-1.19-5.87-9.8-6-11,0l-.09,1"/><line class="cls-1" x1="274.34" y1="52.47" x2="274.34" y2="50.06"/><line class="cls-1" x1="218.09" y1="50.32" x2="218.09" y2="50.06"/><line class="cls-1" x1="214.51" y1="109.35" x2="277.92" y2="109.35"/><line class="cls-1" x1="225.6" y1="26.45" x2="141.89" y2="26.45"/><line class="cls-1" x1="225.6" y1="30.92" x2="141.89" y2="30.92"/><rect class="cls-1" x="168.81" y="26.45" width="1.43" height="4.47"/><line class="cls-1" x1="168.81" y1="27.88" x2="143.41" y2="27.88"/><line class="cls-1" x1="168.81" y1="29.4" x2="143.41" y2="29.4"/><line class="cls-1" x1="224.08" y1="27.88" x2="197.16" y2="27.88"/><line class="cls-1" x1="195.73" y1="27.88" x2="170.24" y2="27.88"/><line class="cls-1" x1="224.08" y1="29.4" x2="197.16" y2="29.4"/><line class="cls-1" x1="195.73" y1="29.4" x2="170.24" y2="29.4"/><rect class="cls-1" x="195.73" y="26.45" width="1.43" height="4.47"/><line class="cls-1" x1="274.34" y1="81.36" x2="277.92" y2="81.36"/><polyline class="cls-1" points="277.92 54.17 274.34 54.17 274.34 50.06"/><polyline class="cls-1" points="274.34 109.35 277.92 109.35 277.92 81.36"/><line class="cls-1" x1="277.92" y1="54.17" x2="277.92" y2="50.06"/><line class="cls-1" x1="277.92" y1="81.36" x2="280.96" y2="81.36"/><line class="cls-1" x1="276.4" y1="118.39" x2="279.44" y2="118.39"/><polyline class="cls-1" points="280.96 81.36 280.96 116.86 277.92 116.86"/><line class="cls-1" x1="277.92" y1="82.79" x2="280.96" y2="82.79"/><line class="cls-1" x1="279.44" y1="160.24" x2="279.44" y2="142.26"/><line class="cls-1" x1="274.96" y1="160.24" x2="274.96" y2="142.26"/><line class="cls-1" x1="279.44" y1="118.39" x2="274.96" y2="118.39"/><line class="cls-1" x1="279.44" y1="142.26" x2="274.96" y2="142.26"/><polygon class="cls-1" points="274.96 118.39 274.96 119.28 275.86 119.28 275.86 120.17 277.92 120.17 277.92 118.39 274.96 118.39"/><polygon class="cls-1" points="274.96 142.26 274.96 141.37 275.86 141.37 275.86 140.48 277.92 140.48 277.92 142.26 274.96 142.26"/><polyline class="cls-1" points="252.78 141.37 274.96 141.37 274.96 140.48 252.78 140.48"/><path class="cls-1" d="M275,119.28l-2.68.18A22.09,22.09,0,0,0,253,138.78l-.17,2.59"/><polyline class="cls-1" points="37.6 146.6 9.52 146.6 9.52 145.46 37.53 145.46"/><path class="cls-1" d="M9.52,118.62l3.4.23a28,28,0,0,1,24.46,24.46l.22,3.29"/><line class="cls-1" x1="276.4" y1="118.39" x2="276.4" y2="116.86"/><line class="cls-1" x1="279.44" y1="118.39" x2="279.44" y2="116.86"/><line class="cls-1" x1="328.8" y1="24.93" x2="328.8" y2="173.66"/><line class="cls-1" x1="279.44" y1="158.72" x2="279.44" y2="173.66"/><line class="cls-1" x1="9.52" y1="200.93" x2="9.52" y2="210.59"/><line class="cls-1" x1="245.28" y1="210.97" x2="245.28" y2="185.57"/><line class="cls-1" x1="237.76" y1="210.97" x2="237.76" y2="185.57"/><line class="cls-1" x1="230.25" y1="210.97" x2="230.25" y2="185.57"/><line class="cls-1" x1="222.74" y1="210.97" x2="222.74" y2="185.57"/><line class="cls-1" x1="215.23" y1="210.97" x2="215.23" y2="185.57"/><line class="cls-1" x1="207.71" y1="210.97" x2="207.71" y2="185.57"/><line class="cls-1" x1="252.7" y1="210.97" x2="252.7" y2="185.57"/><line class="cls-1" x1="260.21" y1="210.97" x2="260.21" y2="185.57"/><line class="cls-1" x1="267.64" y1="210.97" x2="267.64" y2="185.57"/><line class="cls-1" x1="275.15" y1="210.97" x2="275.15" y2="185.57"/><rect class="cls-1" x="134.37" y="184.1" width="140.77" height="1.48"/><rect class="cls-1" x="6.45" y="116.15" width="6.14" height="2.47"/><rect class="cls-1" x="6.45" y="146.6" width="6.14" height="2.38"/><line class="cls-1" x1="277.92" y1="54.17" x2="277.92" y2="81.36"/><polygon class="cls-1" points="132.85 26.45 132.85 15.98 123.91 15.98 123.91 26.45 123.91 28.68 123.91 35.39 141.89 35.39 141.89 26.45 132.85 26.45"/><path class="cls-2" d="M355.16,136.36s.6.5.95.85c0,.11-.12.16-.27.16h-1.7V138c2.42.83,1.68,2.38.89,1.77a4.35,4.35,0,0,0-.89-1.52v4.55a.9.9,0,0,1-.76.29h-.16v-4a8.32,8.32,0,0,1-1.92,2.32l-.12-.12a10.7,10.7,0,0,0,1.76-4h-1.57l-.08-.29h1.93v-1.85c-.64.11-1.29.19-1.92.24l0-.15a18.29,18.29,0,0,0,3.66-1.47l1,.94c-.1.09-.31.1-.59,0-.34.1-.77.19-1.23.28v2h.5Zm5.17-.67a.78.78,0,0,1-.44.22v6.17a1.53,1.53,0,0,1-.8.25h-.15v-1h-1.79v.87c0,.11-.37.34-.77.34h-.16V135l1,.42h1.64l.48-.53ZM358.94,141v-5.29h-1.79V141Z"/><path class="cls-2" d="M369.37,141.65s.67.51,1.09.87c0,.11-.13.16-.28.16h-8.75l-.09-.29h4V140.9h-2.91l-.08-.29h3V139.2l1.34.11c0,.14-.09.23-.34.27v1h1.49l.57-.7s.64.48,1.05.83c0,.11-.13.16-.27.16h-2.84v1.49h2.4Zm-6.59-6.2a1.44,1.44,0,0,1-.53,1.34.5.5,0,1,1-.5-.83,1.46,1.46,0,0,0,.7-1.31h.15a2.89,2.89,0,0,1,.14.52H366a.62.62,0,0,1-.27-.11,2.06,2.06,0,0,0-.74-1.17l.08-.07c1.9,0,1.75,1.24,1.12,1.35h2.89l.52-.53.92.89a.52.52,0,0,1-.38.12,5.8,5.8,0,0,1-1,1l-.11-.06c.05-.3.11-.75.14-1.11Zm-.28,3.18a1.37,1.37,0,0,0,.31-.08,7.36,7.36,0,0,0,2.22-1.72h-2.28l-.08-.29h4.89l.54-.64s.61.44,1,.77c0,.11-.13.16-.26.16H365.6l.78.41a.34.34,0,0,1-.39.12,13.14,13.14,0,0,1-2.5,1.31c1.1,0,2.8,0,4.59-.12a7.89,7.89,0,0,0-1-1l.1-.08c3,.67,2.51,2.58,1.53,2.07a3.84,3.84,0,0,0-.5-.82c-1.21.19-3,.46-5,.69a.55.55,0,0,1-.28.27Z"/><path class="cls-2" d="M373.47,137.24c.92.52,1.12,1.13,1,1.47,2,.35,1.34,1.92.67,1.34a2.86,2.86,0,0,0-.73-1.21c-.13.18-.35.22-.58,0a3.39,3.39,0,0,0-.38-1.21v5.16c0,.11-.37.32-.69.32h-.18V139a8.21,8.21,0,0,1-1.29,1.87l-.14-.12a11.67,11.67,0,0,0,1.33-4.18h-1.14l-.08-.29h1.32v-2.44l1.23.13c0,.15-.11.24-.36.28v2h.15l.46-.65s.5.45.81.78c0,.11-.12.16-.25.16h-1.17Zm4,1.13a.62.62,0,0,1-.38.19v3.5c0,.59-.13,1-1.15,1.06a.91.91,0,0,0-.21-.58,1.43,1.43,0,0,0-.78-.29v-.15s.91.07,1.12.07.21-.06.21-.2v-1.45c-.36.31-.81.7-1.38,1.14a.35.35,0,0,1-.17.27l-.61-.87c.38-.13,1.25-.48,2.16-.85v-1.78h-1.63l-.09-.29h1.62l.39-.45Zm-1.51-1.07c0,.09-.39.29-.74.29h-.13v-3.52l.92.39h2.8l.43-.47.91.7a.67.67,0,0,1-.37.18v2.33a1.21,1.21,0,0,1-.73.27h-.15v-2.72h-2.94Zm.3-.54h1.38l.39-.5s.42.36.69.63c0,.11-.12.16-.26.16h-2.12Zm1.71-1.65s.43.36.69.63c0,.11-.11.16-.25.16h-2l-.08-.29h1.29Zm2.59,3.27a.65.65,0,0,1-.38.19v3.5c0,.59-.13,1-1.16,1.06a.86.86,0,0,0-.2-.58,1.46,1.46,0,0,0-.78-.29v-.15s.9.07,1.11.07.21-.06.21-.2v-1.49c-.35.3-.78.7-1.35,1.14a.34.34,0,0,1-.18.27l-.62-.86c.39-.14,1.26-.48,2.15-.84v-1.76h-1.77l-.09-.29h1.77l.38-.45Zm-3,.35c2.07.22,1.46,1.83.77,1.3a2.6,2.6,0,0,0-.85-1.2Z"/><path class="cls-2" d="M383.47,137.24c.92.52,1.12,1.13,1,1.47,2,.35,1.34,1.92.67,1.34a2.86,2.86,0,0,0-.73-1.21c-.13.18-.35.22-.58,0a3.39,3.39,0,0,0-.38-1.21v5.16c0,.11-.37.32-.69.32h-.18V139a8.21,8.21,0,0,1-1.29,1.87l-.14-.12a11.67,11.67,0,0,0,1.33-4.18h-1.14l-.08-.29h1.32v-2.44l1.23.13c0,.15-.11.24-.36.28v2h.15l.46-.65s.5.45.81.78c0,.11-.12.16-.25.16h-1.17Zm4,1.13a.62.62,0,0,1-.38.19v3.5c0,.59-.13,1-1.15,1.06a.91.91,0,0,0-.21-.58,1.43,1.43,0,0,0-.78-.29v-.15s.91.07,1.12.07.21-.06.21-.2v-1.45c-.36.31-.81.7-1.38,1.14a.35.35,0,0,1-.17.27l-.61-.87c.38-.13,1.25-.48,2.16-.85v-1.78h-1.63l-.09-.29h1.62l.39-.45Zm-1.51-1.07c0,.09-.39.29-.74.29h-.13v-3.52l.92.39h2.8l.43-.47.91.7a.67.67,0,0,1-.37.18v2.33a1.21,1.21,0,0,1-.73.27h-.15v-2.72h-2.94Zm.3-.54h1.38l.39-.5s.42.36.69.63c0,.11-.12.16-.26.16h-2.12Zm1.71-1.65s.43.36.69.63c0,.11-.11.16-.25.16h-2l-.08-.29h1.29Zm2.59,3.27a.65.65,0,0,1-.38.19v3.5c0,.59-.13,1-1.16,1.06a.86.86,0,0,0-.2-.58,1.46,1.46,0,0,0-.78-.29v-.15s.9.07,1.11.07.21-.06.21-.2v-1.49c-.35.3-.78.7-1.35,1.14a.34.34,0,0,1-.18.27l-.62-.86c.39-.14,1.26-.48,2.15-.84v-1.76h-1.77l-.09-.29h1.77l.38-.45Zm-3,.35c2.07.22,1.46,1.83.77,1.3a2.6,2.6,0,0,0-.85-1.2Z"/><path class="cls-2" d="M391.7,142.17a10.13,10.13,0,0,0,2.13-3.64l1.3.49c0,.12-.15.2-.41.2a8.53,8.53,0,0,1-2.92,3.05Zm7.18-5.26s.69.51,1.12.89c0,.11-.13.16-.27.16h-3.32v4.81c0,.11-.44.33-.82.33h-.21V138h-3.53l-.09-.29h3.62v-3.85l1.39.15c0,.14-.1.23-.36.27v3.43h1.86Zm-6.35-2.47c3,1.27,2.27,3.36,1.27,2.6a7.47,7.47,0,0,0-1.38-2.53Zm4.45,4.28c3.53,1.71,2.86,4.05,1.77,3.24a10.22,10.22,0,0,0-1.89-3.18Zm2.61-3.83a.39.39,0,0,1-.41.17,8.29,8.29,0,0,1-2.06,2.11l-.12-.09a13.7,13.7,0,0,0,1.24-2.75Z"/><path class="cls-2" d="M251.21,61.57c2.35.35,1.65,2,.8,1.43a2.89,2.89,0,0,0-.89-1.35Zm2.87-.56c-.4,1.27-1.16,3.61-1.29,4.14a3.81,3.81,0,0,0-.15.92,10.26,10.26,0,0,1,.33,1.77c0,.48-.28.77-.69.77-.21,0-.39-.16-.43-.51.16-1,.11-1.91-.12-2.07a1,1,0,0,0-.5-.15v-.21h.44c.13,0,.17,0,.27-.2.19-.37.19-.37,2-4.51Zm-2.17-1.59c2.45.41,1.73,2.12.85,1.54a3.38,3.38,0,0,0-.94-1.47Zm5.87,2.1c0,.12-.14.18-.41.2a7,7,0,0,0,3.34,2.5l0,.14a1.08,1.08,0,0,0-.73.84l-.31-.2a.67.67,0,0,1-.38.17v3.15a1.13,1.13,0,0,1-.77.22h-.16v-.75H255.6v.6c0,.07-.27.23-.74.23h-.16v-4a9.81,9.81,0,0,1-1.37.83l-.07-.12a9.22,9.22,0,0,0,3.09-4.11Zm-3.9.73a9.29,9.29,0,0,0,1.63-2.85l1.24.58c-.06.1-.14.16-.38.13A8,8,0,0,1,254,62.37Zm5.18,2.28a6.49,6.49,0,0,1-1.84-2.69,8.3,8.3,0,0,1-2.36,2.63l.86.34h2.58l.45-.52Zm-.72,3V65.1H255.6v2.4Zm-.76-8c3.35.87,2.84,3,1.79,2.41a7.47,7.47,0,0,0-1.89-2.33Z"/><path class="cls-2" d="M259.29,79.16s.67.51,1.09.87c0,.11-.13.16-.28.16h-8.75l-.09-.29h4V78.41h-2.92l-.08-.29h3V76.7l1.33.11c0,.15-.09.24-.34.28v1h1.49l.57-.7s.64.48,1,.83c0,.11-.13.16-.27.16h-2.84V79.9h2.4ZM252.7,73a1.44,1.44,0,0,1-.53,1.34.5.5,0,1,1-.5-.83,1.46,1.46,0,0,0,.7-1.31h.15a2.89,2.89,0,0,1,.14.52h3.23a.58.58,0,0,1-.26-.11,2.17,2.17,0,0,0-.74-1.17l.08-.07c1.89,0,1.74,1.24,1.12,1.35H259l.52-.53.92.89a.52.52,0,0,1-.38.12,5.8,5.8,0,0,1-1,1l-.11-.06c.05-.3.11-.75.14-1.11Zm-.28,3.18a1.37,1.37,0,0,0,.31-.08A7.28,7.28,0,0,0,255,74.33h-2.29l-.08-.29h4.89l.54-.64s.61.44,1,.77c0,.11-.13.16-.26.16h-3.23l.78.41c0,.09-.18.16-.38.12a13,13,0,0,1-2.51,1.31c1.11,0,2.81,0,4.59-.12a7.89,7.89,0,0,0-1-1l.1-.08c3,.67,2.51,2.59,1.53,2.07a4.1,4.1,0,0,0-.5-.82c-1.21.2-3,.46-5,.7a.6.6,0,0,1-.28.27Z"/><path class="cls-2" d="M18.87,199.56c2.4.3,1.69,2,.81,1.43a2.6,2.6,0,0,0-.9-1.35Zm3.05-.53c-.42,1.27-1.2,3.61-1.33,4.14a3.43,3.43,0,0,0-.15.92c0,.5.35.9.32,1.74,0,.48-.28.77-.71.77-.21,0-.4-.15-.45-.5.16-1,.11-1.89-.12-2a.87.87,0,0,0-.5-.15v-.21h.44c.14,0,.18,0,.29-.2.2-.37.2-.37,2-4.51Zm-2.29-1.55c2.5.18,1.93,2,1,1.48a3.42,3.42,0,0,0-1.07-1.4ZM28,205.41c.24.11.29.22.29.4,0,.38-.33.57-1.61.57h-.75c-.8,0-.95-.2-.95-.83v-3.61h-.91c-.16,2.24-.84,3.76-3.15,4.65l-.06-.13c1.73-1.12,2.13-2.57,2.18-4.52H21.43l-.08-.28h2.92v-2H23a5.34,5.34,0,0,1-1.15,1.65l-.15-.08a11.47,11.47,0,0,0,.91-3.68l1.33.28c0,.12-.15.22-.37.23a10.06,10.06,0,0,1-.44,1.31h1.15v-2l1.29.12c0,.14-.11.24-.37.28v1.65h1.16l.56-.73s.63.51,1,.86c0,.11-.13.16-.26.16H25.19v2h1.4l.57-.75s.63.52,1,.88c0,.1-.13.15-.27.15h-2v3.37c0,.14,0,.19.27.19h1.13a.17.17,0,0,0,.18-.14,10.17,10.17,0,0,0,.37-1.44H28Z"/><path class="cls-2" d="M37.13,202s.7.5,1.14.87c0,.11-.14.16-.29.16h-3.9v2.23c0,.71-.21,1.22-1.57,1.32a1,1,0,0,0-.33-.72,2.43,2.43,0,0,0-1.19-.37v-.14s1.49.1,1.8.1.27-.07.27-.23v-2.19H28.89l-.09-.28h4.26v-1.91H29.48l-.08-.28h3.66v-1.74c-1.18.11-2.44.18-3.63.18l0-.17a29.59,29.59,0,0,0,6.77-1.51l1,1c-.1.09-.32.1-.63,0a24.87,24.87,0,0,1-2.49.41v1.86h2l.6-.75s.69.52,1.11.88c0,.1-.13.15-.28.15h-3.4v1.91h2.43Z"/><path class="cls-2" d="M40.36,200.84v5.41c0,.13-.34.36-.78.36h-.16v-9l1,.43H42l.42-.46.93.69a.67.67,0,0,1-.38.18v2.65a1.34,1.34,0,0,1-.74.25h-.14v-.52Zm0-2.5v1h1.75v-1Zm1.75,2.22v-1H40.36v1Zm3.28,4.78a1.21,1.21,0,0,1-.75.28H44.5v-.57h-2v.4c0,.09-.37.28-.74.28H41.6V201.6l.91.4H44.4l.44-.47.91.69a.54.54,0,0,1-.36.18Zm-2.92-3.07v1.08h2v-1.08Zm2,2.5v-1.14h-2v1.14ZM48,198.29a.78.78,0,0,1-.41.21v6.91c0,.69-.14,1.09-1.27,1.19a1.34,1.34,0,0,0-.2-.68,1.47,1.47,0,0,0-.81-.33v-.15s.92.07,1.11.07.22-.07.22-.21v-4.46H44.84v.2c0,.09-.39.3-.77.3h-.13v-3.68l1,.39h1.66l.45-.53Zm-3.17.05v1h1.81v-1Zm1.81,2.22v-1H44.84v1Z"/><path class="cls-2" d="M90.06,128.1l.74-1s.84.7,1.35,1.18c0,.12-.15.16-.31.16H83l-.1-.33Z"/><path class="cls-2" d="M101.47,129.94s.49.39.8.69c0,.11-.12.16-.26.16h-1.33a2.1,2.1,0,0,1-.69,1c2.74.64,1.64,1.67.77,1.29a9.74,9.74,0,0,0-1.63-.76,13.7,13.7,0,0,1-3.46.83l-.06-.19a10.87,10.87,0,0,0,2.79-.89,18.26,18.26,0,0,0-1.91-.5h0c.15-.2.31-.49.5-.81H95.74l-.08-.29h1.49c.18-.33.34-.64.44-.87h-.52v.26c0,.08-.39.26-.73.26h-.12v-2.28l.92.36h1.27v-.73H97.34v.14c0,.08-.37.27-.72.27H96.5v-1.43h-.43c0,.11-.12.16-.25.16h-.93v.72c1.7.9,1,2.13.38,1.57a3.43,3.43,0,0,0-.38-1.27v5.22c0,.11-.37.31-.67.31h-.17V129a8,8,0,0,1-1.15,1.87l-.14-.12a12.25,12.25,0,0,0,1.18-4.09h-1l-.08-.29h1.19v-2.46l1.2.13c0,.15-.1.24-.36.28v2h0l.41-.58s.38.33.65.62l0-.2h.57v-1.38l.89.37h1v-1.25l1.26.12c0,.14-.11.24-.37.28v.85h1l.4-.41.85.62a.53.53,0,0,1-.32.16v.6l.34-.46s.42.36.68.63a.23.23,0,0,1-.25.16h-.77v1a1.13,1.13,0,0,1-.7.27h-.15v-.3h-1v.73h1.31l.41-.42.87.65a.72.72,0,0,1-.33.17v1a1.12,1.12,0,0,1-.72.26h-.14v-.3H98.08l.8.18c0,.11-.12.21-.43.21l-.28.48h1.62a5.77,5.77,0,0,0,.09-.6l1.28.12c0,.12-.13.23-.36.25a1.89,1.89,0,0,1,0,.23H101Zm-4.4-.6h1.34v-.82H97.07Zm.27-3.15h1.07v-.72H97.34Zm1.07,1v-.73H97.34v.73ZM98,130.79c-.14.24-.3.49-.44.69.58.05,1.09.11,1.52.18a1.93,1.93,0,0,0,.62-.87Zm1.31-5.32v.72h1v-.72Zm1,1h-1v.73h1Zm-1,2v.82h1.4v-.82Z"/><path class="cls-2" d="M107.89,127.2a6.62,6.62,0,0,0,4.35,5l0,.11a1,1,0,0,0-.92.9,7.59,7.59,0,0,1-3.58-5.88c-.29,2.37-1.25,4.42-4.78,5.88l-.11-.16a6.91,6.91,0,0,0,3.89-5.86H103l-.09-.29h3.82c.07-.93.06-1.92.06-3l1.42.14c0,.15-.12.25-.36.29,0,.87,0,1.72-.1,2.52h2.53l.65-.81s.74.56,1.18.94c0,.12-.14.16-.28.16Z"/><path class="cls-2" d="M117.19,126.15v6.72a.77.77,0,0,1-.63.23h-.13v-3.92h-2l-.09-.29h.52v-2.74h-.39l-.08-.29h2.38l.41-.51h-2.91v2.39c0,1.66,0,3.91-1.39,5.46l-.14-.09a14.31,14.31,0,0,0,.68-5.37v-3.07l1,.39h3.33l-.08,0a2.78,2.78,0,0,0-.78-1.08l.09-.07c1.64,0,1.69,1,1.23,1.19h2.32l.54-.72s.63.5,1,.85c0,.11-.11.16-.26.16h-4.58c.09.08.47.4.71.64,0,.11-.12.16-.24.16ZM114.28,130a9.93,9.93,0,0,0,1.59-.75l.56.7a.23.23,0,0,1-.27,0l-.55.09v.72l.26-.35a5.8,5.8,0,0,1,.52.52c0,.1-.09.15-.22.15h-.56v.74l.74-.1,0,.15c-.38.19-1,.47-1.78.8a.33.33,0,0,1-.24.22L114,132c.22,0,.58-.05,1-.1v-.82h-.59l-.08-.29H115v-.68c-.22,0-.45,0-.66,0Zm2.15-3.87h-.82v.7h.82Zm0,1h-.82v.74h.82Zm0,1.76v-.73h-.82v.73Zm1.59,1.69c.32.84.18,1.45-.1,1.7a.43.43,0,0,1-.66-.05.45.45,0,0,1,.24-.57,1.27,1.27,0,0,0,.35-1.08Zm3.67-1.52s-.15.11-.32.16c.16.12.51.38.75.6,0,.11-.12.16-.25.16h-4.48l-.08-.29h3.52l.37-.42h-.27v-.19h-2.54v.12c0,.06-.31.21-.6.21h-.1V127l.75.31h.76v-.67h-1.61l-.08-.29h1.69v-.87l1.17.11c0,.14-.11.23-.35.27v.49h.72l.46-.6s.51.42.83.73a.24.24,0,0,1-.26.16H120v.67h.83l.38-.37.79.58a.47.47,0,0,1-.33.17Zm-.67,3.12c.22.07.27.15.27.29,0,.31-.29.45-1.42.45h-.72c-.67,0-.77-.16-.77-.64v-2l1,.11a.31.31,0,0,1-.29.24v1.46c0,.11,0,.14.25.14h1.12a.19.19,0,0,0,.16-.07,2.92,2.92,0,0,0,.25-.73H121Zm-2.63-3.38h.46v-1.25h-.46Zm1-1.25v1.25h.53v-1.25Zm.16,2.5c1.69.75.88,2,.3,1.43a2.29,2.29,0,0,0-.42-1.36Zm1.38-1.25v-1.25h-.49v1.25Zm0,1.58c1.83.91,1.06,2.25.43,1.65a3.36,3.36,0,0,0-.55-1.59Z"/><rect class="cls-1" x="347.02" y="65.49" width="60.61" height="63.05" transform="translate(474.33 -280.31) rotate(90)"/><line class="cls-1" x1="398.25" y1="66.7" x2="398.25" y2="127.31"/><line class="cls-1" x1="389.35" y1="66.7" x2="389.35" y2="127.31"/><rect class="cls-1" x="390.41" y="77.41" width="24.48" height="8.79" rx="0.93" transform="translate(484.45 -320.84) rotate(90)"/><rect class="cls-1" x="390.41" y="107.75" width="24.48" height="8.79" rx="0.92" transform="translate(514.79 -290.5) rotate(90)"/><rect class="cls-3" x="13.99" y="69.89" width="52.43" height="21.5"/><rect class="cls-3" x="76.67" y="68.59" width="52.43" height="21.5" transform="translate(182.23 -23.55) rotate(90)"/><rect class="cls-3" x="75.4" y="58.94" width="2.04" height="14.17"/><rect class="cls-4" x="77.44" y="58.94" width="12.88" height="14.17"/><rect class="cls-3" x="75.4" y="85.56" width="2.04" height="14.17"/><rect class="cls-4" x="77.44" y="85.56" width="12.88" height="14.17"/><rect class="cls-3" x="128.34" y="85.56" width="2.04" height="14.17" transform="translate(258.71 185.3) rotate(180)"/><rect class="cls-4" x="115.45" y="85.56" width="12.88" height="14.17" transform="translate(243.79 185.3) rotate(180)"/><rect class="cls-3" x="128.34" y="58.94" width="2.04" height="14.17" transform="translate(258.71 132.06) rotate(180)"/><rect class="cls-4" x="115.45" y="58.94" width="12.88" height="14.17" transform="translate(243.79 132.06) rotate(180)"/><rect class="cls-4" x="154.66" y="35.72" width="4.71" height="24.19" rx="0.55" transform="translate(204.83 -109.21) rotate(90)"/><rect class="cls-4" x="154.66" y="94.78" width="4.71" height="24.19" rx="0.55" transform="translate(263.89 -50.15) rotate(90)"/><rect class="cls-4" x="144.93" y="50.17" width="4.71" height="54.35" rx="0.55" transform="translate(294.56 154.68) rotate(180)"/><rect class="cls-4" x="150.32" y="49.49" width="18.12" height="19.48" rx="0.94" transform="translate(218.6 -100.15) rotate(90)"/><rect class="cls-4" x="150.32" y="67.6" width="18.12" height="19.48" rx="0.94" transform="translate(236.71 -82.03) rotate(90)"/><rect class="cls-4" x="150.32" y="85.72" width="18.12" height="19.48" rx="0.94" transform="translate(254.83 -63.92) rotate(90)"/><rect class="cls-4" x="177.05" y="113.15" width="4.71" height="24.19" rx="0.55"/><rect class="cls-4" x="199.88" y="113.15" width="4.71" height="24.19" rx="0.55"/><rect class="cls-4" x="188.46" y="125.92" width="4.71" height="18.12" rx="0.55" transform="translate(325.8 -55.84) rotate(90)"/><rect class="cls-4" x="181.76" y="113.15" width="18.12" height="19.48" rx="0.94"/><ellipse class="cls-4" cx="190.82" cy="79.34" rx="12.22" ry="22.15"/></g></svg>