<?xml version="1.0" encoding="utf-8"?>
<!-- Generator: Adobe Illustrator 23.0.3, SVG Export Plug-In . SVG Version: 6.00 Build 0)  -->
<svg version="1.1" id="圖層_1" xmlns="http://www.w3.org/2000/svg" xmlns:xlink="http://www.w3.org/1999/xlink" x="0px" y="0px"
	 viewBox="0 0 427.6 220.4" style="enable-background:new 0 0 427.6 220.4;" xml:space="preserve">
<style type="text/css">
	.st0{fill:none;stroke:#898989;stroke-width:0.55;stroke-linecap:round;stroke-linejoin:round;}
	.st1{fill:#898989;}
	.st2{fill:none;stroke:#898989;stroke-width:0.47;stroke-linecap:round;stroke-linejoin:round;}
	.st3{fill:none;stroke:#898989;stroke-width:0.5;stroke-linecap:round;stroke-linejoin:round;}
	.st4{enable-background:new    ;}
</style>
<title>room</title>
<line class="st0" x1="158.7" y1="50.5" x2="211" y2="50.5"/>
<line class="st0" x1="154.9" y1="81.6" x2="154.9" y2="109.6"/>
<line class="st0" x1="415.1" y1="116.4" x2="415.1" y2="16.2"/>
<line class="st0" x1="7.7" y1="155.9" x2="7.7" y2="38.6"/>
<line class="st0" x1="3.2" y1="155.9" x2="3.2" y2="38.6"/>
<line class="st0" x1="18.2" y1="20.7" x2="106.4" y2="20.7"/>
<line class="st0" x1="18.2" y1="25.1" x2="106.4" y2="25.1"/>
<line class="st0" x1="160.2" y1="17.5" x2="160.2" y2="13"/>
<line class="st0" x1="203.6" y1="2" x2="203.6" y2="26.7"/>
<line class="st0" x1="196.1" y1="6.5" x2="196.1" y2="14"/>
<line class="st0" x1="203.6" y1="2" x2="196.1" y2="2"/>
<line class="st0" x1="158.7" y1="2" x2="151.3" y2="2"/>
<line class="st0" x1="294.8" y1="211.3" x2="188.6" y2="211.3"/>
<line class="st0" x1="279.8" y1="211.3" x2="279.8" y2="185.9"/>
<line class="st0" x1="287.3" y1="211.3" x2="287.3" y2="185.9"/>
<line class="st0" x1="294.8" y1="211.3" x2="294.8" y2="184.3"/>
<line class="st0" x1="272.4" y1="211.3" x2="272.4" y2="185.9"/>
<line class="st0" x1="264.9" y1="211.3" x2="264.9" y2="185.9"/>
<line class="st0" x1="257.4" y1="211.3" x2="257.4" y2="185.9"/>
<line class="st0" x1="249.9" y1="211.3" x2="249.9" y2="185.9"/>
<line class="st0" x1="183.9" y1="211.2" x2="183.9" y2="185.8"/>
<line class="st0" x1="191.4" y1="211.2" x2="191.4" y2="185.8"/>
<line class="st0" x1="198.9" y1="211.2" x2="198.9" y2="185.8"/>
<line class="st0" x1="206.4" y1="211.2" x2="206.4" y2="185.8"/>
<line class="st0" x1="214" y1="211.2" x2="214" y2="185.8"/>
<line class="st0" x1="221.5" y1="211.2" x2="221.5" y2="185.8"/>
<line class="st0" x1="176.5" y1="211.2" x2="176.5" y2="185.8"/>
<line class="st0" x1="169" y1="211.2" x2="169" y2="185.8"/>
<line class="st0" x1="161.6" y1="211.2" x2="161.6" y2="185.8"/>
<line class="st0" x1="154" y1="211.2" x2="154" y2="185.8"/>
<line class="st0" x1="424.1" y1="211.3" x2="114.6" y2="211.3"/>
<line class="st0" x1="415.1" y1="172.4" x2="353.8" y2="172.4"/>
<polyline class="st0" points="316.6,199.3 246.4,199.3 249.2,200.2 "/>
<line class="st0" x1="246.4" y1="199.3" x2="249.2" y2="198.4"/>
<polygon class="st0" points="318.1,199.3 317.9,198.6 317.4,198 316.6,197.8 315.8,198 315.3,198.6 315.1,199.3 315.3,200.1 
	315.8,200.6 316.6,200.8 317.4,200.6 317.9,200.1 "/>
<polyline class="st0" points="424.1,218.7 114.6,218.7 114.6,211.3 "/>
<line class="st0" x1="316.6" y1="178.3" x2="316.6" y2="211.3"/>
<line class="st0" x1="279.8" y1="184.3" x2="279.8" y2="178.3"/>
<line class="st0" x1="24.2" y1="173.9" x2="76.5" y2="173.9"/>
<line class="st0" x1="18.2" y1="178.3" x2="76.5" y2="178.3"/>
<line class="st0" x1="94.4" y1="178.3" x2="149.7" y2="178.3"/>
<line class="st0" x1="104.9" y1="25.1" x2="104.9" y2="20.7"/>
<line class="st0" x1="106.4" y1="31.1" x2="106.4" y2="20.7"/>
<polyline class="st0" points="110.8,20.7 110.8,26.7 151.3,26.7 "/>
<line class="st0" x1="106.4" y1="20.7" x2="110.8" y2="20.7"/>
<line class="st0" x1="151.3" y1="31.1" x2="106.4" y2="31.1"/>
<polyline class="st0" points="242.5,185.9 246,197.8 247.8,197.8 "/>
<polyline class="st0" points="246.9,200.8 245.1,200.8 247.8,197.8 "/>
<line class="st0" x1="246.9" y1="200.8" x2="249.9" y2="211.3"/>
<line class="st0" x1="424.1" y1="211.3" x2="424.1" y2="218.7"/>
<line class="st0" x1="419.7" y1="178.3" x2="419.7" y2="211.3"/>
<line class="st0" x1="415.1" y1="178.3" x2="415.1" y2="211.3"/>
<line class="st0" x1="106.4" y1="20.7" x2="104.9" y2="20.7"/>
<line class="st0" x1="106.4" y1="25.1" x2="104.9" y2="25.1"/>
<polyline class="st0" points="415.1,16.2 424.1,16.2 424.1,116.4 "/>
<line class="st0" x1="158.7" y1="5.6" x2="173.7" y2="5.6"/>
<line class="st0" x1="3.2" y1="155.9" x2="13.7" y2="155.9"/>
<line class="st0" x1="3.2" y1="160.5" x2="9.2" y2="160.5"/>
<line class="st0" x1="13.7" y1="155.9" x2="13.7" y2="169.4"/>
<line class="st0" x1="9.2" y1="160.5" x2="9.2" y2="169.4"/>
<line class="st0" x1="196.1" y1="2" x2="173.7" y2="2"/>
<line class="st0" x1="196.1" y1="6.5" x2="178.2" y2="6.5"/>
<line class="st0" x1="196.1" y1="14" x2="178.2" y2="14"/>
<line class="st0" x1="173.7" y1="17.5" x2="158.7" y2="17.5"/>
<line class="st0" x1="173.7" y1="13" x2="158.7" y2="13"/>
<line class="st0" x1="173.7" y1="2" x2="173.7" y2="17.5"/>
<line class="st0" x1="172.2" y1="13" x2="172.2" y2="17.5"/>
<line class="st0" x1="178.2" y1="6.5" x2="178.2" y2="14"/>
<line class="st0" x1="196.1" y1="17.5" x2="178.2" y2="17.5"/>
<line class="st0" x1="279.8" y1="178.3" x2="314.2" y2="178.3"/>
<line class="st0" x1="291.8" y1="178.3" x2="305.3" y2="178.3"/>
<line class="st0" x1="415.1" y1="116.4" x2="424.1" y2="116.4"/>
<line class="st0" x1="178.2" y1="17.5" x2="173.7" y2="17.5"/>
<line class="st0" x1="160.2" y1="16" x2="172.2" y2="16"/>
<line class="st0" x1="160.2" y1="14.5" x2="172.2" y2="14.5"/>
<line class="st0" x1="94.4" y1="173.9" x2="149.7" y2="173.9"/>
<polyline class="st0" points="424.1,149.2 424.1,178.3 415.1,178.3 "/>
<polyline class="st0" points="424,149.2 415.1,149.2 415.1,178.3 "/>
<line class="st0" x1="349.4" y1="168.7" x2="349.4" y2="187.3"/>
<line class="st0" x1="353.8" y1="172.4" x2="353.8" y2="187.3"/>
<line class="st0" x1="349.4" y1="211.3" x2="353.8" y2="211.3"/>
<line class="st0" x1="349.4" y1="187.3" x2="353.8" y2="187.3"/>
<polygon class="st0" points="353.8,211.3 353.8,210.4 352.9,210.4 352.9,209.5 350.9,209.5 350.9,211.3 "/>
<polygon class="st0" points="353.8,187.3 353.8,188.3 352.9,188.3 352.9,189.2 350.9,189.2 350.9,187.3 "/>
<polyline class="st0" points="375.9,210.4 353.8,210.4 353.8,209.5 375.9,209.5 "/>
<path class="st0" d="M353.8,188.3l2.7,0.1c10.1,1.3,18.1,9.2,19.3,19.3l0.1,2.7"/>
<line class="st0" x1="76.5" y1="178.3" x2="76.5" y2="173.9"/>
<polyline class="st0" points="94.4,173.9 94.4,178.3 76.5,178.3 "/>
<line class="st0" x1="76.5" y1="173.9" x2="94.4" y2="173.9"/>
<line class="st0" x1="78.3" y1="173.9" x2="78.3" y2="177.5"/>
<line class="st0" x1="92.6" y1="173.9" x2="92.6" y2="177.5"/>
<line class="st0" x1="78.3" y1="175" x2="92.6" y2="175"/>
<line class="st0" x1="78.3" y1="176.3" x2="92.6" y2="176.3"/>
<line class="st0" x1="76.5" y1="177.5" x2="94.4" y2="177.5"/>
<line class="st0" x1="370.3" y1="172.4" x2="370.3" y2="169.7"/>
<polyline class="st0" points="361.4,169.7 361.4,172.4 364.6,172.4 "/>
<line class="st0" x1="367" y1="172.4" x2="370.3" y2="172.4"/>
<line class="st0" x1="110.8" y1="26.7" x2="110.8" y2="21.5"/>
<line class="st0" x1="6.2" y1="154.5" x2="6.2" y2="126.8"/>
<line class="st0" x1="6.2" y1="125.3" x2="6.2" y2="97.7"/>
<line class="st0" x1="6.2" y1="96.2" x2="6.2" y2="68.5"/>
<line class="st0" x1="6.2" y1="67" x2="6.2" y2="40.1"/>
<line class="st0" x1="4.7" y1="154.5" x2="4.7" y2="126.8"/>
<line class="st0" x1="4.7" y1="125.3" x2="4.7" y2="97.7"/>
<line class="st0" x1="4.7" y1="96.2" x2="4.7" y2="68.5"/>
<line class="st0" x1="4.7" y1="67" x2="4.7" y2="40.1"/>
<line class="st0" x1="3.2" y1="38.6" x2="7.7" y2="38.6"/>
<line class="st0" x1="3.2" y1="67" x2="7.7" y2="67"/>
<line class="st0" x1="3.2" y1="68.5" x2="7.7" y2="68.5"/>
<line class="st0" x1="3.2" y1="40.1" x2="7.7" y2="40.1"/>
<line class="st0" x1="3.2" y1="154.5" x2="7.7" y2="154.5"/>
<line class="st0" x1="3.2" y1="125.3" x2="7.7" y2="125.3"/>
<line class="st0" x1="3.2" y1="126.8" x2="7.7" y2="126.8"/>
<line class="st0" x1="3.2" y1="96.2" x2="7.7" y2="96.2"/>
<line class="st0" x1="3.2" y1="97.7" x2="7.7" y2="97.7"/>
<line class="st0" x1="19.7" y1="23.6" x2="83.9" y2="23.6"/>
<line class="st0" x1="19.7" y1="22.1" x2="83.9" y2="22.1"/>
<line class="st0" x1="85.4" y1="22.1" x2="104.9" y2="22.1"/>
<line class="st0" x1="104.9" y1="25.1" x2="104.9" y2="20.7"/>
<line class="st0" x1="83.9" y1="25.1" x2="83.9" y2="20.7"/>
<line class="st0" x1="85.4" y1="25.1" x2="85.4" y2="20.7"/>
<line class="st0" x1="19.7" y1="25.1" x2="19.7" y2="20.7"/>
<line class="st0" x1="85.4" y1="23.6" x2="104.9" y2="23.6"/>
<rect x="305.3" y="26.7" class="st0" width="1.4" height="4.5"/>
<line class="st0" x1="305.3" y1="31.1" x2="415.1" y2="31.1"/>
<line class="st0" x1="306.7" y1="28.1" x2="330.7" y2="28.1"/>
<line class="st0" x1="332.2" y1="28.1" x2="388.2" y2="28.1"/>
<rect x="388.2" y="26.7" class="st0" width="1.5" height="4.5"/>
<rect x="413.7" y="26.7" class="st0" width="1.4" height="4.5"/>
<line class="st0" x1="389.7" y1="28.1" x2="413.7" y2="28.1"/>
<line class="st0" x1="415.1" y1="28.1" x2="415.1" y2="28"/>
<line class="st0" x1="415.1" y1="29.6" x2="415.1" y2="29.5"/>
<line class="st0" x1="389.7" y1="29.6" x2="413.7" y2="29.6"/>
<line class="st0" x1="306.7" y1="29.6" x2="330.7" y2="29.6"/>
<line class="st0" x1="332.2" y1="29.6" x2="388.2" y2="29.6"/>
<line class="st0" x1="305.3" y1="26.7" x2="415.1" y2="26.7"/>
<rect x="330.7" y="26.7" class="st0" width="1.5" height="4.5"/>
<rect x="9.2" y="169.4" class="st0" width="14.9" height="8.9"/>
<rect x="151.3" y="26.7" class="st0" width="7.4" height="23.9"/>
<rect x="196.1" y="26.7" class="st0" width="7.5" height="23.9"/>
<line class="st0" x1="158.7" y1="26.7" x2="158.7" y2="2"/>
<line class="st0" x1="151.3" y1="26.7" x2="151.3" y2="2"/>
<line class="st0" x1="203.6" y1="26.7" x2="287.3" y2="26.7"/>
<line class="st0" x1="203.6" y1="31.1" x2="287.3" y2="31.1"/>
<rect x="258.9" y="26.7" class="st0" width="1.5" height="4.5"/>
<line class="st0" x1="260.4" y1="28.1" x2="285.8" y2="28.1"/>
<line class="st0" x1="260.4" y1="29.6" x2="285.8" y2="29.6"/>
<line class="st0" x1="205.1" y1="28.1" x2="231.9" y2="28.1"/>
<line class="st0" x1="233.5" y1="28.1" x2="258.9" y2="28.1"/>
<line class="st0" x1="205.1" y1="29.6" x2="231.9" y2="29.6"/>
<line class="st0" x1="233.5" y1="29.6" x2="258.9" y2="29.6"/>
<line class="st0" x1="196.1" y1="17.5" x2="196.1" y2="26.7"/>
<rect x="203.6" y="26.7" class="st0" width="1.5" height="4.5"/>
<rect x="285.8" y="26.7" class="st0" width="1.5" height="4.5"/>
<rect x="149.7" y="160.5" class="st0" width="8.9" height="17.9"/>
<line class="st0" x1="202.7" y1="117.1" x2="202.7" y2="114.5"/>
<polyline class="st0" points="202.7,112.2 202.7,109.6 207.4,109.6 "/>
<polyline class="st0" points="209.8,109.6 214.7,109.6 214.7,112.2 "/>
<polyline class="st0" points="214.7,114.5 214.7,117.1 209.8,117.1 "/>
<line class="st0" x1="207.4" y1="117.1" x2="202.7" y2="117.1"/>
<line class="st0" x1="163.2" y1="117.1" x2="163.2" y2="114.5"/>
<polyline class="st0" points="163.2,112.2 163.2,109.6 158.4,109.6 "/>
<polyline class="st0" points="156,109.6 151.3,109.6 151.3,112.2 "/>
<polyline class="st0" points="151.3,114.5 151.3,117.1 156,117.1 "/>
<line class="st0" x1="158.4" y1="117.1" x2="163.2" y2="117.1"/>
<polyline class="st0" points="316.6,173.9 305.3,173.9 312.2,173.9 "/>
<polyline class="st0" points="305.3,178.3 316.6,178.3 316.6,160.5 "/>
<line class="st0" x1="313" y1="164" x2="313" y2="173.9"/>
<rect x="291.8" y="160.5" class="st0" width="13.5" height="17.9"/>
<line class="st0" x1="316.6" y1="160.5" x2="305.3" y2="160.5"/>
<line class="st0" x1="313" y1="164" x2="305.3" y2="164"/>
<line class="st0" x1="349.4" y1="168.7" x2="415.1" y2="168.7"/>
<rect x="3.2" y="20.7" class="st0" width="14.9" height="17.9"/>
<line class="st0" x1="18.2" y1="38.6" x2="18.2" y2="35.9"/>
<line class="st0" x1="18.2" y1="33.5" x2="18.2" y2="28.7"/>
<polyline class="st0" points="18.2,26.3 18.2,23.6 14.9,23.6 "/>
<polyline class="st0" points="12.5,23.6 9.2,23.6 9.2,26.3 "/>
<line class="st0" x1="9.2" y1="28.7" x2="9.2" y2="33.5"/>
<polyline class="st0" points="9.2,35.9 9.2,38.6 12.5,38.6 "/>
<line class="st0" x1="14.9" y1="38.6" x2="18.2" y2="38.6"/>
<line class="st0" x1="415.1" y1="179.9" x2="419.7" y2="179.9"/>
<line class="st0" x1="415.1" y1="197.8" x2="415.1" y2="178.3"/>
<line class="st0" x1="419.7" y1="197.8" x2="419.7" y2="178.3"/>
<line class="st0" x1="419.7" y1="196.3" x2="415.1" y2="196.3"/>
<line class="st0" x1="416.6" y1="179.9" x2="416.6" y2="196.3"/>
<line class="st0" x1="418.1" y1="179.9" x2="418.1" y2="196.3"/>
<line class="st0" x1="419.7" y1="197.8" x2="415.1" y2="197.8"/>
<polyline class="st0" points="419.7,200.5 425,200.5 425,196.9 419.7,196.9 "/>
<rect x="425" y="155.7" class="st0" width="1.2" height="41.1"/>
<rect x="121.3" y="178.3" class="st0" width="4.6" height="32.9"/>
<polyline class="st0" points="214.7,117.1 151.3,117.1 151.3,109.6 "/>
<line class="st0" x1="211" y1="109.6" x2="211" y2="46.1"/>
<line class="st0" x1="214.7" y1="46.1" x2="214.7" y2="117.1"/>
<line class="st0" x1="194" y1="50.5" x2="194" y2="109.6"/>
<line class="st0" x1="214.7" y1="46.1" x2="211" y2="46.1"/>
<line class="st0" x1="214.7" y1="117.1" x2="211" y2="117.1"/>
<line class="st0" x1="208.7" y1="73" x2="208.7" y2="87"/>
<line class="st0" x1="198.1" y1="71.2" x2="206.8" y2="71.2"/>
<line class="st0" x1="196.3" y1="73" x2="196.3" y2="87"/>
<line class="st0" x1="206.7" y1="72.1" x2="198.2" y2="72.1"/>
<line class="st0" x1="197.3" y1="73.1" x2="197.3" y2="86.9"/>
<line class="st0" x1="207.6" y1="73.1" x2="207.6" y2="86.9"/>
<line class="st0" x1="206.8" y1="88.8" x2="198.1" y2="88.8"/>
<line class="st0" x1="198.2" y1="87.8" x2="206.7" y2="87.8"/>
<polyline class="st0" points="207.6,73.1 207.5,72.5 207.2,72.3 206.7,72.1 "/>
<polyline class="st0" points="198.2,72.1 197.8,72.3 197.4,72.5 197.3,73.1 "/>
<polyline class="st0" points="198.1,71.2 197.4,71.3 196.9,71.7 196.4,72.4 196.3,73 "/>
<polyline class="st0" points="208.7,73 208.5,72.4 208.1,71.7 207.5,71.3 206.8,71.2 "/>
<polygon class="st0" points="206.1,80.1 206,79.7 205.6,79.3 205.3,79.3 204.9,79.3 204.6,79.7 204.5,80.1 204.6,80.5 204.9,80.8 
	205.3,80.9 205.6,80.8 206,80.5 "/>
<polyline class="st0" points="198.7,72.5 198.2,72.7 197.9,73 197.8,73.5 "/>
<polyline class="st0" points="197.8,86.5 198.3,84 198.7,81.3 198.7,78.7 198.3,76 197.8,73.5 "/>
<polyline class="st0" points="197.3,86.9 197.4,87.4 197.8,87.8 198.2,87.8 "/>
<polyline class="st0" points="206.7,87.8 207.2,87.8 207.5,87.4 207.6,86.9 "/>
<polyline class="st0" points="206.8,88.8 207.5,88.7 208.1,88.3 208.5,87.8 208.7,87 "/>
<polyline class="st0" points="196.3,87 196.4,87.8 196.9,88.3 197.4,88.7 198.1,88.8 "/>
<polyline class="st0" points="197.8,86.5 197.9,87 198.2,87.3 198.7,87.5 "/>
<line class="st0" x1="208.7" y1="73" x2="208.7" y2="87"/>
<line class="st0" x1="198.1" y1="71.2" x2="206.8" y2="71.2"/>
<line class="st0" x1="196.3" y1="73" x2="196.3" y2="87"/>
<line class="st0" x1="206.7" y1="72.1" x2="198.2" y2="72.1"/>
<line class="st0" x1="197.3" y1="73.1" x2="197.3" y2="86.9"/>
<line class="st0" x1="207.6" y1="73.1" x2="207.6" y2="86.9"/>
<line class="st0" x1="206.8" y1="88.8" x2="198.1" y2="88.8"/>
<line class="st0" x1="198.2" y1="87.8" x2="206.7" y2="87.8"/>
<polyline class="st0" points="207.6,73.1 207.5,72.5 207.2,72.3 206.7,72.1 "/>
<polyline class="st0" points="198.2,72.1 197.8,72.3 197.4,72.5 197.3,73.1 "/>
<polyline class="st0" points="198.1,71.2 197.4,71.3 196.9,71.7 196.4,72.4 196.3,73 "/>
<polyline class="st0" points="208.7,73 208.5,72.4 208.1,71.7 207.5,71.3 206.8,71.2 "/>
<polygon class="st0" points="206.1,80.1 206,79.7 205.6,79.3 205.3,79.3 204.9,79.3 204.6,79.7 204.5,80.1 204.6,80.5 204.9,80.8 
	205.3,80.9 205.6,80.8 206,80.5 "/>
<polyline class="st0" points="197.3,86.9 197.4,87.4 197.8,87.8 198.2,87.8 "/>
<polyline class="st0" points="206.7,87.8 207.2,87.8 207.5,87.4 207.6,86.9 "/>
<polyline class="st0" points="206.8,88.8 207.5,88.7 208.1,88.3 208.5,87.8 208.7,87 "/>
<polyline class="st0" points="196.3,87 196.4,87.8 196.9,88.3 197.4,88.7 198.1,88.8 "/>
<line class="st0" x1="169.2" y1="98.1" x2="169.2" y2="101.6"/>
<line class="st0" x1="176.3" y1="98.1" x2="176.3" y2="101.6"/>
<line class="st0" x1="176.8" y1="98.1" x2="176.8" y2="102.2"/>
<line class="st0" x1="168.7" y1="98.1" x2="168.7" y2="102.2"/>
<line class="st0" x1="167.2" y1="98.1" x2="167.2" y2="109.6"/>
<line class="st0" x1="178.4" y1="98.1" x2="178.4" y2="109.6"/>
<line class="st0" x1="174.2" y1="100.3" x2="174.2" y2="102.2"/>
<line class="st0" x1="171.3" y1="102.2" x2="171.3" y2="100.3"/>
<polyline class="st0" points="174.1,99.9 174.2,100 174.2,100.1 174.2,100.2 174.2,100.3 "/>
<polyline class="st0" points="171.3,100.3 171.3,100.1 171.4,100 171.5,99.9 171.8,99.6 172,99.5 172.3,99.4 173.3,99.4 173.5,99.5 
	173.8,99.6 174.1,99.9 "/>
<path class="st0" d="M169.2,98.1l0.1-0.6c0.7-3.7,6.2-3.7,6.9,0l0.1,0.6"/>
<path class="st0" d="M168.7,98.1l0.1-0.7c0.4-2.2,2.5-3.7,4.8-3.2c1.6,0.3,2.9,1.6,3.2,3.2l0.1,0.7"/>
<polyline class="st0" points="174.2,102.2 174.2,102.3 174.2,102.4 174.2,102.6 174.1,102.7 173.9,102.8 173.8,102.9 173.6,103 
	173.5,103 "/>
<polyline class="st0" points="172,103 171.9,103 171.8,102.9 171.7,102.8 171.5,102.7 171.4,102.6 171.4,102.4 171.3,102.3 
	171.3,102.2 "/>
<line class="st0" x1="173.5" y1="103" x2="172" y2="103"/>
<path class="st0" d="M176.3,101.6l-0.1,0.3c0.1,0.7-0.6,1.2-1.2,1.3l-0.4,0.1"/>
<polyline class="st0" points="176.8,102.2 176.8,102.6 176.8,102.9 176.2,103.7 175.9,103.8 175.6,103.9 175.3,104 "/>
<polyline class="st0" points="170.9,103.4 170.7,103.4 170.5,103.3 170.2,103.2 170.1,103.1 170,103 169.8,102.9 169.7,102.8 
	169.5,102.6 169.4,102.4 169.3,102.2 169.3,102.1 169.2,101.9 169.2,101.6 "/>
<polyline class="st0" points="170.2,104 170.1,104 169.9,103.9 169.7,103.8 169.3,103.7 169.2,103.5 169.1,103.3 169,103.2 
	168.8,102.9 168.8,102.7 168.7,102.5 168.7,102.2 "/>
<path class="st0" d="M174.7,103.4l-0.5,0.1c-0.9,0.1-1.9,0.1-2.8,0l-0.5-0.1"/>
<path class="st0" d="M175.3,104l-0.7,0.1c-1.2,0.3-2.5,0.3-3.7,0l-0.7-0.1"/>
<line class="st0" x1="167.2" y1="109.6" x2="178.4" y2="109.6"/>
<path class="st0" d="M167.2,98.1l0.1-1c1.2-5.9,9.8-5.9,11,0l0.1,1"/>
<line class="st0" x1="196.1" y1="50.5" x2="196.1" y2="50.3"/>
<line class="st0" x1="211" y1="50.5" x2="211" y2="50.3"/>
<line class="st0" x1="214.7" y1="109.6" x2="151.3" y2="109.6"/>
<line class="st0" x1="384" y1="173.2" x2="382.7" y2="174.3"/>
<line class="st0" x1="372.8" y1="172.4" x2="384.8" y2="172.4"/>
<line class="st0" x1="376" y1="173.2" x2="376" y2="174.3"/>
<line class="st0" x1="384" y1="179.4" x2="382.8" y2="178.2"/>
<line class="st0" x1="373.1" y1="180.1" x2="384.5" y2="180.1"/>
<line class="st0" x1="384.8" y1="179.9" x2="384.8" y2="172.4"/>
<line class="st0" x1="372.8" y1="179.9" x2="372.8" y2="172.4"/>
<polyline class="st0" points="384.5,180.1 384.7,180 384.8,179.9 "/>
<polyline class="st0" points="372.8,179.9 372.9,180 373.1,180.1 "/>
<polyline class="st0" points="384.2,179.2 384.2,173.3 384.1,173.1 383.8,172.9 "/>
<polyline class="st0" points="375.8,173.3 375.8,179.2 375.9,179.5 376.3,179.6 "/>
<polyline class="st0" points="383.8,172.9 376.3,172.9 375.9,173 375.8,173.3 "/>
<polyline class="st0" points="376.3,179.6 383.8,179.6 384.1,179.5 384.2,179.2 "/>
<polyline class="st0" points="375.8,177.7 375.9,178.1 376.3,178.2 382.4,178.2 382.6,178.1 382.8,177.7 382.8,174.8 382.6,174.5 
	382.4,174.3 376.3,174.3 375.9,174.5 375.8,174.8 "/>
<line class="st0" x1="376" y1="179.3" x2="376" y2="178.3"/>
<polyline class="st0" points="406.2,173.8 406.1,173.3 405.9,173 405.5,172.6 405.3,172.4 405,172.4 404.6,172.4 "/>
<path class="st0" d="M396.9,172.4l-0.3,0.1c-0.6,0-1,0.6-1.2,1.1v0.3"/>
<polyline class="st0" points="396.3,177.7 400.8,177.8 405.3,177.7 "/>
<path class="st0" d="M395.2,176.6v0.2c0.1,0.4,0.4,0.8,0.8,0.8l0.3,0.1"/>
<line class="st0" x1="395.3" y1="173.8" x2="395.2" y2="176.6"/>
<polyline class="st0" points="405.3,177.7 405.4,177.6 405.6,177.6 405.8,177.5 406,177.4 406.1,177.2 406.2,177 406.2,176.8 
	406.3,176.6 "/>
<polygon class="st0" points="401.2,175.3 401.2,175.1 401.1,175 401.1,175 401.1,175 401,174.9 400.5,174.9 400.4,175 400.4,175 
	400.3,175 400.3,175.5 400.4,175.6 400.5,175.7 400.6,175.7 400.7,175.8 400.9,175.8 401,175.7 401.1,175.7 401.1,175.6 
	401.1,175.5 401.2,175.5 "/>
<line class="st0" x1="406.3" y1="176.6" x2="406.2" y2="173.8"/>
<line class="st0" x1="396.9" y1="172.4" x2="404.6" y2="172.4"/>
<line class="st0" x1="395.2" y1="187.5" x2="395.2" y2="176.7"/>
<line class="st0" x1="406.3" y1="187.5" x2="406.3" y2="176.7"/>
<path class="st0" d="M395.2,187.5l0.2,1.4c0.8,2.9,3.9,4.7,6.8,3.8c1.9-0.5,3.3-2,3.8-3.8l0.3-1.4"/>
<path class="st0" d="M396.9,187.5l0.2,1.2c0.7,2.1,2.9,3.2,4.9,2.5c1.2-0.4,2.1-1.3,2.5-2.5l0.2-1.2"/>
<path class="st0" d="M397.3,187.5l0.2,1.1c0.6,1.8,2.6,2.8,4.4,2.2c1-0.3,1.9-1.2,2.2-2.2l0.2-1.1"/>
<polyline class="st0" points="398.5,181.9 397.8,182.1 397.3,182.5 396.9,183 396.9,183.7 "/>
<polyline class="st0" points="404.7,183.7 404.5,183 404.3,182.5 403.7,182.1 403.1,181.9 400.8,181.7 398.5,181.9 "/>
<line class="st0" x1="396.9" y1="187.5" x2="396.9" y2="183.6"/>
<line class="st0" x1="404.7" y1="183.6" x2="404.6" y2="187.5"/>
<polyline class="st0" points="398.7,182.5 398.2,182.6 397.8,183 397.5,183.5 397.3,184.1 "/>
<polyline class="st0" points="402.8,182.5 400.8,182.3 398.7,182.5 "/>
<line class="st0" x1="397.3" y1="184.1" x2="397.3" y2="187.5"/>
<polyline class="st0" points="404.2,184.1 404.1,183.5 403.8,183 403.4,182.6 402.8,182.5 "/>
<line class="st0" x1="404.3" y1="187.5" x2="404.2" y2="184.1"/>
<polyline class="st0" points="401.8,182.9 400.8,182.8 399.9,182.9 "/>
<line class="st0" x1="400" y1="187.7" x2="400.8" y2="187.8"/>
<polyline class="st0" points="398.8,184.3 398.8,185.6 399.2,186.8 399.5,187.4 400,187.7 "/>
<polyline class="st0" points="399.9,182.9 399.4,183.3 398.9,183.7 398.8,184.3 "/>
<polyline class="st0" points="402.3,186.8 402.7,185.6 402.8,184.3 402.6,183.7 402.2,183.3 401.7,182.9 "/>
<polyline class="st0" points="401.5,187.7 402,187.4 402.3,186.8 "/>
<line class="st0" x1="400.8" y1="187.8" x2="401.5" y2="187.7"/>
<line class="st0" x1="3.2" y1="155.9" x2="3.2" y2="160.5"/>
<rect x="231.9" y="26.7" class="st0" width="1.5" height="4.5"/>
<line class="st0" x1="154.3" y1="118.6" x2="151.3" y2="118.6"/>
<line class="st0" x1="151.3" y1="160.5" x2="151.3" y2="142.5"/>
<line class="st0" x1="155.7" y1="160.5" x2="155.7" y2="142.5"/>
<line class="st0" x1="151.3" y1="118.6" x2="155.7" y2="118.6"/>
<line class="st0" x1="151.3" y1="142.5" x2="155.7" y2="142.5"/>
<polygon class="st0" points="155.7,118.6 155.7,119.5 154.8,119.5 154.8,120.4 152.8,120.4 152.8,118.6 "/>
<polygon class="st0" points="155.7,142.5 155.7,141.6 154.8,141.6 154.8,140.7 152.8,140.7 152.8,142.5 "/>
<polyline class="st0" points="177.9,141.6 155.7,141.6 155.7,140.7 177.9,140.7 "/>
<path class="st0" d="M155.7,119.5l2.7,0.2c10.1,1.2,18.1,9.2,19.3,19.3l0.2,2.6"/>
<line class="st0" x1="154.3" y1="118.6" x2="154.3" y2="117.1"/>
<line class="st0" x1="151.3" y1="118.6" x2="151.3" y2="117.1"/>
<line class="st0" x1="415.1" y1="197.8" x2="419.7" y2="197.8"/>
<line class="st0" x1="353.7" y1="211.3" x2="344.3" y2="211.3"/>
<line class="st0" x1="419.7" y1="200.7" x2="419.7" y2="210.8"/>
<rect x="158.7" y="173.8" class="st0" width="133.1" height="4.6"/>
<rect x="154" y="184.3" class="st0" width="140.8" height="1.5"/>
<polyline class="st0" points="391.6,146.8 419.7,146.8 419.7,145.7 391.7,145.7 "/>
<path class="st0" d="M419.7,118.8l-3.4,0.2c-12.8,1.5-22.9,11.6-24.5,24.5l-0.2,3.3"/>
<rect x="416.6" y="116.4" class="st0" width="6.1" height="2.5"/>
<rect x="416.6" y="146.8" class="st0" width="6.1" height="2.4"/>
<line class="st0" x1="154.9" y1="81.6" x2="151.3" y2="81.6"/>
<polyline class="st0" points="151.3,54.4 154.8,54.4 154.8,50.6 "/>
<polyline class="st0" points="154.8,109.6 151.3,109.6 151.3,81.6 "/>
<line class="st0" x1="151.3" y1="54.4" x2="151.3" y2="50.3"/>
<line class="st0" x1="151.3" y1="81.6" x2="148.3" y2="81.6"/>
<polyline class="st0" points="148.3,81.6 148.3,117.1 151.3,117.1 "/>
<line class="st0" x1="151.3" y1="83" x2="148.3" y2="83"/>
<line class="st0" x1="151.3" y1="54.4" x2="151.3" y2="81.6"/>
<polygon class="st0" points="296.3,26.7 296.3,16.2 305.2,16.2 305.2,26.7 305.2,28.9 305.2,35.6 287.2,35.6 287.2,26.7 "/>
<g>
	<path class="st1" d="M168.2,60.4c2.8,0.4,2,2.4,1,1.7c-0.2-0.6-0.6-1.2-1.1-1.6L168.2,60.4z M171.6,59.7c-0.5,1.5-1.4,4.3-1.5,5
		c-0.1,0.4-0.2,0.7-0.2,1.1c0.2,0.7,0.3,1.4,0.4,2.1c0,0.6-0.3,0.9-0.8,0.9c-0.3,0-0.5-0.2-0.5-0.6c0.2-1.2,0.1-2.3-0.1-2.5
		c-0.2-0.1-0.4-0.2-0.6-0.2v-0.3h0.5c0.2,0,0.2,0,0.3-0.2c0.2-0.4,0.2-0.4,2.4-5.4L171.6,59.7z M169,57.8c2.9,0.5,2.1,2.5,1,1.8
		c-0.2-0.6-0.6-1.2-1.1-1.7L169,57.8z M176,60.3c0,0.1-0.2,0.2-0.5,0.2c1,1.4,2.4,2.4,4,3v0.2c-0.5,0.1-0.8,0.5-0.9,1l-0.4-0.2
		c-0.1,0.1-0.3,0.2-0.5,0.2v3.8c-0.3,0.2-0.6,0.3-0.9,0.3h-0.2v-0.9h-3.3v0.7c0,0.1-0.3,0.3-0.9,0.3h-0.2V64c-0.5,0.4-1.1,0.7-1.6,1
		l-0.1-0.1c1.7-1.3,3-3,3.7-4.9L176,60.3z M171.4,61.2c0.9-1,1.5-2.2,2-3.4l1.5,0.7c-0.1,0.1-0.2,0.2-0.5,0.2
		c-0.8,1.1-1.7,2-2.9,2.7L171.4,61.2z M177.6,64c-1-0.9-1.8-2-2.2-3.2c-0.7,1.2-1.7,2.3-2.8,3.2l1,0.4h3.1l0.5-0.6L177.6,64z
		 M176.8,67.6v-2.9h-3.3v2.9H176.8z M175.9,58c4,1,3.4,3.6,2.1,2.9c-0.6-1.1-1.3-2-2.3-2.8L175.9,58z"/>
	<path class="st1" d="M177.9,81.5c0,0,0.8,0.6,1.3,1c0,0.1-0.2,0.2-0.3,0.2h-10.5l-0.1-0.3h4.8v-1.8h-3.5l-0.1-0.3h3.6v-1.7l1.6,0.1
		c0,0.2-0.1,0.3-0.4,0.3v1.2h1.8l0.7-0.8c0,0,0.8,0.6,1.2,1c0,0.1-0.2,0.2-0.3,0.2h-3.4v1.8h2.9L177.9,81.5z M169.9,74.1
		c0.1,0.6-0.1,1.2-0.6,1.6c-0.2,0.2-0.6,0.2-0.8,0s-0.2-0.6,0-0.8c0.1-0.1,0.2-0.1,0.3-0.2c0.5-0.3,0.9-0.9,0.8-1.6h0.2
		c0.1,0.2,0.1,0.4,0.2,0.6h3.9c-0.1,0-0.2-0.1-0.3-0.1c-0.1-0.6-0.4-1.1-0.9-1.4l0.1-0.1c2.3,0,2.1,1.5,1.3,1.6h3.5l0.6-0.6l1.1,1.1
		c-0.1,0.1-0.3,0.2-0.5,0.1c-0.3,0.4-0.8,0.9-1.2,1.2l-0.1-0.1c0.1-0.4,0.1-0.9,0.2-1.3L169.9,74.1z M169.6,77.9
		c0.1,0,0.2-0.1,0.4-0.1c1-0.5,1.9-1.2,2.7-2.1h-2.7l-0.1-0.3h5.9l0.6-0.8c0,0,0.7,0.5,1.2,0.9c0,0.1-0.2,0.2-0.3,0.2h-3.9l0.9,0.5
		c-0.1,0.1-0.3,0.2-0.5,0.1c-0.9,0.6-2,1.2-3,1.6c1.3,0,3.4,0,5.5-0.1c-0.4-0.4-0.8-0.8-1.2-1.2l0.1-0.1c3.6,0.8,3,3.1,1.8,2.5
		c-0.2-0.4-0.4-0.7-0.6-1c-1.5,0.2-3.6,0.6-6,0.8c-0.1,0.1-0.2,0.3-0.3,0.3L169.6,77.9z"/>
</g>
<g>
	<path class="st1" d="M377.7,199.5c2.9,0.4,2,2.4,1,1.7c-0.2-0.6-0.6-1.2-1.1-1.6L377.7,199.5z M381.4,198.9c-0.5,1.5-1.4,4.3-1.6,5
		c-0.1,0.4-0.2,0.7-0.2,1.1c0,0.6,0.4,1.1,0.4,2.1c0,0.6-0.3,0.9-0.9,0.9c-0.3,0-0.5-0.2-0.5-0.6c0.2-1.2,0.1-2.3-0.1-2.4
		c-0.2-0.1-0.4-0.2-0.6-0.2v-0.3h0.5c0.2,0,0.2,0,0.3-0.2c0.2-0.4,0.2-0.4,2.4-5.4H381.4z M378.6,197.1c3,0.2,2.3,2.4,1.2,1.8
		C379.6,198.2,379.1,197.6,378.6,197.1L378.6,197.1z M388.7,206.6c0.3,0.1,0.3,0.3,0.3,0.5c0,0.5-0.4,0.7-1.9,0.7h-0.9
		c-1,0-1.2-0.2-1.2-1v-4.3h-1.1c-0.2,2.7-1,4.5-3.8,5.6l-0.1-0.2c2.1-1.3,2.6-3.1,2.6-5.4h-1.9l-0.1-0.3h3.5v-2.4h-1.5
		c-0.3,0.7-0.8,1.4-1.4,2l-0.2-0.1c0.6-1.4,1-2.9,1.1-4.4l1.6,0.3c0,0.1-0.2,0.3-0.4,0.3c-0.1,0.5-0.3,1.1-0.5,1.6h1.4V197l1.6,0.1
		c0,0.2-0.1,0.3-0.4,0.3v2h1.4l0.7-0.9c0,0,0.8,0.6,1.2,1c0,0.1-0.2,0.2-0.3,0.2h-2.9v2.4h1.7l0.7-0.9c0,0,0.8,0.6,1.2,1.1
		c0,0.1-0.2,0.2-0.3,0.2h-2.4v4c0,0.2,0,0.2,0.3,0.2h1.4c0.1,0,0.2-0.1,0.2-0.2c0.2-0.6,0.3-1.1,0.4-1.7h0.1L388.7,206.6z"/>
	<path class="st1" d="M399.6,202.5c0,0,0.8,0.6,1.4,1.1c0,0.1-0.2,0.2-0.3,0.2H396v2.7c0,0.9-0.3,1.5-1.9,1.6c0-0.3-0.2-0.6-0.4-0.9
		c-0.4-0.3-0.9-0.4-1.4-0.4v-0.2c0,0,1.8,0.1,2.2,0.1c0.4,0,0.3-0.1,0.3-0.3v-2.6h-5l-0.1-0.3h5.1v-2.3h-4.3l-0.1-0.3h4.4v-2.1
		c-1.4,0.1-2.9,0.2-4.4,0.2v-0.2c2.8-0.3,5.5-0.9,8.1-1.8l1.2,1.2c-0.1,0.1-0.4,0.1-0.8,0c-1,0.2-2,0.4-3,0.5v2.2h2.4l0.7-0.9
		c0,0,0.8,0.6,1.3,1.1c0,0.1-0.2,0.2-0.3,0.2H396v2.3h2.9L399.6,202.5z"/>
	<path class="st1" d="M403.5,201.1v6.5c0,0.2-0.4,0.4-0.9,0.4h-0.2v-10.8l1.2,0.5h1.9l0.5-0.6l1.1,0.8c-0.1,0.1-0.3,0.2-0.5,0.2v3.2
		c-0.3,0.2-0.6,0.3-0.9,0.3h-0.2v-0.6L403.5,201.1z M403.5,198.1v1.2h2.1v-1.2H403.5z M405.6,200.7v-1.2h-2.1v1.2H405.6z
		 M409.5,206.5c-0.3,0.2-0.6,0.3-0.9,0.3h-0.2v-0.7h-2.4v0.5c0,0.1-0.4,0.3-0.9,0.3H405v-5l1.1,0.5h2.3l0.5-0.6l1.1,0.8
		c-0.1,0.1-0.3,0.2-0.4,0.2L409.5,206.5z M406,202.8v1.3h2.4v-1.3H406z M408.4,205.8v-1.4H406v1.4H408.4z M412.7,198
		c-0.1,0.1-0.3,0.2-0.5,0.3v8.3c0,0.8-0.2,1.3-1.5,1.4c0-0.3-0.1-0.6-0.2-0.8c-0.3-0.2-0.6-0.4-1-0.4v-0.2c0,0,1.1,0.1,1.3,0.1
		s0.3-0.1,0.3-0.3v-5.4h-2.2v0.2c0,0.1-0.5,0.4-0.9,0.4h-0.2v-4.4l1.1,0.5h2l0.5-0.6L412.7,198z M408.8,198.1v1.2h2.2v-1.2H408.8z
		 M411,200.7v-1.2h-2.2v1.2H411z"/>
</g>
<g>
	<path class="st1" d="M280.2,128.5l0.9-1.2c0,0,1,0.8,1.6,1.4c0,0.1-0.2,0.2-0.4,0.2h-10.6l-0.1-0.4L280.2,128.5z"/>
	<path class="st1" d="M293.9,130.7c0,0,0.6,0.5,1,0.8c0,0.1-0.1,0.2-0.3,0.2H293c-0.2,0.5-0.4,0.9-0.8,1.2c3.3,0.8,2,2,0.9,1.5
		c-0.6-0.4-1.3-0.7-2-0.9c-1.3,0.5-2.7,0.8-4.2,1l-0.1-0.2c1.2-0.2,2.3-0.6,3.3-1.1c-0.7-0.2-1.5-0.4-2.3-0.6l0,0
		c0.2-0.3,0.4-0.6,0.6-1H287l-0.1-0.3h1.8c0.2-0.4,0.4-0.8,0.5-1h-0.6v0.3c0,0.1-0.5,0.3-0.9,0.3h-0.1v-2.7l1.1,0.4h1.5v-0.8H289
		v0.2c0,0.1-0.5,0.3-0.9,0.3h-0.1v-1.7h-0.5c0,0.1-0.1,0.2-0.3,0.2H286v0.9c2,1.1,1.2,2.6,0.5,1.9c-0.1-0.5-0.2-1.1-0.5-1.5v6.3
		c0,0.1-0.4,0.4-0.8,0.4H285v-5c-0.4,0.8-0.8,1.6-1.4,2.2l-0.2-0.1c0.8-1.5,1.2-3.2,1.4-4.9h-1.2l-0.1-0.3h1.4v-3l1.4,0.2
		c0,0.2-0.1,0.3-0.4,0.3v2.4l0,0l0.5-0.7c0,0,0.5,0.4,0.8,0.7l-0.1-0.2h0.7v-1.7l1.1,0.4h1.2v-1.5l1.5,0.1c0,0.2-0.1,0.3-0.4,0.3v1
		h1.2l0.5-0.5l1,0.7c-0.1,0.1-0.2,0.2-0.4,0.2v0.7l0.4-0.6c0,0,0.5,0.4,0.8,0.8c0,0.1-0.2,0.2-0.3,0.2h-0.9v1.2
		c0,0.1-0.5,0.3-0.8,0.3h-0.2v-0.3h-1.2v0.9h1.6l0.5-0.5l1,0.8c-0.1,0.1-0.2,0.2-0.4,0.2v1.2c-0.2,0.2-0.5,0.3-0.9,0.3H293v-0.4
		h-3.1l1,0.2c0,0.1-0.1,0.3-0.5,0.3l-0.3,0.6h1.9c0-0.2,0.1-0.5,0.1-0.7l1.5,0.1c0,0.1-0.2,0.3-0.4,0.3c0,0.1,0,0.2,0,0.3h0.3
		L293.9,130.7z M288.6,130h1.6v-1h-1.6V130z M289,126.2h1.3v-0.9H289L289,126.2z M290.2,127.4v-0.8H289v0.9L290.2,127.4z
		 M289.7,131.7c-0.2,0.3-0.4,0.6-0.5,0.8c0.7,0.1,1.3,0.1,1.8,0.2c0.3-0.3,0.6-0.6,0.7-1H289.7z M291.3,125.3v0.9h1.2v-0.9H291.3z
		 M292.6,126.5h-1.2v0.9h1.2L292.6,126.5z M291.4,129v1h1.7v-1H291.4z"/>
	<path class="st1" d="M301.6,127.4c0.5,2.8,2.5,5.1,5.2,6v0.1c-0.6,0.1-1,0.5-1.1,1.1c-2.5-1.5-4.1-4.1-4.3-7
		c-0.3,2.8-1.5,5.3-5.7,7l-0.1-0.2c2.7-1.3,4.5-4,4.7-7h-4.5l-0.1-0.3h4.6c0.1-1.1,0.1-2.3,0.1-3.6l1.7,0.2c0,0.2-0.2,0.3-0.4,0.3
		c0,1,0,2.1-0.1,3h3l0.8-1c0,0,0.9,0.7,1.4,1.2c0,0.1-0.2,0.2-0.3,0.2L301.6,127.4z"/>
	<path class="st1" d="M312.8,126.1v8.1c-0.2,0.2-0.5,0.3-0.7,0.3h-0.2v-4.7h-2.4l-0.1-0.3h0.6v-3.3h-0.5l-0.1-0.3h2.9l0.5-0.6h-3.4
		v2.9c0,2,0,4.7-1.7,6.5l-0.2-0.1c0.7-2.1,1-4.3,0.8-6.4v-3.7l1.2,0.5h4h-0.1c-0.2-0.5-0.5-0.9-0.9-1.3l0.1-0.1c2,0,2,1.2,1.5,1.4
		h2.8l0.6-0.9c0,0,0.8,0.6,1.2,1c0,0.1-0.1,0.2-0.3,0.2h-5.5c0.3,0.2,0.6,0.5,0.9,0.8c0,0.1-0.1,0.2-0.3,0.2L312.8,126.1z
		 M309.3,130.8c0.7-0.2,1.3-0.5,1.9-0.9l0.7,0.8c-0.1,0.1-0.2,0.1-0.3,0l-0.7,0.1v0.9l0.3-0.4c0.2,0.2,0.4,0.4,0.6,0.6
		c0,0.1-0.1,0.2-0.3,0.2h-0.7v0.9l0.9-0.1v0.2c-0.5,0.2-1.2,0.6-2.1,0.9c0,0.1-0.2,0.2-0.3,0.3l-0.5-1.1l1.2-0.1v-1h-0.7l-0.1-0.3
		h0.8v-0.8c-0.3,0-0.5,0-0.8,0L309.3,130.8z M311.9,126.1h-1v0.8h1V126.1z M311.9,127.3h-1v0.9h1V127.3z M311.9,129.4v-0.9h-1v0.9
		H311.9z M313.8,131.5c0.4,1,0.2,1.7-0.1,2c-0.2,0.2-0.5,0.2-0.7,0c0,0-0.1-0.1-0.1-0.1c-0.1-0.3,0-0.6,0.3-0.7
		c0.3-0.3,0.5-0.8,0.4-1.3H313.8z M318.2,129.7c0,0-0.2,0.1-0.4,0.2c0.2,0.1,0.6,0.5,0.9,0.7c0,0.1-0.1,0.2-0.3,0.2H313l-0.1-0.3
		h4.2l0.4-0.5h-0.3v-0.2h-3v0.1c0,0.1-0.4,0.3-0.7,0.3h-0.1v-3l0.9,0.4h0.9v-0.8h-1.9l-0.1-0.3h2v-1l1.4,0.1c0,0.2-0.1,0.3-0.4,0.3
		v0.6h0.9l0.6-0.7c0,0,0.6,0.5,1,0.9c0,0.1-0.1,0.2-0.3,0.2h-2.1v0.8h1l0.5-0.5l0.9,0.7c-0.1,0.1-0.2,0.2-0.4,0.2L318.2,129.7z
		 M317.4,133.4c0.3,0.1,0.3,0.2,0.3,0.3c0,0.4-0.3,0.5-1.7,0.5h-0.9c-0.8,0-0.9-0.2-0.9-0.8v-2.4l1.2,0.1c0,0.2-0.2,0.3-0.3,0.3v1.7
		c0,0.1,0,0.2,0.3,0.2h1.3c0.1,0,0.1,0,0.2-0.1c0.1-0.3,0.2-0.6,0.3-0.9h0.1L317.4,133.4z M314.2,129.3h0.6v-1.5h-0.6V129.3z
		 M315.4,127.8v1.5h0.6v-1.5L315.4,127.8z M315.6,130.8c2,0.9,1.1,2.4,0.4,1.7c0-0.6-0.2-1.1-0.5-1.6L315.6,130.8z M317.3,129.3
		v-1.5h-0.6v1.5L317.3,129.3z M317.3,131.2c2.2,1.1,1.3,2.7,0.5,2c-0.1-0.7-0.3-1.3-0.7-1.9L317.3,131.2z"/>
</g>
<rect x="12" y="67.2" class="st0" width="76.8" height="60.6"/>
<line class="st0" x1="22.5" y1="127.8" x2="22.5" y2="67.2"/>
<line class="st0" x1="31.5" y1="127.8" x2="31.5" y2="67.2"/>
<path class="st0" d="M13.8,124v-22.6c0-0.5,0.4-0.9,0.9-0.9h6.9c0.5,0,0.9,0.4,0.9,0.9V124c0,0.5-0.4,0.9-0.9,0.9h-6.9
	C14.2,124.9,13.8,124.5,13.8,124z"/>
<path class="st0" d="M13.8,93.7V71c0-0.5,0.4-0.9,0.9-0.9h7c0.5,0,0.9,0.4,0.9,0.9v22.6c0,0.5-0.4,0.9-0.9,0.9h-7
	C14.2,94.6,13.8,94.2,13.8,93.7z"/>
<rect x="362.7" y="69.1" class="st2" width="52.4" height="21.5"/>
<rect x="315.5" y="54.9" class="st2" width="21.5" height="52.4"/>
<rect x="351.6" y="87.3" class="st2" width="2" height="14.2"/>
<rect x="338.8" y="87.3" class="st3" width="12.9" height="14.2"/>
<rect x="351.6" y="60.7" class="st2" width="2" height="14.2"/>
<rect x="338.8" y="60.7" class="st3" width="12.9" height="14.2"/>
<rect x="298.7" y="60.7" class="st2" width="2" height="14.2"/>
<rect x="300.8" y="60.7" class="st3" width="12.9" height="14.2"/>
<rect x="298.7" y="87.3" class="st2" width="2" height="14.2"/>
<rect x="300.8" y="87.3" class="st3" width="12.9" height="14.2"/>
<path class="st3" d="M263.1,109.2v-3.6c0-0.3,0.2-0.5,0.5-0.5h23.1c0.3,0,0.5,0.2,0.5,0.5v3.6c0,0.3-0.2,0.5-0.5,0.5h-23.1
	C263.3,109.7,263.1,109.5,263.1,109.2z"/>
<path class="st3" d="M263.1,50.1v-3.6c0-0.3,0.2-0.5,0.5-0.5h23.1c0.3,0,0.6,0.2,0.6,0.5v3.6c0,0.3-0.2,0.5-0.6,0.5h-23.1
	C263.3,50.6,263.1,50.4,263.1,50.1z"/>
<path class="st3" d="M283.1,50.6h3.6c0.3,0,0.5,0.2,0.5,0.5v53.2c0,0.3-0.2,0.6-0.5,0.6h-3.6c-0.3,0-0.5-0.2-0.5-0.6V51.2
	C282.5,50.9,282.8,50.6,283.1,50.6z"/>
<path class="st3" d="M263.1,104.1V87.8c0-0.5,0.4-0.9,0.9-0.9h17.6c0.5,0,0.9,0.4,0.9,0.9v16.2c0,0.5-0.4,0.9-0.9,0.9H264
	C263.5,105,263.1,104.6,263.1,104.1z"/>
<path class="st3" d="M263.1,85.9V69.7c0-0.5,0.4-0.9,0.9-0.9h17.6c0.5,0,0.9,0.4,0.9,0.9v16.2c0,0.5-0.4,0.9-0.9,0.9H264
	C263.5,86.9,263.1,86.5,263.1,85.9z"/>
<path class="st3" d="M263.1,67.8V51.6c0-0.5,0.4-0.9,0.9-0.9h17.6c0.5,0,0.9,0.4,0.9,0.9v16.2c0,0.5-0.4,0.9-0.9,0.9H264
	C263.5,68.8,263.1,68.3,263.1,67.8z"/>
<rect x="12" y="49.8" class="st0" width="14.9" height="14.9"/>
<rect x="12" y="130.2" class="st0" width="14.9" height="14.9"/>
<rect x="78.3" y="152.8" class="st0" width="14.2" height="2"/>
<rect x="78.3" y="154.8" class="st0" width="14.2" height="5.4"/>
<polygon class="st0" points="92.5,160.2 78.4,160.2 63.3,160.2 63.3,173.9 107.6,173.9 107.6,160.2 "/>
<path class="st0" d="M233.2,79.1c-3.9,0.8-6.9,5.7-6.9,11.7c0,6.6,3.6,11.9,7.9,11.9s7.9-5.3,7.9-11.9c0-2.4-0.5-4.9-1.6-7.1
	c-0.2,0-0.4,0-0.6,0.1C237.4,83.9,235,82,233.2,79.1z"/>
<path class="st0" d="M240.1,52.9c-5.3,0-9.6,6.9-9.6,15.5c-0.1,3.8,0.9,7.5,2.7,10.8c1.7,2.9,4.2,4.7,6.9,4.7c0.2,0,0.4,0,0.6-0.1
	c5-0.5,9-7.2,9-15.4C249.6,59.8,245.4,52.9,240.1,52.9z"/>
<g class="st4">
	<path class="st1" d="M114.6,81.8c-0.3,0.3-0.5,0.5-0.8,0.7l-0.2-0.1c0.6-0.8,1.2-2.1,1.5-3.4l1.3,0.5c0,0.1-0.2,0.2-0.5,0.2
		c-0.1,0.3-0.3,0.6-0.5,0.9l0.2,0.1h2.2l0.5-0.6c0,0,0.6,0.4,0.9,0.8c0,0.1-0.1,0.2-0.3,0.2h-1.5v1h0.3l0.4-0.5c0,0,0.4,0.3,0.7,0.6
		c0.5-0.8,0.9-1.9,1.2-3.1l1.3,0.4c0,0.1-0.2,0.3-0.4,0.2c-0.1,0.3-0.3,0.6-0.4,0.9l0.2,0.1h2.4l0.5-0.6c0,0,0.6,0.4,0.9,0.8
		c0,0.1-0.1,0.2-0.3,0.2h-1.6v1h0.4l0.4-0.6c0,0,0.5,0.4,0.8,0.7c0,0.1-0.1,0.2-0.3,0.2h-1.4v1.1h0.4l0.4-0.6c0,0,0.5,0.4,0.8,0.7
		c0,0.1-0.1,0.2-0.3,0.2h-1.4v1.1h0.7l0.5-0.6c0,0,0.6,0.5,1,0.8c0,0.1-0.1,0.2-0.3,0.2h-3.9v0.1c0,0.1-0.3,0.3-0.8,0.3h-0.2v-3.8
		c-0.2,0.2-0.4,0.4-0.7,0.6l-0.2-0.1h-0.1h-1.3v1.1h0.3l0.4-0.6c0,0,0.5,0.4,0.8,0.7c0,0.1-0.1,0.2-0.3,0.2h-1.3v1.1h0.5l0.5-0.6
		c0,0,0.6,0.4,0.9,0.8c0,0.1-0.1,0.2-0.3,0.2h-3.6v0.2c0,0.1-0.3,0.3-0.8,0.3h-0.2V81.8z M123.5,86.3c-0.1,0.1-0.2,0.1-0.6,0.2
		c-0.6,0.7-1.4,1.3-2.3,1.8c1.4,0.4,2.9,0.6,4.4,0.6l0,0.2c-0.5,0.1-0.8,0.5-0.9,1.1c-1.8-0.2-3.4-0.6-4.7-1.3
		c-1.6,0.7-3.5,1.1-5.5,1.3l-0.1-0.2c1.7-0.3,3.4-0.8,4.8-1.5c-0.9-0.6-1.7-1.3-2.2-2.2h-2l-0.1-0.3h7.5l0.7-0.6L123.5,86.3z
		 M115.6,80.9v1h1v-1H115.6z M116.6,82.3h-1v1.1h1V82.3z M116.6,83.8h-1v1.1h1V83.8z M116.3,79c2.3,0.4,1.4,2,0.6,1.4
		c0-0.5-0.4-1-0.7-1.3L116.3,79z M116.6,86.3c0.7,0.7,1.7,1.3,2.8,1.7c0.8-0.5,1.5-1.1,2.1-1.7H116.6z M120.7,80.9v1h1.1v-1H120.7z
		 M121.8,82.3h-1.1v1.1h1.1V82.3z M121.8,83.8h-1.1v1.1h1.1V83.8z M121.5,79c2.3,0.4,1.4,2,0.6,1.4c0-0.4-0.4-1-0.7-1.3L121.5,79z"
		/>
	<path class="st1" d="M119.9,91.4c0,0.2-0.1,0.3-0.4,0.3c0.3,4.5,1.4,7.4,5.5,9.1l0,0.1c-0.6,0.1-1,0.5-1.1,1.1
		c-3.1-1.7-4.1-4.5-4.4-8.2c-0.2,3-1.1,6.1-5.5,8.3l-0.1-0.2c4.6-3.1,4.5-7,4.5-10.7L119.9,91.4z"/>
	<path class="st1" d="M115.9,107.9c0,2-0.1,4.5-2.1,6.2l-0.2-0.1c1.1-1.8,1.2-4.1,1.2-6.1v-3.5l1.3,0.5h3.8c-0.1,0-0.2-0.1-0.3-0.1
		c-0.2-0.6-0.7-1.4-1.2-1.8l0.1-0.1c2.4,0.3,2.4,1.8,1.7,2h2.8l0.7-0.9c0,0,0.8,0.6,1.2,1c0,0.1-0.2,0.2-0.3,0.2h-8.7V107.9z
		 M121,108.2c0.9,1.8,2.5,3.2,4.1,3.9l0,0.1c-0.4,0.1-0.8,0.4-1,1c-1.4-1-2.6-2.6-3.3-4.8v5.4c0,0.1-0.5,0.4-0.9,0.4h-0.2v-4.4
		c-0.9,1.5-2.3,2.8-4.1,3.7l-0.1-0.2c1.8-1.3,3-3.2,3.7-5.2h-2.7l-0.1-0.3h3.3v-2.2l1.6,0.2c0,0.2-0.1,0.3-0.5,0.3v1.7h2.1l0.6-0.8
		c0,0,0.7,0.6,1.2,1c0,0.1-0.2,0.2-0.3,0.2H121z"/>
</g>
</svg>
