<svg xmlns="http://www.w3.org/2000/svg" viewBox="0 0 427.6 220.4"><defs><style>.cls-1,.cls-3,.cls-4{fill:none;stroke:#898989;stroke-linecap:round;stroke-linejoin:round;}.cls-1{stroke-width:0.55px;}.cls-2,.cls-5{fill:#898989;}.cls-3{stroke-width:0.47px;}.cls-4{stroke-width:0.5px;}.cls-5{writing-mode:tb;text-orientation:upright;glyph-orientation-vertical:0deg;font-size:10px;font-family:SourceHanSerifTC-SemiBold-B5pc-H, Source Han Serif TC;}</style></defs><title>room</title><g id="圖層_1" data-name="圖層 1"><line class="cls-1" x1="158.69" y1="50.55" x2="211.01" y2="50.55"/><line class="cls-1" x1="154.91" y1="81.58" x2="154.91" y2="109.58"/><line class="cls-1" x1="415.1" y1="116.37" x2="415.1" y2="16.21"/><line class="cls-1" x1="7.72" y1="155.9" x2="7.72" y2="38.56"/><line class="cls-1" x1="3.25" y1="155.9" x2="3.25" y2="38.56"/><line class="cls-1" x1="18.19" y1="20.68" x2="106.37" y2="20.68"/><line class="cls-1" x1="18.19" y1="25.15" x2="106.37" y2="25.15"/><line class="cls-1" x1="160.21" y1="17.55" x2="160.21" y2="12.99"/><line class="cls-1" x1="203.58" y1="1.99" x2="203.58" y2="26.67"/><line class="cls-1" x1="196.07" y1="6.46" x2="196.07" y2="13.97"/><line class="cls-1" x1="203.58" y1="1.99" x2="196.07" y2="1.99"/><line class="cls-1" x1="158.69" y1="1.99" x2="151.27" y2="1.99"/><line class="cls-1" x1="294.81" y1="211.26" x2="188.65" y2="211.26"/><line class="cls-1" x1="279.78" y1="211.26" x2="279.78" y2="185.87"/><line class="cls-1" x1="287.3" y1="211.26" x2="287.3" y2="185.87"/><line class="cls-1" x1="294.81" y1="211.26" x2="294.81" y2="184.35"/><line class="cls-1" x1="272.36" y1="211.26" x2="272.36" y2="185.87"/><line class="cls-1" x1="264.85" y1="211.26" x2="264.85" y2="185.87"/><line class="cls-1" x1="257.43" y1="211.26" x2="257.43" y2="185.87"/><line class="cls-1" x1="249.91" y1="211.26" x2="249.91" y2="185.87"/><line class="cls-1" x1="183.91" y1="211.22" x2="183.91" y2="185.82"/><line class="cls-1" x1="191.42" y1="211.22" x2="191.42" y2="185.82"/><line class="cls-1" x1="198.93" y1="211.22" x2="198.93" y2="185.82"/><line class="cls-1" x1="206.45" y1="211.22" x2="206.45" y2="185.82"/><line class="cls-1" x1="213.96" y1="211.22" x2="213.96" y2="185.82"/><line class="cls-1" x1="221.47" y1="211.22" x2="221.47" y2="185.82"/><line class="cls-1" x1="176.48" y1="211.22" x2="176.48" y2="185.82"/><line class="cls-1" x1="168.97" y1="211.22" x2="168.97" y2="185.82"/><line class="cls-1" x1="161.55" y1="211.22" x2="161.55" y2="185.82"/><line class="cls-1" x1="154.04" y1="211.22" x2="154.04" y2="185.82"/><line class="cls-1" x1="424.13" y1="211.26" x2="114.6" y2="211.26"/><line class="cls-1" x1="415.1" y1="172.36" x2="353.84" y2="172.36"/><polyline class="cls-1" points="316.63 199.28 246.43 199.28 249.2 200.18"/><line class="cls-1" x1="246.43" y1="199.28" x2="249.2" y2="198.39"/><polygon class="cls-1" points="318.06 199.28 317.88 198.56 317.35 198.03 316.63 197.76 315.83 198.03 315.29 198.56 315.11 199.28 315.29 200.09 315.83 200.62 316.63 200.8 317.35 200.62 317.88 200.09 318.06 199.28"/><polyline class="cls-1" points="424.13 218.69 114.6 218.69 114.6 211.26"/><line class="cls-1" x1="316.63" y1="178.35" x2="316.63" y2="211.26"/><line class="cls-1" x1="279.78" y1="184.35" x2="279.78" y2="178.35"/><line class="cls-1" x1="24.18" y1="173.88" x2="76.5" y2="173.88"/><line class="cls-1" x1="18.19" y1="178.35" x2="76.5" y2="178.35"/><line class="cls-1" x1="94.39" y1="178.35" x2="149.74" y2="178.35"/><line class="cls-1" x1="104.94" y1="25.15" x2="104.94" y2="20.68"/><line class="cls-1" x1="106.37" y1="31.14" x2="106.37" y2="20.68"/><polyline class="cls-1" points="110.84 20.68 110.84 26.67 151.27 26.67"/><line class="cls-1" x1="106.37" y1="20.68" x2="110.84" y2="20.68"/><line class="cls-1" x1="151.27" y1="31.14" x2="106.37" y2="31.14"/><polyline class="cls-1" points="242.49 185.87 245.98 197.76 247.77 197.76"/><polyline class="cls-1" points="246.87 200.8 245.08 200.8 247.77 197.76"/><line class="cls-1" x1="246.87" y1="200.8" x2="249.91" y2="211.26"/><line class="cls-1" x1="424.13" y1="211.26" x2="424.13" y2="218.69"/><line class="cls-1" x1="419.66" y1="178.35" x2="419.66" y2="211.26"/><line class="cls-1" x1="415.1" y1="178.35" x2="415.1" y2="211.26"/><line class="cls-1" x1="106.37" y1="20.68" x2="104.94" y2="20.68"/><line class="cls-1" x1="106.37" y1="25.15" x2="104.94" y2="25.15"/><polyline class="cls-1" points="415.1 16.21 424.13 16.21 424.13 116.37"/><line class="cls-1" x1="158.69" y1="5.56" x2="173.71" y2="5.56"/><line class="cls-1" x1="3.25" y1="155.9" x2="13.71" y2="155.9"/><line class="cls-1" x1="3.25" y1="160.46" x2="9.24" y2="160.46"/><line class="cls-1" x1="13.71" y1="155.9" x2="13.71" y2="169.41"/><line class="cls-1" x1="9.24" y1="160.46" x2="9.24" y2="169.41"/><line class="cls-1" x1="196.07" y1="1.99" x2="173.71" y2="1.99"/><line class="cls-1" x1="196.07" y1="6.46" x2="178.18" y2="6.46"/><line class="cls-1" x1="196.07" y1="13.97" x2="178.18" y2="13.97"/><line class="cls-1" x1="173.71" y1="17.55" x2="158.69" y2="17.55"/><line class="cls-1" x1="173.71" y1="12.99" x2="158.69" y2="12.99"/><line class="cls-1" x1="173.71" y1="1.99" x2="173.71" y2="17.55"/><line class="cls-1" x1="172.19" y1="12.99" x2="172.19" y2="17.55"/><line class="cls-1" x1="178.18" y1="6.46" x2="178.18" y2="13.97"/><line class="cls-1" x1="196.07" y1="17.55" x2="178.18" y2="17.55"/><line class="cls-1" x1="279.78" y1="178.35" x2="314.22" y2="178.35"/><line class="cls-1" x1="291.77" y1="178.35" x2="305.27" y2="178.35"/><line class="cls-1" x1="415.1" y1="116.37" x2="424.13" y2="116.37"/><line class="cls-1" x1="178.18" y1="17.55" x2="173.71" y2="17.55"/><line class="cls-1" x1="160.21" y1="16.03" x2="172.19" y2="16.03"/><line class="cls-1" x1="160.21" y1="14.51" x2="172.19" y2="14.51"/><line class="cls-1" x1="94.39" y1="173.88" x2="149.74" y2="173.88"/><polyline class="cls-1" points="424.09 149.2 424.09 178.35 415.14 178.35"/><polyline class="cls-1" points="424.04 149.2 415.1 149.2 415.1 178.35"/><line class="cls-1" x1="349.36" y1="168.69" x2="349.36" y2="187.3"/><line class="cls-1" x1="353.84" y1="172.36" x2="353.84" y2="187.3"/><line class="cls-1" x1="349.36" y1="211.26" x2="353.84" y2="211.26"/><line class="cls-1" x1="349.36" y1="187.3" x2="353.84" y2="187.3"/><polygon class="cls-1" points="353.84 211.26 353.84 210.37 352.94 210.37 352.94 209.48 350.88 209.48 350.88 211.26 353.84 211.26"/><polygon class="cls-1" points="353.84 187.3 353.84 188.28 352.94 188.28 352.94 189.18 350.88 189.18 350.88 187.3 353.84 187.3"/><polyline class="cls-1" points="375.93 210.37 353.84 210.37 353.84 209.48 375.93 209.48"/><path class="cls-1" d="M353.84,188.28l2.68.09a22.23,22.23,0,0,1,19.32,19.32l.08,2.68"/><line class="cls-1" x1="76.5" y1="178.35" x2="76.5" y2="173.88"/><polyline class="cls-1" points="94.39 173.88 94.39 178.35 76.5 178.35"/><line class="cls-1" x1="76.5" y1="173.88" x2="94.39" y2="173.88"/><line class="cls-1" x1="78.29" y1="173.88" x2="78.29" y2="177.46"/><line class="cls-1" x1="92.6" y1="173.88" x2="92.6" y2="177.46"/><line class="cls-1" x1="78.29" y1="175.04" x2="92.6" y2="175.04"/><line class="cls-1" x1="78.29" y1="176.29" x2="92.6" y2="176.29"/><line class="cls-1" x1="76.5" y1="177.46" x2="94.39" y2="177.46"/><line class="cls-1" x1="370.29" y1="172.36" x2="370.29" y2="169.68"/><polyline class="cls-1" points="361.35 169.68 361.35 172.36 364.57 172.36"/><line class="cls-1" x1="366.98" y1="172.36" x2="370.29" y2="172.36"/><line class="cls-1" x1="110.84" y1="26.67" x2="110.84" y2="21.48"/><line class="cls-1" x1="6.2" y1="154.47" x2="6.2" y2="126.84"/><line class="cls-1" x1="6.2" y1="125.32" x2="6.2" y2="97.68"/><line class="cls-1" x1="6.2" y1="96.16" x2="6.2" y2="68.53"/><line class="cls-1" x1="6.2" y1="67.01" x2="6.2" y2="40.09"/><line class="cls-1" x1="4.68" y1="154.47" x2="4.68" y2="126.84"/><line class="cls-1" x1="4.68" y1="125.32" x2="4.68" y2="97.68"/><line class="cls-1" x1="4.68" y1="96.16" x2="4.68" y2="68.53"/><line class="cls-1" x1="4.68" y1="67.01" x2="4.68" y2="40.09"/><line class="cls-1" x1="3.25" y1="38.56" x2="7.72" y2="38.56"/><line class="cls-1" x1="3.25" y1="67.01" x2="7.72" y2="67.01"/><line class="cls-1" x1="3.25" y1="68.53" x2="7.72" y2="68.53"/><line class="cls-1" x1="3.25" y1="40.09" x2="7.72" y2="40.09"/><line class="cls-1" x1="3.25" y1="154.47" x2="7.72" y2="154.47"/><line class="cls-1" x1="3.25" y1="125.32" x2="7.72" y2="125.32"/><line class="cls-1" x1="3.25" y1="126.84" x2="7.72" y2="126.84"/><line class="cls-1" x1="3.25" y1="96.16" x2="7.72" y2="96.16"/><line class="cls-1" x1="3.25" y1="97.68" x2="7.72" y2="97.68"/><line class="cls-1" x1="19.71" y1="23.63" x2="83.92" y2="23.63"/><line class="cls-1" x1="19.71" y1="22.11" x2="83.92" y2="22.11"/><line class="cls-1" x1="85.44" y1="22.11" x2="104.94" y2="22.11"/><line class="cls-1" x1="104.94" y1="25.15" x2="104.94" y2="20.68"/><line class="cls-1" x1="83.92" y1="25.15" x2="83.92" y2="20.68"/><line class="cls-1" x1="85.44" y1="25.15" x2="85.44" y2="20.68"/><line class="cls-1" x1="19.71" y1="25.15" x2="19.71" y2="20.68"/><line class="cls-1" x1="85.44" y1="23.63" x2="104.94" y2="23.63"/><rect class="cls-1" x="305.27" y="26.67" width="1.43" height="4.47"/><line class="cls-1" x1="305.27" y1="31.14" x2="415.1" y2="31.14"/><line class="cls-1" x1="306.7" y1="28.1" x2="330.67" y2="28.1"/><line class="cls-1" x1="332.19" y1="28.1" x2="388.18" y2="28.1"/><rect class="cls-1" x="388.18" y="26.67" width="1.52" height="4.47"/><rect class="cls-1" x="413.67" y="26.67" width="1.43" height="4.47"/><line class="cls-1" x1="389.7" y1="28.1" x2="413.67" y2="28.1"/><line class="cls-1" x1="415.1" y1="28.1" x2="415.1" y2="28.01"/><line class="cls-1" x1="415.1" y1="29.62" x2="415.1" y2="29.53"/><line class="cls-1" x1="389.7" y1="29.62" x2="413.67" y2="29.62"/><line class="cls-1" x1="306.7" y1="29.62" x2="330.67" y2="29.62"/><line class="cls-1" x1="332.19" y1="29.62" x2="388.18" y2="29.62"/><line class="cls-1" x1="305.27" y1="26.67" x2="415.1" y2="26.67"/><rect class="cls-1" x="330.67" y="26.67" width="1.52" height="4.47"/><rect class="cls-1" x="9.24" y="169.41" width="14.94" height="8.95"/><rect class="cls-1" x="151.27" y="26.67" width="7.42" height="23.88"/><rect class="cls-1" x="196.07" y="26.67" width="7.51" height="23.88"/><line class="cls-1" x1="158.69" y1="26.67" x2="158.69" y2="1.99"/><line class="cls-1" x1="151.27" y1="26.67" x2="151.27" y2="1.99"/><line class="cls-1" x1="203.58" y1="26.67" x2="287.3" y2="26.67"/><line class="cls-1" x1="203.58" y1="31.14" x2="287.3" y2="31.14"/><rect class="cls-1" x="258.86" y="26.67" width="1.52" height="4.47"/><line class="cls-1" x1="260.38" y1="28.1" x2="285.78" y2="28.1"/><line class="cls-1" x1="260.38" y1="29.62" x2="285.78" y2="29.62"/><line class="cls-1" x1="205.11" y1="28.1" x2="231.94" y2="28.1"/><line class="cls-1" x1="233.46" y1="28.1" x2="258.86" y2="28.1"/><line class="cls-1" x1="205.11" y1="29.62" x2="231.94" y2="29.62"/><line class="cls-1" x1="233.46" y1="29.62" x2="258.86" y2="29.62"/><line class="cls-1" x1="196.07" y1="17.55" x2="196.07" y2="26.67"/><rect class="cls-1" x="203.58" y="26.67" width="1.52" height="4.47"/><rect class="cls-1" x="285.78" y="26.67" width="1.52" height="4.47"/><rect class="cls-1" x="149.74" y="160.46" width="8.94" height="17.89"/><line class="cls-1" x1="202.69" y1="117.09" x2="202.69" y2="114.5"/><polyline class="cls-1" points="202.69 112.17 202.69 109.58 207.43 109.58"/><polyline class="cls-1" points="209.84 109.58 214.68 109.58 214.68 112.17"/><polyline class="cls-1" points="214.68 114.5 214.68 117.09 209.84 117.09"/><line class="cls-1" x1="207.43" y1="117.09" x2="202.69" y2="117.09"/><line class="cls-1" x1="163.16" y1="117.09" x2="163.16" y2="114.5"/><polyline class="cls-1" points="163.16 112.17 163.16 109.58 158.42 109.58"/><polyline class="cls-1" points="156 109.58 151.27 109.58 151.27 112.17"/><polyline class="cls-1" points="151.27 114.5 151.27 117.09 156 117.09"/><line class="cls-1" x1="158.42" y1="117.09" x2="163.16" y2="117.09"/><polyline class="cls-1" points="316.63 173.88 305.27 173.88 312.16 173.88"/><polyline class="cls-1" points="305.27 178.35 316.63 178.35 316.63 160.47"/><line class="cls-1" x1="313.05" y1="164.04" x2="313.05" y2="173.88"/><rect class="cls-1" x="291.77" y="160.46" width="13.51" height="17.89"/><line class="cls-1" x1="316.63" y1="160.46" x2="305.27" y2="160.46"/><line class="cls-1" x1="313.05" y1="164.04" x2="305.27" y2="164.04"/><line class="cls-1" x1="349.36" y1="168.69" x2="415.1" y2="168.69"/><rect class="cls-1" x="3.25" y="20.68" width="14.94" height="17.88"/><line class="cls-1" x1="18.19" y1="38.56" x2="18.19" y2="35.88"/><line class="cls-1" x1="18.19" y1="33.47" x2="18.19" y2="28.73"/><polyline class="cls-1" points="18.19 26.31 18.19 23.63 14.88 23.63"/><polyline class="cls-1" points="12.46 23.63 9.24 23.63 9.24 26.31"/><line class="cls-1" x1="9.24" y1="28.73" x2="9.24" y2="33.47"/><polyline class="cls-1" points="9.24 35.88 9.24 38.56 12.46 38.56"/><line class="cls-1" x1="14.88" y1="38.56" x2="18.19" y2="38.56"/><line class="cls-1" x1="415.1" y1="179.87" x2="419.66" y2="179.87"/><line class="cls-1" x1="415.1" y1="197.76" x2="415.1" y2="178.35"/><line class="cls-1" x1="419.66" y1="197.76" x2="419.66" y2="178.35"/><line class="cls-1" x1="419.66" y1="196.33" x2="415.1" y2="196.33"/><line class="cls-1" x1="416.62" y1="179.87" x2="416.62" y2="196.33"/><line class="cls-1" x1="418.14" y1="179.87" x2="418.14" y2="196.33"/><line class="cls-1" x1="419.66" y1="197.76" x2="415.1" y2="197.76"/><polyline class="cls-1" points="419.66 200.53 425.02 200.53 425.02 196.87 419.66 196.87"/><rect class="cls-1" x="425.02" y="155.75" width="1.16" height="41.12"/><rect class="cls-1" x="121.3" y="178.35" width="4.56" height="32.91"/><polyline class="cls-1" points="214.68 117.09 151.27 117.09 151.27 109.58"/><line class="cls-1" x1="211.01" y1="109.58" x2="211.01" y2="46.08"/><line class="cls-1" x1="214.68" y1="46.08" x2="214.68" y2="117.09"/><line class="cls-1" x1="194.01" y1="50.55" x2="194.01" y2="109.58"/><line class="cls-1" x1="214.68" y1="46.08" x2="211.01" y2="46.08"/><line class="cls-1" x1="214.68" y1="117.09" x2="211.01" y2="117.09"/><line class="cls-1" x1="208.68" y1="73" x2="208.68" y2="87.04"/><line class="cls-1" x1="198.13" y1="71.21" x2="206.8" y2="71.21"/><line class="cls-1" x1="196.34" y1="73" x2="196.34" y2="87.04"/><line class="cls-1" x1="206.71" y1="72.1" x2="198.22" y2="72.1"/><line class="cls-1" x1="197.32" y1="73.09" x2="197.32" y2="86.95"/><line class="cls-1" x1="207.61" y1="73.09" x2="207.61" y2="86.95"/><line class="cls-1" x1="206.8" y1="88.83" x2="198.13" y2="88.83"/><line class="cls-1" x1="198.22" y1="87.85" x2="206.71" y2="87.85"/><polyline class="cls-1" points="207.61 73.09 207.52 72.55 207.16 72.28 206.71 72.1"/><polyline class="cls-1" points="198.22 72.1 197.77 72.28 197.41 72.55 197.32 73.09"/><polyline class="cls-1" points="198.13 71.21 197.41 71.3 196.88 71.75 196.43 72.37 196.34 73"/><polyline class="cls-1" points="208.68 73 208.5 72.37 208.14 71.75 207.52 71.3 206.8 71.21"/><polygon class="cls-1" points="206.09 80.06 206 79.71 205.64 79.35 205.28 79.26 204.93 79.35 204.57 79.71 204.48 80.06 204.57 80.51 204.93 80.78 205.28 80.87 205.64 80.78 206 80.51 206.09 80.06"/><polyline class="cls-1" points="198.66 72.55 198.22 72.73 197.86 73 197.77 73.53"/><polyline class="cls-1" points="197.77 86.5 198.31 84 198.66 81.31 198.66 78.72 198.31 76.04 197.77 73.53"/><polyline class="cls-1" points="197.32 86.95 197.41 87.4 197.77 87.76 198.22 87.84"/><polyline class="cls-1" points="206.71 87.84 207.16 87.76 207.52 87.4 207.61 86.95"/><polyline class="cls-1" points="206.8 88.83 207.52 88.74 208.14 88.29 208.5 87.76 208.68 87.04"/><polyline class="cls-1" points="196.34 87.04 196.43 87.76 196.88 88.29 197.41 88.74 198.13 88.83"/><polyline class="cls-1" points="197.77 86.5 197.86 87.04 198.22 87.31 198.66 87.49"/><line class="cls-1" x1="208.68" y1="73" x2="208.68" y2="87.04"/><line class="cls-1" x1="198.13" y1="71.21" x2="206.8" y2="71.21"/><line class="cls-1" x1="196.34" y1="73" x2="196.34" y2="87.04"/><line class="cls-1" x1="206.71" y1="72.1" x2="198.22" y2="72.1"/><line class="cls-1" x1="197.32" y1="73.09" x2="197.32" y2="86.95"/><line class="cls-1" x1="207.61" y1="73.09" x2="207.61" y2="86.95"/><line class="cls-1" x1="206.8" y1="88.83" x2="198.13" y2="88.83"/><line class="cls-1" x1="198.22" y1="87.85" x2="206.71" y2="87.85"/><polyline class="cls-1" points="207.61 73.09 207.52 72.55 207.16 72.28 206.71 72.1"/><polyline class="cls-1" points="198.22 72.1 197.77 72.28 197.41 72.55 197.32 73.09"/><polyline class="cls-1" points="198.13 71.21 197.41 71.3 196.88 71.75 196.43 72.37 196.34 73"/><polyline class="cls-1" points="208.68 73 208.5 72.37 208.14 71.75 207.52 71.3 206.8 71.21"/><polygon class="cls-1" points="206.09 80.06 206 79.71 205.64 79.35 205.28 79.26 204.93 79.35 204.57 79.71 204.48 80.06 204.57 80.51 204.93 80.78 205.28 80.87 205.64 80.78 206 80.51 206.09 80.06"/><polyline class="cls-1" points="197.32 86.95 197.41 87.4 197.77 87.76 198.22 87.84"/><polyline class="cls-1" points="206.71 87.84 207.16 87.76 207.52 87.4 207.61 86.95"/><polyline class="cls-1" points="206.8 88.83 207.52 88.74 208.14 88.29 208.5 87.76 208.68 87.04"/><polyline class="cls-1" points="196.34 87.04 196.43 87.76 196.88 88.29 197.41 88.74 198.13 88.83"/><line class="cls-1" x1="169.24" y1="98.13" x2="169.24" y2="101.62"/><line class="cls-1" x1="176.31" y1="98.13" x2="176.31" y2="101.62"/><line class="cls-1" x1="176.84" y1="98.13" x2="176.84" y2="102.24"/><line class="cls-1" x1="168.71" y1="98.13" x2="168.71" y2="102.24"/><line class="cls-1" x1="167.19" y1="98.13" x2="167.19" y2="109.58"/><line class="cls-1" x1="178.36" y1="98.13" x2="178.36" y2="109.58"/><line class="cls-1" x1="174.25" y1="100.28" x2="174.25" y2="102.16"/><line class="cls-1" x1="171.3" y1="102.16" x2="171.3" y2="100.28"/><polyline class="cls-1" points="174.07 99.92 174.16 100.01 174.16 100.1 174.25 100.19 174.25 100.28"/><polyline class="cls-1" points="171.3 100.28 171.3 100.1 171.39 100.01 171.48 99.92 171.75 99.65 172.01 99.47 172.28 99.38 173.27 99.38 173.53 99.47 173.8 99.65 174.07 99.92"/><path class="cls-1" d="M169.24,98.13l.09-.63c.73-3.69,6.19-3.72,6.89,0l.09.63"/><path class="cls-1" d="M168.71,98.13l.08-.72a4.07,4.07,0,0,1,8,0l.09.72"/><polyline class="cls-1" points="174.25 102.16 174.25 102.33 174.16 102.42 174.16 102.6 174.07 102.69 173.89 102.78 173.8 102.87 173.62 102.96 173.53 103.05"/><polyline class="cls-1" points="172.01 103.05 171.93 102.96 171.75 102.87 171.66 102.78 171.48 102.69 171.39 102.6 171.39 102.42 171.3 102.33 171.3 102.16"/><line class="cls-1" x1="173.53" y1="103.05" x2="172.01" y2="103.05"/><path class="cls-1" d="M176.31,101.62l-.09.35c.06.67-.59,1.18-1.16,1.35l-.36.09"/><polyline class="cls-1" points="176.84 102.24 176.84 102.6 176.75 102.87 176.22 103.67 175.95 103.85 175.59 103.94 175.32 104.03"/><polyline class="cls-1" points="170.85 103.41 170.67 103.41 170.49 103.32 170.23 103.22 170.14 103.14 169.96 103.05 169.78 102.87 169.69 102.78 169.51 102.6 169.42 102.42 169.33 102.24 169.33 102.06 169.24 101.89 169.24 101.62"/><polyline class="cls-1" points="170.23 104.03 170.05 104.03 169.87 103.94 169.69 103.85 169.33 103.67 169.24 103.5 169.06 103.32 168.97 103.23 168.79 102.87 168.79 102.69 168.71 102.51 168.71 102.24"/><path class="cls-1" d="M174.7,103.41l-.54.09a9.89,9.89,0,0,1-2.77,0l-.54-.09"/><path class="cls-1" d="M175.32,104l-.71.09a9.07,9.07,0,0,1-3.67,0l-.71-.09"/><line class="cls-1" x1="167.19" y1="109.58" x2="178.36" y2="109.58"/><path class="cls-1" d="M167.19,98.13l.08-1c1.21-5.91,9.8-5.91,11,0l.09,1"/><line class="cls-1" x1="196.07" y1="50.55" x2="196.07" y2="50.28"/><line class="cls-1" x1="211.01" y1="50.55" x2="211.01" y2="50.28"/><line class="cls-1" x1="214.68" y1="109.58" x2="151.27" y2="109.58"/><line class="cls-1" x1="383.97" y1="173.17" x2="382.72" y2="174.33"/><line class="cls-1" x1="372.79" y1="172.36" x2="384.78" y2="172.36"/><line class="cls-1" x1="376.02" y1="173.17" x2="376.02" y2="174.33"/><line class="cls-1" x1="383.97" y1="179.43" x2="382.81" y2="178.17"/><line class="cls-1" x1="373.06" y1="180.14" x2="384.51" y2="180.14"/><line class="cls-1" x1="384.78" y1="179.87" x2="384.78" y2="172.36"/><line class="cls-1" x1="372.79" y1="179.87" x2="372.79" y2="172.36"/><polyline class="cls-1" points="384.51 180.14 384.69 180.05 384.78 179.88"/><polyline class="cls-1" points="372.79 179.88 372.89 180.05 373.06 180.14"/><polyline class="cls-1" points="384.24 179.16 384.24 173.34 384.06 173.08 383.8 172.9"/><polyline class="cls-1" points="375.84 173.34 375.84 179.16 375.93 179.52 376.28 179.6"/><polyline class="cls-1" points="383.8 172.9 376.28 172.9 375.93 172.99 375.84 173.34"/><polyline class="cls-1" points="376.28 179.6 383.8 179.6 384.06 179.52 384.24 179.16"/><polyline class="cls-1" points="375.84 177.73 375.93 178.09 376.28 178.17 382.37 178.17 382.63 178.09 382.81 177.73 382.81 174.78 382.63 174.51 382.37 174.33 376.28 174.33 375.93 174.51 375.84 174.78"/><line class="cls-1" x1="376.02" y1="179.34" x2="376.02" y2="178.26"/><polyline class="cls-1" points="406.24 173.79 406.06 173.26 405.89 172.99 405.53 172.63 405.26 172.45 404.99 172.45 404.63 172.36"/><path class="cls-1" d="M396.85,172.36l-.27.09c-.62,0-1,.58-1.25,1.07v.27"/><polyline class="cls-1" points="396.32 177.73 400.79 177.82 405.26 177.73"/><path class="cls-1" d="M395.24,176.65v.18c.15.35.39.81.81.81l.27.09"/><line class="cls-1" x1="395.33" y1="173.79" x2="395.24" y2="176.65"/><polyline class="cls-1" points="405.26 177.73 405.44 177.64 405.62 177.64 405.8 177.46 405.98 177.37 406.15 177.19 406.24 177.01 406.24 176.83 406.33 176.65"/><polygon class="cls-1" points="401.24 175.31 401.24 175.13 401.15 175.04 401.15 174.96 401.06 174.96 400.97 174.87 400.52 174.87 400.43 174.96 400.43 175.04 400.34 175.04 400.34 175.49 400.43 175.58 400.52 175.67 400.61 175.67 400.7 175.76 400.88 175.76 400.97 175.67 401.06 175.67 401.15 175.58 401.15 175.49 401.24 175.49 401.24 175.31"/><line class="cls-1" x1="406.33" y1="176.65" x2="406.24" y2="173.79"/><line class="cls-1" x1="396.85" y1="172.36" x2="404.64" y2="172.36"/><line class="cls-1" x1="395.24" y1="187.48" x2="395.24" y2="176.74"/><line class="cls-1" x1="406.33" y1="187.48" x2="406.33" y2="176.74"/><path class="cls-1" d="M395.24,187.48l.18,1.43a5.53,5.53,0,0,0,10.65,0l.26-1.43"/><path class="cls-1" d="M396.85,187.48l.18,1.16a3.91,3.91,0,0,0,7.43,0l.18-1.16"/><path class="cls-1" d="M397.3,187.48l.18,1.07a3.49,3.49,0,0,0,6.62,0l.18-1.07"/><polyline class="cls-1" points="398.46 181.93 397.84 182.11 397.3 182.47 396.94 183 396.85 183.72"/><polyline class="cls-1" points="404.72 183.72 404.54 183 404.28 182.47 403.74 182.11 403.11 181.93 400.79 181.66 398.46 181.93"/><line class="cls-1" x1="396.85" y1="187.48" x2="396.85" y2="183.63"/><line class="cls-1" x1="404.72" y1="183.63" x2="404.64" y2="187.48"/><polyline class="cls-1" points="398.73 182.47 398.2 182.64 397.75 183 397.48 183.54 397.3 184.08"/><polyline class="cls-1" points="402.76 182.47 400.79 182.29 398.73 182.47"/><line class="cls-1" x1="397.3" y1="184.08" x2="397.3" y2="187.48"/><polyline class="cls-1" points="404.19 184.08 404.1 183.54 403.83 183 403.38 182.64 402.76 182.47"/><line class="cls-1" x1="404.28" y1="187.48" x2="404.19" y2="184.08"/><polyline class="cls-1" points="401.77 182.91 400.79 182.82 399.89 182.91"/><line class="cls-1" x1="399.98" y1="187.74" x2="400.79" y2="187.83"/><polyline class="cls-1" points="398.82 184.34 398.82 185.6 399.18 186.85 399.54 187.39 399.98 187.75"/><polyline class="cls-1" points="399.89 182.91 399.36 183.27 398.91 183.72 398.82 184.34"/><polyline class="cls-1" points="402.31 186.85 402.67 185.6 402.76 184.34 402.58 183.72 402.22 183.27 401.68 182.91"/><polyline class="cls-1" points="401.5 187.75 402.04 187.39 402.31 186.85"/><line class="cls-1" x1="400.79" y1="187.83" x2="401.5" y2="187.74"/><line class="cls-1" x1="3.25" y1="155.9" x2="3.25" y2="160.46"/><rect class="cls-1" x="231.94" y="26.67" width="1.52" height="4.47"/><line class="cls-1" x1="154.3" y1="118.61" x2="151.27" y2="118.61"/><line class="cls-1" x1="151.27" y1="160.46" x2="151.27" y2="142.49"/><line class="cls-1" x1="155.74" y1="160.46" x2="155.74" y2="142.49"/><line class="cls-1" x1="151.27" y1="118.61" x2="155.74" y2="118.61"/><line class="cls-1" x1="151.27" y1="142.49" x2="155.74" y2="142.49"/><polygon class="cls-1" points="155.74 118.61 155.74 119.5 154.84 119.5 154.84 120.4 152.78 120.4 152.78 118.61 155.74 118.61"/><polygon class="cls-1" points="155.74 142.49 155.74 141.59 154.84 141.59 154.84 140.7 152.78 140.7 152.78 142.49 155.74 142.49"/><polyline class="cls-1" points="177.91 141.59 155.74 141.59 155.74 140.7 177.91 140.7"/><path class="cls-1" d="M155.74,119.51l2.68.17A22.1,22.1,0,0,1,177.74,139l.18,2.6"/><line class="cls-1" x1="154.3" y1="118.61" x2="154.3" y2="117.09"/><line class="cls-1" x1="151.27" y1="118.61" x2="151.27" y2="117.09"/><line class="cls-1" x1="415.1" y1="197.76" x2="419.66" y2="197.76"/><line class="cls-1" x1="353.66" y1="211.26" x2="344.27" y2="211.26"/><line class="cls-1" x1="419.66" y1="200.71" x2="419.66" y2="210.82"/><rect class="cls-1" x="158.69" y="173.79" width="133.08" height="4.56"/><rect class="cls-1" x="154.04" y="184.35" width="140.77" height="1.47"/><polyline class="cls-1" points="391.59 146.82 419.67 146.82 419.67 145.69 391.67 145.69"/><path class="cls-1" d="M419.67,118.85l-3.39.23a28,28,0,0,0-24.46,24.46l-.23,3.28"/><rect class="cls-1" x="416.6" y="116.37" width="6.14" height="2.47"/><rect class="cls-1" x="416.6" y="146.82" width="6.14" height="2.38"/><line class="cls-1" x1="154.91" y1="81.58" x2="151.33" y2="81.58"/><polyline class="cls-1" points="151.27 54.4 154.84 54.4 154.84 50.59"/><polyline class="cls-1" points="154.84 109.58 151.27 109.58 151.27 81.58"/><line class="cls-1" x1="151.27" y1="54.4" x2="151.27" y2="50.28"/><line class="cls-1" x1="151.33" y1="81.58" x2="148.29" y2="81.58"/><polyline class="cls-1" points="148.29 81.58 148.29 117.09 151.33 117.09"/><line class="cls-1" x1="151.27" y1="83.01" x2="148.29" y2="83.01"/><line class="cls-1" x1="151.27" y1="54.4" x2="151.27" y2="81.58"/><polygon class="cls-1" points="296.29 26.67 296.29 16.21 305.23 16.21 305.23 26.67 305.23 28.91 305.23 35.62 287.25 35.62 287.25 26.67 296.29 26.67"/><path class="cls-2" d="M169.1,62c2.34.35,1.64,2,.8,1.43a3,3,0,0,0-.89-1.35Zm2.86-.56c-.4,1.27-1.16,3.61-1.29,4.14a3.81,3.81,0,0,0-.15.92,10.26,10.26,0,0,1,.33,1.77c0,.48-.28.77-.69.77-.21,0-.39-.16-.43-.51.17-1,.12-1.91-.12-2.07a.89.89,0,0,0-.49-.15v-.21h.44c.13,0,.17,0,.26-.2.2-.37.2-.37,2-4.51Zm-2.16-1.59c2.44.41,1.72,2.12.84,1.54A3.38,3.38,0,0,0,169.7,60Zm5.87,2.1c0,.12-.14.18-.41.2a7,7,0,0,0,3.34,2.5l0,.14a1.08,1.08,0,0,0-.73.84l-.31-.2a.67.67,0,0,1-.38.17v3.15a1.13,1.13,0,0,1-.77.22h-.16v-.75h-2.74v.6c0,.07-.28.23-.75.23h-.16v-4a9.81,9.81,0,0,1-1.37.83l-.07-.12a9.32,9.32,0,0,0,3.1-4.11Zm-3.91.73a9.09,9.09,0,0,0,1.63-2.85l1.25.58c-.06.1-.14.16-.38.13a8.07,8.07,0,0,1-2.4,2.26ZM177,65a6.49,6.49,0,0,1-1.84-2.69,8.22,8.22,0,0,1-2.37,2.63l.86.34h2.59l.45-.52Zm-.72,3v-2.4h-2.74V68Zm-.76-8c3.35.87,2.84,3,1.79,2.41a7.47,7.47,0,0,0-1.89-2.33Z"/><path class="cls-2" d="M177.18,79.63s.67.51,1.09.87c0,.11-.13.16-.28.16h-8.76l-.08-.29h4V78.88h-2.91l-.08-.29h3V77.17l1.34.11c0,.15-.09.24-.34.28v1h1.49l.57-.7s.64.48,1,.83c0,.11-.13.16-.27.16h-2.84v1.49h2.4Zm-6.6-6.21a1.46,1.46,0,0,1-.52,1.34.5.5,0,1,1-.5-.83,1.46,1.46,0,0,0,.69-1.31h.15a2.89,2.89,0,0,1,.14.52h3.24a.62.62,0,0,1-.27-.11,2.06,2.06,0,0,0-.74-1.17l.08-.07c1.9,0,1.75,1.24,1.12,1.35h2.89l.52-.53.92.89a.52.52,0,0,1-.38.12,5.8,5.8,0,0,1-1,1l-.11-.06c.05-.3.11-.75.14-1.11Zm-.27,3.18a1.33,1.33,0,0,0,.3-.08,7.28,7.28,0,0,0,2.23-1.72h-2.29l-.08-.29h4.9l.54-.64s.61.44,1,.77c0,.11-.13.16-.26.16h-3.23l.78.41a.34.34,0,0,1-.39.12,13,13,0,0,1-2.51,1.31c1.11,0,2.81,0,4.6-.12a7.89,7.89,0,0,0-1-1l.1-.08c3,.67,2.51,2.59,1.53,2.07a4.1,4.1,0,0,0-.5-.82c-1.21.2-3,.46-5,.7a.6.6,0,0,1-.28.27Z"/><path class="cls-2" d="M380.62,200c2.4.3,1.69,2,.81,1.43a2.6,2.6,0,0,0-.9-1.35Zm3.05-.53c-.42,1.27-1.2,3.62-1.33,4.15a3.43,3.43,0,0,0-.15.92c0,.5.35.9.32,1.74,0,.48-.28.77-.71.77-.21,0-.4-.15-.45-.5.16-1,.11-1.89-.12-2a.87.87,0,0,0-.5-.15v-.21h.44c.14,0,.18,0,.29-.2.2-.37.2-.37,2-4.52ZM381.38,198c2.5.18,1.93,2,1,1.48a3.42,3.42,0,0,0-1.07-1.4Zm8.38,7.94c.24.11.29.22.29.4,0,.38-.33.57-1.61.57h-.75c-.81,0-1-.2-1-.83v-3.61h-.91c-.16,2.24-.84,3.76-3.15,4.65l-.06-.13c1.73-1.12,2.13-2.57,2.18-4.52h-1.61l-.08-.29H386v-2h-1.28a5.34,5.34,0,0,1-1.15,1.65l-.15-.08a11.47,11.47,0,0,0,.91-3.68l1.33.28c0,.12-.15.22-.37.23a10.06,10.06,0,0,1-.44,1.31H386v-2l1.3.12c0,.14-.11.24-.37.28v1.65h1.16l.56-.73s.63.51,1,.86c0,.11-.13.16-.26.16H387v2h1.4l.57-.75s.63.52,1,.88c0,.11-.13.16-.27.16h-2v3.37c0,.14,0,.19.27.19h1.13a.17.17,0,0,0,.18-.14,10.17,10.17,0,0,0,.37-1.44h.12Z"/><path class="cls-2" d="M398.89,202.49s.7.51,1.14.88c0,.11-.14.16-.29.16h-3.91v2.23c0,.71-.21,1.22-1.57,1.32a1,1,0,0,0-.33-.72,2.43,2.43,0,0,0-1.19-.37v-.14s1.49.1,1.8.1.27-.07.27-.23v-2.19h-4.17l-.09-.29h4.26v-1.91h-3.58l-.08-.28h3.66v-1.74c-1.18.11-2.44.18-3.63.18l0-.17a29.69,29.69,0,0,0,6.78-1.51l1,1c-.1.09-.32.1-.63,0a25.1,25.1,0,0,1-2.5.41v1.86h2l.6-.75s.69.52,1.11.88c0,.1-.13.15-.28.15h-3.41v1.91h2.44Z"/><path class="cls-2" d="M402.11,201.31v5.42c0,.13-.34.36-.78.36h-.16v-9l1,.43h1.62l.42-.46.93.69a.67.67,0,0,1-.38.18v2.65a1.34,1.34,0,0,1-.74.25h-.14v-.52Zm0-2.5v1h1.75v-1Zm1.75,2.22v-1h-1.75v1Zm3.28,4.79a1.18,1.18,0,0,1-.75.28h-.14v-.57h-2v.4c0,.09-.37.28-.74.28h-.13v-4.13l.91.39h1.89l.44-.47.92.69a.62.62,0,0,1-.37.19Zm-2.92-3.07v1.08h2v-1.08Zm2,2.5v-1.14h-2v1.14Zm3.52-6.49a.78.78,0,0,1-.41.21v6.92c0,.69-.14,1.09-1.27,1.19a1.34,1.34,0,0,0-.2-.68,1.47,1.47,0,0,0-.81-.33v-.15s.92.07,1.11.07.22-.07.22-.21v-4.47h-1.82v.2c0,.09-.39.3-.77.3h-.13v-3.68l.95.39h1.67l.45-.53Zm-3.18.05v1h1.82v-1Zm1.82,2.22v-1h-1.82v1Z"/><path class="cls-2" d="M282.72,128.58l.74-1s.84.7,1.35,1.18c0,.12-.15.16-.31.16h-8.84l-.1-.33Z"/><path class="cls-2" d="M294.13,130.42s.49.39.8.69c0,.11-.12.16-.26.16h-1.33a2.14,2.14,0,0,1-.69,1c2.74.64,1.64,1.66.77,1.28a9.74,9.74,0,0,0-1.63-.76,13.7,13.7,0,0,1-3.46.83l-.06-.19a10.87,10.87,0,0,0,2.79-.89c-.58-.18-1.24-.35-1.91-.5h0a8.4,8.4,0,0,0,.5-.8H288.4l-.08-.29h1.49c.18-.33.34-.64.45-.87h-.53v.26c0,.08-.38.26-.72.26h-.12v-2.29l.91.37h1.27V128H290v.14c0,.08-.38.27-.73.27h-.12V127h-.43c0,.11-.12.16-.25.16h-.93v.72c1.7.91,1,2.14.38,1.58a3.43,3.43,0,0,0-.38-1.27v5.21c0,.11-.37.31-.67.31h-.17v-4.2a8,8,0,0,1-1.15,1.87l-.14-.12a12.24,12.24,0,0,0,1.18-4.1h-1l-.08-.29h1.19v-2.46l1.2.13c0,.15-.1.24-.36.28v2h0l.41-.58s.38.33.65.62l-.05-.2h.57v-1.38l.9.37h1V124.4l1.26.12c0,.14-.11.24-.37.28v.85h1l.4-.41.85.62a.53.53,0,0,1-.32.16v.6l.34-.46s.42.36.68.63a.23.23,0,0,1-.25.16h-.77v1c0,.08-.43.28-.7.28H293V128H292v.73h1.31l.41-.42.87.65a.72.72,0,0,1-.33.17v1a1.12,1.12,0,0,1-.72.26h-.14v-.3h-2.62l.8.18c0,.11-.12.21-.43.21l-.28.48h1.62a5.77,5.77,0,0,0,.09-.6l1.28.12c0,.12-.13.23-.36.25a1.89,1.89,0,0,1,0,.23h.27Zm-4.4-.6h1.34V129h-1.34Zm.28-3.16h1.06v-.72H290Zm1.06,1V127H290v.74Zm-.42,3.58c-.13.24-.3.49-.43.68.57.06,1.08.12,1.51.19a2,2,0,0,0,.62-.87Zm1.31-5.33v.72H293v-.72Zm1.05,1H292v.74H293ZM292,129v.82h1.4V129Z"/><path class="cls-2" d="M300.56,127.68a6.56,6.56,0,0,0,4.34,5l0,.11a1.05,1.05,0,0,0-.92.9,7.52,7.52,0,0,1-3.57-5.87c-.29,2.37-1.25,4.42-4.79,5.87l-.11-.16a6.92,6.92,0,0,0,3.9-5.85h-3.71l-.09-.29h3.82c.07-.94.07-1.93.07-3l1.42.14c0,.15-.13.25-.37.29,0,.87,0,1.72-.09,2.53H303l.65-.82s.74.56,1.18,1c0,.11-.14.16-.28.16Z"/><path class="cls-2" d="M309.85,126.62v6.72a.76.76,0,0,1-.62.23h-.14v-3.91h-2l-.09-.29h.52v-2.75h-.39l-.08-.29h2.39l.4-.51H307v2.4c0,1.66,0,3.9-1.39,5.45l-.14-.09a14.26,14.26,0,0,0,.68-5.36v-3.08l1,.39h3.33l-.08,0a2.66,2.66,0,0,0-.77-1.08l.09-.07c1.63,0,1.68,1,1.22,1.19h2.32l.54-.72s.63.5,1,.85c0,.11-.11.16-.26.16h-4.58a9.34,9.34,0,0,1,.71.64.2.2,0,0,1-.23.16Zm-2.91,3.88a9.93,9.93,0,0,0,1.59-.75l.56.7a.23.23,0,0,1-.27,0l-.55.09v.72l.26-.35a6.91,6.91,0,0,1,.53.52c0,.1-.1.15-.23.15h-.56v.73l.75-.09,0,.15c-.38.18-1,.47-1.78.79a.33.33,0,0,1-.24.22l-.38-.88,1-.11v-.81h-.59l-.08-.29h.67v-.68c-.22,0-.45,0-.66,0Zm2.15-3.88h-.82v.7h.82Zm0,1h-.82v.74h.82Zm0,1.76v-.73h-.82v.73Zm1.6,1.69c.31.84.17,1.44-.11,1.69a.42.42,0,0,1-.66-.05.44.44,0,0,1,.24-.56,1.28,1.28,0,0,0,.36-1.08Zm3.66-1.52s-.15.11-.32.16c.16.12.51.38.75.6,0,.11-.12.16-.25.16h-4.47l-.08-.29h3.51l.37-.42h-.27v-.19h-2.54v.12c0,.06-.31.21-.6.21h-.1v-2.48l.75.32h.76v-.68h-1.6l-.08-.29h1.68v-.87L313,126c0,.14-.11.23-.35.27v.49h.72l.46-.6s.51.42.83.73c0,.11-.12.16-.26.16h-1.75v.68h.83l.38-.38.79.59a.51.51,0,0,1-.33.17Zm-.67,3.12c.22.06.27.14.27.29,0,.3-.29.44-1.42.44h-.72c-.67,0-.77-.16-.77-.64v-2l1,.11a.31.31,0,0,1-.29.24v1.45c0,.12,0,.14.25.14h1.12a.18.18,0,0,0,.16-.06,3.21,3.21,0,0,0,.25-.74h.12Zm-2.63-3.38h.46V128h-.46Zm1-1.25v1.25h.53V128Zm.16,2.5c1.69.75.88,2,.3,1.42a2.28,2.28,0,0,0-.42-1.35Zm1.38-1.25V128h-.49v1.25Zm0,1.58c1.83.91,1.06,2.24.43,1.64a3.36,3.36,0,0,0-.55-1.58Z"/><rect class="cls-1" x="20.03" y="59.1" width="60.61" height="76.77" transform="translate(-47.14 147.82) rotate(-90)"/><line class="cls-1" x1="22.55" y1="127.79" x2="22.55" y2="67.18"/><line class="cls-1" x1="31.45" y1="127.79" x2="31.45" y2="67.18"/><rect class="cls-1" x="5.92" y="108.29" width="24.48" height="8.79" rx="0.93" transform="translate(-94.53 130.84) rotate(-90)"/><rect class="cls-1" x="5.92" y="77.95" width="24.48" height="8.79" rx="0.92" transform="translate(-64.19 100.5) rotate(-90)"/><rect class="cls-3" x="362.66" y="69.06" width="52.43" height="21.5" transform="translate(777.76 159.62) rotate(180)"/><rect class="cls-3" x="299.99" y="70.36" width="52.43" height="21.5" transform="translate(245.09 407.32) rotate(-90)"/><rect class="cls-3" x="351.66" y="87.34" width="2.04" height="14.17" transform="translate(705.35 188.85) rotate(180)"/><rect class="cls-4" x="338.77" y="87.34" width="12.88" height="14.17" transform="translate(690.43 188.85) rotate(180)"/><rect class="cls-3" x="351.66" y="60.72" width="2.04" height="14.17" transform="translate(705.35 135.61) rotate(180)"/><rect class="cls-4" x="338.77" y="60.72" width="12.88" height="14.17" transform="translate(690.43 135.61) rotate(180)"/><rect class="cls-3" x="298.72" y="60.72" width="2.04" height="14.17"/><rect class="cls-4" x="300.76" y="60.72" width="12.88" height="14.17"/><rect class="cls-3" x="298.72" y="87.34" width="2.04" height="14.17"/><rect class="cls-4" x="300.76" y="87.34" width="12.88" height="14.17"/><rect class="cls-4" x="272.8" y="95.25" width="4.71" height="24.19" rx="0.55" transform="translate(167.81 382.5) rotate(-90)"/><rect class="cls-4" x="272.8" y="36.19" width="4.71" height="24.19" rx="0.55" transform="translate(226.87 323.44) rotate(-90)"/><rect class="cls-4" x="282.54" y="50.64" width="4.71" height="54.35" rx="0.55"/><rect class="cls-4" x="263.74" y="86.19" width="18.12" height="19.48" rx="0.94" transform="translate(176.87 368.73) rotate(-90)"/><rect class="cls-4" x="263.74" y="68.08" width="18.12" height="19.48" rx="0.94" transform="translate(194.99 350.62) rotate(-90)"/><rect class="cls-4" x="263.74" y="49.96" width="18.12" height="19.48" rx="0.94" transform="translate(213.11 332.5) rotate(-90)"/><rect class="cls-1" x="11.96" y="49.8" width="14.94" height="14.94"/><rect class="cls-1" x="11.96" y="130.23" width="14.94" height="14.94"/><rect class="cls-1" x="78.35" y="152.78" width="14.17" height="2.04"/><rect class="cls-1" x="78.35" y="154.82" width="14.17" height="5.42"/><polygon class="cls-1" points="92.53 160.24 78.36 160.24 63.32 160.24 63.32 173.88 107.56 173.88 107.56 160.24 92.53 160.24"/><path class="cls-1" d="M233.21,79.14c-3.88.77-6.88,5.73-6.88,11.74,0,6.55,3.55,11.86,7.93,11.86s7.93-5.31,7.93-11.86a16,16,0,0,0-1.57-7.06,5.35,5.35,0,0,1-.55.05C237.38,83.87,235,82.05,233.21,79.14Z"/><path class="cls-1" d="M240.07,52.89c-5.28,0-9.56,6.93-9.56,15.49a21.18,21.18,0,0,0,2.7,10.76c1.74,2.91,4.17,4.73,6.86,4.73a5.35,5.35,0,0,0,.55-.05c5-.46,9-7.19,9-15.44C249.63,59.82,245.35,52.89,240.07,52.89Z"/><text class="cls-5" transform="translate(119.35 81.58)">雙人床</text></g></svg>