<?xml version="1.0" encoding="utf-8"?>
<!-- Generator: Adobe Illustrator 23.0.3, SVG Export Plug-In . SVG Version: 6.00 Build 0)  -->
<svg version="1.1" id="圖層_1" xmlns="http://www.w3.org/2000/svg" xmlns:xlink="http://www.w3.org/1999/xlink" x="0px" y="0px"
	 viewBox="0 0 429.7 219.2" style="enable-background:new 0 0 429.7 219.2;" xml:space="preserve">
<style type="text/css">
	.st0{fill:none;stroke:#898989;stroke-width:0.55;stroke-linecap:round;stroke-linejoin:round;}
	.st1{fill:#898989;}
	.st2{fill:none;stroke:#898989;stroke-width:0.5;stroke-linecap:round;stroke-linejoin:round;}
	.st3{fill:none;stroke:#898989;stroke-width:0.49;stroke-linecap:round;stroke-linejoin:round;}
</style>
<title>room</title>
<line class="st0" x1="200.8" y1="211.6" x2="2" y2="211.6"/>
<line class="st0" x1="177.9" y1="73.4" x2="117.3" y2="73.4"/>
<line class="st0" x1="109.2" y1="73.4" x2="58.6" y2="73.4"/>
<line class="st0" x1="200.8" y1="45.1" x2="10.1" y2="45.1"/>
<line class="st0" x1="115.9" y1="188.7" x2="170.8" y2="188.7"/>
<line class="st0" x1="115.9" y1="187.3" x2="171.2" y2="187.3"/>
<line class="st0" x1="115.9" y1="211.6" x2="200.8" y2="211.6"/>
<line class="st0" x1="102.4" y1="210.2" x2="102.4" y2="181.9"/>
<line class="st0" x1="95.7" y1="210.2" x2="95.7" y2="181.9"/>
<line class="st0" x1="88.9" y1="210.2" x2="88.9" y2="181.9"/>
<line class="st0" x1="82.2" y1="210.2" x2="82.2" y2="181.9"/>
<line class="st0" x1="75.5" y1="211.6" x2="75.5" y2="181.9"/>
<line class="st0" x1="115.9" y1="210.2" x2="115.9" y2="188.7"/>
<line class="st0" x1="129.4" y1="210.2" x2="129.4" y2="188.7"/>
<line class="st0" x1="122.7" y1="210.2" x2="122.7" y2="188.7"/>
<line class="st0" x1="136.2" y1="210.2" x2="136.2" y2="188.7"/>
<line class="st0" x1="75.5" y1="200.1" x2="164.5" y2="200.1"/>
<line class="st0" x1="157.7" y1="210.2" x2="157.7" y2="188.7"/>
<polygon class="st0" points="76.8,200.1 76.6,199.4 76.1,198.9 75.5,198.7 74.8,198.9 74.3,199.4 74.2,200.1 74.3,200.8 74.8,201.3 
	75.5,201.4 76.1,201.3 76.6,200.8 "/>
<line class="st0" x1="177.9" y1="69.3" x2="177.9" y2="73.4"/>
<line class="st0" x1="176.6" y1="69.3" x2="176.6" y2="73.4"/>
<line class="st0" x1="299.2" y1="181.9" x2="273.6" y2="181.9"/>
<line class="st0" x1="288.4" y1="45.1" x2="248" y2="45.1"/>
<line class="st0" x1="248" y1="49.1" x2="288.4" y2="49.1"/>
<line class="st0" x1="299.2" y1="177.9" x2="299.2" y2="181.9"/>
<line class="st0" x1="300.6" y1="177.9" x2="300.6" y2="181.9"/>
<line class="st0" x1="315.4" y1="177.9" x2="315.4" y2="181.9"/>
<line class="st0" x1="314" y1="177.9" x2="314" y2="181.9"/>
<line class="st0" x1="299.2" y1="181.9" x2="315.4" y2="181.9"/>
<line class="st0" x1="300.6" y1="180.6" x2="314" y2="180.6"/>
<line class="st0" x1="300.6" y1="179.2" x2="314" y2="179.2"/>
<line class="st0" x1="299.2" y1="177.9" x2="315.4" y2="177.9"/>
<line class="st0" x1="315.4" y1="181.9" x2="367.9" y2="181.9"/>
<line class="st0" x1="315.4" y1="177.9" x2="367.9" y2="177.9"/>
<line class="st0" x1="177.9" y1="69.3" x2="117.3" y2="69.3"/>
<line class="st0" x1="109.2" y1="69.3" x2="58.6" y2="69.3"/>
<polyline class="st0" points="199.5,73.4 199.5,69.3 200.8,69.3 "/>
<line class="st0" x1="199.5" y1="73.4" x2="200.8" y2="73.4"/>
<line class="st0" x1="176.6" y1="70.7" x2="141.5" y2="70.7"/>
<line class="st0" x1="140.2" y1="70.7" x2="118.6" y2="70.7"/>
<line class="st0" x1="107.8" y1="70.7" x2="84.5" y2="70.7"/>
<line class="st0" x1="176.6" y1="72" x2="141.5" y2="72"/>
<line class="st0" x1="140.2" y1="72" x2="118.6" y2="72"/>
<line class="st0" x1="107.8" y1="72" x2="84.5" y2="72"/>
<line class="st0" x1="115.9" y1="187.3" x2="115.9" y2="188.7"/>
<line class="st0" x1="75.5" y1="210.2" x2="164.5" y2="210.2"/>
<polyline class="st0" points="277.7,211.6 281,211.6 281,218.3 "/>
<line class="st0" x1="248" y1="73.4" x2="248" y2="22.8"/>
<polyline class="st0" points="241.3,73.4 241.3,22.8 248,22.8 "/>
<polyline class="st0" points="207.6,73.4 200.8,73.4 200.8,22.8 "/>
<polyline class="st0" points="207.6,73.4 207.6,22.8 200.8,22.8 "/>
<line class="st0" x1="241.3" y1="22.8" x2="207.6" y2="22.8"/>
<line class="st0" x1="207.6" y1="26.9" x2="223.7" y2="26.9"/>
<line class="st0" x1="207.6" y1="33.6" x2="223.7" y2="33.6"/>
<polyline class="st0" points="223.7,36.8 227.8,36.8 227.8,22.8 "/>
<polyline class="st0" points="223.7,26.9 223.7,36.8 207.6,36.8 "/>
<line class="st0" x1="107.8" y1="69.3" x2="107.8" y2="73.4"/>
<line class="st0" x1="284.4" y1="1.3" x2="428" y2="1.3"/>
<polyline class="st0" points="423.9,5.3 288.4,5.3 288.4,45.1 "/>
<line class="st0" x1="284.4" y1="45.1" x2="284.4" y2="1.3"/>
<line class="st0" x1="376" y1="66" x2="428" y2="66"/>
<line class="st0" x1="376" y1="61.9" x2="423.9" y2="61.9"/>
<line class="st0" x1="248" y1="35" x2="284.4" y2="35"/>
<line class="st0" x1="277.7" y1="183.3" x2="273.6" y2="183.3"/>
<line class="st0" x1="239.9" y1="36.8" x2="239.9" y2="32.8"/>
<line class="st0" x1="227.8" y1="36.8" x2="241.3" y2="36.8"/>
<line class="st0" x1="227.8" y1="32.8" x2="241.3" y2="32.8"/>
<line class="st0" x1="229.1" y1="32.8" x2="229.1" y2="36.8"/>
<line class="st0" x1="239.9" y1="35.5" x2="229.1" y2="35.5"/>
<line class="st0" x1="239.9" y1="34.1" x2="229.1" y2="34.1"/>
<line class="st0" x1="118.6" y1="69.3" x2="118.6" y2="73.4"/>
<line class="st0" x1="140.2" y1="69.3" x2="140.2" y2="73.4"/>
<line class="st0" x1="141.5" y1="69.3" x2="141.5" y2="73.4"/>
<line class="st0" x1="117.3" y1="69.3" x2="117.3" y2="73.4"/>
<rect x="177.9" y="70" class="st0" width="1.4" height="2.7"/>
<path class="st0" d="M198.1,53.1l-2.4,0.1c-8.3,1.1-14.9,7.5-16.2,15.8l-0.2,2.4"/>
<line class="st0" x1="207.6" y1="211.6" x2="207.6" y2="188.7"/>
<line class="st0" x1="214.3" y1="211.6" x2="214.3" y2="188.7"/>
<line class="st0" x1="221.1" y1="211.6" x2="221.1" y2="188.7"/>
<line class="st0" x1="227.8" y1="211.6" x2="227.8" y2="188.7"/>
<line class="st0" x1="234.5" y1="211.6" x2="234.5" y2="188.7"/>
<line class="st0" x1="241.3" y1="211.6" x2="241.3" y2="188.7"/>
<line class="st0" x1="241.3" y1="187.3" x2="241.3" y2="181.9"/>
<polygon class="st0" points="242.6,200.1 242.4,199.4 241.9,198.9 241.3,198.7 240.5,198.9 240,199.4 239.9,200.1 240,200.8 
	240.5,201.3 241.3,201.4 241.9,201.3 242.4,200.8 "/>
<line class="st0" x1="242.6" y1="188.7" x2="204.9" y2="188.7"/>
<line class="st0" x1="241.3" y1="187.3" x2="200.8" y2="187.3"/>
<line class="st0" x1="200.8" y1="211.6" x2="200.8" y2="215.6"/>
<line class="st0" x1="273.6" y1="211.6" x2="277.7" y2="211.6"/>
<line class="st0" x1="277.7" y1="183.3" x2="273.6" y2="183.3"/>
<line class="st0" x1="273.6" y1="181.9" x2="273.6" y2="215.6"/>
<line class="st0" x1="275" y1="183.3" x2="275" y2="211.6"/>
<line class="st0" x1="277.7" y1="181.9" x2="277.7" y2="211.6"/>
<line class="st0" x1="276.3" y1="183.3" x2="276.3" y2="211.6"/>
<line class="st0" x1="275" y1="211.6" x2="273.6" y2="211.6"/>
<line class="st0" x1="200.8" y1="211.6" x2="273.6" y2="211.6"/>
<line class="st0" x1="273.6" y1="212.9" x2="253.4" y2="212.9"/>
<line class="st0" x1="252.1" y1="212.9" x2="225.1" y2="212.9"/>
<line class="st0" x1="223.7" y1="212.9" x2="204.9" y2="212.9"/>
<line class="st0" x1="273.6" y1="215.6" x2="200.8" y2="215.6"/>
<line class="st0" x1="273.6" y1="214.3" x2="253.4" y2="214.3"/>
<line class="st0" x1="252.1" y1="214.3" x2="225.1" y2="214.3"/>
<line class="st0" x1="223.7" y1="214.3" x2="204.9" y2="214.3"/>
<line class="st0" x1="253.4" y1="211.6" x2="253.4" y2="215.6"/>
<line class="st0" x1="252.1" y1="211.6" x2="252.1" y2="215.6"/>
<line class="st0" x1="223.7" y1="211.6" x2="223.7" y2="215.6"/>
<line class="st0" x1="225.1" y1="211.6" x2="225.1" y2="215.6"/>
<line class="st0" x1="231.8" y1="187.3" x2="231.8" y2="181.9"/>
<line class="st0" x1="277.7" y1="181.9" x2="277.7" y2="214.3"/>
<line class="st0" x1="277.7" y1="215.6" x2="273.6" y2="215.6"/>
<line class="st0" x1="177.9" y1="211.6" x2="177.9" y2="209.7"/>
<line class="st0" x1="177.9" y1="208.6" x2="177.9" y2="206.4"/>
<line class="st0" x1="177.9" y1="205.4" x2="177.9" y2="203.2"/>
<line class="st0" x1="177.9" y1="202.1" x2="177.9" y2="200"/>
<line class="st0" x1="177.9" y1="198.9" x2="177.9" y2="196.7"/>
<line class="st0" x1="177.9" y1="195.6" x2="177.9" y2="193.5"/>
<line class="st0" x1="177.9" y1="192.4" x2="177.9" y2="190.2"/>
<line class="st0" x1="177.9" y1="189.2" x2="177.9" y2="187.3"/>
<line class="st0" x1="184.7" y1="211.6" x2="184.7" y2="209.7"/>
<line class="st0" x1="184.7" y1="208.6" x2="184.7" y2="206.4"/>
<line class="st0" x1="184.7" y1="205.4" x2="184.7" y2="203.2"/>
<line class="st0" x1="184.7" y1="202.1" x2="184.7" y2="200"/>
<line class="st0" x1="184.7" y1="198.9" x2="184.7" y2="196.7"/>
<line class="st0" x1="184.7" y1="195.6" x2="184.7" y2="193.5"/>
<line class="st0" x1="184.7" y1="192.4" x2="184.7" y2="190.2"/>
<line class="st0" x1="184.7" y1="189.2" x2="184.7" y2="187.3"/>
<line class="st0" x1="191.4" y1="211.6" x2="191.4" y2="209.7"/>
<line class="st0" x1="191.4" y1="208.6" x2="191.4" y2="206.4"/>
<line class="st0" x1="191.4" y1="205.4" x2="191.4" y2="203.2"/>
<line class="st0" x1="191.4" y1="202.1" x2="191.4" y2="200"/>
<line class="st0" x1="191.4" y1="198.9" x2="191.4" y2="196.7"/>
<line class="st0" x1="191.4" y1="195.6" x2="191.4" y2="193.5"/>
<line class="st0" x1="191.4" y1="192.4" x2="191.4" y2="190.2"/>
<line class="st0" x1="191.4" y1="189.2" x2="191.4" y2="187.3"/>
<line class="st0" x1="198.1" y1="211.6" x2="198.1" y2="209.7"/>
<line class="st0" x1="198.1" y1="208.6" x2="198.1" y2="206.4"/>
<line class="st0" x1="198.1" y1="205.4" x2="198.1" y2="203.2"/>
<line class="st0" x1="198.1" y1="202.1" x2="198.1" y2="200"/>
<line class="st0" x1="198.1" y1="198.9" x2="198.1" y2="196.7"/>
<line class="st0" x1="198.1" y1="195.6" x2="198.1" y2="193.5"/>
<line class="st0" x1="198.1" y1="192.4" x2="198.1" y2="190.2"/>
<line class="st0" x1="198.1" y1="189.2" x2="198.1" y2="187.3"/>
<line class="st0" x1="164.5" y1="210.2" x2="164.5" y2="188.7"/>
<line class="st0" x1="171.2" y1="211.6" x2="171.2" y2="209.7"/>
<line class="st0" x1="171.2" y1="208.6" x2="171.2" y2="206.4"/>
<line class="st0" x1="171.2" y1="205.4" x2="171.2" y2="203.2"/>
<line class="st0" x1="171.2" y1="202.1" x2="171.2" y2="200"/>
<line class="st0" x1="171.2" y1="198.9" x2="171.2" y2="196.7"/>
<line class="st0" x1="171.2" y1="195.6" x2="171.2" y2="193.5"/>
<line class="st0" x1="171.2" y1="192.4" x2="171.2" y2="190.2"/>
<line class="st0" x1="171.2" y1="189.2" x2="171.2" y2="187.3"/>
<polyline class="st0" points="161.9,200.9 164.5,200.1 161.9,199.3 "/>
<polyline class="st0" points="207.4,200.9 204.9,200.1 207.4,199.3 "/>
<polyline class="st0" points="171.2,187.3 167.6,199.4 166,199.4 "/>
<polyline class="st0" points="166.8,202.1 168.4,202.1 166,199.4 "/>
<line class="st0" x1="166.8" y1="202.1" x2="164.1" y2="211.6"/>
<line class="st0" x1="200.8" y1="49.1" x2="10.1" y2="49.1"/>
<line class="st0" x1="2" y1="35.7" x2="10.1" y2="35.7"/>
<polyline class="st0" points="200.8,22.8 10.1,22.8 10.1,35.7 "/>
<line class="st0" x1="277.7" y1="214.3" x2="277.7" y2="218.3"/>
<rect x="50.5" y="168.4" class="st0" width="8.1" height="13.5"/>
<rect x="50.5" y="69.3" class="st0" width="8.1" height="13.5"/>
<rect x="109.2" y="69.3" class="st0" width="8.1" height="13.5"/>
<line class="st0" x1="372" y1="156.3" x2="372" y2="168.4"/>
<line class="st0" x1="376" y1="168.4" x2="376" y2="156.3"/>
<polyline class="st0" points="376,165.8 381.4,165.8 381.4,66 "/>
<line class="st0" x1="423.9" y1="61.9" x2="423.9" y2="5.3"/>
<line class="st0" x1="376" y1="140.1" x2="376" y2="45.1"/>
<line class="st0" x1="372" y1="140.1" x2="372" y2="58.6"/>
<rect x="367.9" y="168.4" class="st0" width="8.1" height="13.5"/>
<line class="st0" x1="2" y1="83.9" x2="2" y2="79.6"/>
<polyline class="st0" points="280.5,218.3 277.7,218.3 277.7,213.1 "/>
<line class="st0" x1="277.7" y1="210.9" x2="277.7" y2="206.7"/>
<line class="st0" x1="277.7" y1="204.5" x2="277.7" y2="200.1"/>
<line class="st0" x1="277.7" y1="198" x2="277.7" y2="193.7"/>
<line class="st0" x1="277.7" y1="191.5" x2="277.7" y2="187.2"/>
<path class="st0" d="M204.9,183.3L204.9,183.3z"/>
<line class="st0" x1="204.9" y1="200.1" x2="241.3" y2="200.1"/>
<line class="st0" x1="203.5" y1="183.3" x2="203.5" y2="211.6"/>
<line class="st0" x1="202.2" y1="183.3" x2="202.2" y2="211.6"/>
<line class="st0" x1="200.8" y1="181.9" x2="200.8" y2="211.6"/>
<line class="st0" x1="204.9" y1="181.9" x2="204.9" y2="215.6"/>
<line class="st0" x1="200.8" y1="187.3" x2="199.5" y2="187.3"/>
<line class="st0" x1="198.4" y1="187.3" x2="196.2" y2="187.3"/>
<line class="st0" x1="195.1" y1="187.3" x2="193" y2="187.3"/>
<line class="st0" x1="191.9" y1="187.3" x2="189.7" y2="187.3"/>
<line class="st0" x1="188.7" y1="187.3" x2="186.6" y2="187.3"/>
<line class="st0" x1="185.5" y1="187.3" x2="183.3" y2="187.3"/>
<line class="st0" x1="182.2" y1="187.3" x2="180.1" y2="187.3"/>
<line class="st0" x1="178.9" y1="187.3" x2="176.8" y2="187.3"/>
<line class="st0" x1="175.8" y1="187.3" x2="173.6" y2="187.3"/>
<line class="st0" x1="172.5" y1="187.3" x2="171.2" y2="187.3"/>
<line class="st0" x1="242.6" y1="188.7" x2="242.6" y2="181.9"/>
<line class="st0" x1="10.1" y1="80.1" x2="10.1" y2="77.8"/>
<polyline class="st0" points="2,77.8 2,80.1 3.9,80.1 "/>
<line class="st0" x1="4.9" y1="80.1" x2="7.2" y2="80.1"/>
<line class="st0" x1="8.2" y1="80.1" x2="10.1" y2="80.1"/>
<line class="st0" x1="10.1" y1="181.9" x2="10.1" y2="180.6"/>
<polyline class="st0" points="10.1,169.8 10.1,168.4 8.2,168.4 "/>
<line class="st0" x1="7.2" y1="168.4" x2="4.9" y2="168.4"/>
<polyline class="st0" points="3.9,168.4 2,168.4 2,169.8 "/>
<polyline class="st0" points="2,180.6 2,181.9 3.9,181.9 "/>
<line class="st0" x1="4.9" y1="181.9" x2="7.2" y2="181.9"/>
<line class="st0" x1="8.2" y1="181.9" x2="10.1" y2="181.9"/>
<line class="st0" x1="358.5" y1="47.8" x2="337.6" y2="47.8"/>
<line class="st0" x1="336.2" y1="47.8" x2="313.3" y2="47.8"/>
<line class="st0" x1="312" y1="47.8" x2="289.8" y2="47.8"/>
<line class="st0" x1="359.9" y1="49.1" x2="288.4" y2="49.1"/>
<line class="st0" x1="358.5" y1="46.4" x2="337.6" y2="46.4"/>
<line class="st0" x1="336.2" y1="46.4" x2="313.3" y2="46.4"/>
<line class="st0" x1="312" y1="46.4" x2="289.8" y2="46.4"/>
<line class="st0" x1="359.9" y1="45.1" x2="288.4" y2="45.1"/>
<line class="st0" x1="289.8" y1="49.1" x2="289.8" y2="45.1"/>
<line class="st0" x1="288.4" y1="49.1" x2="288.4" y2="45.1"/>
<line class="st0" x1="313.3" y1="49.1" x2="313.3" y2="45.1"/>
<line class="st0" x1="312" y1="49.1" x2="312" y2="45.1"/>
<line class="st0" x1="337.6" y1="49.1" x2="337.6" y2="45.1"/>
<line class="st0" x1="336.2" y1="49.1" x2="336.2" y2="45.1"/>
<line class="st0" x1="359.9" y1="49.1" x2="359.9" y2="45.1"/>
<line class="st0" x1="358.5" y1="49.1" x2="358.5" y2="45.1"/>
<line class="st0" x1="60" y1="69.3" x2="60" y2="73.4"/>
<line class="st0" x1="83.2" y1="72" x2="60" y2="72"/>
<line class="st0" x1="83.2" y1="70.7" x2="60" y2="70.7"/>
<line class="st0" x1="376" y1="45.1" x2="359.9" y2="45.1"/>
<line class="st0" x1="367.9" y1="49.1" x2="359.9" y2="49.1"/>
<line class="st0" x1="241.3" y1="73.4" x2="248" y2="73.4"/>
<rect x="249.4" y="179" class="st0" width="1.3" height="2.4"/>
<rect x="270.2" y="179" class="st0" width="1.3" height="2.4"/>
<path class="st0" d="M250.6,179v-19.6l2.4,0.1c8.9,1.1,15.9,8.2,17,17.1l0.1,2.4"/>
<line class="st0" x1="58.6" y1="177.9" x2="109.2" y2="177.9"/>
<polyline class="st0" points="249.4,168.4 249.4,181.9 241.3,181.9 "/>
<polyline class="st0" points="249.4,168.4 241.3,168.4 241.3,181.9 "/>
<line class="st0" x1="58.6" y1="181.9" x2="109.2" y2="181.9"/>
<line class="st0" x1="149.6" y1="173.8" x2="136.2" y2="173.8"/>
<line class="st0" x1="149.6" y1="177.9" x2="136.2" y2="177.9"/>
<line class="st0" x1="148.3" y1="173.8" x2="148.3" y2="177.9"/>
<line class="st0" x1="148.3" y1="175.2" x2="137.5" y2="175.2"/>
<line class="st0" x1="148.3" y1="176.5" x2="137.5" y2="176.5"/>
<line class="st0" x1="137.5" y1="173.8" x2="137.5" y2="177.9"/>
<rect x="109.2" y="165.8" class="st0" width="12.1" height="16.1"/>
<line class="st0" x1="117.3" y1="181.9" x2="136.2" y2="181.9"/>
<line class="st0" x1="121.3" y1="177.9" x2="132.1" y2="177.9"/>
<line class="st0" x1="136.2" y1="181.9" x2="136.2" y2="173.8"/>
<line class="st0" x1="132.1" y1="177.9" x2="132.1" y2="173.8"/>
<polygon class="st0" points="149.6,173.8 149.6,181.9 173.9,181.9 173.9,173.8 169.8,173.8 169.8,177.9 153.7,177.9 153.7,173.8 "/>
<polyline class="st0" points="241.3,181.9 225.1,181.9 225.1,173.8 229.1,173.8 229.1,177.9 241.3,177.9 "/>
<line class="st0" x1="187.4" y1="173.8" x2="173.9" y2="173.8"/>
<line class="st0" x1="187.4" y1="177.9" x2="173.9" y2="177.9"/>
<line class="st0" x1="186" y1="173.8" x2="186" y2="177.9"/>
<line class="st0" x1="186" y1="175.2" x2="175.2" y2="175.2"/>
<line class="st0" x1="186" y1="176.5" x2="175.2" y2="176.5"/>
<line class="st0" x1="175.2" y1="173.8" x2="175.2" y2="177.9"/>
<polygon class="st0" points="187.4,173.8 187.4,181.9 211.6,181.9 211.6,173.8 207.6,173.8 207.6,177.9 191.4,177.9 191.4,173.8 "/>
<line class="st0" x1="225.1" y1="173.8" x2="211.6" y2="173.8"/>
<line class="st0" x1="225.1" y1="177.9" x2="211.6" y2="177.9"/>
<line class="st0" x1="223.7" y1="173.8" x2="223.7" y2="177.9"/>
<line class="st0" x1="223.7" y1="175.2" x2="213" y2="175.2"/>
<line class="st0" x1="223.7" y1="176.5" x2="213" y2="176.5"/>
<line class="st0" x1="213" y1="173.8" x2="213" y2="177.9"/>
<line class="st0" x1="136.2" y1="173.8" x2="132.1" y2="173.8"/>
<line class="st0" x1="372" y1="156.3" x2="372" y2="140.1"/>
<line class="st0" x1="373.3" y1="155" x2="373.3" y2="141.5"/>
<line class="st0" x1="374.7" y1="155" x2="374.7" y2="141.5"/>
<line class="st0" x1="376" y1="156.3" x2="376" y2="140.1"/>
<line class="st0" x1="376" y1="155" x2="372" y2="155"/>
<line class="st0" x1="372" y1="140.1" x2="376" y2="140.1"/>
<line class="st0" x1="372" y1="141.5" x2="376" y2="141.5"/>
<line class="st0" x1="376" y1="156.3" x2="372" y2="156.3"/>
<rect x="367.9" y="45.1" class="st0" width="8.1" height="13.5"/>
<line class="st0" x1="84.5" y1="69.3" x2="84.5" y2="73.4"/>
<line class="st0" x1="83.2" y1="69.3" x2="83.2" y2="73.4"/>
<line class="st0" x1="372" y1="140.1" x2="376" y2="140.1"/>
<line class="st0" x1="249.4" y1="181.9" x2="249.4" y2="181.8"/>
<line class="st0" x1="54.5" y1="49.1" x2="54.5" y2="69.3"/>
<line class="st0" x1="50.5" y1="49.1" x2="50.5" y2="69.3"/>
<line class="st0" x1="372" y1="164.6" x2="372" y2="168.9"/>
<polyline class="st0" points="372.9,168.5 372.8,168.1 372,168.5 "/>
<polyline class="st0" points="372.8,168.1 372.5,167.7 372,168.5 "/>
<polyline class="st0" points="372.5,167.7 372,167.6 372,168.5 "/>
<polyline class="st0" points="372,167.6 371.5,167.7 372,168.5 "/>
<polyline class="st0" points="371.5,167.7 371.2,168.1 372,168.5 "/>
<polyline class="st0" points="371.2,168.1 371,168.5 372,168.5 "/>
<polyline class="st0" points="371,168.5 371.2,169 372,168.5 "/>
<polyline class="st0" points="371.2,169 371.5,169.4 372,168.5 "/>
<polyline class="st0" points="371.5,169.4 372,169.5 372,168.5 "/>
<polyline class="st0" points="372,169.5 372.5,169.4 372,168.5 "/>
<polyline class="st0" points="372.5,169.4 372.8,169 372,168.5 "/>
<polyline class="st0" points="372.8,169 372.9,168.5 372,168.5 "/>
<line class="st0" x1="371" y1="168.5" x2="370.1" y2="168.5"/>
<polyline class="st0" points="248,62.6 288.4,62.6 288.4,49.1 "/>
<polyline class="st0" points="10.1,113.8 50.5,113.8 50.5,82.8 "/>
<line class="st0" x1="177.9" y1="73.4" x2="174.7" y2="73.4"/>
<line class="st0" x1="10.1" y1="35.7" x2="10.1" y2="211.6"/>
<line class="st0" x1="2" y1="35.7" x2="2" y2="218.3"/>
<rect x="198.1" y="53.1" class="st0" width="1.4" height="19.6"/>
<line class="st0" x1="271.5" y1="178.7" x2="299.2" y2="178.7"/>
<line class="st0" x1="273.6" y1="181.9" x2="271.5" y2="181.9"/>
<line class="st0" x1="428" y1="1.3" x2="428" y2="66"/>
<rect x="244.6" y="125.4" class="st0" width="4.8" height="43"/>
<line class="st0" x1="40.1" y1="155.4" x2="43.3" y2="155.4"/>
<line class="st0" x1="40.1" y1="161.8" x2="43.3" y2="161.8"/>
<line class="st0" x1="40.1" y1="162.3" x2="43.9" y2="162.3"/>
<line class="st0" x1="40.1" y1="154.9" x2="43.9" y2="154.9"/>
<line class="st0" x1="40.1" y1="153.6" x2="50.5" y2="153.6"/>
<line class="st0" x1="40.1" y1="163.7" x2="50.5" y2="163.7"/>
<line class="st0" x1="42.1" y1="159.9" x2="43.8" y2="159.9"/>
<line class="st0" x1="43.8" y1="157.3" x2="42.1" y2="157.3"/>
<polyline class="st0" points="41.8,159.8 41.9,159.9 42.1,159.9 "/>
<polyline class="st0" points="42.1,157.3 41.9,157.3 41.8,157.4 41.6,157.6 41.4,157.9 41.3,158.2 41.3,158.5 41.3,158.8 41.3,159 
	41.4,159.4 41.6,159.6 41.8,159.8 "/>
<path class="st0" d="M40.1,155.4l-0.6,0.1c-1.7,0.4-2.8,2.1-2.4,3.9c0.3,1.2,1.2,2.1,2.4,2.4l0.6,0.1"/>
<path class="st0" d="M40.1,155l-0.7,0.1c-2,0.5-3.2,2.5-2.7,4.5c0.3,1.4,1.4,2.4,2.7,2.7l0.7,0.1"/>
<path class="st0" d="M40.1,153.6l-0.9,0.1c-2.8,0.6-4.5,3.4-3.9,6.1c0.4,1.9,1.9,3.4,3.9,3.9l0.9,0.1"/>
<polyline class="st0" points="43.8,159.9 44,159.9 44.2,159.9 44.4,159.7 44.5,159.5 44.5,159.4 44.5,159.3 "/>
<polyline class="st0" points="44.5,158 44.5,157.8 44.5,157.7 44.4,157.6 44.2,157.4 44,157.3 43.8,157.3 "/>
<polyline class="st0" points="44.5,159.3 44.6,158.6 44.5,158 "/>
<polyline class="st0" points="43.3,161.8 43.6,161.8 43.9,161.7 44.4,161.4 44.6,161.2 44.8,160.9 44.9,160.7 44.9,160.3 "/>
<path class="st0" d="M43.9,162.3h0.3c0.5-0.2,1-0.6,1.2-1.1l0.1-0.3"/>
<path class="st0" d="M44.9,156.9l-0.1-0.3c-0.2-0.6-0.6-1-1.2-1.1l-0.3-0.1"/>
<path class="st0" d="M45.5,156.3l-0.1-0.2c-0.2-0.6-0.7-1-1.2-1.1l-0.3-0.1"/>
<polyline class="st0" points="44.9,160.3 45,158.6 44.9,156.9 "/>
<polyline class="st0" points="45.5,160.9 45.7,158.6 45.5,156.3 "/>
<line class="st0" x1="46.6" y1="156.6" x2="46.4" y2="156.6"/>
<line class="st0" x1="46.6" y1="160.8" x2="46.4" y2="160.8"/>
<path class="st0" d="M40.1,153.6l-0.9,0.1c-2.8,0.6-4.5,3.4-3.9,6.1c0.4,1.9,1.9,3.4,3.9,3.9l0.9,0.1"/>
<rect x="50.5" y="143.5" class="st0" width="4.8" height="24.9"/>
<rect x="10.1" y="177.8" class="st0" width="40.4" height="4.1"/>
<line class="st0" x1="271.5" y1="178.7" x2="271.5" y2="181.8"/>
<line class="st0" x1="90.9" y1="176.3" x2="76.9" y2="176.3"/>
<line class="st0" x1="92.7" y1="165.7" x2="92.7" y2="174.4"/>
<line class="st0" x1="90.9" y1="163.9" x2="76.9" y2="163.9"/>
<line class="st0" x1="91.8" y1="174.3" x2="91.8" y2="165.8"/>
<line class="st0" x1="90.8" y1="164.9" x2="77" y2="164.9"/>
<line class="st0" x1="90.8" y1="175.2" x2="77" y2="175.2"/>
<line class="st0" x1="75.1" y1="174.4" x2="75.1" y2="165.7"/>
<line class="st0" x1="76.1" y1="165.8" x2="76.1" y2="174.3"/>
<polyline class="st0" points="90.9,175.2 91.4,175.1 91.7,174.8 91.8,174.3 "/>
<polyline class="st0" points="91.8,165.8 91.7,165.4 91.4,165 90.9,164.9 "/>
<polyline class="st0" points="92.7,165.7 92.7,165 92.2,164.5 91.6,164 90.9,163.9 "/>
<polyline class="st0" points="90.9,176.3 91.6,176.1 92.2,175.7 92.7,175.1 92.7,174.4 "/>
<polygon class="st0" points="83.9,173.7 84.2,173.6 84.6,173.2 84.7,172.9 84.6,172.5 84.2,172.2 83.9,172.1 83.4,172.2 83.2,172.5 
	83.1,172.9 83.2,173.2 83.4,173.6 "/>
<polyline class="st0" points="91.4,166.3 91.2,165.8 90.9,165.5 90.4,165.4 "/>
<polyline class="st0" points="77.4,165.4 79.9,165.9 82.6,166.3 85.2,166.3 87.9,165.9 90.4,165.4 "/>
<polyline class="st0" points="77,164.9 76.6,165 76.2,165.4 76.1,165.8 "/>
<polyline class="st0" points="76.1,174.3 76.2,174.8 76.6,175.1 77,175.2 "/>
<polyline class="st0" points="75.1,174.4 75.2,175.1 75.7,175.7 76.2,176.1 76.9,176.3 "/>
<polyline class="st0" points="76.9,163.9 76.2,164 75.7,164.5 75.2,165 75.1,165.7 "/>
<polyline class="st0" points="77.4,165.4 76.9,165.5 76.6,165.8 76.5,166.3 "/>
<line class="st0" x1="90.9" y1="176.3" x2="76.9" y2="176.3"/>
<line class="st0" x1="92.7" y1="165.7" x2="92.7" y2="174.4"/>
<line class="st0" x1="90.9" y1="163.9" x2="76.9" y2="163.9"/>
<line class="st0" x1="91.8" y1="174.3" x2="91.8" y2="165.8"/>
<line class="st0" x1="90.8" y1="164.9" x2="77" y2="164.9"/>
<line class="st0" x1="90.8" y1="175.2" x2="77" y2="175.2"/>
<line class="st0" x1="75.1" y1="174.4" x2="75.1" y2="165.7"/>
<line class="st0" x1="76.1" y1="165.8" x2="76.1" y2="174.3"/>
<polyline class="st0" points="90.9,175.2 91.4,175.1 91.7,174.8 91.8,174.3 "/>
<polyline class="st0" points="91.8,165.8 91.7,165.4 91.4,165 90.9,164.9 "/>
<polyline class="st0" points="92.7,165.7 92.7,165 92.2,164.5 91.6,164 90.9,163.9 "/>
<polyline class="st0" points="90.9,176.3 91.6,176.1 92.2,175.7 92.7,175.1 92.7,174.4 "/>
<polygon class="st0" points="83.9,173.7 84.2,173.6 84.6,173.2 84.7,172.9 84.6,172.5 84.2,172.2 83.9,172.1 83.4,172.2 83.2,172.5 
	83.1,172.9 83.2,173.2 83.4,173.6 "/>
<polyline class="st0" points="77,164.9 76.6,165 76.2,165.4 76.1,165.8 "/>
<polyline class="st0" points="76.1,174.3 76.2,174.8 76.6,175.1 77,175.2 "/>
<polyline class="st0" points="75.1,174.4 75.2,175.1 75.7,175.7 76.2,176.1 76.9,176.3 "/>
<polyline class="st0" points="76.9,163.9 76.2,164 75.7,164.5 75.2,165 75.1,165.7 "/>
<rect x="58.6" y="162.3" class="st0" width="50.5" height="15.5"/>
<rect x="207.6" y="69.3" class="st0" width="33.7" height="4.1"/>
<g>
	<path class="st1" d="M78.3,107.7c2.8,0.4,2,2.4,1,1.7c-0.2-0.6-0.6-1.2-1.1-1.6L78.3,107.7z M81.7,107.1c-0.5,1.5-1.4,4.3-1.5,5
		c-0.1,0.4-0.2,0.7-0.2,1.1c0.2,0.7,0.3,1.4,0.4,2.1c0,0.6-0.3,0.9-0.8,0.9c-0.3,0-0.5-0.2-0.5-0.6c0.2-1.2,0.1-2.3-0.1-2.5
		c-0.2-0.1-0.4-0.2-0.6-0.2v-0.3h0.5c0.2,0,0.2,0,0.3-0.2c0.2-0.4,0.2-0.4,2.4-5.4L81.7,107.1z M79.2,105.2c2.9,0.5,2.1,2.5,1,1.8
		c-0.2-0.7-0.6-1.3-1.1-1.8L79.2,105.2z M86.3,107.7c0,0.1-0.2,0.2-0.5,0.2c1,1.4,2.4,2.4,4,3v0.2c-0.5,0.1-0.9,0.5-1,1l-0.4-0.2
		c-0.1,0.1-0.3,0.2-0.5,0.2v3.8c-0.3,0.2-0.6,0.3-0.9,0.3h-0.2v-0.9h-3.3v0.7c0,0.1-0.3,0.3-0.9,0.3h-0.2v-4.8
		c-0.5,0.4-1.1,0.7-1.6,1l-0.1-0.1c1.7-1.3,3-3,3.7-4.9L86.3,107.7z M81.6,108.6c0.9-1,1.5-2.2,2-3.4l1.5,0.7
		c-0.1,0.1-0.2,0.2-0.5,0.2c-0.8,1.1-1.7,2-2.9,2.7L81.6,108.6z M87.8,111.3c-1-0.9-1.8-2-2.2-3.2c-0.7,1.2-1.7,2.3-2.8,3.2l1,0.4
		h3.1l0.5-0.6L87.8,111.3z M86.9,114.9V112h-3.3v2.9H86.9z M86,105.3c4,1,3.4,3.6,2.1,2.9c-0.6-1.1-1.3-2-2.3-2.8L86,105.3z"/>
	<path class="st1" d="M88,128.9c0,0,0.8,0.6,1.3,1c0,0.1-0.2,0.2-0.3,0.2H78.5l-0.1-0.3h4.8V128h-3.5l-0.1-0.3h3.6v-1.7l1.6,0.1
		c0,0.2-0.1,0.3-0.4,0.3v1.2h1.8l0.7-0.8c0,0,0.8,0.6,1.2,1c0,0.1-0.2,0.2-0.3,0.2h-3.3v1.8h2.9L88,128.9z M80.1,121.4
		c0.1,0.6-0.2,1.2-0.6,1.6c-0.2,0.2-0.6,0.2-0.8,0c-0.2-0.2-0.2-0.6,0-0.8c0.1-0.1,0.2-0.1,0.3-0.2c0.5-0.3,0.9-0.9,0.8-1.6h0.2
		c0.1,0.2,0.1,0.4,0.2,0.6h3.9c-0.1,0-0.2-0.1-0.3-0.1c-0.1-0.6-0.4-1.1-0.9-1.4l0.1-0.1c2.3,0,2.1,1.5,1.3,1.6h3.4l0.6-0.6l1.1,1.1
		c-0.1,0.1-0.3,0.2-0.5,0.1c-0.3,0.4-0.8,0.9-1.2,1.2l-0.1-0.1c0-0.4,0.1-0.9,0.2-1.3L80.1,121.4z M79.8,125.3c0.1,0,0.3,0,0.4-0.1
		c1-0.5,1.9-1.2,2.7-2.1h-2.7l-0.1-0.3h5.9l0.6-0.8c0,0,0.7,0.5,1.2,0.9c0,0.1-0.2,0.2-0.3,0.2h-3.9l0.9,0.5
		c-0.1,0.1-0.3,0.2-0.5,0.1c-0.9,0.6-2,1.2-3,1.6c1.3,0,3.4,0,5.5-0.1c-0.4-0.4-0.8-0.8-1.2-1.2l0.1-0.1c3.6,0.8,3,3.1,1.8,2.5
		c-0.2-0.4-0.4-0.7-0.6-1c-1.5,0.2-3.6,0.6-6,0.8c-0.1,0.1-0.2,0.3-0.3,0.3L79.8,125.3z"/>
</g>
<g>
	<path class="st1" d="M304.1,146.4c0,0,0.7,0.6,1.1,1c0,0.1-0.1,0.2-0.3,0.2h-2v0.8c2.9,1,2,2.9,1.1,2.1c-0.2-0.7-0.6-1.3-1.1-1.8
		v5.5c-0.2,0.2-0.6,0.4-0.9,0.3h-0.2v-4.8c-0.6,1.1-1.4,2-2.3,2.8l-0.1-0.1c1-1.4,1.7-3.1,2.1-4.8h-1.9l-0.1-0.3h2.3V145
		c-0.8,0.1-1.5,0.2-2.3,0.3v-0.2c1.5-0.4,3-1,4.4-1.8l1.2,1.1c-0.1,0.1-0.4,0.1-0.7,0c-0.4,0.1-0.9,0.2-1.5,0.3v2.4h0.6L304.1,146.4
		z M310.3,145.6c-0.1,0.1-0.3,0.2-0.5,0.3v7.4c-0.3,0.2-0.6,0.3-1,0.3h-0.1v-1.2h-2.1v1c0,0.1-0.4,0.4-0.9,0.4h-0.2v-9l1.2,0.5h2
		l0.6-0.6L310.3,145.6z M308.7,152v-6.4h-2.1v6.4H308.7z"/>
	<path class="st1" d="M321.1,152.7c0,0,0.8,0.6,1.3,1c0,0.1-0.2,0.2-0.3,0.2h-10.5l-0.1-0.3h4.8v-1.8h-3.5l-0.1-0.3h3.6v-1.7
		l1.6,0.1c0,0.2-0.1,0.3-0.4,0.3v1.2h1.8l0.7-0.8c0,0,0.8,0.6,1.3,1c0,0.1-0.2,0.2-0.3,0.2h-3.4v1.8h2.9L321.1,152.7z M313.2,145.3
		c0.1,0.6-0.2,1.2-0.6,1.6c-0.2,0.2-0.6,0.2-0.8,0c-0.2-0.2-0.2-0.6,0-0.8c0.1-0.1,0.2-0.1,0.3-0.2c0.5-0.3,0.9-0.9,0.8-1.6h0.2
		c0.1,0.2,0.1,0.4,0.2,0.6h3.9c-0.1,0-0.2-0.1-0.3-0.1c-0.1-0.6-0.4-1.1-0.9-1.4l0.1-0.1c2.3,0,2.1,1.5,1.3,1.6h3.5l0.6-0.6l1.1,1.1
		c-0.1,0.1-0.3,0.2-0.5,0.1c-0.3,0.4-0.8,0.9-1.2,1.2l-0.2-0.1c0.1-0.4,0.1-0.9,0.2-1.3L313.2,145.3z M312.9,149.1
		c0.1,0,0.3,0,0.4-0.1c1-0.5,1.9-1.2,2.7-2.1h-2.7l-0.1-0.3h5.9l0.6-0.8c0,0,0.7,0.5,1.2,0.9c0,0.1-0.2,0.2-0.3,0.2h-3.9l0.9,0.5
		c-0.1,0.1-0.3,0.2-0.5,0.1c-0.9,0.6-2,1.2-3,1.6c1.3,0,3.4-0.1,5.5-0.1c-0.4-0.4-0.8-0.8-1.2-1.2l0.1-0.1c3.6,0.8,3,3.1,1.8,2.5
		c-0.2-0.4-0.4-0.7-0.6-1c-1.5,0.2-3.6,0.6-6,0.8c-0.1,0.1-0.2,0.3-0.3,0.3L312.9,149.1z"/>
	<path class="st1" d="M326.1,147.4c1.1,0.6,1.4,1.4,1.2,1.8c2.4,0.4,1.6,2.3,0.8,1.6c-0.2-0.6-0.5-1.1-0.9-1.5
		c-0.1,0.2-0.4,0.3-0.7,0c-0.1-0.5-0.2-1-0.5-1.5v6.2c0,0.1-0.4,0.4-0.8,0.4H325v-5c-0.4,0.8-0.9,1.6-1.5,2.3l-0.2-0.1
		c0.8-1.6,1.4-3.3,1.6-5h-1.4l-0.1-0.3h1.6v-2.9l1.5,0.2c0,0.2-0.1,0.3-0.4,0.3v2.4h0.2l0.6-0.8c0,0,0.6,0.5,1,0.9
		c0,0.1-0.1,0.2-0.3,0.2H326L326.1,147.4z M330.9,148.8c-0.1,0.1-0.3,0.2-0.5,0.2v4.2c0,0.7-0.2,1.2-1.4,1.3c0-0.3-0.1-0.5-0.3-0.7
		c-0.3-0.2-0.6-0.3-0.9-0.3v-0.2c0,0,1.1,0.1,1.3,0.1c0.3,0,0.3-0.1,0.3-0.2v-1.7c-0.4,0.4-1,0.8-1.7,1.4c0,0.1-0.1,0.3-0.2,0.3
		l-0.7-1c0.5-0.2,1.5-0.6,2.6-1v-2.1h-2l-0.1-0.3h1.9l0.5-0.5L330.9,148.8z M329,147.5c0,0.1-0.5,0.3-0.9,0.3H328v-4.2l1.1,0.5h3.4
		l0.5-0.6l1.1,0.8c-0.1,0.1-0.3,0.2-0.4,0.2v2.8c-0.2,0.2-0.6,0.3-0.9,0.3h-0.2v-3.3H329L329,147.5z M329.4,146.9h1.7l0.5-0.6
		c0,0,0.5,0.4,0.8,0.8c0,0.1-0.1,0.2-0.3,0.2h-2.5L329.4,146.9z M331.5,144.9c0,0,0.5,0.4,0.8,0.8c0,0.1-0.1,0.2-0.3,0.2h-2.4
		l-0.1-0.3h1.5L331.5,144.9z M334.6,148.8c-0.1,0.1-0.3,0.2-0.5,0.2v4.2c0,0.7-0.2,1.2-1.4,1.3c0-0.3-0.1-0.5-0.2-0.7
		c-0.3-0.2-0.6-0.3-0.9-0.3v-0.2c0,0,1.1,0.1,1.3,0.1c0.3,0,0.3-0.1,0.3-0.2v-1.7c-0.4,0.4-0.9,0.8-1.6,1.4c0,0.1-0.1,0.3-0.2,0.3
		l-0.7-1c0.5-0.2,1.5-0.6,2.6-1v-2.1H331l-0.1-0.3h2.1l0.5-0.5L334.6,148.8z M331,149.2c2.5,0.3,1.8,2.2,0.9,1.6
		c-0.2-0.6-0.6-1.1-1-1.4L331,149.2z"/>
	<path class="st1" d="M338.1,147.4c1.1,0.6,1.4,1.4,1.2,1.8c2.4,0.4,1.6,2.3,0.8,1.6c-0.2-0.6-0.5-1.1-0.9-1.5
		c-0.1,0.2-0.4,0.3-0.7,0c-0.1-0.5-0.2-1-0.5-1.5v6.2c0,0.1-0.4,0.4-0.8,0.4H337v-5c-0.4,0.8-0.9,1.6-1.5,2.3l-0.2-0.1
		c0.8-1.6,1.4-3.3,1.6-5h-1.4l-0.1-0.3h1.6v-2.9l1.5,0.2c0,0.2-0.1,0.3-0.4,0.3v2.4h0.2l0.6-0.8c0,0,0.6,0.5,1,0.9
		c0,0.1-0.1,0.2-0.3,0.2H338L338.1,147.4z M342.9,148.8c-0.1,0.1-0.3,0.2-0.5,0.2v4.2c0,0.7-0.2,1.2-1.4,1.3c0-0.3-0.1-0.5-0.3-0.7
		c-0.3-0.2-0.6-0.3-0.9-0.3v-0.2c0,0,1.1,0.1,1.3,0.1c0.3,0,0.3-0.1,0.3-0.2v-1.7c-0.4,0.4-1,0.8-1.7,1.4c0,0.1-0.1,0.3-0.2,0.3
		l-0.7-1c0.5-0.2,1.5-0.6,2.6-1v-2.1h-2l-0.1-0.3h1.9l0.5-0.5L342.9,148.8z M341,147.5c0,0.1-0.5,0.3-0.9,0.3H340v-4.2l1.1,0.5h3.4
		l0.5-0.6l1.1,0.8c-0.1,0.1-0.3,0.2-0.4,0.2v2.8c-0.2,0.2-0.6,0.3-0.9,0.3h-0.2v-3.3H341L341,147.5z M341.4,146.9h1.7l0.5-0.6
		c0,0,0.5,0.4,0.8,0.8c0,0.1-0.1,0.2-0.3,0.2h-2.5L341.4,146.9z M343.5,144.9c0,0,0.5,0.4,0.8,0.8c0,0.1-0.1,0.2-0.3,0.2h-2.4
		l-0.1-0.3h1.5L343.5,144.9z M346.6,148.8c-0.1,0.1-0.3,0.2-0.5,0.2v4.2c0,0.7-0.2,1.2-1.4,1.3c0-0.3-0.1-0.5-0.2-0.7
		c-0.3-0.2-0.6-0.3-0.9-0.3v-0.2c0,0,1.1,0.1,1.3,0.1c0.3,0,0.3-0.1,0.3-0.2v-1.7c-0.4,0.4-0.9,0.8-1.6,1.4c0,0.1-0.1,0.3-0.2,0.3
		l-0.7-1c0.5-0.2,1.5-0.6,2.6-1v-2.1H343l-0.1-0.3h2.1l0.5-0.5L346.6,148.8z M343,149.2c2.5,0.3,1.8,2.2,0.9,1.6
		c-0.2-0.6-0.6-1.1-1-1.4L343,149.2z"/>
	<path class="st1" d="M347.9,153.4c1.2-1.3,2-2.8,2.6-4.4l1.6,0.6c0,0.1-0.2,0.2-0.5,0.2c-0.8,1.5-2,2.8-3.5,3.7L347.9,153.4z
		 M356.5,147c0,0,0.8,0.6,1.3,1.1c0,0.1-0.2,0.2-0.3,0.2h-4v5.8c0,0.1-0.5,0.4-1,0.4h-0.3v-6.2h-4.2L348,148h4.4v-4.6l1.7,0.2
		c0,0.2-0.1,0.3-0.4,0.3v4.1h2.2L356.5,147z M348.9,144.1c3.6,1.5,2.7,4,1.5,3.1c-0.4-1.1-0.9-2.1-1.7-3L348.9,144.1z M354.3,149.2
		c4.2,2.1,3.4,4.9,2.1,3.9c-0.5-1.4-1.3-2.7-2.3-3.8L354.3,149.2z M357.4,144.6c-0.1,0.2-0.3,0.2-0.5,0.2c-0.7,1-1.5,1.8-2.5,2.5
		l-0.1-0.1c0.6-1,1.1-2.1,1.5-3.3L357.4,144.6z"/>
</g>
<rect x="297.8" y="77" class="st0" width="63" height="60.6"/>
<line class="st0" x1="350.2" y1="77" x2="350.2" y2="137.6"/>
<line class="st0" x1="341.3" y1="77" x2="341.3" y2="137.6"/>
<path class="st0" d="M359,80.7v22.6c0,0.5-0.4,0.9-0.9,0.9h-6.9c-0.5,0-0.9-0.4-0.9-0.9V80.7c0-0.5,0.4-0.9,0.9-0.9h6.9
	C358.6,79.8,359,80.2,359,80.7z"/>
<path class="st0" d="M359,111.1v22.6c0,0.5-0.4,0.9-0.9,0.9h-7c-0.5,0-0.9-0.4-0.9-0.9v-22.6c0-0.5,0.4-0.9,0.9-0.9h7
	C358.6,110.2,359,110.6,359,111.1z"/>
<path class="st2" d="M180.1,165.8v3.6c0,0.3-0.2,0.6-0.6,0.6h-23.1c-0.3,0-0.6-0.2-0.6-0.6v-3.6c0-0.3,0.2-0.6,0.6-0.6h23.1
	C179.8,165.2,180.1,165.5,180.1,165.8z"/>
<path class="st2" d="M160.1,165.2h-3.6c-0.3,0-0.6-0.2-0.6-0.6v-53.2c0-0.3,0.2-0.6,0.6-0.6h3.6c0.3,0,0.6,0.2,0.6,0.6v53.2
	C160.6,165,160.4,165.2,160.1,165.2z"/>
<path class="st2" d="M180.1,111.8v34.3c0,0.5-0.4,0.9-0.9,0.9h-17.6c-0.5,0-0.9-0.4-0.9-0.9v-34.3c0-0.5,0.4-0.9,0.9-0.9h17.6
	C179.7,110.9,180.1,111.3,180.1,111.8z"/>
<path class="st2" d="M180.1,148v16.2c0,0.5-0.4,0.9-0.9,0.9h-17.6c-0.5,0-0.9-0.4-0.9-0.9V148c0-0.5,0.4-0.9,0.9-0.9h17.6
	C179.7,147.1,180.1,147.5,180.1,148z"/>
<path class="st2" d="M186.8,98.3h33.4c0.7,0,1.3,0.6,1.3,1.3v14.7c0,0.7-0.6,1.3-1.3,1.3h-33.4c-0.7,0-1.3-0.6-1.3-1.3V99.6
	C185.5,98.9,186,98.3,186.8,98.3z"/>
<rect x="192.9" y="125.3" class="st2" width="21.8" height="42.2"/>
<rect x="113.2" y="82.8" class="st3" width="2.7" height="82.9"/>
<line class="st0" x1="284.4" y1="62.6" x2="284.4" y2="178.7"/>
</svg>
