<?xml version="1.0" encoding="utf-8"?>
<!-- Generator: Adobe Illustrator 23.0.3, SVG Export Plug-In . SVG Version: 6.00 Build 0)  -->
<svg version="1.1" id="圖層_1" xmlns="http://www.w3.org/2000/svg" xmlns:xlink="http://www.w3.org/1999/xlink" x="0px" y="0px"
	 viewBox="0 0 430 221.7" style="enable-background:new 0 0 430 221.7;" xml:space="preserve">
<style type="text/css">
	.st0{fill:none;stroke:#898989;stroke-width:0.55;stroke-linecap:round;stroke-linejoin:round;}
	.st1{fill:#898989;}
	.st2{fill:none;stroke:#898989;stroke-width:0.47;stroke-linecap:round;stroke-linejoin:round;}
	.st3{fill:none;stroke:#898989;stroke-width:0.5;stroke-linecap:round;stroke-linejoin:round;}
</style>
<title>room</title>
<line class="st0" x1="218.1" y1="50.1" x2="277.9" y2="50.1"/>
<line class="st0" x1="304.8" y1="30.9" x2="277.9" y2="30.9"/>
<line class="st0" x1="274.3" y1="81.4" x2="274.3" y2="109.3"/>
<rect x="137.4" y="173.7" class="st0" width="133.1" height="4.5"/>
<line class="st0" x1="76.1" y1="211" x2="55.1" y2="211"/>
<line class="st0" x1="14" y1="116.1" x2="14" y2="16"/>
<line class="st0" x1="269" y1="17.3" x2="269" y2="12.8"/>
<line class="st0" x1="255.5" y1="6.2" x2="255.5" y2="1.8"/>
<line class="st0" x1="225.6" y1="1.8" x2="225.6" y2="26.4"/>
<line class="st0" x1="233.1" y1="6.2" x2="233.1" y2="13.7"/>
<line class="st0" x1="225.6" y1="1.8" x2="231.6" y2="1.8"/>
<line class="st0" x1="270.5" y1="1.8" x2="277.9" y2="1.8"/>
<line class="st0" x1="134.4" y1="211" x2="240.5" y2="211"/>
<line class="st0" x1="149.3" y1="211" x2="149.3" y2="185.6"/>
<line class="st0" x1="141.9" y1="211" x2="141.9" y2="185.6"/>
<line class="st0" x1="134.4" y1="211" x2="134.4" y2="185.6"/>
<line class="st0" x1="156.8" y1="211" x2="156.8" y2="185.6"/>
<line class="st0" x1="164.3" y1="211" x2="164.3" y2="185.6"/>
<line class="st0" x1="171.8" y1="211" x2="171.8" y2="185.6"/>
<line class="st0" x1="179.3" y1="211" x2="179.3" y2="185.6"/>
<line class="st0" x1="5.1" y1="211" x2="314.6" y2="211"/>
<polyline class="st0" points="112.6,199.1 182.8,199.1 180,199.9 "/>
<line class="st0" x1="182.8" y1="199.1" x2="180" y2="198.2"/>
<polygon class="st0" points="114.1,199.1 113.9,198.3 113.4,197.8 112.6,197.5 111.8,197.8 111.3,198.3 111,199.1 111.3,199.9 
	111.8,200.4 112.6,200.6 113.4,200.4 113.9,199.9 "/>
<polyline class="st0" points="5.1,218.5 314.6,218.5 314.6,211 "/>
<line class="st0" x1="112.6" y1="178.1" x2="112.6" y2="211"/>
<line class="st0" x1="149.3" y1="184.1" x2="149.3" y2="178.1"/>
<line class="st0" x1="405" y1="173.7" x2="352.7" y2="173.7"/>
<line class="st0" x1="405" y1="178.1" x2="352.7" y2="178.1"/>
<line class="st0" x1="334.7" y1="178.1" x2="279.4" y2="178.1"/>
<line class="st0" x1="322.8" y1="30.9" x2="322.8" y2="20.4"/>
<polyline class="st0" points="318.2,20.4 318.2,26.4 304.8,26.4 "/>
<line class="st0" x1="322.8" y1="20.4" x2="318.2" y2="20.4"/>
<line class="st0" x1="304.8" y1="30.9" x2="322.8" y2="30.9"/>
<rect x="303.3" y="27.2" class="st0" width="1.5" height="3"/>
<polyline class="st0" points="187.1,184.1 183.2,197.5 181.4,197.5 "/>
<polyline class="st0" points="182.3,200.6 184.1,200.6 181.4,197.5 "/>
<line class="st0" x1="182.3" y1="200.6" x2="179.3" y2="211"/>
<line class="st0" x1="5.1" y1="211" x2="5.1" y2="218.5"/>
<line class="st0" x1="9.5" y1="178.1" x2="9.5" y2="211"/>
<line class="st0" x1="14" y1="178.1" x2="14" y2="211"/>
<polyline class="st0" points="14,16 5.1,16 5.1,116.1 "/>
<polyline class="st0" points="14,149 14,178.1 5.1,178.1 "/>
<polyline class="st0" points="14,149 5.1,149 5.1,178.1 "/>
<line class="st0" x1="270.5" y1="5.3" x2="255.5" y2="5.3"/>
<polyline class="st0" points="304.8,30.9 304.8,26.4 277.9,26.4 "/>
<line class="st0" x1="231.6" y1="1.8" x2="255.5" y2="1.8"/>
<line class="st0" x1="233.1" y1="6.2" x2="251" y2="6.2"/>
<line class="st0" x1="233.1" y1="13.7" x2="251" y2="13.7"/>
<line class="st0" x1="255.5" y1="17.3" x2="270.5" y2="17.3"/>
<line class="st0" x1="255.5" y1="12.8" x2="270.5" y2="12.8"/>
<line class="st0" x1="255.5" y1="6.2" x2="255.5" y2="17.3"/>
<line class="st0" x1="257" y1="12.8" x2="257" y2="17.3"/>
<line class="st0" x1="251" y1="6.2" x2="251" y2="13.7"/>
<line class="st0" x1="233.1" y1="17.3" x2="251" y2="17.3"/>
<line class="st0" x1="123.9" y1="178.1" x2="115" y2="178.1"/>
<line class="st0" x1="14" y1="116.1" x2="5.1" y2="116.1"/>
<line class="st0" x1="251" y1="17.3" x2="255.5" y2="17.3"/>
<line class="st0" x1="269" y1="15.8" x2="257" y2="15.8"/>
<line class="st0" x1="269" y1="14.3" x2="257" y2="14.3"/>
<line class="st0" x1="334.7" y1="173.7" x2="279.4" y2="173.7"/>
<line class="st0" x1="79.8" y1="211" x2="75.3" y2="211"/>
<line class="st0" x1="79.8" y1="187.1" x2="75.3" y2="187.1"/>
<polygon class="st0" points="75.3,211 75.3,210.1 76.2,210.1 76.2,209.2 78.3,209.2 78.3,211 "/>
<polygon class="st0" points="75.3,187.1 75.3,188.1 76.2,188.1 76.2,188.9 78.3,188.9 78.3,187.1 "/>
<polyline class="st0" points="53.2,210.1 75.3,210.1 75.3,209.2 53.2,209.2 "/>
<path class="st0" d="M75.3,188.1l-2.7,0.1c-10.1,1.2-18.1,9.2-19.3,19.3l-0.2,2.7"/>
<line class="st0" x1="334.7" y1="178.1" x2="334.7" y2="173.7"/>
<polyline class="st0" points="352.7,173.7 352.7,178.1 334.7,178.1 "/>
<line class="st0" x1="334.7" y1="173.7" x2="352.7" y2="173.7"/>
<line class="st0" x1="336.5" y1="173.7" x2="336.5" y2="177.2"/>
<line class="st0" x1="350.9" y1="173.7" x2="350.9" y2="177.2"/>
<line class="st0" x1="336.5" y1="174.8" x2="350.9" y2="174.8"/>
<line class="st0" x1="336.5" y1="176.1" x2="350.9" y2="176.1"/>
<line class="st0" x1="334.7" y1="177.2" x2="352.7" y2="177.2"/>
<line class="st0" x1="149.3" y1="178.1" x2="132.9" y2="178.1"/>
<polyline class="st0" points="58.9,169.4 58.9,172.1 62.1,172.1 "/>
<polyline class="st0" points="67.8,169.4 67.8,172.1 64.6,172.1 "/>
<line class="st0" x1="425.9" y1="155.7" x2="415.5" y2="155.7"/>
<line class="st0" x1="425.9" y1="160.2" x2="419.9" y2="160.2"/>
<line class="st0" x1="415.5" y1="155.7" x2="415.5" y2="169.2"/>
<line class="st0" x1="419.9" y1="160.2" x2="419.9" y2="169.2"/>
<line class="st0" x1="425.9" y1="155.7" x2="425.9" y2="160.2"/>
<rect x="405" y="169.2" class="st0" width="14.9" height="8.9"/>
<line class="st0" x1="318.2" y1="26.4" x2="318.2" y2="21.3"/>
<rect x="225.6" y="26.4" class="st0" width="7.5" height="23.6"/>
<rect x="270.5" y="26.4" class="st0" width="7.4" height="23.6"/>
<line class="st0" x1="277.9" y1="26.4" x2="277.9" y2="1.8"/>
<line class="st0" x1="270.5" y1="26.4" x2="270.5" y2="1.8"/>
<line class="st0" x1="233.1" y1="17.3" x2="233.1" y2="26.4"/>
<rect x="270.5" y="160.2" class="st0" width="8.9" height="17.9"/>
<line class="st0" x1="132.9" y1="178.1" x2="123.9" y2="178.1"/>
<polyline class="st0" points="112.6,173.7 123.9,173.7 117,173.7 "/>
<polyline class="st0" points="123.9,178.1 112.6,178.1 112.6,160.2 "/>
<line class="st0" x1="116.1" y1="163.8" x2="116.1" y2="173.7"/>
<rect x="123.9" y="160.2" class="st0" width="13.5" height="17.9"/>
<line class="st0" x1="112.6" y1="160.2" x2="123.9" y2="160.2"/>
<line class="st0" x1="116.1" y1="163.8" x2="123.9" y2="163.8"/>
<line class="st0" x1="14" y1="170.7" x2="14" y2="165.5"/>
<line class="st0" x1="14.1" y1="172.1" x2="75.3" y2="172.1"/>
<line class="st0" x1="79.8" y1="168.5" x2="79.8" y2="187.1"/>
<line class="st0" x1="75.3" y1="172.1" x2="75.3" y2="187.1"/>
<line class="st0" x1="79.8" y1="168.5" x2="14.1" y2="168.5"/>
<line class="st0" x1="421.5" y1="155.7" x2="421.5" y2="38.3"/>
<line class="st0" x1="425.9" y1="155.7" x2="425.9" y2="38.3"/>
<line class="st0" x1="411" y1="20.4" x2="322.8" y2="20.4"/>
<line class="st0" x1="411" y1="24.9" x2="322.8" y2="24.9"/>
<polyline class="st0" points="324.2,24.9 324.2,20.4 322.8,20.4 "/>
<line class="st0" x1="322.8" y1="24.9" x2="324.2" y2="24.9"/>
<line class="st0" x1="423" y1="154.2" x2="423" y2="126.6"/>
<line class="st0" x1="423" y1="125.1" x2="423" y2="97.5"/>
<line class="st0" x1="423" y1="95.9" x2="423" y2="68.3"/>
<line class="st0" x1="423" y1="66.8" x2="423" y2="39.9"/>
<line class="st0" x1="424.4" y1="154.2" x2="424.4" y2="126.6"/>
<line class="st0" x1="424.4" y1="125.1" x2="424.4" y2="97.5"/>
<line class="st0" x1="424.4" y1="95.9" x2="424.4" y2="68.3"/>
<line class="st0" x1="424.4" y1="66.8" x2="424.4" y2="39.9"/>
<line class="st0" x1="425.9" y1="38.3" x2="421.5" y2="38.3"/>
<line class="st0" x1="425.9" y1="66.8" x2="421.5" y2="66.8"/>
<line class="st0" x1="425.9" y1="68.3" x2="421.5" y2="68.3"/>
<line class="st0" x1="425.9" y1="39.9" x2="421.5" y2="39.9"/>
<line class="st0" x1="425.9" y1="154.2" x2="421.5" y2="154.2"/>
<line class="st0" x1="425.9" y1="125.1" x2="421.5" y2="125.1"/>
<line class="st0" x1="425.9" y1="126.6" x2="421.5" y2="126.6"/>
<line class="st0" x1="425.9" y1="95.9" x2="421.5" y2="95.9"/>
<line class="st0" x1="425.9" y1="97.5" x2="421.5" y2="97.5"/>
<line class="st0" x1="409.5" y1="23.4" x2="345.2" y2="23.4"/>
<line class="st0" x1="409.5" y1="21.9" x2="345.2" y2="21.9"/>
<line class="st0" x1="343.7" y1="21.9" x2="324.2" y2="21.9"/>
<line class="st0" x1="324.2" y1="24.9" x2="324.2" y2="20.4"/>
<line class="st0" x1="345.2" y1="24.9" x2="345.2" y2="20.4"/>
<line class="st0" x1="343.7" y1="24.9" x2="343.7" y2="20.4"/>
<line class="st0" x1="409.5" y1="24.9" x2="409.5" y2="20.4"/>
<line class="st0" x1="343.7" y1="23.4" x2="324.2" y2="23.4"/>
<rect x="122.5" y="26.4" class="st0" width="1.4" height="4.5"/>
<line class="st0" x1="123.9" y1="30.9" x2="14" y2="30.9"/>
<line class="st0" x1="122.5" y1="27.9" x2="98.5" y2="27.9"/>
<line class="st0" x1="97" y1="27.9" x2="40.9" y2="27.9"/>
<rect x="39.5" y="26.4" class="st0" width="1.4" height="4.5"/>
<rect x="14" y="26.4" class="st0" width="1.5" height="4.5"/>
<line class="st0" x1="39.5" y1="27.9" x2="15.5" y2="27.9"/>
<line class="st0" x1="14" y1="27.9" x2="14" y2="27.8"/>
<line class="st0" x1="14" y1="29.4" x2="14" y2="29.3"/>
<line class="st0" x1="39.5" y1="29.4" x2="15.5" y2="29.4"/>
<line class="st0" x1="122.5" y1="29.4" x2="98.5" y2="29.4"/>
<line class="st0" x1="97" y1="29.4" x2="40.9" y2="29.4"/>
<line class="st0" x1="123.9" y1="26.4" x2="14" y2="26.4"/>
<rect x="97" y="26.4" class="st0" width="1.5" height="4.5"/>
<rect x="224.1" y="26.4" class="st0" width="1.5" height="4.5"/>
<rect x="141.9" y="26.4" class="st0" width="1.5" height="4.5"/>
<rect x="411" y="20.4" class="st0" width="14.9" height="17.9"/>
<line class="st0" x1="411" y1="38.3" x2="411" y2="35.7"/>
<line class="st0" x1="411" y1="33.2" x2="411" y2="28.5"/>
<polyline class="st0" points="411,26.1 411,23.4 414.3,23.4 "/>
<polyline class="st0" points="416.7,23.4 419.9,23.4 419.9,26.1 "/>
<line class="st0" x1="419.9" y1="28.5" x2="419.9" y2="33.2"/>
<polyline class="st0" points="419.9,35.7 419.9,38.3 416.7,38.3 "/>
<line class="st0" x1="414.3" y1="38.3" x2="411" y2="38.3"/>
<line class="st0" x1="9.5" y1="179.6" x2="14" y2="179.6"/>
<line class="st0" x1="9.5" y1="197.5" x2="9.5" y2="178.1"/>
<line class="st0" x1="14" y1="197.5" x2="14" y2="178.1"/>
<line class="st0" x1="14" y1="196.1" x2="9.5" y2="196.1"/>
<line class="st0" x1="11" y1="179.6" x2="11" y2="196.1"/>
<line class="st0" x1="12.6" y1="179.6" x2="12.6" y2="196.1"/>
<line class="st0" x1="14" y1="197.5" x2="9.5" y2="197.5"/>
<rect x="2.9" y="155.5" class="st0" width="1.2" height="41.1"/>
<polyline class="st0" points="9.4,200.3 4,200.3 4,196.6 9.4,196.6 "/>
<rect x="303.3" y="178.1" class="st0" width="4.5" height="32.9"/>
<line class="st0" x1="45.2" y1="173" x2="46.5" y2="174.2"/>
<line class="st0" x1="56.4" y1="172.2" x2="44.4" y2="172.2"/>
<line class="st0" x1="53.2" y1="173" x2="53.2" y2="174.2"/>
<line class="st0" x1="45.2" y1="179.3" x2="46.4" y2="178"/>
<line class="st0" x1="56.1" y1="180" x2="44.7" y2="180"/>
<line class="st0" x1="44.4" y1="179.7" x2="44.4" y2="172.2"/>
<line class="st0" x1="56.4" y1="179.7" x2="56.4" y2="172.2"/>
<polyline class="st0" points="44.4,179.7 44.5,179.9 44.7,180 "/>
<polyline class="st0" points="56.1,180 56.3,179.9 56.4,179.7 "/>
<line class="st0" x1="44.9" y1="179" x2="44.9" y2="173.2"/>
<polyline class="st0" points="45.4,172.8 45.1,172.8 44.9,173.2 "/>
<line class="st0" x1="53.3" y1="179" x2="53.3" y2="173.2"/>
<polyline class="st0" points="52.9,179.5 53.3,179.4 53.3,179 "/>
<line class="st0" x1="45.4" y1="172.8" x2="52.9" y2="172.8"/>
<polyline class="st0" points="53.3,173.2 53.3,172.8 52.9,172.8 "/>
<line class="st0" x1="45.4" y1="179.5" x2="52.9" y2="179.5"/>
<polyline class="st0" points="44.9,179 45.1,179.4 45.4,179.5 "/>
<polyline class="st0" points="52.9,178 53.3,177.9 53.3,177.6 "/>
<line class="st0" x1="52.9" y1="178" x2="46.8" y2="178"/>
<polyline class="st0" points="46.4,177.6 46.5,177.9 46.8,178 "/>
<line class="st0" x1="46.4" y1="177.6" x2="46.4" y2="174.6"/>
<polyline class="st0" points="46.8,174.2 46.5,174.3 46.4,174.6 "/>
<line class="st0" x1="46.8" y1="174.2" x2="52.9" y2="174.2"/>
<polyline class="st0" points="53.3,174.6 53.3,174.3 52.9,174.2 "/>
<line class="st0" x1="53.2" y1="179.2" x2="53.2" y2="178"/>
<polyline class="st0" points="32.9,177.5 28.4,177.7 23.9,177.5 "/>
<path class="st0" d="M33.9,176.5v0.2c-0.1,0.4-0.4,0.7-0.8,0.8h-0.3"/>
<path class="st0" d="M23.9,177.5h-0.2c-0.4-0.1-0.8-0.4-0.9-0.8v-0.2"/>
<path class="st0" d="M28,175.2v-0.3l0,0v-0.1h0.1v-0.1h0.4l0.1,0.1h0.1v0.1h0.1v0.1c0,0.3,0,0.6-0.4,0.5l-0.1,0.1l-0.1-0.1h-0.2
	v-0.1H28v-0.1l0,0V175.2z"/>
<path class="st0" d="M33.9,176.5l-0.1-2.9c-0.1-0.8-0.7-1.4-1.5-1.4h-7.8c-0.8-0.1-1.5,0.5-1.6,1.3c0,0,0,0.1,0,0.1l-0.1,2.9"/>
<line class="st0" x1="33.9" y1="187.3" x2="33.9" y2="176.6"/>
<path class="st0" d="M22.9,176.6v10.7c0.1,3.1,2.6,5.5,5.7,5.4c2.4-0.1,4.5-1.7,5.2-4l0.2-1.4"/>
<path class="st0" d="M24.5,187.3l0.2,1.2c0.6,2,2.8,3.2,4.8,2.5c1.2-0.4,2.1-1.3,2.5-2.5l0.2-1.2"/>
<path class="st0" d="M24.9,187.3l0.2,1.1c0.6,1.8,2.6,2.8,4.4,2.2c1-0.3,1.9-1.2,2.2-2.2l0.2-1.1"/>
<polyline class="st0" points="32.3,183.5 32.2,182.9 31.9,182.3 31.4,181.9 30.7,181.7 "/>
<polyline class="st0" points="26.1,181.7 25.4,181.9 24.9,182.3 24.6,182.9 24.5,183.5 "/>
<polyline class="st0" points="30.7,181.7 28.4,181.5 26.1,181.7 "/>
<line class="st0" x1="32.3" y1="183.5" x2="32.2" y2="187.3"/>
<line class="st0" x1="24.5" y1="187.3" x2="24.5" y2="183.5"/>
<polyline class="st0" points="31.8,183.9 31.7,183.4 31.4,182.9 31,182.5 30.5,182.3 28.4,182.1 26.3,182.3 "/>
<line class="st0" x1="31.9" y1="187.3" x2="31.8" y2="183.9"/>
<polyline class="st0" points="26.3,182.3 25.8,182.5 25.4,182.9 25.1,183.4 25,183.9 24.9,187.3 "/>
<polyline class="st0" points="29.3,182.8 28.4,182.6 27.4,182.8 "/>
<line class="st0" x1="28.4" y1="187.7" x2="29.2" y2="187.5"/>
<polyline class="st0" points="30,186.7 30.3,185.5 30.4,184.2 "/>
<polyline class="st0" points="29.2,187.5 29.6,187.2 30,186.7 "/>
<polyline class="st0" points="30.4,184.2 30.2,183.6 29.8,183.1 29.3,182.8 "/>
<polyline class="st0" points="26.4,184.2 26.5,185.5 26.8,186.7 "/>
<polyline class="st0" points="27.5,182.8 27,183.1 26.6,183.6 26.4,184.2 "/>
<polyline class="st0" points="26.8,186.7 27.1,187.2 27.7,187.5 28.4,187.7 "/>
<line class="st0" x1="226.5" y1="116.9" x2="226.5" y2="114.3"/>
<polyline class="st0" points="226.5,111.9 226.5,109.3 221.8,109.3 "/>
<polyline class="st0" points="219.3,109.3 214.5,109.3 214.5,111.9 "/>
<polyline class="st0" points="214.5,114.3 214.5,116.9 219.3,116.9 "/>
<line class="st0" x1="221.8" y1="116.9" x2="226.5" y2="116.9"/>
<line class="st0" x1="265.9" y1="116.9" x2="265.9" y2="114.3"/>
<polyline class="st0" points="265.9,111.9 265.9,109.3 270.8,109.3 "/>
<polyline class="st0" points="273.2,109.3 277.9,109.3 277.9,111.9 "/>
<polyline class="st0" points="277.9,114.3 277.9,116.9 273.2,116.9 "/>
<line class="st0" x1="270.8" y1="116.9" x2="265.9" y2="116.9"/>
<polyline class="st0" points="214.5,116.9 277.9,116.9 277.9,109.3 "/>
<line class="st0" x1="218.1" y1="109.3" x2="218.1" y2="50.1"/>
<line class="st0" x1="214.5" y1="50.1" x2="214.5" y2="116.9"/>
<line class="st0" x1="235.1" y1="50.3" x2="235.1" y2="109.3"/>
<line class="st0" x1="214.5" y1="50.1" x2="218.1" y2="50.1"/>
<line class="st0" x1="214.5" y1="116.9" x2="218.1" y2="116.9"/>
<line class="st0" x1="220.5" y1="72.8" x2="220.5" y2="86.8"/>
<line class="st0" x1="231.1" y1="71" x2="222.4" y2="71"/>
<line class="st0" x1="232.8" y1="72.8" x2="232.8" y2="86.8"/>
<line class="st0" x1="222.5" y1="71.9" x2="231" y2="71.9"/>
<line class="st0" x1="231.9" y1="72.9" x2="231.9" y2="86.7"/>
<line class="st0" x1="221.6" y1="72.9" x2="221.6" y2="86.7"/>
<line class="st0" x1="222.4" y1="88.6" x2="231.1" y2="88.6"/>
<line class="st0" x1="231" y1="87.6" x2="222.5" y2="87.6"/>
<polyline class="st0" points="222.5,71.9 222,72.1 221.7,72.3 221.6,72.9 "/>
<polyline class="st0" points="231.9,72.9 231.8,72.3 231.4,72.1 231,71.9 "/>
<polyline class="st0" points="232.8,72.8 232.8,72.1 232.3,71.5 231.8,71.1 231.1,71 "/>
<polyline class="st0" points="222.4,71 221.7,71.1 221,71.5 220.7,72.1 220.5,72.8 "/>
<polygon class="st0" points="224.7,79.8 224.6,79.5 224.3,79.1 223.9,79 223.4,79.1 223.2,79.5 223.1,79.8 223.2,80.3 223.4,80.5 
	223.9,80.6 224.3,80.5 224.6,80.3 "/>
<polyline class="st0" points="231.4,73.3 231.3,72.8 231,72.5 230.5,72.3 "/>
<polyline class="st0" points="231.4,73.3 230.8,75.8 230.5,78.5 230.5,81.1 230.8,83.8 231.4,86.3 "/>
<polyline class="st0" points="231,87.6 231.4,87.5 231.8,87.2 231.9,86.7 "/>
<polyline class="st0" points="221.6,86.7 221.7,87.2 222,87.5 222.5,87.6 "/>
<polyline class="st0" points="220.5,86.8 220.7,87.5 221,88.1 221.7,88.5 222.4,88.6 "/>
<polyline class="st0" points="231.1,88.6 231.8,88.5 232.3,88.1 232.8,87.5 232.8,86.8 "/>
<polyline class="st0" points="230.5,87.3 231,87.1 231.3,86.8 231.4,86.3 "/>
<line class="st0" x1="220.5" y1="72.8" x2="220.5" y2="86.8"/>
<line class="st0" x1="231.1" y1="71" x2="222.4" y2="71"/>
<line class="st0" x1="232.8" y1="72.8" x2="232.8" y2="86.8"/>
<line class="st0" x1="222.5" y1="71.9" x2="231" y2="71.9"/>
<line class="st0" x1="231.9" y1="72.9" x2="231.9" y2="86.7"/>
<line class="st0" x1="221.6" y1="72.9" x2="221.6" y2="86.7"/>
<line class="st0" x1="222.4" y1="88.6" x2="231.1" y2="88.6"/>
<line class="st0" x1="231" y1="87.6" x2="222.5" y2="87.6"/>
<polyline class="st0" points="222.5,71.9 222,72.1 221.7,72.3 221.6,72.9 "/>
<polyline class="st0" points="231.9,72.9 231.8,72.3 231.4,72.1 231,71.9 "/>
<polyline class="st0" points="232.8,72.8 232.8,72.1 232.3,71.5 231.8,71.1 231.1,71 "/>
<polyline class="st0" points="222.4,71 221.7,71.1 221,71.5 220.7,72.1 220.5,72.8 "/>
<polygon class="st0" points="224.7,79.8 224.6,79.5 224.3,79.1 223.9,79 223.4,79.1 223.2,79.5 223.1,79.8 223.2,80.3 223.4,80.5 
	223.9,80.6 224.3,80.5 224.6,80.3 "/>
<polyline class="st0" points="231,87.6 231.4,87.5 231.8,87.2 231.9,86.7 "/>
<polyline class="st0" points="221.6,86.7 221.7,87.2 222,87.5 222.5,87.6 "/>
<polyline class="st0" points="220.5,86.8 220.7,87.5 221,88.1 221.7,88.5 222.4,88.6 "/>
<polyline class="st0" points="231.1,88.6 231.8,88.5 232.3,88.1 232.8,87.5 232.8,86.8 "/>
<line class="st0" x1="259.9" y1="97.9" x2="259.9" y2="101.4"/>
<line class="st0" x1="252.9" y1="97.9" x2="252.9" y2="101.4"/>
<line class="st0" x1="252.3" y1="97.9" x2="252.3" y2="102"/>
<line class="st0" x1="260.5" y1="97.9" x2="260.5" y2="102"/>
<line class="st0" x1="262" y1="97.9" x2="262" y2="109.3"/>
<line class="st0" x1="250.8" y1="97.9" x2="250.8" y2="109.3"/>
<line class="st0" x1="254.9" y1="100" x2="254.9" y2="101.9"/>
<line class="st0" x1="257.9" y1="101.9" x2="257.9" y2="100"/>
<polyline class="st0" points="255.1,99.7 254.9,99.9 254.9,100 "/>
<polyline class="st0" points="257.9,100 257.9,100 257.8,99.9 257.8,99.8 257.4,99.4 257.2,99.2 256.9,99.2 255.9,99.2 255.6,99.2 
	255.4,99.4 255.1,99.7 "/>
<path class="st0" d="M259.9,97.9l-0.1-0.6c-0.7-3.7-6.2-3.7-6.9,0l-0.1,0.6"/>
<path class="st0" d="M260.5,97.9l-0.1-0.7c-0.4-2.2-2.5-3.7-4.8-3.2c-1.6,0.3-2.9,1.6-3.2,3.2l-0.1,0.7"/>
<polyline class="st0" points="254.9,101.9 254.9,102.1 255,102.2 255,102.4 255.1,102.5 255.3,102.6 255.4,102.6 255.6,102.7 
	255.6,102.8 "/>
<polyline class="st0" points="257.2,102.8 257.3,102.7 257.4,102.6 257.5,102.6 257.7,102.5 257.8,102.4 257.8,102.2 257.9,102.1 
	257.9,101.9 "/>
<line class="st0" x1="255.6" y1="102.8" x2="257.2" y2="102.8"/>
<path class="st0" d="M252.9,101.4v0.4c0.1,0.7,0.6,1.2,1.2,1.3l0.4,0.1"/>
<polyline class="st0" points="252.3,102 252.3,102.4 252.4,102.6 253,103.4 253.2,103.6 253.5,103.7 253.9,103.8 "/>
<path class="st0" d="M258.3,103.2l0.4-0.1c0.9-0.3,0.9-0.5,1.2-1.3l0.1-0.4"/>
<polyline class="st0" points="259,103.8 259.2,103.7 259.6,103.6 260,103.2 260.2,102.9 260.4,102.4 260.5,102 "/>
<polyline class="st0" points="254.5,103.2 256.4,103.4 258.3,103.2 "/>
<polyline class="st0" points="253.9,103.8 256.4,104.1 259,103.8 "/>
<line class="st0" x1="262" y1="109.3" x2="250.8" y2="109.3"/>
<path class="st0" d="M262,97.9l-0.1-1c-1.2-5.9-9.8-6-11,0l-0.1,1"/>
<line class="st0" x1="274.3" y1="52.5" x2="274.3" y2="50.1"/>
<line class="st0" x1="218.1" y1="50.3" x2="218.1" y2="50.1"/>
<line class="st0" x1="214.5" y1="109.3" x2="277.9" y2="109.3"/>
<line class="st0" x1="225.6" y1="26.4" x2="141.9" y2="26.4"/>
<line class="st0" x1="225.6" y1="30.9" x2="141.9" y2="30.9"/>
<rect x="168.8" y="26.4" class="st0" width="1.4" height="4.5"/>
<line class="st0" x1="168.8" y1="27.9" x2="143.4" y2="27.9"/>
<line class="st0" x1="168.8" y1="29.4" x2="143.4" y2="29.4"/>
<line class="st0" x1="224.1" y1="27.9" x2="197.2" y2="27.9"/>
<line class="st0" x1="195.7" y1="27.9" x2="170.2" y2="27.9"/>
<line class="st0" x1="224.1" y1="29.4" x2="197.2" y2="29.4"/>
<line class="st0" x1="195.7" y1="29.4" x2="170.2" y2="29.4"/>
<rect x="195.7" y="26.4" class="st0" width="1.4" height="4.5"/>
<line class="st0" x1="274.3" y1="81.4" x2="277.9" y2="81.4"/>
<polyline class="st0" points="277.9,54.2 274.3,54.2 274.3,50.1 "/>
<polyline class="st0" points="274.3,109.3 277.9,109.3 277.9,81.4 "/>
<line class="st0" x1="277.9" y1="54.2" x2="277.9" y2="50.1"/>
<line class="st0" x1="277.9" y1="81.4" x2="281" y2="81.4"/>
<line class="st0" x1="276.4" y1="118.4" x2="279.4" y2="118.4"/>
<polyline class="st0" points="281,81.4 281,116.9 277.9,116.9 "/>
<line class="st0" x1="277.9" y1="82.8" x2="281" y2="82.8"/>
<line class="st0" x1="279.4" y1="160.2" x2="279.4" y2="142.3"/>
<line class="st0" x1="275" y1="160.2" x2="275" y2="142.3"/>
<line class="st0" x1="279.4" y1="118.4" x2="275" y2="118.4"/>
<line class="st0" x1="279.4" y1="142.3" x2="275" y2="142.3"/>
<polygon class="st0" points="275,118.4 275,119.3 275.9,119.3 275.9,120.2 277.9,120.2 277.9,118.4 "/>
<polygon class="st0" points="275,142.3 275,141.4 275.9,141.4 275.9,140.5 277.9,140.5 277.9,142.3 "/>
<polyline class="st0" points="252.8,141.4 275,141.4 275,140.5 252.8,140.5 "/>
<path class="st0" d="M275,119.3l-2.7,0.2c-10.1,1.2-18.1,9.2-19.3,19.3l-0.2,2.6"/>
<polyline class="st0" points="37.6,146.6 9.5,146.6 9.5,145.5 37.5,145.5 "/>
<path class="st0" d="M9.5,118.6l3.4,0.2c12.8,1.5,22.9,11.6,24.5,24.5l0.2,3.3"/>
<line class="st0" x1="276.4" y1="118.4" x2="276.4" y2="116.9"/>
<line class="st0" x1="279.4" y1="118.4" x2="279.4" y2="116.9"/>
<line class="st0" x1="328.8" y1="24.9" x2="328.8" y2="173.7"/>
<line class="st0" x1="279.4" y1="158.7" x2="279.4" y2="173.7"/>
<line class="st0" x1="9.5" y1="200.9" x2="9.5" y2="210.6"/>
<line class="st0" x1="245.3" y1="211" x2="245.3" y2="185.6"/>
<line class="st0" x1="237.8" y1="211" x2="237.8" y2="185.6"/>
<line class="st0" x1="230.2" y1="211" x2="230.2" y2="185.6"/>
<line class="st0" x1="222.7" y1="211" x2="222.7" y2="185.6"/>
<line class="st0" x1="215.2" y1="211" x2="215.2" y2="185.6"/>
<line class="st0" x1="207.7" y1="211" x2="207.7" y2="185.6"/>
<line class="st0" x1="252.7" y1="211" x2="252.7" y2="185.6"/>
<line class="st0" x1="260.2" y1="211" x2="260.2" y2="185.6"/>
<line class="st0" x1="267.6" y1="211" x2="267.6" y2="185.6"/>
<line class="st0" x1="275.1" y1="211" x2="275.1" y2="185.6"/>
<rect x="134.4" y="184.1" class="st0" width="140.8" height="1.5"/>
<rect x="6.4" y="116.1" class="st0" width="6.1" height="2.5"/>
<rect x="6.4" y="146.6" class="st0" width="6.1" height="2.4"/>
<line class="st0" x1="277.9" y1="54.2" x2="277.9" y2="81.4"/>
<polygon class="st0" points="132.9,26.4 132.9,16 123.9,16 123.9,26.4 123.9,28.7 123.9,35.4 141.9,35.4 141.9,26.4 "/>
<g>
	<path class="st1" d="M351.1,135.9c0,0,0.7,0.6,1.1,1c0,0.1-0.1,0.2-0.3,0.2h-2v0.8c2.9,1,2,2.9,1.1,2.1c-0.2-0.7-0.6-1.3-1.1-1.8
		v5.5c-0.2,0.3-0.6,0.4-0.9,0.3h-0.2v-4.8c-0.6,1.1-1.4,2-2.3,2.8l-0.1-0.1c1-1.4,1.7-3.1,2.1-4.8h-1.9l-0.1-0.3h2.3v-2.2
		c-0.8,0.1-1.5,0.2-2.3,0.3v-0.2c1.5-0.4,3-1,4.4-1.8l1.2,1.1c-0.1,0.1-0.4,0.1-0.7,0c-0.4,0.1-0.9,0.2-1.5,0.3v2.4h0.6L351.1,135.9
		z M357.3,135.1c-0.1,0.1-0.3,0.2-0.5,0.3v7.4c-0.3,0.2-0.6,0.3-1,0.3h-0.2v-1.2h-2.1v1c0,0.1-0.4,0.4-0.9,0.4h-0.2v-9l1.2,0.5h2
		l0.6-0.6L357.3,135.1z M355.6,141.5v-6.3h-2.1v6.3H355.6z"/>
	<path class="st1" d="M368.1,142.3c0,0,0.8,0.6,1.3,1c0,0.1-0.2,0.2-0.3,0.2h-10.5l-0.1-0.3h4.8v-1.8h-3.5l-0.1-0.3h3.6v-1.7
		l1.6,0.1c0,0.2-0.1,0.3-0.4,0.3v1.2h1.8l0.7-0.8c0,0,0.8,0.6,1.3,1c0,0.1-0.2,0.2-0.3,0.2h-3.4v1.8h2.9L368.1,142.3z M360.2,134.8
		c0.1,0.6-0.2,1.2-0.6,1.6c-0.2,0.2-0.6,0.2-0.8,0c-0.2-0.2-0.2-0.6,0-0.8c0.1-0.1,0.2-0.1,0.3-0.2c0.5-0.3,0.9-0.9,0.8-1.6h0.2
		c0.1,0.2,0.1,0.4,0.2,0.6h3.9c-0.1,0-0.2-0.1-0.3-0.1c-0.1-0.6-0.4-1.1-0.9-1.4l0.1-0.1c2.3,0,2.1,1.5,1.3,1.6h3.5l0.6-0.6l1.1,1.1
		c-0.1,0.1-0.3,0.2-0.5,0.1c-0.3,0.4-0.8,0.9-1.2,1.2l-0.1-0.1c0.1-0.4,0.1-0.9,0.2-1.3L360.2,134.8z M359.9,138.7
		c0.1,0,0.3,0,0.4-0.1c1-0.5,1.9-1.2,2.7-2.1h-2.7l-0.1-0.3h5.9l0.6-0.8c0,0,0.7,0.5,1.2,0.9c0,0.1-0.2,0.2-0.3,0.2h-3.9l0.9,0.5
		c-0.1,0.1-0.3,0.2-0.5,0.1c-0.9,0.6-1.9,1.2-3,1.6c1.3,0,3.4,0,5.5-0.1c-0.4-0.4-0.8-0.8-1.2-1.2l0.1-0.1c3.6,0.8,3,3.1,1.8,2.5
		c-0.2-0.4-0.4-0.7-0.6-1c-1.5,0.2-3.6,0.6-6,0.8c-0.1,0.1-0.2,0.3-0.3,0.3L359.9,138.7z"/>
	<path class="st1" d="M373,137c1.1,0.6,1.3,1.4,1.2,1.8c2.4,0.4,1.6,2.3,0.8,1.6c-0.2-0.5-0.5-1-0.9-1.5c-0.2,0.2-0.4,0.3-0.7,0
		c-0.1-0.5-0.2-1-0.5-1.5v6.2c0,0.1-0.4,0.4-0.8,0.4H372v-4.9c-0.4,0.8-0.9,1.6-1.5,2.2l-0.2-0.1c0.8-1.6,1.4-3.3,1.6-5h-1.4
		l-0.1-0.3h1.6v-2.9l1.5,0.2c0,0.2-0.1,0.3-0.4,0.3v2.4h0.2l0.6-0.8c0,0,0.6,0.5,1,0.9c0,0.1-0.1,0.2-0.3,0.2H373L373,137z
		 M377.8,138.4c-0.1,0.1-0.3,0.2-0.5,0.2v4.2c0,0.7-0.2,1.2-1.4,1.3c0-0.3-0.1-0.5-0.3-0.7c-0.3-0.2-0.6-0.3-0.9-0.3v-0.2
		c0,0,1.1,0.1,1.3,0.1s0.3-0.1,0.3-0.2v-1.7c-0.4,0.4-1,0.8-1.7,1.4c0,0.1-0.1,0.3-0.2,0.3l-0.7-1c0.5-0.2,1.5-0.6,2.6-1v-2.1h-2
		l-0.1-0.3h1.9l0.5-0.5L377.8,138.4z M376,137.1c0,0.1-0.5,0.3-0.9,0.3H375v-4.2l1.1,0.5h3.4l0.5-0.6l1.1,0.8
		c-0.1,0.1-0.3,0.2-0.4,0.2v2.8c-0.2,0.2-0.6,0.3-0.9,0.3h-0.2V134H376V137.1z M376.4,136.4h1.7l0.5-0.6c0,0,0.5,0.4,0.8,0.8
		c0,0.1-0.1,0.2-0.3,0.2h-2.5L376.4,136.4z M378.4,134.4c0,0,0.5,0.4,0.8,0.8c0,0.1-0.1,0.2-0.3,0.2h-2.4l-0.1-0.3h1.5L378.4,134.4z
		 M381.6,138.4c-0.1,0.1-0.3,0.2-0.5,0.2v4.2c0,0.7-0.2,1.2-1.4,1.3c0-0.3-0.1-0.5-0.2-0.7c-0.3-0.2-0.6-0.3-0.9-0.3v-0.2
		c0,0,1.1,0.1,1.3,0.1c0.3,0,0.3-0.1,0.3-0.2v-1.8c-0.4,0.4-0.9,0.8-1.6,1.4c0,0.1-0.1,0.3-0.2,0.3l-0.7-1c0.5-0.2,1.5-0.6,2.6-1
		v-2.1H378l-0.1-0.3h2.1l0.5-0.5L381.6,138.4z M378,138.8c2.5,0.3,1.8,2.2,0.9,1.6c-0.2-0.6-0.5-1.1-1-1.4L378,138.8z"/>
	<path class="st1" d="M385,137c1.1,0.6,1.3,1.4,1.2,1.8c2.4,0.4,1.6,2.3,0.8,1.6c-0.2-0.5-0.5-1-0.9-1.5c-0.2,0.2-0.4,0.3-0.7,0
		c-0.1-0.5-0.2-1-0.5-1.5v6.2c0,0.1-0.4,0.4-0.8,0.4H384v-4.9c-0.4,0.8-0.9,1.6-1.5,2.2l-0.2-0.1c0.8-1.6,1.4-3.3,1.6-5h-1.4
		l-0.1-0.3h1.6v-2.9l1.5,0.2c0,0.2-0.1,0.3-0.4,0.3v2.4h0.2l0.6-0.8c0,0,0.6,0.5,1,0.9c0,0.1-0.1,0.2-0.3,0.2H385L385,137z
		 M389.8,138.4c-0.1,0.1-0.3,0.2-0.5,0.2v4.2c0,0.7-0.2,1.2-1.4,1.3c0-0.3-0.1-0.5-0.3-0.7c-0.3-0.2-0.6-0.3-0.9-0.3v-0.2
		c0,0,1.1,0.1,1.3,0.1s0.3-0.1,0.3-0.2v-1.7c-0.4,0.4-1,0.8-1.7,1.4c0,0.1-0.1,0.3-0.2,0.3l-0.7-1c0.5-0.2,1.5-0.6,2.6-1v-2.1h-2
		l-0.1-0.3h1.9l0.5-0.5L389.8,138.4z M388,137.1c0,0.1-0.5,0.3-0.9,0.3H387v-4.2l1.1,0.5h3.4l0.5-0.6l1.1,0.8
		c-0.1,0.1-0.3,0.2-0.4,0.2v2.8c-0.2,0.2-0.6,0.3-0.9,0.3h-0.2V134H388V137.1z M388.4,136.4h1.7l0.5-0.6c0,0,0.5,0.4,0.8,0.8
		c0,0.1-0.1,0.2-0.3,0.2h-2.5L388.4,136.4z M390.4,134.4c0,0,0.5,0.4,0.8,0.8c0,0.1-0.1,0.2-0.3,0.2h-2.4l-0.1-0.3h1.5L390.4,134.4z
		 M393.6,138.4c-0.1,0.1-0.3,0.2-0.5,0.2v4.2c0,0.7-0.2,1.2-1.4,1.3c0-0.3-0.1-0.5-0.2-0.7c-0.3-0.2-0.6-0.3-0.9-0.3v-0.2
		c0,0,1.1,0.1,1.3,0.1c0.3,0,0.3-0.1,0.3-0.2v-1.8c-0.4,0.4-0.9,0.8-1.6,1.4c0,0.1-0.1,0.3-0.2,0.3l-0.7-1c0.5-0.2,1.5-0.6,2.6-1
		v-2.1H390l-0.1-0.3h2.1l0.5-0.5L393.6,138.4z M390,138.8c2.5,0.3,1.8,2.2,0.9,1.6c-0.2-0.6-0.5-1.1-1-1.4L390,138.8z"/>
	<path class="st1" d="M394.9,142.9c1.1-1.3,2-2.7,2.6-4.4l1.6,0.6c0,0.1-0.2,0.2-0.5,0.2c-0.8,1.5-2,2.8-3.5,3.7L394.9,142.9z
		 M403.5,136.6c0,0,0.8,0.6,1.3,1.1c0,0.1-0.2,0.2-0.3,0.2h-4v5.8c0,0.1-0.5,0.4-1,0.4h-0.3v-6.1h-4.2l-0.1-0.3h4.3v-4.6l1.7,0.2
		c0,0.2-0.1,0.3-0.4,0.3v4.1h2.2L403.5,136.6z M395.9,133.6c3.6,1.5,2.7,4,1.5,3.1c-0.3-1.1-0.9-2.1-1.7-3L395.9,133.6z
		 M401.3,138.8c4.2,2.1,3.4,4.9,2.1,3.9c-0.5-1.4-1.3-2.7-2.3-3.8L401.3,138.8z M404.4,134.2c-0.1,0.2-0.3,0.2-0.5,0.2
		c-0.7,1-1.5,1.8-2.5,2.5l-0.1-0.1c0.6-1,1.1-2.1,1.5-3.3L404.4,134.2z"/>
</g>
<g>
	<path class="st1" d="M250.3,59.9c2.8,0.4,2,2.4,1,1.7c-0.2-0.6-0.6-1.2-1.1-1.6L250.3,59.9z M253.7,59.3c-0.5,1.5-1.4,4.3-1.5,5
		c-0.1,0.4-0.2,0.7-0.2,1.1c0.2,0.7,0.3,1.4,0.4,2.1c0,0.6-0.3,0.9-0.8,0.9c-0.3,0-0.5-0.2-0.5-0.6c0.2-1.2,0.1-2.3-0.1-2.5
		c-0.2-0.1-0.4-0.2-0.6-0.2v-0.3h0.5c0.2,0,0.2,0,0.3-0.2c0.2-0.4,0.2-0.4,2.4-5.4L253.7,59.3z M251.1,57.3c2.9,0.5,2.1,2.5,1,1.8
		c-0.2-0.7-0.6-1.3-1.1-1.8L251.1,57.3z M258.2,59.9c0,0.1-0.2,0.2-0.5,0.2c1,1.4,2.4,2.4,4,3v0.2c-0.5,0.1-0.8,0.5-0.9,1l-0.4-0.2
		c-0.1,0.1-0.3,0.2-0.5,0.2V68c-0.3,0.2-0.6,0.3-0.9,0.3h-0.2v-0.9h-3.3v0.7c0,0.1-0.3,0.3-0.9,0.3h-0.2v-4.8
		c-0.5,0.4-1.1,0.7-1.6,1l-0.1-0.1c1.7-1.3,3-3,3.7-4.9L258.2,59.9z M253.5,60.7c0.8-1,1.5-2.2,2-3.4l1.5,0.7
		c-0.1,0.1-0.2,0.2-0.5,0.2c-0.8,1.1-1.7,2-2.8,2.7L253.5,60.7z M259.7,63.5c-1-0.9-1.8-2-2.2-3.2c-0.7,1.2-1.7,2.3-2.8,3.2l1,0.4
		h3.1l0.5-0.6L259.7,63.5z M258.8,67.1v-2.9h-3.3V67L258.8,67.1z M257.9,57.5c4,1,3.4,3.6,2.1,2.9c-0.6-1.1-1.3-2-2.3-2.8
		L257.9,57.5z"/>
	<path class="st1" d="M260,81c0,0,0.8,0.6,1.3,1c0,0.1-0.2,0.2-0.3,0.2h-10.5l-0.1-0.3h4.8v-1.8h-3.5l-0.1-0.3h3.6v-1.7l1.6,0.1
		c0,0.2-0.1,0.3-0.4,0.3v1.2h1.8l0.7-0.8c0,0,0.8,0.6,1.2,1c0,0.1-0.2,0.2-0.3,0.2h-3.4v1.8h2.9L260,81z M252.1,73.6
		c0.1,0.6-0.2,1.2-0.6,1.6c-0.2,0.2-0.6,0.2-0.8,0s-0.2-0.6,0-0.8c0.1-0.1,0.2-0.1,0.3-0.2c0.5-0.3,0.9-0.9,0.8-1.6h0.2
		c0.1,0.2,0.1,0.4,0.2,0.6h3.9c-0.1,0-0.2-0.1-0.3-0.1c-0.1-0.6-0.4-1-0.9-1.4l0.1-0.1c2.3,0,2.1,1.5,1.3,1.6h3.5l0.6-0.6l1.1,1.1
		c-0.1,0.1-0.3,0.2-0.5,0.1c-0.3,0.4-0.8,0.9-1.2,1.2l-0.1-0.1c0.1-0.4,0.1-0.9,0.2-1.3L252.1,73.6z M251.7,77.5
		c0.1,0,0.3,0,0.4-0.1c1-0.5,2-1.2,2.7-2.1h-2.7l-0.1-0.3h5.9l0.6-0.8c0,0,0.7,0.5,1.2,0.9c0,0.1-0.2,0.2-0.3,0.2h-3.9l0.9,0.5
		c0,0.1-0.2,0.2-0.5,0.1c-0.9,0.6-2,1.2-3,1.6c1.3,0,3.4,0,5.5-0.1c-0.4-0.4-0.8-0.8-1.2-1.2l0.1-0.1c3.6,0.8,3,3.1,1.8,2.5
		c-0.2-0.4-0.4-0.7-0.6-1c-1.5,0.2-3.6,0.6-6,0.8c-0.1,0.1-0.2,0.3-0.3,0.3L251.7,77.5z"/>
</g>
<g>
	<path class="st1" d="M16,199.2c2.8,0.3,1.9,2.3,0.9,1.6c-0.2-0.6-0.5-1.2-1-1.6L16,199.2z M19.5,198.6c-0.5,1.5-1.4,4.2-1.5,4.8
		c-0.1,0.3-0.2,0.7-0.2,1.1c0,0.6,0.4,1,0.4,2c0,0.6-0.3,0.9-0.8,0.9c-0.2,0-0.5-0.2-0.5-0.6c0.2-1.2,0.1-2.2-0.1-2.3
		c-0.2-0.1-0.4-0.2-0.6-0.2V204h0.5c0.2,0,0.2,0,0.3-0.2c0.2-0.4,0.2-0.4,2.3-5.2L19.5,198.6z M16.8,196.8c2.9,0.2,2.2,2.3,1.2,1.7
		C17.7,197.9,17.3,197.3,16.8,196.8L16.8,196.8z M26.5,205.9c0.3,0.1,0.3,0.3,0.3,0.5c0,0.4-0.4,0.7-1.9,0.7h-0.9
		c-0.9,0-1.1-0.2-1.1-1v-4.2h-1c-0.2,2.6-1,4.3-3.6,5.4l-0.1-0.1c2-1.3,2.5-3,2.5-5.2h-1.9l-0.1-0.3h3.4v-2.3h-1.5
		c-0.3,0.7-0.8,1.4-1.3,1.9l-0.2-0.1c0.6-1.3,0.9-2.8,1-4.2l1.5,0.3c0,0.1-0.2,0.3-0.4,0.3c-0.1,0.5-0.3,1-0.5,1.5h1.3v-2.3l1.5,0.1
		c0,0.2-0.1,0.3-0.4,0.3v1.9h1.3l0.6-0.8c0,0,0.7,0.6,1.2,1c0,0.1-0.1,0.2-0.3,0.2h-2.8v2.3h1.6l0.7-0.9c0,0,0.7,0.6,1.2,1
		c0,0.1-0.1,0.2-0.3,0.2h-2.3v3.9c0,0.2,0,0.2,0.3,0.2h1.3c0.1,0,0.2-0.1,0.2-0.2c0.2-0.5,0.3-1.1,0.4-1.7h0.2V205.9z"/>
	<path class="st1" d="M37.9,202c0,0,0.8,0.6,1.4,1c0,0.1-0.2,0.2-0.3,0.2h-4.7v2.7c0,0.9-0.3,1.5-1.9,1.6c0-0.3-0.2-0.6-0.4-0.9
		c-0.4-0.3-0.9-0.4-1.4-0.4V206c0,0,1.8,0.1,2.2,0.1s0.3-0.1,0.3-0.3v-2.6h-5l-0.1-0.3H33v-2.3h-4.3l-0.1-0.3H33v-2.1
		c-1.4,0.1-2.9,0.2-4.4,0.2v-0.2c2.8-0.3,5.5-0.9,8.1-1.8l1.2,1.2c-0.1,0.1-0.4,0.1-0.8,0c-1,0.2-2,0.4-3,0.5v2.2h2.4l0.7-0.9
		c0,0,0.8,0.6,1.3,1.1c0,0.1-0.2,0.2-0.3,0.2h-4.1v2.3h2.9L37.9,202z"/>
	<path class="st1" d="M41.8,200.6v6.5c0,0.2-0.4,0.4-0.9,0.4h-0.2v-10.8l1.2,0.5h1.9l0.5-0.6l1.1,0.8c-0.1,0.1-0.3,0.2-0.5,0.2v3.2
		c-0.3,0.2-0.6,0.3-0.9,0.3h-0.2v-0.6L41.8,200.6z M41.8,197.6v1.2h2.1v-1.2H41.8z M43.9,200.3v-1.2h-2.1v1.2H43.9z M47.8,206
		c-0.3,0.2-0.6,0.3-0.9,0.3h-0.2v-0.7h-2.4v0.5c0,0.1-0.4,0.3-0.9,0.3h-0.2v-5l1.1,0.5h2.3l0.5-0.6l1.1,0.8
		c-0.1,0.1-0.3,0.2-0.4,0.2V206z M44.3,202.3v1.3h2.4v-1.3H44.3z M46.7,205.3V204h-2.4v1.4H46.7z M50.9,197.6
		c-0.1,0.1-0.3,0.2-0.5,0.3v8.3c0,0.8-0.2,1.3-1.5,1.4c0-0.3-0.1-0.6-0.2-0.8c-0.3-0.2-0.6-0.4-1-0.4v-0.2c0,0,1.1,0.1,1.3,0.1
		c0.2,0,0.3-0.1,0.3-0.3v-5.4h-2.2v0.2c0,0.1-0.5,0.4-0.9,0.4H46v-4.4l1.2,0.5h2l0.5-0.6L50.9,197.6z M47.1,197.6v1.2h2.2v-1.2H47.1
		z M49.3,200.3v-1.2h-2.2v1.2H49.3z"/>
</g>
<g>
	<path class="st1" d="M87.6,128l0.9-1.2c0,0,1,0.8,1.6,1.4c0,0.1-0.2,0.2-0.4,0.2H79.1L79,128L87.6,128z"/>
	<path class="st1" d="M101.3,130.2c0,0,0.6,0.5,1,0.8c0,0.1-0.1,0.2-0.3,0.2h-1.6c-0.2,0.5-0.4,0.9-0.8,1.2c3.3,0.8,2,2,0.9,1.5
		c-0.6-0.4-1.3-0.7-2-0.9c-1.3,0.5-2.7,0.8-4.2,1l-0.1-0.2c1.2-0.2,2.3-0.6,3.3-1.1c-0.8-0.2-1.5-0.4-2.3-0.6l0,0
		c0.2-0.2,0.4-0.6,0.6-1h-1.5l-0.1-0.3h1.8c0.2-0.4,0.4-0.8,0.5-1H96v0.3c0,0.1-0.5,0.3-0.9,0.3H95v-2.7l1.1,0.4h1.5v-0.9h-1.3v0.2
		c0,0.1-0.4,0.3-0.9,0.3h-0.1V126h-0.5c0,0.1-0.1,0.2-0.3,0.2h-1.1v0.9c2,1.1,1.2,2.6,0.5,1.9c-0.1-0.5-0.2-1.1-0.5-1.5v6.3
		c0,0.1-0.4,0.4-0.8,0.4h-0.2v-5c-0.4,0.8-0.8,1.6-1.4,2.2l-0.2-0.1c0.8-1.5,1.2-3.2,1.4-4.9H91l-0.1-0.3h1.4v-3l1.4,0.2
		c0,0.2-0.1,0.3-0.4,0.3v2.4l0,0l0.5-0.7c0,0,0.5,0.4,0.8,0.7v-0.2h0.7V124l1.1,0.4h1.2V123l1.5,0.1c0,0.2-0.1,0.3-0.4,0.3v1h1.2
		l0.5-0.5l1,0.7c-0.1,0.1-0.2,0.2-0.4,0.2v0.7l0.4-0.6c0,0,0.5,0.4,0.8,0.8c0,0.1-0.2,0.2-0.3,0.2H101v1.2c-0.2,0.2-0.5,0.3-0.8,0.3
		H100v-0.4h-1.2v0.9h1.6l0.5-0.5l1,0.8c-0.1,0.1-0.2,0.2-0.4,0.2v1.2c-0.2,0.2-0.5,0.3-0.9,0.3h-0.2v-0.4h-3.2l1,0.2
		c0,0.1-0.1,0.3-0.5,0.3l-0.3,0.6h1.9c0-0.2,0.1-0.5,0.1-0.7l1.5,0.1c0,0.1-0.2,0.3-0.4,0.3c0,0.1,0,0.2,0,0.3h0.2L101.3,130.2z
		 M96,129.5h1.6v-1H96V129.5z M96.3,125.7h1.3v-0.9h-1.3V125.7z M97.6,126.9V126h-1.3v0.9H97.6z M97.1,131.2
		c-0.2,0.3-0.4,0.6-0.5,0.8c0.7,0.1,1.3,0.1,1.8,0.2c0.3-0.3,0.6-0.6,0.7-1H97.1z M98.7,124.9v0.9h1.2v-0.9H98.7z M99.9,126.1h-1.2
		v0.9h1.2V126.1z M98.7,128.5v1h1.7v-1H98.7z"/>
	<path class="st1" d="M109,126.9c0.5,2.8,2.5,5.1,5.2,6v0.1c-0.6,0-1,0.5-1.1,1.1c-2.5-1.5-4.1-4.2-4.3-7.1
		c-0.3,2.8-1.5,5.3-5.7,7.1l-0.1-0.2c2.7-1.3,4.5-4,4.7-7h-4.5l-0.1-0.3h4.6c0.1-1.1,0.1-2.3,0.1-3.6l1.7,0.2c0,0.2-0.1,0.3-0.4,0.3
		c0,1,0,2.1-0.1,3h3l0.8-1c0,0,0.9,0.7,1.4,1.1c0,0.1-0.2,0.2-0.3,0.2L109,126.9z"/>
	<path class="st1" d="M120.1,125.7v8.1c-0.2,0.2-0.5,0.3-0.8,0.3h-0.2v-4.7h-2.4l-0.1-0.3h0.6v-3.3h-0.5l-0.1-0.3h2.9l0.5-0.6h-3.5
		v2.9c0,2,0,4.7-1.7,6.6l-0.2-0.1c0.7-2.1,1-4.3,0.8-6.4v-3.7l1.2,0.5h4h-0.1c-0.2-0.5-0.5-0.9-0.9-1.3l0.1-0.1c2,0,2,1.2,1.5,1.4
		h2.8l0.6-0.9c0,0,0.8,0.6,1.2,1c0,0.1-0.1,0.2-0.3,0.2h-5.5c0.1,0.1,0.6,0.5,0.9,0.8c0,0.1-0.1,0.2-0.3,0.2L120.1,125.7z
		 M116.6,130.3c0.7-0.2,1.3-0.5,1.9-0.9l0.7,0.8c-0.1,0.1-0.2,0.1-0.3,0l-0.7,0.1v0.9l0.3-0.4c0.2,0.2,0.4,0.4,0.6,0.6
		c0,0.1-0.1,0.2-0.3,0.2h-0.7v0.9l0.9-0.1v0.2c-0.5,0.2-1.2,0.6-2.1,1c0,0.1-0.2,0.2-0.3,0.3l-0.4-1.1c0.3,0,0.7-0.1,1.2-0.1v-1
		h-0.7l-0.1-0.3h0.8v-0.8c-0.3,0-0.5,0-0.8,0L116.6,130.3z M119.2,125.6h-1v0.8h1V125.6z M119.2,126.8h-1v0.9h1V126.8z M119.2,129
		v-0.9h-1v0.9H119.2z M121.1,131c0.4,1,0.2,1.7-0.1,2c-0.2,0.2-0.5,0.2-0.7,0c0,0,0,0-0.1-0.1c-0.1-0.3,0-0.6,0.3-0.7
		c0.3-0.3,0.5-0.8,0.4-1.3L121.1,131z M125.5,129.2c0,0-0.2,0.1-0.4,0.2c0.2,0.1,0.6,0.5,0.9,0.7c0,0.1-0.1,0.2-0.3,0.2h-5.4
		l-0.1-0.3h4.2l0.4-0.5h-0.3v-0.2h-3v0.1c0,0.1-0.4,0.3-0.7,0.3h-0.1v-2.9l0.9,0.4h0.9v-0.8h-1.9l-0.1-0.3h2v-1l1.4,0.1
		c0,0.2-0.1,0.3-0.4,0.3v0.6h0.9l0.6-0.7c0,0,0.6,0.5,1,0.9c0,0.1-0.2,0.2-0.3,0.2h-2.1v0.8h1l0.5-0.4l0.9,0.7
		c-0.1,0.1-0.2,0.2-0.4,0.2L125.5,129.2z M124.7,132.9c0.3,0.1,0.3,0.2,0.3,0.3c0,0.4-0.3,0.5-1.7,0.5h-0.9c-0.8,0-0.9-0.2-0.9-0.8
		v-2.4l1.2,0.1c0,0.2-0.2,0.3-0.3,0.3v1.8c0,0.1,0,0.2,0.3,0.2h1.3c0.1,0,0.1,0,0.2-0.1c0.1-0.3,0.2-0.6,0.3-0.9h0.2L124.7,132.9z
		 M121.6,128.8h0.6v-1.5h-0.6V128.8z M122.8,127.3v1.5h0.6v-1.5H122.8z M123,130.3c2,0.9,1.1,2.4,0.4,1.7c0-0.6-0.2-1.2-0.5-1.6
		L123,130.3z M124.6,128.8v-1.5H124v1.5H124.6z M124.6,130.7c2.2,1.1,1.3,2.7,0.5,2c-0.1-0.7-0.3-1.3-0.7-1.9L124.6,130.7z"/>
</g>
<rect x="345.8" y="66.7" class="st0" width="63" height="60.6"/>
<line class="st0" x1="398.2" y1="66.7" x2="398.2" y2="127.3"/>
<line class="st0" x1="389.4" y1="66.7" x2="389.4" y2="127.3"/>
<path class="st0" d="M407,70.5v22.6c0,0.5-0.4,0.9-0.9,0.9h-6.9c-0.5,0-0.9-0.4-0.9-0.9V70.5c0-0.5,0.4-0.9,0.9-0.9h6.9
	C406.6,69.6,407,70,407,70.5z"/>
<path class="st0" d="M407,100.8v22.6c0,0.5-0.4,0.9-0.9,0.9h-7c-0.5,0-0.9-0.4-0.9-0.9v-22.6c0-0.5,0.4-0.9,0.9-0.9h7
	C406.6,99.9,407,100.3,407,100.8z"/>
<rect x="14" y="69.9" class="st2" width="52.4" height="21.5"/>
<rect x="92.1" y="53.1" class="st2" width="21.5" height="52.4"/>
<rect x="75.4" y="58.9" class="st2" width="2" height="14.2"/>
<rect x="77.4" y="58.9" class="st3" width="12.9" height="14.2"/>
<rect x="75.4" y="85.6" class="st2" width="2" height="14.2"/>
<rect x="77.4" y="85.6" class="st3" width="12.9" height="14.2"/>
<rect x="128.3" y="85.6" class="st2" width="2" height="14.2"/>
<rect x="115.5" y="85.6" class="st3" width="12.9" height="14.2"/>
<rect x="128.3" y="58.9" class="st2" width="2" height="14.2"/>
<rect x="115.5" y="58.9" class="st3" width="12.9" height="14.2"/>
<path class="st3" d="M169.1,46v3.6c0,0.3-0.2,0.6-0.6,0.6h-23.1c-0.3,0-0.6-0.2-0.6-0.6V46c0-0.3,0.2-0.6,0.6-0.6h23.1
	C168.9,45.4,169.1,45.7,169.1,46z"/>
<path class="st3" d="M169.1,105.1v3.6c0,0.3-0.2,0.6-0.6,0.6h-23.1c-0.3,0-0.6-0.2-0.6-0.6v-3.6c0-0.3,0.2-0.6,0.6-0.6h23.1
	C168.9,104.5,169.1,104.8,169.1,105.1z"/>
<path class="st3" d="M149.1,104.5h-3.6c-0.3,0-0.6-0.2-0.6-0.5V50.7c0-0.3,0.2-0.6,0.6-0.6h3.6c0.3,0,0.6,0.2,0.6,0.6V104
	C149.6,104.3,149.4,104.5,149.1,104.5z"/>
<path class="st3" d="M169.1,51.1v16.2c0,0.5-0.4,0.9-0.9,0.9h-17.6c-0.5,0-0.9-0.4-0.9-0.9V51.1c0-0.5,0.4-0.9,0.9-0.9h17.6
	C168.7,50.2,169.1,50.6,169.1,51.1z"/>
<path class="st3" d="M169.1,69.2v16.2c0,0.5-0.4,0.9-0.9,0.9h-17.6c-0.5,0-0.9-0.4-0.9-0.9V69.2c0-0.5,0.4-0.9,0.9-0.9h17.6
	C168.7,68.3,169.1,68.7,169.1,69.2z"/>
<path class="st3" d="M169.1,87.3v16.2c0,0.5-0.4,0.9-0.9,0.9h-17.6c-0.5,0-0.9-0.4-0.9-0.9V87.3c0-0.5,0.4-0.9,0.9-0.9h17.6
	C168.7,86.4,169.1,86.8,169.1,87.3z"/>
<path class="st3" d="M177.6,113.1h3.6c0.3,0,0.6,0.2,0.6,0.6v23.1c0,0.3-0.2,0.6-0.6,0.6h-3.6c-0.3,0-0.6-0.2-0.6-0.6v-23.1
	C177.1,113.4,177.3,113.1,177.6,113.1z"/>
<path class="st3" d="M200.4,113.1h3.6c0.3,0,0.6,0.2,0.6,0.6v23.1c0,0.3-0.2,0.6-0.6,0.6h-3.6c-0.3,0-0.6-0.2-0.6-0.6v-23.1
	C199.9,113.4,200.1,113.1,200.4,113.1z"/>
<path class="st3" d="M199.9,133.2v3.6c0,0.3-0.2,0.6-0.6,0.6h-17c-0.3,0-0.6-0.2-0.6-0.6v-3.6c0-0.3,0.2-0.6,0.6-0.6h17
	C199.6,132.6,199.9,132.9,199.9,133.2z"/>
<path class="st3" d="M182.7,113.1h16.2c0.5,0,0.9,0.4,0.9,0.9v17.6c0,0.5-0.4,0.9-0.9,0.9h-16.2c-0.5,0-0.9-0.4-0.9-0.9v-17.6
	C181.8,113.6,182.2,113.1,182.7,113.1z"/>
<ellipse class="st3" cx="190.8" cy="79.3" rx="12.2" ry="22.2"/>
</svg>
