<?xml version="1.0" encoding="utf-8"?>
<!-- Generator: Adobe Illustrator 23.0.3, SVG Export Plug-In . SVG Version: 6.00 Build 0)  -->
<svg version="1.1" id="圖層_1" xmlns="http://www.w3.org/2000/svg" xmlns:xlink="http://www.w3.org/1999/xlink" x="0px" y="0px"
	 viewBox="0 0 429.8 220.4" style="enable-background:new 0 0 429.8 220.4;" xml:space="preserve">
<style type="text/css">
	.st0{fill:none;stroke:#898989;stroke-width:0.55;stroke-linecap:round;stroke-linejoin:round;}
	.st1{fill:#898989;}
	.st2{fill:none;stroke:#898989;stroke-width:0.49;stroke-linecap:round;stroke-linejoin:round;}
	.st3{fill:none;stroke:#898989;stroke-width:0.5;stroke-linecap:round;stroke-linejoin:round;}
	.st4{enable-background:new    ;}
</style>
<title>room</title>
<line class="st0" x1="353" y1="176.8" x2="339" y2="176.8"/>
<line class="st0" x1="354.8" y1="166.2" x2="354.8" y2="174.9"/>
<line class="st0" x1="353" y1="164.5" x2="339" y2="164.5"/>
<line class="st0" x1="353.9" y1="174.8" x2="353.9" y2="166.3"/>
<line class="st0" x1="352.9" y1="165.4" x2="339.1" y2="165.4"/>
<line class="st0" x1="352.9" y1="175.7" x2="339.1" y2="175.7"/>
<line class="st0" x1="337.2" y1="174.9" x2="337.2" y2="166.2"/>
<line class="st0" x1="338.2" y1="166.3" x2="338.2" y2="174.8"/>
<polyline class="st0" points="352.9,175.7 353.5,175.6 353.7,175.3 353.9,174.8 "/>
<polyline class="st0" points="353.9,166.3 353.7,165.9 353.5,165.5 352.9,165.4 "/>
<polyline class="st0" points="354.8,166.2 354.7,165.5 354.3,165 353.6,164.6 353,164.5 "/>
<polyline class="st0" points="353,176.8 353.6,176.6 354.3,176.3 354.7,175.6 354.8,174.9 "/>
<polygon class="st0" points="346,174.2 346.3,174.1 346.7,173.8 346.8,173.4 346.7,173 346.3,172.7 346,172.6 345.5,172.7 
	345.2,173 345.1,173.4 345.2,173.8 345.5,174.1 "/>
<polyline class="st0" points="353.5,166.8 353.3,166.3 353,166 352.5,165.9 "/>
<polyline class="st0" points="339.5,165.9 342,166.4 344.7,166.8 347.3,166.8 350,166.4 352.5,165.9 "/>
<polyline class="st0" points="339.1,165.4 338.6,165.5 338.3,165.9 338.2,166.3 "/>
<polyline class="st0" points="338.2,174.8 338.3,175.3 338.6,175.6 339.1,175.7 "/>
<polyline class="st0" points="337.2,174.9 337.3,175.6 337.7,176.3 338.3,176.6 339,176.8 "/>
<polyline class="st0" points="339,164.5 338.3,164.6 337.7,165 337.3,165.5 337.2,166.2 "/>
<polyline class="st0" points="339.5,165.9 339,166 338.7,166.3 338.5,166.8 "/>
<line class="st0" x1="353" y1="176.8" x2="339" y2="176.8"/>
<line class="st0" x1="354.8" y1="166.2" x2="354.8" y2="174.9"/>
<line class="st0" x1="353" y1="164.5" x2="339" y2="164.5"/>
<line class="st0" x1="353.9" y1="174.8" x2="353.9" y2="166.3"/>
<line class="st0" x1="352.9" y1="165.4" x2="339.1" y2="165.4"/>
<line class="st0" x1="352.9" y1="175.7" x2="339.1" y2="175.7"/>
<line class="st0" x1="337.2" y1="174.9" x2="337.2" y2="166.2"/>
<line class="st0" x1="338.2" y1="166.3" x2="338.2" y2="174.8"/>
<polyline class="st0" points="352.9,175.7 353.5,175.6 353.7,175.3 353.9,174.8 "/>
<polyline class="st0" points="353.9,166.3 353.7,165.9 353.5,165.5 352.9,165.4 "/>
<polyline class="st0" points="354.8,166.2 354.7,165.5 354.3,165 353.6,164.6 353,164.5 "/>
<polyline class="st0" points="353,176.8 353.6,176.6 354.3,176.3 354.7,175.6 354.8,174.9 "/>
<polygon class="st0" points="346,174.2 346.3,174.1 346.7,173.8 346.8,173.4 346.7,173 346.3,172.7 346,172.6 345.5,172.7 
	345.2,173 345.1,173.4 345.2,173.8 345.5,174.1 "/>
<polyline class="st0" points="339.1,165.4 338.6,165.5 338.3,165.9 338.2,166.3 "/>
<polyline class="st0" points="338.2,174.8 338.3,175.3 338.6,175.6 339.1,175.7 "/>
<polyline class="st0" points="337.2,174.9 337.3,175.6 337.7,176.3 338.3,176.6 339,176.8 "/>
<polyline class="st0" points="339,164.5 338.3,164.6 337.7,165 337.3,165.5 337.2,166.2 "/>
<line class="st0" x1="252" y1="73.9" x2="312.6" y2="73.9"/>
<line class="st0" x1="320.7" y1="73.9" x2="371.2" y2="73.9"/>
<line class="st0" x1="229.1" y1="45.6" x2="419.7" y2="45.6"/>
<line class="st0" x1="57.8" y1="156.8" x2="57.8" y2="140.6"/>
<line class="st0" x1="56.5" y1="155.5" x2="56.5" y2="142"/>
<line class="st0" x1="55.1" y1="155.5" x2="55.1" y2="142"/>
<line class="st0" x1="53.8" y1="156.8" x2="53.8" y2="140.6"/>
<line class="st0" x1="314" y1="189.2" x2="258.7" y2="189.2"/>
<line class="st0" x1="314" y1="187.8" x2="258.3" y2="187.8"/>
<line class="st0" x1="314" y1="212.1" x2="229.1" y2="212.1"/>
<line class="st0" x1="327.5" y1="210.7" x2="327.5" y2="182.4"/>
<line class="st0" x1="334.2" y1="210.7" x2="334.2" y2="182.4"/>
<line class="st0" x1="340.9" y1="210.7" x2="340.9" y2="182.4"/>
<line class="st0" x1="314" y1="210.7" x2="314" y2="189.2"/>
<line class="st0" x1="300.5" y1="210.7" x2="300.5" y2="189.2"/>
<line class="st0" x1="307.3" y1="210.7" x2="307.3" y2="189.2"/>
<line class="st0" x1="293.8" y1="210.7" x2="293.8" y2="189.2"/>
<line class="st0" x1="222.3" y1="212.1" x2="222.3" y2="189.2"/>
<line class="st0" x1="215.6" y1="212.1" x2="215.6" y2="189.2"/>
<line class="st0" x1="208.9" y1="212.1" x2="208.9" y2="189.2"/>
<line class="st0" x1="202.1" y1="212.1" x2="202.1" y2="189.2"/>
<line class="st0" x1="195.4" y1="212.1" x2="195.4" y2="189.2"/>
<line class="st0" x1="188.6" y1="212.1" x2="188.6" y2="189.2"/>
<line class="st0" x1="188.6" y1="187.8" x2="188.6" y2="182.4"/>
<polyline class="st0" points="354.4,200.6 265.5,200.6 267.9,201.4 "/>
<line class="st0" x1="265.5" y1="200.6" x2="267.9" y2="199.8"/>
<line class="st0" x1="265.5" y1="210.7" x2="265.5" y2="189.2"/>
<line class="st0" x1="272.2" y1="210.7" x2="272.2" y2="189.2"/>
<line class="st0" x1="252" y1="69.8" x2="252" y2="73.9"/>
<line class="st0" x1="253.3" y1="69.8" x2="253.3" y2="73.9"/>
<line class="st0" x1="371.2" y1="178.4" x2="320.7" y2="178.4"/>
<line class="st0" x1="130.6" y1="178.4" x2="156.2" y2="178.4"/>
<line class="st0" x1="130.6" y1="182.4" x2="156.2" y2="182.4"/>
<line class="st0" x1="141.4" y1="45.6" x2="181.9" y2="45.6"/>
<line class="st0" x1="181.9" y1="49.6" x2="141.4" y2="49.6"/>
<rect x="179.2" y="179" class="st0" width="1.4" height="2.7"/>
<rect x="156.2" y="179" class="st0" width="1.4" height="2.7"/>
<line class="st0" x1="130.6" y1="178.4" x2="130.6" y2="182.4"/>
<line class="st0" x1="129.3" y1="178.4" x2="129.3" y2="182.4"/>
<line class="st0" x1="114.4" y1="178.4" x2="114.4" y2="182.4"/>
<line class="st0" x1="115.8" y1="178.4" x2="115.8" y2="182.4"/>
<line class="st0" x1="130.6" y1="182.4" x2="114.4" y2="182.4"/>
<line class="st0" x1="129.3" y1="181.1" x2="115.8" y2="181.1"/>
<line class="st0" x1="129.3" y1="179.7" x2="115.8" y2="179.7"/>
<line class="st0" x1="130.6" y1="178.4" x2="114.4" y2="178.4"/>
<line class="st0" x1="156.2" y1="178.4" x2="156.2" y2="182.4"/>
<line class="st0" x1="114.4" y1="182.4" x2="61.9" y2="182.4"/>
<line class="st0" x1="114.4" y1="178.4" x2="61.9" y2="178.4"/>
<line class="st0" x1="57.8" y1="140.6" x2="57.8" y2="59.1"/>
<line class="st0" x1="252" y1="69.8" x2="312.6" y2="69.8"/>
<line class="st0" x1="320.7" y1="69.8" x2="371.2" y2="69.8"/>
<polyline class="st0" points="230.4,73.9 230.4,69.8 229.1,69.8 "/>
<line class="st0" x1="230.4" y1="73.9" x2="229.1" y2="73.9"/>
<line class="st0" x1="253.3" y1="71.2" x2="288.4" y2="71.2"/>
<line class="st0" x1="289.7" y1="71.2" x2="311.3" y2="71.2"/>
<line class="st0" x1="253.3" y1="72.5" x2="288.4" y2="72.5"/>
<line class="st0" x1="289.7" y1="72.5" x2="311.3" y2="72.5"/>
<polyline class="st0" points="222.5,201.4 225,200.6 222.5,199.8 "/>
<polygon class="st0" points="190,200.6 189.8,199.9 189.3,199.4 188.6,199.3 187.9,199.4 187.4,199.9 187.3,200.6 187.4,201.3 
	187.9,201.8 188.6,202 189.3,201.8 189.8,201.3 "/>
<line class="st0" x1="314" y1="187.8" x2="314" y2="189.2"/>
<line class="st0" x1="152.2" y1="212.1" x2="148.9" y2="212.1"/>
<line class="st0" x1="148.9" y1="218.8" x2="148.9" y2="212.1"/>
<line class="st0" x1="188.6" y1="23.4" x2="183.2" y2="23.4"/>
<line class="st0" x1="229.1" y1="73.9" x2="222.3" y2="73.9"/>
<line class="st0" x1="53.8" y1="140.6" x2="53.8" y2="56.4"/>
<line class="st0" x1="229.1" y1="23.4" x2="229.1" y2="73.9"/>
<polyline class="st0" points="222.3,73.9 222.3,23.4 229.1,23.4 "/>
<line class="st0" x1="188.6" y1="23.4" x2="222.3" y2="23.4"/>
<line class="st0" x1="222.3" y1="27.5" x2="206.1" y2="27.5"/>
<line class="st0" x1="222.3" y1="34.2" x2="206.1" y2="34.2"/>
<polyline class="st0" points="206.1,37.4 202.1,37.4 202.1,23.4 "/>
<polyline class="st0" points="206.1,27.5 206.1,37.4 222.3,37.4 "/>
<line class="st0" x1="322.1" y1="69.8" x2="322.1" y2="73.9"/>
<line class="st0" x1="53.8" y1="155.5" x2="57.8" y2="155.5"/>
<polyline class="st0" points="180.6,168.9 180.6,182.4 188.6,182.4 "/>
<polyline class="st0" points="180.6,168.9 188.6,168.9 188.6,182.4 "/>
<line class="st0" x1="6" y1="62.5" x2="6" y2="5.9"/>
<line class="st0" x1="145.4" y1="1.8" x2="2" y2="1.8"/>
<polyline class="st0" points="6,5.9 141.4,5.9 141.4,45.6 "/>
<line class="st0" x1="145.4" y1="45.6" x2="145.4" y2="1.8"/>
<line class="st0" x1="53.8" y1="62.5" x2="6" y2="62.5"/>
<polyline class="st0" points="48.4,66.5 48.4,166.3 53.8,166.3 "/>
<line class="st0" x1="181.9" y1="35.5" x2="145.4" y2="35.5"/>
<rect x="371.2" y="168.9" class="st0" width="8.1" height="13.5"/>
<rect x="371.2" y="69.8" class="st0" width="8.1" height="13.5"/>
<line class="st0" x1="187.3" y1="189.2" x2="225" y2="189.2"/>
<line class="st0" x1="188.6" y1="187.8" x2="225" y2="187.8"/>
<line class="st0" x1="229.1" y1="212.1" x2="229.1" y2="216.1"/>
<line class="st0" x1="156.2" y1="212.1" x2="152.2" y2="212.1"/>
<line class="st0" x1="152.2" y1="183.8" x2="156.2" y2="183.8"/>
<line class="st0" x1="156.2" y1="182.4" x2="156.2" y2="216.1"/>
<line class="st0" x1="154.9" y1="183.8" x2="154.9" y2="212.1"/>
<line class="st0" x1="152.2" y1="182.4" x2="152.2" y2="212.1"/>
<line class="st0" x1="153.6" y1="183.8" x2="153.6" y2="212.1"/>
<line class="st0" x1="229.1" y1="212.1" x2="156.2" y2="212.1"/>
<line class="st0" x1="156.2" y1="213.4" x2="176.5" y2="213.4"/>
<line class="st0" x1="177.9" y1="213.4" x2="204.8" y2="213.4"/>
<line class="st0" x1="206.1" y1="213.4" x2="225" y2="213.4"/>
<line class="st0" x1="156.2" y1="216.1" x2="225" y2="216.1"/>
<line class="st0" x1="156.2" y1="214.8" x2="176.5" y2="214.8"/>
<line class="st0" x1="177.9" y1="214.8" x2="204.8" y2="214.8"/>
<line class="st0" x1="206.1" y1="214.8" x2="225" y2="214.8"/>
<line class="st0" x1="176.5" y1="212.1" x2="176.5" y2="216.1"/>
<line class="st0" x1="177.9" y1="212.1" x2="177.9" y2="216.1"/>
<line class="st0" x1="206.1" y1="212.1" x2="206.1" y2="216.1"/>
<line class="st0" x1="204.8" y1="212.1" x2="204.8" y2="216.1"/>
<polyline class="st0" points="258.3,187.8 261.9,199.9 263.5,199.9 "/>
<polyline class="st0" points="262.7,202.6 261,202.6 263.5,199.9 "/>
<line class="st0" x1="262.7" y1="202.6" x2="265.5" y2="212.1"/>
<line class="st0" x1="190" y1="37.4" x2="190" y2="33.4"/>
<line class="st0" x1="202.1" y1="37.4" x2="188.6" y2="37.4"/>
<line class="st0" x1="202.1" y1="33.4" x2="188.6" y2="33.4"/>
<line class="st0" x1="200.8" y1="33.4" x2="200.8" y2="37.4"/>
<line class="st0" x1="190" y1="36.1" x2="200.8" y2="36.1"/>
<line class="st0" x1="190" y1="34.7" x2="200.8" y2="34.7"/>
<line class="st0" x1="311.3" y1="69.8" x2="311.3" y2="73.9"/>
<line class="st0" x1="289.7" y1="69.8" x2="289.7" y2="73.9"/>
<line class="st0" x1="288.4" y1="69.8" x2="288.4" y2="73.9"/>
<line class="st0" x1="57.8" y1="140.6" x2="53.8" y2="140.6"/>
<line class="st0" x1="57.8" y1="142" x2="53.8" y2="142"/>
<line class="st0" x1="198.1" y1="187.8" x2="198.1" y2="182.4"/>
<rect x="250.6" y="70.6" class="st0" width="1.3" height="2.7"/>
<path class="st0" d="M250.6,71.9l-0.2-2.4c-1.4-8.3-8-14.7-16.3-15.8l-2.4-0.1"/>
<polyline class="st0" points="53.8,168.9 53.8,156.8 57.8,156.8 57.8,168.9 "/>
<line class="st0" x1="152.2" y1="182.4" x2="152.2" y2="214.8"/>
<line class="st0" x1="152.2" y1="216.1" x2="229.1" y2="216.1"/>
<line class="st0" x1="252" y1="212.1" x2="252" y2="210.2"/>
<line class="st0" x1="252" y1="209.1" x2="252" y2="206.9"/>
<line class="st0" x1="252" y1="205.9" x2="252" y2="203.8"/>
<line class="st0" x1="252" y1="202.6" x2="252" y2="200.5"/>
<line class="st0" x1="252" y1="199.4" x2="252" y2="197.2"/>
<line class="st0" x1="252" y1="196.1" x2="252" y2="194"/>
<line class="st0" x1="252" y1="193" x2="252" y2="190.7"/>
<line class="st0" x1="252" y1="189.7" x2="252" y2="187.8"/>
<line class="st0" x1="245.2" y1="212.1" x2="245.2" y2="210.2"/>
<line class="st0" x1="245.2" y1="209.1" x2="245.2" y2="206.9"/>
<line class="st0" x1="245.2" y1="205.9" x2="245.2" y2="203.8"/>
<line class="st0" x1="245.2" y1="202.6" x2="245.2" y2="200.5"/>
<line class="st0" x1="245.2" y1="199.4" x2="245.2" y2="197.2"/>
<line class="st0" x1="245.2" y1="196.1" x2="245.2" y2="194"/>
<line class="st0" x1="245.2" y1="193" x2="245.2" y2="190.7"/>
<line class="st0" x1="245.2" y1="189.7" x2="245.2" y2="187.8"/>
<line class="st0" x1="238.5" y1="212.1" x2="238.5" y2="210.2"/>
<line class="st0" x1="238.5" y1="209.1" x2="238.5" y2="206.9"/>
<line class="st0" x1="238.5" y1="205.9" x2="238.5" y2="203.8"/>
<line class="st0" x1="238.5" y1="202.6" x2="238.5" y2="200.5"/>
<line class="st0" x1="238.5" y1="199.4" x2="238.5" y2="197.2"/>
<line class="st0" x1="238.5" y1="196.1" x2="238.5" y2="194"/>
<line class="st0" x1="238.5" y1="193" x2="238.5" y2="190.7"/>
<line class="st0" x1="238.5" y1="189.7" x2="238.5" y2="187.8"/>
<line class="st0" x1="231.8" y1="212.1" x2="231.8" y2="210.2"/>
<line class="st0" x1="231.8" y1="209.1" x2="231.8" y2="206.9"/>
<line class="st0" x1="231.8" y1="205.9" x2="231.8" y2="203.8"/>
<line class="st0" x1="231.8" y1="202.6" x2="231.8" y2="200.5"/>
<line class="st0" x1="231.8" y1="199.4" x2="231.8" y2="197.2"/>
<line class="st0" x1="231.8" y1="196.1" x2="231.8" y2="194"/>
<line class="st0" x1="231.8" y1="193" x2="231.8" y2="190.7"/>
<line class="st0" x1="231.8" y1="189.7" x2="231.8" y2="187.8"/>
<line class="st0" x1="258.7" y1="212.1" x2="258.7" y2="210.9"/>
<line class="st0" x1="258.7" y1="209.8" x2="258.7" y2="207.6"/>
<line class="st0" x1="258.7" y1="206.5" x2="258.7" y2="204.4"/>
<line class="st0" x1="258.7" y1="203.3" x2="258.7" y2="201.1"/>
<line class="st0" x1="258.7" y1="200.1" x2="258.7" y2="197.9"/>
<line class="st0" x1="258.7" y1="196.9" x2="258.7" y2="194.7"/>
<line class="st0" x1="258.7" y1="193.6" x2="258.7" y2="191.5"/>
<line class="st0" x1="258.7" y1="190.3" x2="258.7" y2="189.2"/>
<line class="st0" x1="229.1" y1="182.4" x2="229.1" y2="212.1"/>
<line class="st0" x1="347.7" y1="210.7" x2="347.7" y2="182.4"/>
<line class="st0" x1="354.4" y1="212.1" x2="354.4" y2="182.4"/>
<line class="st0" x1="354.4" y1="210.7" x2="265" y2="210.7"/>
<polygon class="st0" points="355.8,200.6 355.5,199.9 355,199.4 354.4,199.3 353.7,199.4 353.2,199.9 353.1,200.6 353.2,201.3 
	353.7,201.8 354.4,202 355,201.8 355.5,201.3 "/>
<rect x="181.9" y="23.4" class="st0" width="6.8" height="50.6"/>
<rect x="222.3" y="23.4" class="st0" width="6.8" height="50.6"/>
<line class="st0" x1="229.1" y1="49.6" x2="419.7" y2="49.6"/>
<line class="st0" x1="419.7" y1="212.1" x2="419.7" y2="36.2"/>
<polyline class="st0" points="229.1,23.4 419.7,23.4 419.7,36.2 "/>
<line class="st0" x1="152.2" y1="214.8" x2="152.2" y2="218.8"/>
<line class="st0" x1="53.8" y1="66.5" x2="2" y2="66.5"/>
<rect x="312.6" y="69.8" class="st0" width="8.1" height="13.5"/>
<rect x="53.8" y="168.9" class="st0" width="8.1" height="13.5"/>
<line class="st0" x1="382.3" y1="23.4" x2="378" y2="23.4"/>
<line class="st0" x1="375.8" y1="23.4" x2="371.5" y2="23.4"/>
<polyline class="st0" points="149.3,218.8 152.2,218.8 152.2,213.7 "/>
<line class="st0" x1="152.2" y1="211.4" x2="152.2" y2="207.2"/>
<line class="st0" x1="152.2" y1="205" x2="152.2" y2="200.6"/>
<line class="st0" x1="152.2" y1="198.5" x2="152.2" y2="194.2"/>
<line class="st0" x1="152.2" y1="192.1" x2="152.2" y2="187.7"/>
<line class="st0" x1="152.2" y1="185.6" x2="152.2" y2="182.4"/>
<line class="st0" x1="427.8" y1="212.1" x2="229.1" y2="212.1"/>
<line class="st0" x1="225" y1="212.1" x2="225" y2="216.1"/>
<line class="st0" x1="226.4" y1="183.8" x2="226.4" y2="212.1"/>
<line class="st0" x1="227.7" y1="183.8" x2="227.7" y2="212.1"/>
<line class="st0" x1="225" y1="182.4" x2="225" y2="212.1"/>
<line class="st0" x1="225" y1="200.6" x2="188.6" y2="200.6"/>
<line class="st0" x1="258.7" y1="189.2" x2="258.7" y2="189.1"/>
<line class="st0" x1="229.1" y1="187.8" x2="230.2" y2="187.8"/>
<line class="st0" x1="231.3" y1="187.8" x2="233.4" y2="187.8"/>
<line class="st0" x1="234.5" y1="187.8" x2="236.7" y2="187.8"/>
<line class="st0" x1="237.7" y1="187.8" x2="239.9" y2="187.8"/>
<line class="st0" x1="241" y1="187.8" x2="243.1" y2="187.8"/>
<line class="st0" x1="244.2" y1="187.8" x2="246.4" y2="187.8"/>
<line class="st0" x1="247.5" y1="187.8" x2="249.6" y2="187.8"/>
<line class="st0" x1="250.6" y1="187.8" x2="252.9" y2="187.8"/>
<line class="st0" x1="253.9" y1="187.8" x2="256" y2="187.8"/>
<line class="st0" x1="257.1" y1="187.8" x2="258.3" y2="187.8"/>
<line class="st0" x1="187.3" y1="189.2" x2="187.3" y2="182.4"/>
<polyline class="st0" points="419.7,78.3 419.7,80.6 421.6,80.6 "/>
<line class="st0" x1="422.8" y1="80.6" x2="424.9" y2="80.6"/>
<line class="st0" x1="426" y1="80.6" x2="427.8" y2="80.6"/>
<polyline class="st0" points="427.8,170.3 427.8,168.9 426,168.9 "/>
<line class="st0" x1="424.9" y1="168.9" x2="422.8" y2="168.9"/>
<polyline class="st0" points="421.6,168.9 419.7,168.9 419.7,170.3 "/>
<line class="st0" x1="419.7" y1="177.8" x2="419.7" y2="180"/>
<polyline class="st0" points="419.7,181.1 419.7,182.4 421.6,182.4 "/>
<line class="st0" x1="422.8" y1="182.4" x2="424.9" y2="182.4"/>
<line class="st0" x1="426" y1="182.4" x2="427.8" y2="182.4"/>
<line class="st0" x1="140.1" y1="48.3" x2="117.9" y2="48.3"/>
<line class="st0" x1="141.4" y1="49.6" x2="70" y2="49.6"/>
<line class="st0" x1="140.1" y1="46.9" x2="117.9" y2="46.9"/>
<line class="st0" x1="141.4" y1="45.6" x2="70" y2="45.6"/>
<line class="st0" x1="140.1" y1="49.6" x2="140.1" y2="45.6"/>
<line class="st0" x1="141.4" y1="49.6" x2="141.4" y2="45.6"/>
<line class="st0" x1="71.3" y1="49.6" x2="71.3" y2="45.6"/>
<line class="st0" x1="94.9" y1="49.6" x2="94.9" y2="45.6"/>
<line class="st0" x1="93.6" y1="49.6" x2="93.6" y2="45.6"/>
<line class="st0" x1="117.9" y1="49.6" x2="117.9" y2="45.6"/>
<line class="st0" x1="116.5" y1="49.6" x2="116.5" y2="45.6"/>
<line class="st0" x1="116.5" y1="48.3" x2="94.9" y2="48.3"/>
<line class="st0" x1="116.5" y1="46.9" x2="94.9" y2="46.9"/>
<line class="st0" x1="93.6" y1="48.3" x2="71.3" y2="48.3"/>
<line class="st0" x1="93.6" y1="46.9" x2="71.3" y2="46.9"/>
<polyline class="st0" points="70,49.6 70,45.6 53.8,45.6 "/>
<line class="st0" x1="61.9" y1="49.6" x2="70" y2="49.6"/>
<line class="st0" x1="427.8" y1="218.8" x2="148.9" y2="218.8"/>
<path class="st0" d="M179.2,179v-21.6l-2.6,0.2c-9.8,1.2-17.6,9-18.7,18.8l-0.2,2.6"/>
<line class="st0" x1="280.3" y1="174.3" x2="293.8" y2="174.3"/>
<line class="st0" x1="280.3" y1="178.4" x2="293.8" y2="178.4"/>
<line class="st0" x1="281.6" y1="174.3" x2="281.6" y2="178.4"/>
<line class="st0" x1="281.6" y1="175.7" x2="292.4" y2="175.7"/>
<line class="st0" x1="281.6" y1="177" x2="292.4" y2="177"/>
<line class="st0" x1="292.4" y1="174.3" x2="292.4" y2="178.4"/>
<rect x="308.6" y="166.3" class="st0" width="12.1" height="16.1"/>
<line class="st0" x1="308.6" y1="178.4" x2="297.8" y2="178.4"/>
<line class="st0" x1="293.8" y1="182.4" x2="293.8" y2="174.3"/>
<line class="st0" x1="297.8" y1="178.4" x2="297.8" y2="174.3"/>
<polygon class="st0" points="280.3,174.3 280.3,182.4 256,182.4 256,174.3 260.1,174.3 260.1,178.4 276.3,178.4 276.3,174.3 "/>
<polyline class="st0" points="188.6,182.4 204.8,182.4 204.8,174.3 200.8,174.3 200.8,178.4 188.6,178.4 "/>
<line class="st0" x1="242.6" y1="174.3" x2="256" y2="174.3"/>
<line class="st0" x1="242.6" y1="178.4" x2="256" y2="178.4"/>
<line class="st0" x1="243.9" y1="174.3" x2="243.9" y2="178.4"/>
<line class="st0" x1="243.9" y1="175.7" x2="254.7" y2="175.7"/>
<line class="st0" x1="243.9" y1="177" x2="254.7" y2="177"/>
<line class="st0" x1="254.7" y1="174.3" x2="254.7" y2="178.4"/>
<polygon class="st0" points="242.6,174.3 242.6,182.4 218.3,182.4 218.3,174.3 222.3,174.3 222.3,178.4 238.5,178.4 238.5,174.3 "/>
<line class="st0" x1="204.8" y1="174.3" x2="218.3" y2="174.3"/>
<line class="st0" x1="204.8" y1="178.4" x2="218.3" y2="178.4"/>
<line class="st0" x1="206.1" y1="174.3" x2="206.1" y2="178.4"/>
<line class="st0" x1="206.1" y1="175.7" x2="216.9" y2="175.7"/>
<line class="st0" x1="206.1" y1="177" x2="216.9" y2="177"/>
<line class="st0" x1="216.9" y1="174.3" x2="216.9" y2="178.4"/>
<line class="st0" x1="293.8" y1="174.3" x2="297.8" y2="174.3"/>
<line class="st0" x1="229.1" y1="183.8" x2="225" y2="183.8"/>
<rect x="53.8" y="45.6" class="st0" width="8.1" height="13.5"/>
<line class="st0" x1="369.9" y1="71.2" x2="346.6" y2="71.2"/>
<line class="st0" x1="369.9" y1="72.5" x2="346.6" y2="72.5"/>
<line class="st0" x1="345.3" y1="72.5" x2="322.1" y2="72.5"/>
<line class="st0" x1="345.3" y1="71.2" x2="322.1" y2="71.2"/>
<line class="st0" x1="346.6" y1="69.8" x2="346.6" y2="73.9"/>
<line class="st0" x1="345.3" y1="69.8" x2="345.3" y2="73.9"/>
<line class="st0" x1="369.9" y1="69.8" x2="369.9" y2="73.9"/>
<line class="st0" x1="53.8" y1="140.6" x2="57.8" y2="140.6"/>
<line class="st0" x1="222.3" y1="70.7" x2="188.6" y2="70.7"/>
<polyline class="st0" points="188.6,73.9 222.3,73.9 222.3,70.7 "/>
<line class="st0" x1="222.3" y1="73.9" x2="222.3" y2="73.8"/>
<line class="st0" x1="57.8" y1="159.7" x2="57.8" y2="105.8"/>
<line class="st0" x1="57.8" y1="121.8" x2="57.8" y2="105.6"/>
<line class="st0" x1="56.5" y1="120.4" x2="56.5" y2="107"/>
<line class="st0" x1="55.1" y1="120.4" x2="55.1" y2="107"/>
<line class="st0" x1="53.8" y1="121.8" x2="53.8" y2="105.6"/>
<line class="st0" x1="53.8" y1="120.4" x2="57.8" y2="120.4"/>
<line class="st0" x1="57.8" y1="105.6" x2="53.8" y2="105.6"/>
<line class="st0" x1="57.8" y1="107" x2="53.8" y2="107"/>
<line class="st0" x1="53.8" y1="121.8" x2="57.8" y2="121.8"/>
<line class="st0" x1="57.8" y1="94.2" x2="57.8" y2="67.2"/>
<line class="st0" x1="379.3" y1="49.6" x2="379.3" y2="69.8"/>
<line class="st0" x1="375.3" y1="49.6" x2="375.3" y2="69.8"/>
<line class="st0" x1="379.3" y1="107" x2="419.7" y2="107"/>
<line class="st0" x1="379.3" y1="83.3" x2="379.3" y2="107"/>
<line class="st0" x1="389.7" y1="156" x2="386.5" y2="156"/>
<line class="st0" x1="389.7" y1="162.3" x2="386.5" y2="162.3"/>
<line class="st0" x1="389.7" y1="162.8" x2="386" y2="162.8"/>
<line class="st0" x1="389.7" y1="155.5" x2="386" y2="155.5"/>
<line class="st0" x1="389.7" y1="154.1" x2="379.3" y2="154.1"/>
<line class="st0" x1="389.7" y1="164.2" x2="379.3" y2="164.2"/>
<line class="st0" x1="387.8" y1="160.5" x2="386" y2="160.5"/>
<line class="st0" x1="386" y1="157.8" x2="387.8" y2="157.8"/>
<polyline class="st0" points="388.1,160.3 387.9,160.5 387.8,160.5 "/>
<polyline class="st0" points="387.8,157.8 387.9,157.8 388,157.9 388.2,158.2 388.4,158.4 388.5,158.7 388.6,159 388.6,159.3 
	388.5,159.6 388.4,159.9 388.2,160.1 388.1,160.3 "/>
<path class="st0" d="M389.7,156l0.6,0.1c1.7,0.4,2.8,2.1,2.4,3.9c-0.3,1.2-1.2,2.1-2.4,2.4l-0.6,0.1"/>
<path class="st0" d="M389.7,155.5l0.6,0.1c2,0.5,3.2,2.5,2.7,4.5c-0.3,1.4-1.4,2.4-2.7,2.7l-0.6,0.1"/>
<path class="st0" d="M389.7,154.1l0.9,0.1c2.8,0.6,4.5,3.4,3.9,6.1c-0.4,1.9-1.9,3.4-3.9,3.9l-0.9,0.1"/>
<polyline class="st0" points="386,160.5 385.8,160.5 385.6,160.4 385.5,160.2 385.4,160.1 385.3,160 385.3,159.8 "/>
<polyline class="st0" points="385.3,158.5 385.3,158.3 385.4,158.3 385.5,158.1 385.6,157.9 385.8,157.8 386,157.8 "/>
<polyline class="st0" points="385.3,159.8 385.2,159.2 385.3,158.5 "/>
<polyline class="st0" points="386.5,162.3 386.2,162.3 386,162.3 385.5,161.9 385.2,161.7 385.1,161.4 385,161.2 384.9,160.9 "/>
<path class="st0" d="M386,162.8h-0.3c-0.5-0.2-1-0.6-1.2-1.1l-0.1-0.3"/>
<path class="st0" d="M384.9,157.4l0.1-0.3c0.2-0.6,0.6-1,1.2-1.1l0.3-0.1"/>
<path class="st0" d="M384.3,156.9l0.1-0.2c0.2-0.5,0.7-0.9,1.2-1.1l0.3-0.1"/>
<polyline class="st0" points="384.9,160.9 384.8,159.2 384.9,157.4 "/>
<polyline class="st0" points="384.3,161.4 384.2,159.2 384.3,156.9 "/>
<line class="st0" x1="383.3" y1="157.1" x2="383.4" y2="157.1"/>
<line class="st0" x1="383.3" y1="161.3" x2="383.4" y2="161.3"/>
<path class="st0" d="M389.7,154.1l0.9,0.1c2.8,0.6,4.5,3.4,3.9,6.1c-0.4,1.9-1.9,3.4-3.9,3.9l-0.9,0.1"/>
<line class="st0" x1="427.8" y1="36.2" x2="419.7" y2="36.2"/>
<line class="st0" x1="427.8" y1="36.2" x2="427.8" y2="218.8"/>
<line class="st0" x1="2" y1="1.8" x2="2" y2="66.5"/>
<rect x="230.4" y="53.6" class="st0" width="1.4" height="19.6"/>
<rect x="180.6" y="125.9" class="st0" width="4.8" height="42.9"/>
<rect x="374.6" y="144" class="st0" width="4.8" height="24.9"/>
<rect x="379.3" y="178.4" class="st0" width="40.4" height="4"/>
<line class="st0" x1="293.8" y1="182.4" x2="371.2" y2="182.4"/>
<rect x="320.7" y="162.9" class="st0" width="50.5" height="15.5"/>
<g>
	<path class="st1" d="M340.3,108.5c2.8,0.4,2,2.4,1,1.7c-0.2-0.6-0.6-1.2-1.1-1.6L340.3,108.5z M343.8,107.8c-0.5,1.5-1.4,4.3-1.5,5
		c-0.1,0.4-0.2,0.7-0.2,1.1c0.2,0.7,0.3,1.4,0.4,2.1c0,0.6-0.3,0.9-0.8,0.9c-0.3,0-0.5-0.2-0.5-0.6c0.2-1.2,0.1-2.3-0.1-2.5
		c-0.2-0.1-0.4-0.2-0.6-0.2v-0.3h0.5c0.2,0,0.2,0,0.3-0.2c0.2-0.4,0.2-0.4,2.4-5.4L343.8,107.8z M341.2,105.9c2.9,0.5,2.1,2.5,1,1.8
		c-0.2-0.7-0.6-1.3-1.1-1.8L341.2,105.9z M348.3,108.4c0,0.1-0.2,0.2-0.5,0.2c1,1.4,2.4,2.4,4,3v0.2c-0.5,0.1-0.8,0.5-0.9,1
		l-0.4-0.2c-0.1,0.1-0.3,0.2-0.5,0.2v3.8c-0.3,0.2-0.6,0.3-0.9,0.3H349V116h-3.3v0.7c0,0.1-0.3,0.3-0.9,0.3h-0.2v-4.8
		c-0.5,0.4-1.1,0.7-1.6,1l-0.1-0.1c1.7-1.3,3-3,3.7-4.9L348.3,108.4z M343.6,109.3c0.9-1,1.5-2.2,2-3.4l1.5,0.7
		c-0.1,0.1-0.2,0.2-0.5,0.2c-0.8,1.1-1.8,2.1-3,2.8L343.6,109.3z M349.8,112.1c-1-0.9-1.8-2-2.2-3.2c-0.7,1.2-1.7,2.3-2.8,3.2l1,0.4
		h3.1l0.5-0.6L349.8,112.1z M348.9,115.7v-2.9h-3.3v2.9H348.9z M348,106.1c4,1,3.4,3.6,2.1,2.9c-0.6-1.1-1.3-2-2.3-2.8L348,106.1z"
		/>
	<path class="st1" d="M350,129.6c0,0,0.8,0.6,1.3,1c0,0.1-0.2,0.2-0.3,0.2h-10.5l-0.1-0.3h4.8v-1.8h-3.5l-0.1-0.3h3.6v-1.7l1.6,0.1
		c0,0.2-0.1,0.3-0.4,0.3v1.2h1.8l0.7-0.8c0,0,0.8,0.6,1.3,1c0,0.1-0.2,0.2-0.3,0.2h-3.4v1.8h2.9L350,129.6z M342.1,122.2
		c0.1,0.6-0.2,1.2-0.6,1.6c-0.2,0.2-0.6,0.2-0.8,0s-0.2-0.6,0-0.8c0.1-0.1,0.2-0.1,0.3-0.2c0.5-0.3,0.9-0.9,0.8-1.6h0.2
		c0.1,0.2,0.1,0.4,0.2,0.6h3.9c-0.1,0-0.2-0.1-0.3-0.1c-0.1-0.5-0.4-1-0.9-1.4l0.1-0.1c2.3,0,2.1,1.5,1.3,1.6h3.4l0.6-0.6l1.1,1.1
		c-0.1,0.1-0.3,0.2-0.5,0.1c-0.3,0.4-0.8,0.9-1.2,1.2l-0.1-0.1c0.1-0.4,0.1-0.9,0.2-1.3L342.1,122.2z M341.8,126
		c0.1,0,0.3,0,0.4-0.1c1-0.5,1.9-1.2,2.7-2.1h-2.7l-0.1-0.3h5.9l0.6-0.8c0,0,0.7,0.5,1.2,0.9c0,0.1-0.2,0.2-0.3,0.2h-3.9l0.9,0.5
		c-0.1,0.1-0.3,0.2-0.5,0.1c-0.9,0.6-2,1.2-3,1.6c1.3,0,3.4-0.1,5.5-0.1c-0.4-0.4-0.8-0.8-1.2-1.2l0.1-0.1c3.6,0.8,3,3.1,1.8,2.5
		c-0.2-0.4-0.4-0.7-0.6-1c-1.5,0.2-3.6,0.6-6,0.8c-0.1,0.1-0.2,0.3-0.3,0.3L341.8,126z"/>
</g>
<rect x="314.3" y="83.3" class="st2" width="2.7" height="83.2"/>
<rect x="60.3" y="81.8" class="st0" width="76.8" height="60.6"/>
<line class="st0" x1="70.9" y1="142.4" x2="70.9" y2="81.8"/>
<line class="st0" x1="79.8" y1="142.4" x2="79.8" y2="81.8"/>
<path class="st0" d="M62.1,138.7V116c0-0.5,0.4-0.9,0.9-0.9h6.9c0.5,0,0.9,0.4,0.9,0.9v22.6c0,0.5-0.4,0.9-0.9,0.9H63
	C62.5,139.6,62.1,139.2,62.1,138.7z"/>
<path class="st0" d="M62.1,108.3V85.7c0-0.5,0.4-0.9,0.9-0.9h7c0.5,0,0.9,0.4,0.9,0.9v22.6c0,0.5-0.4,0.9-0.9,0.9h-7
	C62.5,109.2,62.1,108.8,62.1,108.3z"/>
<rect x="152.6" y="68.6" class="st0" width="14.2" height="2"/>
<rect x="152.6" y="63.2" class="st0" width="14.2" height="5.4"/>
<polygon class="st0" points="152.6,63.2 166.8,63.2 181.9,63.2 181.9,49.6 137.6,49.6 137.6,63.2 "/>
<rect x="60.3" y="64.5" class="st0" width="14.9" height="14.9"/>
<rect x="60.3" y="144.9" class="st0" width="14.9" height="14.9"/>
<path class="st3" d="M238,171.4v-3.6c0-0.3,0.2-0.6,0.6-0.6h23.1c0.3,0,0.6,0.2,0.6,0.6v3.6c0,0.3-0.2,0.6-0.6,0.6h-23.1
	C238.3,172,238,171.8,238,171.4z"/>
<path class="st3" d="M238,112.4v-3.6c0-0.3,0.2-0.6,0.6-0.6h23.1c0.3,0,0.6,0.2,0.6,0.6v3.6c0,0.3-0.2,0.6-0.6,0.6h-23.1
	C238.3,112.9,238,112.7,238,112.4z"/>
<path class="st3" d="M258.1,112.9h3.6c0.3,0,0.5,0.2,0.5,0.6v53.2c0,0.3-0.2,0.6-0.5,0.6h-3.6c-0.3,0-0.5-0.2-0.5-0.6v-53.2
	C257.5,113.2,257.8,112.9,258.1,112.9z"/>
<path class="st3" d="M238,166.4v-16.2c0-0.5,0.4-0.9,0.9-0.9h17.6c0.5,0,0.9,0.4,0.9,0.9v16.2c0,0.5-0.4,0.9-0.9,0.9H239
	C238.5,167.3,238,166.9,238,166.4z"/>
<path class="st3" d="M238,148.2V132c0-0.5,0.4-0.9,0.9-0.9h17.6c0.5,0,0.9,0.4,0.9,0.9v16.2c0,0.5-0.4,0.9-0.9,0.9H239
	C238.5,149.2,238,148.8,238,148.2z"/>
<path class="st3" d="M238,130.1v-16.2c0-0.5,0.4-0.9,0.9-0.9h17.6c0.5,0,0.9,0.4,0.9,0.9v16.2c0,0.5-0.4,0.9-0.9,0.9H239
	C238.5,131.1,238,130.6,238,130.1z"/>
<path class="st0" d="M215,127c-5.3,0-9.6,6.9-9.6,15.5c-0.1,3.8,0.9,7.5,2.7,10.8c1.7,2.9,4.2,4.7,6.9,4.7c0.2,0,0.4,0,0.5,0
	c5-0.5,9-7.2,9-15.4C224.6,133.9,220.3,127,215,127z"/>
<g class="st4">
	<path class="st1" d="M155,98.7c-0.3,0.3-0.5,0.5-0.8,0.7l-0.2-0.1c0.6-0.8,1.2-2.1,1.5-3.4l1.3,0.5c0,0.1-0.2,0.2-0.5,0.2
		c-0.1,0.3-0.3,0.6-0.5,0.9l0.2,0.1h2.2l0.5-0.6c0,0,0.6,0.4,0.9,0.8c0,0.1-0.1,0.2-0.3,0.2h-1.5v1h0.3l0.4-0.5c0,0,0.4,0.3,0.7,0.6
		c0.5-0.8,0.9-1.9,1.2-3.1l1.3,0.4c0,0.1-0.2,0.3-0.4,0.2c-0.1,0.3-0.3,0.6-0.4,0.9l0.2,0.1h2.4l0.5-0.6c0,0,0.6,0.4,0.9,0.8
		c0,0.1-0.1,0.2-0.3,0.2h-1.6v1h0.4l0.4-0.6c0,0,0.5,0.4,0.8,0.7c0,0.1-0.1,0.2-0.3,0.2h-1.4v1.1h0.4l0.4-0.6c0,0,0.5,0.4,0.8,0.7
		c0,0.1-0.1,0.2-0.3,0.2h-1.4v1.1h0.7l0.5-0.6c0,0,0.6,0.5,1,0.8c0,0.1-0.1,0.2-0.3,0.2h-3.9v0.1c0,0.1-0.3,0.3-0.8,0.3h-0.2v-3.8
		c-0.2,0.2-0.4,0.4-0.7,0.6l-0.2-0.1h-0.1h-1.3v1.1h0.3l0.4-0.6c0,0,0.5,0.4,0.8,0.7c0,0.1-0.1,0.2-0.3,0.2h-1.3v1.1h0.5l0.5-0.6
		c0,0,0.6,0.4,0.9,0.8c0,0.1-0.1,0.2-0.3,0.2H156v0.2c0,0.1-0.3,0.3-0.8,0.3H155V98.7z M163.9,103.3c-0.1,0.1-0.2,0.1-0.6,0.2
		c-0.6,0.7-1.4,1.3-2.3,1.8c1.4,0.4,2.9,0.6,4.4,0.6l0,0.2c-0.5,0.1-0.8,0.5-0.9,1.1c-1.8-0.2-3.4-0.6-4.7-1.3
		c-1.6,0.7-3.5,1.1-5.5,1.3l-0.1-0.2c1.7-0.3,3.4-0.8,4.8-1.5c-0.9-0.6-1.7-1.3-2.2-2.2h-2l-0.1-0.3h7.5l0.7-0.6L163.9,103.3z
		 M156,97.9v1h1v-1H156z M157,99.3h-1v1.1h1V99.3z M157,100.7h-1v1.1h1V100.7z M156.7,95.9c2.3,0.4,1.4,2,0.6,1.4
		c0-0.5-0.4-1-0.7-1.3L156.7,95.9z M157,103.2c0.7,0.7,1.7,1.3,2.8,1.7c0.8-0.5,1.5-1.1,2.1-1.7H157z M161.1,97.9v1h1.1v-1H161.1z
		 M162.2,99.3h-1.1v1.1h1.1V99.3z M162.2,100.7h-1.1v1.1h1.1V100.7z M161.9,95.9c2.3,0.4,1.4,2,0.6,1.4c0-0.4-0.4-1-0.7-1.3
		L161.9,95.9z"/>
	<path class="st1" d="M160.3,108.3c0,0.2-0.1,0.3-0.4,0.3c0.3,4.5,1.4,7.4,5.5,9.1l0,0.1c-0.6,0.1-1,0.5-1.1,1.1
		c-3.1-1.7-4.1-4.5-4.4-8.2c-0.2,3-1.1,6.1-5.5,8.3l-0.1-0.2c4.6-3.1,4.5-7,4.5-10.7L160.3,108.3z"/>
	<path class="st1" d="M156.3,124.9c0,2-0.1,4.5-2.1,6.2L154,131c1.1-1.8,1.2-4.1,1.2-6.1v-3.5l1.3,0.5h3.8c-0.1,0-0.2-0.1-0.3-0.1
		c-0.2-0.6-0.7-1.4-1.2-1.8l0.1-0.1c2.4,0.3,2.4,1.8,1.7,2h2.8l0.7-0.9c0,0,0.8,0.6,1.2,1c0,0.1-0.2,0.2-0.3,0.2h-8.7V124.9z
		 M161.4,125.1c0.9,1.8,2.5,3.2,4.1,3.9l0,0.1c-0.4,0.1-0.8,0.4-1,1c-1.4-1-2.6-2.6-3.3-4.8v5.4c0,0.1-0.5,0.4-0.9,0.4h-0.2v-4.4
		c-0.9,1.5-2.3,2.8-4.1,3.7l-0.1-0.2c1.8-1.3,3-3.2,3.7-5.2h-2.7l-0.1-0.3h3.3v-2.2l1.6,0.2c0,0.2-0.1,0.3-0.5,0.3v1.7h2.1l0.6-0.8
		c0,0,0.7,0.6,1.2,1c0,0.1-0.2,0.2-0.3,0.2H161.4z"/>
</g>
</svg>
