<svg xmlns="http://www.w3.org/2000/svg" viewBox="0 0 429.72 219.2"><defs><style>.cls-1,.cls-2,.cls-4,.cls-5{fill:none;stroke:#898989;stroke-linecap:round;stroke-linejoin:round;}.cls-1,.cls-2{stroke-width:0.55px;}.cls-2{fill-rule:evenodd;}.cls-3{fill:#898989;}.cls-4{stroke-width:0.5px;}.cls-5{stroke-width:0.49px;}</style></defs><title>room</title><g id="圖層_1" data-name="圖層 1"><line class="cls-1" x1="200.78" y1="211.59" x2="2" y2="211.59"/><line class="cls-1" x1="177.87" y1="73.41" x2="117.26" y2="73.41"/><line class="cls-1" x1="109.16" y1="73.41" x2="58.6" y2="73.41"/><line class="cls-1" x1="200.78" y1="45.1" x2="10.1" y2="45.1"/><line class="cls-1" x1="115.87" y1="188.67" x2="170.76" y2="188.67"/><line class="cls-1" x1="115.87" y1="187.28" x2="171.17" y2="187.28"/><line class="cls-1" x1="115.87" y1="211.59" x2="200.78" y2="211.59"/><line class="cls-1" x1="102.45" y1="210.19" x2="102.45" y2="181.88"/><line class="cls-1" x1="95.66" y1="210.19" x2="95.66" y2="181.88"/><line class="cls-1" x1="88.95" y1="210.19" x2="88.95" y2="181.88"/><line class="cls-1" x1="82.16" y1="210.19" x2="82.16" y2="181.88"/><line class="cls-1" x1="75.46" y1="211.59" x2="75.46" y2="181.88"/><line class="cls-1" x1="115.87" y1="210.19" x2="115.87" y2="188.67"/><line class="cls-1" x1="129.36" y1="210.19" x2="129.36" y2="188.67"/><line class="cls-1" x1="122.66" y1="210.19" x2="122.66" y2="188.67"/><line class="cls-1" x1="136.16" y1="210.19" x2="136.16" y2="188.67"/><line class="cls-1" x1="75.46" y1="200.13" x2="164.46" y2="200.13"/><line class="cls-1" x1="157.67" y1="210.19" x2="157.67" y2="188.67"/><polygon class="cls-1" points="76.84 200.13 76.6 199.39 76.11 198.9 75.46 198.74 74.8 198.9 74.31 199.39 74.15 200.13 74.31 200.78 74.8 201.27 75.46 201.44 76.11 201.27 76.6 200.78 76.84 200.13"/><line class="cls-1" x1="177.87" y1="69.32" x2="177.87" y2="73.41"/><line class="cls-1" x1="176.57" y1="69.32" x2="176.57" y2="73.41"/><line class="cls-1" x1="299.19" y1="181.88" x2="273.58" y2="181.88"/><line class="cls-1" x1="288.39" y1="45.1" x2="247.98" y2="45.1"/><line class="cls-1" x1="247.98" y1="49.11" x2="288.39" y2="49.11"/><line class="cls-1" x1="299.19" y1="177.87" x2="299.19" y2="181.88"/><line class="cls-1" x1="300.58" y1="177.87" x2="300.58" y2="181.88"/><line class="cls-1" x1="315.39" y1="177.87" x2="315.39" y2="181.88"/><line class="cls-1" x1="314" y1="177.87" x2="314" y2="181.88"/><line class="cls-1" x1="299.19" y1="181.88" x2="315.39" y2="181.88"/><line class="cls-1" x1="300.58" y1="180.57" x2="314" y2="180.57"/><line class="cls-1" x1="300.58" y1="179.18" x2="314" y2="179.18"/><line class="cls-1" x1="299.19" y1="177.87" x2="315.39" y2="177.87"/><line class="cls-1" x1="315.39" y1="181.88" x2="367.9" y2="181.88"/><line class="cls-1" x1="315.39" y1="177.87" x2="367.9" y2="177.87"/><line class="cls-1" x1="177.87" y1="69.32" x2="117.26" y2="69.32"/><line class="cls-1" x1="109.16" y1="69.32" x2="58.6" y2="69.32"/><polyline class="cls-1" points="199.47 73.41 199.47 69.32 200.78 69.32"/><line class="cls-1" x1="199.47" y1="73.41" x2="200.78" y2="73.41"/><line class="cls-1" x1="176.57" y1="70.71" x2="141.47" y2="70.71"/><line class="cls-1" x1="140.16" y1="70.71" x2="118.57" y2="70.71"/><line class="cls-1" x1="107.77" y1="70.71" x2="84.54" y2="70.71"/><line class="cls-1" x1="176.57" y1="72.02" x2="141.47" y2="72.02"/><line class="cls-1" x1="140.16" y1="72.02" x2="118.57" y2="72.02"/><line class="cls-1" x1="107.77" y1="72.02" x2="84.54" y2="72.02"/><line class="cls-1" x1="115.87" y1="187.28" x2="115.87" y2="188.67"/><line class="cls-1" x1="75.46" y1="210.19" x2="164.46" y2="210.19"/><polyline class="cls-1" points="277.68 211.59 281.03 211.59 281.03 218.3"/><line class="cls-1" x1="247.98" y1="73.41" x2="247.98" y2="22.85"/><polyline class="cls-1" points="241.27 73.41 241.27 22.85 247.98 22.85"/><polyline class="cls-1" points="207.57 73.41 200.78 73.41 200.78 22.85"/><polyline class="cls-1" points="207.57 73.41 207.57 22.85 200.78 22.85"/><line class="cls-1" x1="241.27" y1="22.85" x2="207.57" y2="22.85"/><line class="cls-1" x1="207.57" y1="26.94" x2="223.68" y2="26.94"/><line class="cls-1" x1="207.57" y1="33.65" x2="223.68" y2="33.65"/><polyline class="cls-1" points="223.69 36.84 227.77 36.84 227.77 22.85"/><polyline class="cls-1" points="223.69 26.94 223.69 36.84 207.57 36.84"/><line class="cls-1" x1="107.77" y1="69.32" x2="107.77" y2="73.41"/><line class="cls-1" x1="284.39" y1="1.26" x2="427.95" y2="1.26"/><polyline class="cls-1" points="423.86 5.35 288.39 5.35 288.39 45.1"/><line class="cls-1" x1="284.39" y1="45.1" x2="284.39" y2="1.26"/><line class="cls-1" x1="376.01" y1="65.96" x2="427.95" y2="65.96"/><line class="cls-1" x1="376.01" y1="61.95" x2="423.86" y2="61.95"/><line class="cls-1" x1="247.98" y1="34.96" x2="284.39" y2="34.96"/><line class="cls-1" x1="277.68" y1="183.27" x2="273.58" y2="183.27"/><line class="cls-1" x1="239.88" y1="36.84" x2="239.88" y2="32.83"/><line class="cls-1" x1="227.77" y1="36.84" x2="241.27" y2="36.84"/><line class="cls-1" x1="227.77" y1="32.83" x2="241.27" y2="32.83"/><line class="cls-1" x1="229.08" y1="32.83" x2="229.08" y2="36.84"/><line class="cls-1" x1="239.88" y1="35.53" x2="229.08" y2="35.53"/><line class="cls-1" x1="239.88" y1="34.14" x2="229.08" y2="34.14"/><line class="cls-1" x1="118.57" y1="69.32" x2="118.57" y2="73.41"/><line class="cls-1" x1="140.16" y1="69.32" x2="140.16" y2="73.41"/><line class="cls-1" x1="141.47" y1="69.32" x2="141.47" y2="73.41"/><line class="cls-1" x1="117.26" y1="69.32" x2="117.26" y2="73.41"/><rect class="cls-1" x="177.87" y="70.05" width="1.39" height="2.7"/><path class="cls-1" d="M198.08,53.12l-2.37.08A18.94,18.94,0,0,0,179.51,69l-.25,2.37"/><line class="cls-1" x1="207.57" y1="211.59" x2="207.57" y2="188.67"/><line class="cls-1" x1="214.28" y1="211.59" x2="214.28" y2="188.67"/><line class="cls-1" x1="221.07" y1="211.59" x2="221.07" y2="188.67"/><line class="cls-1" x1="227.77" y1="211.59" x2="227.77" y2="188.67"/><line class="cls-1" x1="234.48" y1="211.59" x2="234.48" y2="188.67"/><line class="cls-1" x1="241.27" y1="211.59" x2="241.27" y2="188.67"/><line class="cls-1" x1="241.27" y1="187.28" x2="241.27" y2="181.88"/><polygon class="cls-1" points="242.58 200.13 242.42 199.39 241.93 198.9 241.27 198.74 240.53 198.9 240.04 199.39 239.88 200.13 240.04 200.78 240.53 201.27 241.27 201.44 241.93 201.27 242.42 200.78 242.58 200.13"/><line class="cls-1" x1="242.58" y1="188.67" x2="204.87" y2="188.67"/><line class="cls-1" x1="241.27" y1="187.28" x2="200.78" y2="187.28"/><line class="cls-1" x1="200.78" y1="211.59" x2="200.78" y2="215.6"/><line class="cls-1" x1="273.58" y1="211.59" x2="277.68" y2="211.59"/><line class="cls-1" x1="277.68" y1="183.27" x2="273.58" y2="183.27"/><line class="cls-1" x1="273.58" y1="181.88" x2="273.58" y2="215.6"/><line class="cls-1" x1="274.98" y1="183.27" x2="274.98" y2="211.59"/><line class="cls-1" x1="277.68" y1="181.88" x2="277.68" y2="211.59"/><line class="cls-1" x1="276.28" y1="183.27" x2="276.28" y2="211.59"/><line class="cls-1" x1="274.98" y1="211.59" x2="273.58" y2="211.59"/><line class="cls-1" x1="200.78" y1="211.59" x2="273.58" y2="211.59"/><line class="cls-1" x1="273.58" y1="212.89" x2="253.38" y2="212.89"/><line class="cls-1" x1="252.07" y1="212.89" x2="225.08" y2="212.89"/><line class="cls-1" x1="223.68" y1="212.89" x2="204.87" y2="212.89"/><line class="cls-1" x1="273.58" y1="215.6" x2="200.78" y2="215.6"/><line class="cls-1" x1="273.58" y1="214.29" x2="253.38" y2="214.29"/><line class="cls-1" x1="252.07" y1="214.29" x2="225.08" y2="214.29"/><line class="cls-1" x1="223.68" y1="214.29" x2="204.87" y2="214.29"/><line class="cls-1" x1="253.38" y1="211.59" x2="253.38" y2="215.6"/><line class="cls-1" x1="252.07" y1="211.59" x2="252.07" y2="215.6"/><line class="cls-1" x1="223.68" y1="211.59" x2="223.68" y2="215.6"/><line class="cls-1" x1="225.08" y1="211.59" x2="225.08" y2="215.6"/><line class="cls-1" x1="231.78" y1="187.28" x2="231.78" y2="181.88"/><line class="cls-1" x1="277.68" y1="181.88" x2="277.68" y2="214.29"/><line class="cls-1" x1="277.68" y1="215.6" x2="273.58" y2="215.6"/><line class="cls-1" x1="177.87" y1="211.59" x2="177.87" y2="209.7"/><line class="cls-1" x1="177.87" y1="208.56" x2="177.87" y2="206.43"/><line class="cls-1" x1="177.87" y1="205.36" x2="177.87" y2="203.24"/><line class="cls-1" x1="177.87" y1="202.09" x2="177.87" y2="199.96"/><line class="cls-1" x1="177.87" y1="198.9" x2="177.87" y2="196.69"/><line class="cls-1" x1="177.87" y1="195.63" x2="177.87" y2="193.5"/><line class="cls-1" x1="177.87" y1="192.43" x2="177.87" y2="190.23"/><line class="cls-1" x1="177.87" y1="189.16" x2="177.87" y2="187.28"/><line class="cls-1" x1="184.67" y1="211.59" x2="184.67" y2="209.7"/><line class="cls-1" x1="184.67" y1="208.56" x2="184.67" y2="206.43"/><line class="cls-1" x1="184.67" y1="205.36" x2="184.67" y2="203.24"/><line class="cls-1" x1="184.67" y1="202.09" x2="184.67" y2="199.96"/><line class="cls-1" x1="184.67" y1="198.9" x2="184.67" y2="196.69"/><line class="cls-1" x1="184.67" y1="195.63" x2="184.67" y2="193.5"/><line class="cls-1" x1="184.67" y1="192.43" x2="184.67" y2="190.23"/><line class="cls-1" x1="184.67" y1="189.16" x2="184.67" y2="187.28"/><line class="cls-1" x1="191.37" y1="211.59" x2="191.37" y2="209.7"/><line class="cls-1" x1="191.37" y1="208.56" x2="191.37" y2="206.43"/><line class="cls-1" x1="191.37" y1="205.36" x2="191.37" y2="203.24"/><line class="cls-1" x1="191.37" y1="202.09" x2="191.37" y2="199.96"/><line class="cls-1" x1="191.37" y1="198.9" x2="191.37" y2="196.69"/><line class="cls-1" x1="191.37" y1="195.63" x2="191.37" y2="193.5"/><line class="cls-1" x1="191.37" y1="192.43" x2="191.37" y2="190.23"/><line class="cls-1" x1="191.37" y1="189.16" x2="191.37" y2="187.28"/><line class="cls-1" x1="198.08" y1="211.59" x2="198.08" y2="209.7"/><line class="cls-1" x1="198.08" y1="208.56" x2="198.08" y2="206.43"/><line class="cls-1" x1="198.08" y1="205.36" x2="198.08" y2="203.24"/><line class="cls-1" x1="198.08" y1="202.09" x2="198.08" y2="199.96"/><line class="cls-1" x1="198.08" y1="198.9" x2="198.08" y2="196.69"/><line class="cls-1" x1="198.08" y1="195.63" x2="198.08" y2="193.5"/><line class="cls-1" x1="198.08" y1="192.43" x2="198.08" y2="190.23"/><line class="cls-1" x1="198.08" y1="189.16" x2="198.08" y2="187.28"/><line class="cls-1" x1="164.46" y1="210.19" x2="164.46" y2="188.67"/><line class="cls-1" x1="171.17" y1="211.59" x2="171.17" y2="209.7"/><line class="cls-1" x1="171.17" y1="208.56" x2="171.17" y2="206.43"/><line class="cls-1" x1="171.17" y1="205.36" x2="171.17" y2="203.24"/><line class="cls-1" x1="171.17" y1="202.09" x2="171.17" y2="199.96"/><line class="cls-1" x1="171.17" y1="198.9" x2="171.17" y2="196.69"/><line class="cls-1" x1="171.17" y1="195.63" x2="171.17" y2="193.5"/><line class="cls-1" x1="171.17" y1="192.43" x2="171.17" y2="190.23"/><line class="cls-1" x1="171.17" y1="189.16" x2="171.17" y2="187.28"/><polyline class="cls-1" points="161.92 200.86 164.46 200.13 161.92 199.31"/><polyline class="cls-1" points="207.4 200.86 204.87 200.13 207.4 199.31"/><polyline class="cls-1" points="171.17 187.28 167.57 199.39 166.01 199.39"/><polyline class="cls-1" points="166.83 202.09 168.39 202.09 166.01 199.39"/><line class="cls-1" x1="166.83" y1="202.09" x2="164.05" y2="211.59"/><line class="cls-1" x1="200.78" y1="49.11" x2="10.1" y2="49.11"/><line class="cls-1" x1="2" y1="35.7" x2="10.1" y2="35.7"/><polyline class="cls-1" points="200.78 22.85 10.1 22.85 10.1 35.7"/><line class="cls-1" x1="277.68" y1="214.29" x2="277.68" y2="218.3"/><rect class="cls-1" x="50.51" y="168.38" width="8.1" height="13.5"/><rect class="cls-1" x="50.51" y="69.32" width="8.1" height="13.49"/><rect class="cls-1" x="109.16" y="69.32" width="8.1" height="13.49"/><line class="cls-1" x1="372" y1="156.28" x2="372" y2="168.38"/><line class="cls-1" x1="376.01" y1="168.38" x2="376.01" y2="156.28"/><polyline class="cls-1" points="376 165.76 381.4 165.76 381.4 65.96"/><line class="cls-1" x1="423.86" y1="61.95" x2="423.86" y2="5.35"/><line class="cls-1" x1="376.01" y1="140.08" x2="376.01" y2="45.1"/><line class="cls-1" x1="372" y1="140.08" x2="372" y2="58.6"/><rect class="cls-1" x="367.9" y="168.38" width="8.1" height="13.5"/><line class="cls-1" x1="2" y1="83.88" x2="2" y2="79.62"/><polyline class="cls-1" points="280.54 218.3 277.68 218.3 277.68 213.14"/><line class="cls-1" x1="277.68" y1="210.93" x2="277.68" y2="206.67"/><line class="cls-1" x1="277.68" y1="204.47" x2="277.68" y2="200.13"/><line class="cls-1" x1="277.68" y1="198" x2="277.68" y2="193.66"/><line class="cls-1" x1="277.68" y1="191.54" x2="277.68" y2="187.2"/><path class="cls-1" d="M204.87,183.27h0Z"/><line class="cls-1" x1="204.87" y1="200.13" x2="241.27" y2="200.13"/><line class="cls-1" x1="203.48" y1="183.27" x2="203.48" y2="211.59"/><line class="cls-1" x1="202.17" y1="183.27" x2="202.17" y2="211.59"/><line class="cls-1" x1="200.78" y1="181.88" x2="200.78" y2="211.59"/><line class="cls-1" x1="204.87" y1="181.88" x2="204.87" y2="215.6"/><line class="cls-1" x1="200.78" y1="187.28" x2="199.47" y2="187.28"/><line class="cls-1" x1="198.41" y1="187.28" x2="196.2" y2="187.28"/><line class="cls-1" x1="195.14" y1="187.28" x2="193.01" y2="187.28"/><line class="cls-1" x1="191.95" y1="187.28" x2="189.74" y2="187.28"/><line class="cls-1" x1="188.68" y1="187.28" x2="186.55" y2="187.28"/><line class="cls-1" x1="185.48" y1="187.28" x2="183.27" y2="187.28"/><line class="cls-1" x1="182.21" y1="187.28" x2="180.08" y2="187.28"/><line class="cls-1" x1="178.94" y1="187.28" x2="176.81" y2="187.28"/><line class="cls-1" x1="175.75" y1="187.28" x2="173.62" y2="187.28"/><line class="cls-1" x1="172.48" y1="187.28" x2="171.17" y2="187.28"/><line class="cls-1" x1="242.58" y1="188.67" x2="242.58" y2="181.88"/><line class="cls-1" x1="10.1" y1="80.12" x2="10.1" y2="77.83"/><polyline class="cls-1" points="2 77.83 2 80.11 3.88 80.11"/><line class="cls-1" x1="4.94" y1="80.12" x2="7.15" y2="80.12"/><line class="cls-1" x1="8.22" y1="80.12" x2="10.1" y2="80.12"/><line class="cls-1" x1="10.1" y1="181.88" x2="10.1" y2="180.57"/><polyline class="cls-1" points="10.1 169.77 10.1 168.38 8.22 168.38"/><line class="cls-1" x1="7.15" y1="168.38" x2="4.94" y2="168.38"/><polyline class="cls-1" points="3.88 168.38 2 168.38 2 169.77"/><polyline class="cls-1" points="2 180.57 2 181.88 3.88 181.88"/><line class="cls-1" x1="4.94" y1="181.88" x2="7.15" y2="181.88"/><line class="cls-1" x1="8.22" y1="181.88" x2="10.1" y2="181.88"/><line class="cls-1" x1="358.5" y1="47.8" x2="337.64" y2="47.8"/><line class="cls-1" x1="336.25" y1="47.8" x2="313.34" y2="47.8"/><line class="cls-1" x1="312.03" y1="47.8" x2="289.78" y2="47.8"/><line class="cls-1" x1="359.89" y1="49.11" x2="288.39" y2="49.11"/><line class="cls-1" x1="358.5" y1="46.41" x2="337.64" y2="46.41"/><line class="cls-1" x1="336.25" y1="46.41" x2="313.34" y2="46.41"/><line class="cls-1" x1="312.03" y1="46.41" x2="289.78" y2="46.41"/><line class="cls-1" x1="359.89" y1="45.1" x2="288.39" y2="45.1"/><line class="cls-1" x1="289.78" y1="49.11" x2="289.78" y2="45.1"/><line class="cls-1" x1="288.39" y1="49.11" x2="288.39" y2="45.1"/><line class="cls-1" x1="313.34" y1="49.11" x2="313.34" y2="45.1"/><line class="cls-1" x1="312.03" y1="49.11" x2="312.03" y2="45.1"/><line class="cls-1" x1="337.64" y1="49.11" x2="337.64" y2="45.1"/><line class="cls-1" x1="336.25" y1="49.11" x2="336.25" y2="45.1"/><line class="cls-1" x1="359.89" y1="49.11" x2="359.89" y2="45.1"/><line class="cls-1" x1="358.5" y1="49.11" x2="358.5" y2="45.1"/><line class="cls-1" x1="60" y1="69.32" x2="60" y2="73.41"/><line class="cls-1" x1="83.23" y1="72.02" x2="60" y2="72.02"/><line class="cls-1" x1="83.23" y1="70.71" x2="60" y2="70.71"/><line class="cls-1" x1="376.01" y1="45.1" x2="359.89" y2="45.1"/><line class="cls-1" x1="367.9" y1="49.11" x2="359.89" y2="49.11"/><line class="cls-1" x1="241.27" y1="73.41" x2="247.98" y2="73.41"/><rect class="cls-1" x="249.37" y="179.02" width="1.26" height="2.45"/><rect class="cls-1" x="270.2" y="179.02" width="1.27" height="2.45"/><path class="cls-1" d="M250.64,179V159.38l2.38.15a19.6,19.6,0,0,1,17,17.11l.15,2.38"/><line class="cls-1" x1="58.6" y1="177.87" x2="109.16" y2="177.87"/><polyline class="cls-1" points="249.37 168.38 249.37 181.88 241.27 181.88"/><polyline class="cls-1" points="249.37 168.38 241.27 168.38 241.27 181.88"/><line class="cls-1" x1="58.6" y1="181.88" x2="109.16" y2="181.88"/><line class="cls-1" x1="149.57" y1="173.78" x2="136.16" y2="173.78"/><line class="cls-1" x1="149.57" y1="177.87" x2="136.16" y2="177.87"/><line class="cls-1" x1="148.26" y1="173.78" x2="148.26" y2="177.87"/><line class="cls-1" x1="148.26" y1="175.17" x2="137.47" y2="175.17"/><line class="cls-1" x1="148.26" y1="176.48" x2="137.47" y2="176.48"/><line class="cls-1" x1="137.47" y1="173.78" x2="137.47" y2="177.87"/><rect class="cls-1" x="109.16" y="165.76" width="12.11" height="16.12"/><line class="cls-1" x1="117.26" y1="181.88" x2="136.16" y2="181.88"/><line class="cls-1" x1="121.27" y1="177.87" x2="132.07" y2="177.87"/><line class="cls-1" x1="136.16" y1="181.88" x2="136.16" y2="173.78"/><line class="cls-1" x1="132.07" y1="177.87" x2="132.07" y2="173.78"/><polygon class="cls-1" points="149.57 173.78 149.57 181.88 173.87 181.88 173.87 173.78 169.78 173.78 169.78 177.87 153.66 177.87 153.66 173.78 149.57 173.78"/><polyline class="cls-1" points="241.27 181.88 225.08 181.88 225.08 173.78 229.08 173.78 229.08 177.87 241.27 177.87"/><line class="cls-1" x1="187.36" y1="173.78" x2="173.87" y2="173.78"/><line class="cls-1" x1="187.36" y1="177.87" x2="173.87" y2="177.87"/><line class="cls-1" x1="185.97" y1="173.78" x2="185.97" y2="177.87"/><line class="cls-1" x1="185.97" y1="175.17" x2="175.17" y2="175.17"/><line class="cls-1" x1="185.97" y1="176.48" x2="175.17" y2="176.48"/><line class="cls-1" x1="175.17" y1="173.78" x2="175.17" y2="177.87"/><polygon class="cls-1" points="187.37 173.78 187.37 181.88 211.58 181.88 211.58 173.78 207.57 173.78 207.57 177.87 191.37 177.87 191.37 173.78 187.37 173.78"/><line class="cls-1" x1="225.08" y1="173.78" x2="211.58" y2="173.78"/><line class="cls-1" x1="225.08" y1="177.87" x2="211.58" y2="177.87"/><line class="cls-1" x1="223.68" y1="173.78" x2="223.68" y2="177.87"/><line class="cls-1" x1="223.68" y1="175.17" x2="212.97" y2="175.17"/><line class="cls-1" x1="223.68" y1="176.48" x2="212.97" y2="176.48"/><line class="cls-1" x1="212.97" y1="173.78" x2="212.97" y2="177.87"/><line class="cls-1" x1="136.16" y1="173.78" x2="132.07" y2="173.78"/><line class="cls-1" x1="372" y1="156.28" x2="372" y2="140.08"/><line class="cls-1" x1="373.3" y1="154.97" x2="373.3" y2="141.47"/><line class="cls-1" x1="374.69" y1="154.97" x2="374.69" y2="141.47"/><line class="cls-1" x1="376.01" y1="156.28" x2="376.01" y2="140.08"/><line class="cls-1" x1="376.01" y1="154.97" x2="372" y2="154.97"/><line class="cls-1" x1="372" y1="140.08" x2="376.01" y2="140.08"/><line class="cls-1" x1="372" y1="141.47" x2="376.01" y2="141.47"/><line class="cls-1" x1="376.01" y1="156.28" x2="372" y2="156.28"/><rect class="cls-1" x="367.9" y="45.1" width="8.1" height="13.5"/><line class="cls-1" x1="84.54" y1="69.32" x2="84.54" y2="73.41"/><line class="cls-1" x1="83.23" y1="69.32" x2="83.23" y2="73.41"/><line class="cls-1" x1="372" y1="140.08" x2="376.01" y2="140.08"/><line class="cls-1" x1="249.37" y1="181.88" x2="249.37" y2="181.8"/><line class="cls-1" x1="54.51" y1="49.1" x2="54.51" y2="69.31"/><line class="cls-1" x1="50.51" y1="49.1" x2="50.51" y2="69.31"/><line class="cls-1" x1="372" y1="164.62" x2="372" y2="168.87"/><polyline class="cls-2" points="372.89 168.55 372.81 168.06 372 168.55"/><polyline class="cls-2" points="372.81 168.06 372.49 167.73 372 168.55"/><polyline class="cls-2" points="372.49 167.73 372 167.65 372 168.55"/><polyline class="cls-2" points="372 167.65 371.5 167.73 372 168.55"/><polyline class="cls-2" points="371.5 167.73 371.18 168.06 372 168.55"/><polyline class="cls-2" points="371.18 168.06 371.01 168.55 372 168.55"/><polyline class="cls-2" points="371.01 168.55 371.18 169.04 372 168.55"/><polyline class="cls-2" points="371.18 169.04 371.5 169.37 372 168.55"/><polyline class="cls-2" points="371.5 169.37 372 169.53 372 168.55"/><polyline class="cls-2" points="372 169.53 372.49 169.37 372 168.55"/><polyline class="cls-2" points="372.49 169.37 372.81 169.04 372 168.55"/><polyline class="cls-2" points="372.81 169.04 372.89 168.55 372 168.55"/><line class="cls-1" x1="371.01" y1="168.55" x2="370.11" y2="168.55"/><polyline class="cls-1" points="247.98 62.61 288.39 62.61 288.39 49.11"/><polyline class="cls-1" points="10.1 113.82 50.51 113.82 50.51 82.81"/><line class="cls-1" x1="177.87" y1="73.41" x2="174.68" y2="73.41"/><line class="cls-1" x1="10.1" y1="35.7" x2="10.1" y2="211.58"/><line class="cls-1" x1="2" y1="35.7" x2="2" y2="218.3"/><rect class="cls-1" x="198.08" y="53.12" width="1.39" height="19.63"/><line class="cls-1" x1="271.54" y1="178.69" x2="299.19" y2="178.69"/><line class="cls-1" x1="273.58" y1="181.88" x2="271.54" y2="181.88"/><line class="cls-1" x1="427.95" y1="1.26" x2="427.95" y2="65.96"/><rect class="cls-1" x="244.63" y="125.43" width="4.75" height="42.95"/><line class="cls-1" x1="40.11" y1="155.44" x2="43.3" y2="155.44"/><line class="cls-1" x1="40.11" y1="161.82" x2="43.3" y2="161.82"/><line class="cls-1" x1="40.11" y1="162.31" x2="43.87" y2="162.31"/><line class="cls-1" x1="40.11" y1="154.95" x2="43.87" y2="154.95"/><line class="cls-1" x1="40.11" y1="153.56" x2="50.5" y2="153.56"/><line class="cls-1" x1="40.11" y1="163.7" x2="50.5" y2="163.7"/><line class="cls-1" x1="42.08" y1="159.94" x2="43.79" y2="159.94"/><line class="cls-1" x1="43.79" y1="157.32" x2="42.08" y2="157.32"/><polyline class="cls-1" points="41.75 159.78 41.91 159.94 42.08 159.94"/><polyline class="cls-1" points="42.08 157.32 41.91 157.32 41.83 157.41 41.59 157.65 41.42 157.9 41.34 158.22 41.26 158.47 41.26 158.8 41.34 159.04 41.42 159.37 41.59 159.61 41.75 159.78"/><path class="cls-1" d="M40.11,155.44l-.57.08a3.2,3.2,0,0,0,0,6.22l.57.08"/><path class="cls-1" d="M40.11,155l-.65.08a3.7,3.7,0,0,0,0,7.2l.65.08"/><path class="cls-1" d="M40.11,153.56l-.9.08a5.13,5.13,0,0,0,0,10l.9.08"/><polyline class="cls-1" points="43.79 159.94 44.04 159.94 44.2 159.86 44.37 159.69 44.45 159.53 44.53 159.45 44.53 159.29"/><polyline class="cls-1" points="44.53 157.98 44.53 157.81 44.45 157.73 44.37 157.57 44.2 157.41 44.04 157.32 43.79 157.32"/><polyline class="cls-1" points="44.53 159.29 44.61 158.63 44.53 157.98"/><polyline class="cls-1" points="43.3 161.82 43.63 161.82 43.87 161.74 44.37 161.41 44.61 161.17 44.77 160.92 44.86 160.68 44.94 160.35"/><path class="cls-1" d="M43.87,162.31h.33a2.05,2.05,0,0,0,1.23-1.06l.08-.33"/><path class="cls-1" d="M44.94,156.91l-.08-.32a1.51,1.51,0,0,0-1.23-1.07l-.33-.08"/><path class="cls-1" d="M45.51,156.34l-.08-.24A1.65,1.65,0,0,0,44.2,155l-.33-.08"/><polyline class="cls-1" points="44.94 160.35 45.02 158.63 44.94 156.91"/><polyline class="cls-1" points="45.51 160.92 45.68 158.63 45.51 156.34"/><line class="cls-1" x1="46.58" y1="156.59" x2="46.41" y2="156.59"/><line class="cls-1" x1="46.58" y1="160.76" x2="46.41" y2="160.76"/><path class="cls-1" d="M40.11,153.56l-.9.08a5.13,5.13,0,0,0,0,10l.9.08"/><rect class="cls-1" x="50.5" y="143.49" width="4.77" height="24.87"/><rect class="cls-1" x="10.1" y="177.83" width="40.41" height="4.06"/><line class="cls-1" x1="271.54" y1="178.69" x2="271.54" y2="181.79"/><line class="cls-1" x1="90.94" y1="176.28" x2="76.91" y2="176.28"/><line class="cls-1" x1="92.74" y1="165.72" x2="92.74" y2="174.4"/><line class="cls-1" x1="90.94" y1="163.94" x2="76.91" y2="163.94"/><line class="cls-1" x1="91.84" y1="174.31" x2="91.84" y2="165.82"/><line class="cls-1" x1="90.85" y1="164.92" x2="77" y2="164.92"/><line class="cls-1" x1="90.85" y1="175.2" x2="77" y2="175.2"/><line class="cls-1" x1="75.12" y1="174.4" x2="75.12" y2="165.72"/><line class="cls-1" x1="76.1" y1="165.82" x2="76.1" y2="174.31"/><polyline class="cls-1" points="90.86 175.21 91.39 175.12 91.66 174.76 91.84 174.31"/><polyline class="cls-1" points="91.84 165.82 91.66 165.37 91.39 165.01 90.86 164.92"/><polyline class="cls-1" points="92.74 165.72 92.65 165.01 92.2 164.47 91.57 164.03 90.94 163.94"/><polyline class="cls-1" points="90.94 176.28 91.57 176.1 92.2 175.74 92.65 175.12 92.74 174.4"/><polygon class="cls-1" points="83.88 173.69 84.24 173.59 84.6 173.24 84.69 172.88 84.6 172.53 84.24 172.16 83.88 172.07 83.44 172.16 83.17 172.53 83.08 172.88 83.17 173.24 83.44 173.59 83.88 173.69"/><polyline class="cls-1" points="91.39 166.26 91.22 165.82 90.94 165.46 90.41 165.37"/><polyline class="cls-1" points="77.44 165.37 79.95 165.91 82.63 166.26 85.22 166.26 87.91 165.91 90.41 165.37"/><polyline class="cls-1" points="77 164.92 76.55 165.01 76.19 165.37 76.1 165.82"/><polyline class="cls-1" points="76.1 174.31 76.19 174.76 76.55 175.12 77 175.21"/><polyline class="cls-1" points="75.12 174.4 75.2 175.12 75.66 175.74 76.19 176.1 76.91 176.28"/><polyline class="cls-1" points="76.91 163.94 76.19 164.03 75.66 164.47 75.2 165.01 75.12 165.72"/><polyline class="cls-1" points="77.44 165.37 76.91 165.46 76.64 165.82 76.46 166.26"/><line class="cls-1" x1="90.94" y1="176.28" x2="76.91" y2="176.28"/><line class="cls-1" x1="92.74" y1="165.72" x2="92.74" y2="174.4"/><line class="cls-1" x1="90.94" y1="163.94" x2="76.91" y2="163.94"/><line class="cls-1" x1="91.84" y1="174.31" x2="91.84" y2="165.82"/><line class="cls-1" x1="90.85" y1="164.92" x2="77" y2="164.92"/><line class="cls-1" x1="90.85" y1="175.2" x2="77" y2="175.2"/><line class="cls-1" x1="75.12" y1="174.4" x2="75.12" y2="165.72"/><line class="cls-1" x1="76.1" y1="165.82" x2="76.1" y2="174.31"/><polyline class="cls-1" points="90.86 175.21 91.39 175.12 91.66 174.76 91.84 174.31"/><polyline class="cls-1" points="91.84 165.82 91.66 165.37 91.39 165.01 90.86 164.92"/><polyline class="cls-1" points="92.74 165.72 92.65 165.01 92.2 164.47 91.57 164.03 90.94 163.94"/><polyline class="cls-1" points="90.94 176.28 91.57 176.1 92.2 175.74 92.65 175.12 92.74 174.4"/><polygon class="cls-1" points="83.88 173.69 84.24 173.59 84.6 173.24 84.69 172.88 84.6 172.53 84.24 172.16 83.88 172.07 83.44 172.16 83.17 172.53 83.08 172.88 83.17 173.24 83.44 173.59 83.88 173.69"/><polyline class="cls-1" points="77 164.92 76.55 165.01 76.19 165.37 76.1 165.82"/><polyline class="cls-1" points="76.1 174.31 76.19 174.76 76.55 175.12 77 175.21"/><polyline class="cls-1" points="75.12 174.4 75.2 175.12 75.66 175.74 76.19 176.1 76.91 176.28"/><polyline class="cls-1" points="76.91 163.94 76.19 164.03 75.66 164.47 75.2 165.01 75.12 165.72"/><rect class="cls-1" x="58.6" y="162.35" width="50.55" height="15.51"/><rect class="cls-1" x="207.57" y="69.31" width="33.7" height="4.09"/><path class="cls-3" d="M79.25,109.39c2.35.35,1.65,2,.8,1.43a2.89,2.89,0,0,0-.89-1.35Zm2.87-.56c-.4,1.27-1.16,3.61-1.29,4.14a3.81,3.81,0,0,0-.15.92,10.31,10.31,0,0,1,.33,1.76c0,.48-.28.77-.69.77-.21,0-.39-.16-.43-.51.16-1,.11-1.9-.12-2.06a1,1,0,0,0-.5-.15v-.21h.44c.13,0,.17,0,.27-.2.19-.37.19-.37,2-4.51ZM80,107.24c2.45.41,1.73,2.12.85,1.54a3.38,3.38,0,0,0-.94-1.47Zm5.88,2.1c0,.12-.14.18-.41.2a7,7,0,0,0,3.34,2.5l0,.14A1.08,1.08,0,0,0,88,113l-.31-.2a.67.67,0,0,1-.38.17v3.14a1.13,1.13,0,0,1-.77.22h-.16v-.75H83.65v.6c0,.07-.28.23-.75.23h-.16v-4a9.81,9.81,0,0,1-1.37.83l-.07-.12A9.32,9.32,0,0,0,84.4,109Zm-3.91.73a9.09,9.09,0,0,0,1.63-2.85l1.25.58c-.06.1-.14.16-.38.13a8.07,8.07,0,0,1-2.4,2.26Zm5.19,2.28a6.49,6.49,0,0,1-1.84-2.69,8.22,8.22,0,0,1-2.37,2.63l.86.34h2.59l.45-.52Zm-.72,3v-2.39H83.65v2.39Zm-.76-8c3.35.87,2.84,3,1.79,2.41a7.47,7.47,0,0,0-1.89-2.33Z"/><path class="cls-3" d="M87.34,127s.67.51,1.09.87c0,.11-.13.16-.28.16H79.39l-.09-.29h4v-1.49H80.42l-.08-.29h3v-1.41l1.34.11c0,.15-.09.24-.34.28v1h1.49l.57-.69s.64.48,1,.82c0,.12-.13.16-.27.16H84.34v1.49h2.4Zm-6.6-6.2a1.44,1.44,0,0,1-.53,1.34.5.5,0,1,1-.5-.83,1.46,1.46,0,0,0,.7-1.31h.15a2.89,2.89,0,0,1,.14.52h3.24a.62.62,0,0,1-.27-.11,2.06,2.06,0,0,0-.74-1.17l.08-.07c1.9,0,1.75,1.24,1.12,1.35H87l.52-.53.92.89a.52.52,0,0,1-.38.12,5.8,5.8,0,0,1-1,1l-.11-.06c0-.3.11-.75.14-1.11ZM80.46,124a1.37,1.37,0,0,0,.31-.08A7.28,7.28,0,0,0,83,122.15H80.71l-.08-.29h4.9l.54-.64s.61.44,1,.77c0,.11-.13.16-.26.16H83.57l.78.41a.34.34,0,0,1-.39.12A13,13,0,0,1,81.45,124c1.11,0,2.81,0,4.6-.12a7.89,7.89,0,0,0-1-1l.1-.08c3,.67,2.51,2.59,1.53,2.07a4.1,4.1,0,0,0-.5-.82c-1.21.2-3,.46-5,.7a.6.6,0,0,1-.28.27Z"/><path class="cls-3" d="M308.18,146.81s.6.5.94.85c0,.11-.11.16-.26.16h-1.7v.65c2.41.83,1.68,2.39.89,1.78a4.3,4.3,0,0,0-.89-1.53v4.56a1,1,0,0,1-.77.29h-.16v-4a8.22,8.22,0,0,1-1.92,2.33l-.12-.12a10.74,10.74,0,0,0,1.76-4h-1.57l-.08-.29h1.93v-1.85c-.64.11-1.29.19-1.92.24l0-.15a18.4,18.4,0,0,0,3.67-1.47l1,.94c-.11.09-.31.1-.59,0-.34.1-.77.19-1.23.28v2h.49Zm5.16-.67a.78.78,0,0,1-.44.22v6.18a1.53,1.53,0,0,1-.8.25H312v-1h-1.79v.87c0,.11-.37.34-.76.34h-.16v-7.51l1,.42h1.64l.48-.53ZM312,151.47v-5.3h-1.79v5.3Z"/><path class="cls-3" d="M322.38,152.11s.67.51,1.09.87c0,.11-.13.16-.28.16h-8.75l-.09-.29h4v-1.49h-2.92l-.08-.29h3v-1.42l1.33.11c0,.15-.09.24-.34.28v1h1.49l.57-.7s.64.48,1.05.83c0,.11-.13.16-.27.16h-2.84v1.49h2.4Zm-6.59-6.21a1.44,1.44,0,0,1-.53,1.34.5.5,0,1,1-.5-.83,1.46,1.46,0,0,0,.7-1.31h.15a2.89,2.89,0,0,1,.14.52H319a.62.62,0,0,1-.27-.11,2.06,2.06,0,0,0-.74-1.17l.08-.07c1.89,0,1.74,1.24,1.12,1.35h2.88l.52-.53.92.89a.52.52,0,0,1-.38.12,5.8,5.8,0,0,1-1,1L322,147c.05-.3.11-.75.14-1.11Zm-.28,3.18a1.37,1.37,0,0,0,.31-.08,7.28,7.28,0,0,0,2.23-1.72h-2.29l-.08-.29h4.89l.54-.64s.61.44,1,.77c0,.11-.13.16-.26.16h-3.23l.79.41a.35.35,0,0,1-.39.12,13,13,0,0,1-2.51,1.31c1.11,0,2.81-.05,4.59-.12a7.89,7.89,0,0,0-1-1l.1-.08c3,.67,2.51,2.59,1.53,2.07a4.1,4.1,0,0,0-.5-.82c-1.21.2-3,.46-5,.7a.6.6,0,0,1-.28.27Z"/><path class="cls-3" d="M326.48,147.69c.93.52,1.13,1.13,1,1.47,2,.35,1.34,1.93.67,1.35a2.82,2.82,0,0,0-.74-1.22c-.12.18-.35.22-.57,0a3.63,3.63,0,0,0-.39-1.21v5.17c0,.11-.37.32-.69.32h-.18V149.4a8.05,8.05,0,0,1-1.29,1.88l-.14-.12a11.72,11.72,0,0,0,1.33-4.19h-1.14l-.08-.29h1.32v-2.44l1.23.13c0,.15-.1.24-.36.28v2h.15l.46-.65s.51.45.82.78c0,.11-.12.16-.26.16h-1.17Zm4,1.13a.62.62,0,0,1-.38.19v3.51c0,.59-.13,1-1.14,1.06a.91.91,0,0,0-.21-.58,1.46,1.46,0,0,0-.78-.29v-.15s.91.07,1.12.07.21-.06.21-.2V151c-.37.31-.81.7-1.38,1.14a.35.35,0,0,1-.17.27l-.62-.87c.39-.13,1.26-.48,2.17-.85v-1.79h-1.63l-.09-.29h1.61l.39-.45Zm-1.51-1.07c0,.09-.38.29-.73.29h-.13v-3.52l.91.39h2.8l.43-.47.91.7a.67.67,0,0,1-.37.18v2.33a1.21,1.21,0,0,1-.73.27h-.15V145.2h-2.94Zm.3-.54h1.38l.39-.5s.42.36.69.63c0,.11-.12.16-.26.16h-2.12Zm1.71-1.65s.43.36.69.63c0,.11-.11.16-.25.16h-2l-.08-.29h1.29Zm2.59,3.27a.65.65,0,0,1-.38.19v3.51c0,.59-.13,1-1.16,1.06a.86.86,0,0,0-.2-.58,1.46,1.46,0,0,0-.78-.29v-.15s.9.07,1.11.07.21-.06.21-.2V151c-.35.3-.78.7-1.35,1.14a.34.34,0,0,1-.18.27l-.62-.86c.39-.14,1.26-.48,2.15-.84v-1.77h-1.77l-.09-.29h1.77l.38-.45Zm-3,.35c2.07.23,1.46,1.84.77,1.3a2.65,2.65,0,0,0-.85-1.2Z"/><path class="cls-3" d="M336.48,147.69c.93.52,1.13,1.13,1,1.47,2,.35,1.34,1.93.67,1.35a2.82,2.82,0,0,0-.74-1.22c-.12.18-.35.22-.57,0a3.63,3.63,0,0,0-.39-1.21v5.17c0,.11-.37.32-.69.32h-.18V149.4a8.05,8.05,0,0,1-1.29,1.88l-.14-.12a11.72,11.72,0,0,0,1.33-4.19h-1.14l-.08-.29h1.32v-2.44l1.23.13c0,.15-.1.24-.36.28v2h.15l.46-.65s.51.45.82.78c0,.11-.12.16-.26.16h-1.17Zm4,1.13a.62.62,0,0,1-.38.19v3.51c0,.59-.13,1-1.14,1.06a.91.91,0,0,0-.21-.58,1.46,1.46,0,0,0-.78-.29v-.15s.91.07,1.12.07.21-.06.21-.2V151c-.37.31-.81.7-1.38,1.14a.35.35,0,0,1-.17.27l-.62-.87c.39-.13,1.26-.48,2.17-.85v-1.79h-1.63l-.09-.29h1.61l.39-.45Zm-1.51-1.07c0,.09-.38.29-.73.29h-.13v-3.52l.91.39h2.8l.43-.47.91.7a.67.67,0,0,1-.37.18v2.33a1.21,1.21,0,0,1-.73.27h-.15V145.2h-2.94Zm.3-.54h1.38l.39-.5s.42.36.69.63c0,.11-.12.16-.26.16h-2.12Zm1.71-1.65s.43.36.69.63c0,.11-.11.16-.25.16h-2l-.08-.29h1.29Zm2.59,3.27a.65.65,0,0,1-.38.19v3.51c0,.59-.13,1-1.16,1.06a.86.86,0,0,0-.2-.58,1.46,1.46,0,0,0-.78-.29v-.15s.9.07,1.11.07.21-.06.21-.2V151c-.35.3-.78.7-1.35,1.14a.34.34,0,0,1-.18.27l-.62-.86c.39-.14,1.26-.48,2.15-.84v-1.77h-1.77l-.09-.29h1.77l.38-.45Zm-3,.35c2.07.23,1.46,1.84.77,1.3a2.65,2.65,0,0,0-.85-1.2Z"/><path class="cls-3" d="M344.71,152.63a10.09,10.09,0,0,0,2.13-3.65l1.31.49c0,.12-.15.2-.42.2a8.4,8.4,0,0,1-2.92,3.06Zm7.18-5.27s.69.51,1.12.89c0,.11-.13.16-.27.16h-3.32v4.82c0,.11-.43.33-.81.33h-.21v-5.15h-3.54l-.09-.29h3.63v-3.85l1.38.15c0,.14-.1.23-.36.27v3.43h1.86Zm-6.35-2.47c3,1.27,2.28,3.36,1.28,2.6a7.67,7.67,0,0,0-1.39-2.53Zm4.45,4.28c3.53,1.72,2.86,4.06,1.77,3.25a10.22,10.22,0,0,0-1.89-3.18Zm2.61-3.83a.39.39,0,0,1-.41.17,8.29,8.29,0,0,1-2.06,2.11l-.12-.09a13.7,13.7,0,0,0,1.24-2.75Z"/><rect class="cls-1" x="298.98" y="75.74" width="60.61" height="63.05" transform="translate(436.55 -222.02) rotate(90)"/><line class="cls-1" x1="350.21" y1="76.96" x2="350.21" y2="137.57"/><line class="cls-1" x1="341.31" y1="76.96" x2="341.31" y2="137.57"/><rect class="cls-1" x="342.37" y="87.66" width="24.48" height="8.79" rx="0.93" transform="translate(446.67 -262.55) rotate(90)"/><rect class="cls-1" x="342.37" y="118" width="24.48" height="8.79" rx="0.92" transform="translate(477.01 -232.21) rotate(90)"/><rect class="cls-4" x="165.63" y="155.49" width="4.71" height="24.19" rx="0.55" transform="translate(335.57 -0.41) rotate(90)"/><rect class="cls-4" x="155.89" y="110.88" width="4.71" height="54.35" rx="0.55" transform="translate(316.5 276.1) rotate(180)"/><rect class="cls-4" x="152.23" y="119.26" width="36.23" height="19.48" rx="0.94" transform="translate(299.34 -41.35) rotate(90)"/><rect class="cls-4" x="161.28" y="146.43" width="18.12" height="19.48" rx="0.94" transform="translate(326.51 -14.17) rotate(90)"/><rect class="cls-4" x="185.46" y="98.32" width="36" height="17.27" rx="1.3"/><rect class="cls-4" x="192.93" y="125.33" width="21.84" height="42.25"/><rect class="cls-5" x="113.21" y="82.81" width="2.66" height="82.95"/><line class="cls-1" x1="284.39" y1="62.61" x2="284.39" y2="178.69"/></g></svg>