<svg width="69" height="101" viewBox="0 0 69 101" fill="none" xmlns="http://www.w3.org/2000/svg">
<g clip-path="url(#clip0_19_2)">
<path d="M9.33431 20.6642L8.96094 22.3862L9.18496 23.1349C9.85704 25.8302 10.7531 29.1245 13.8148 30.023L14.2629 30.1727L14.6363 29.8732C18.7434 26.1297 22.0291 22.3113 25.5389 18.2683C27.107 16.4715 28.6752 14.6746 30.3181 12.8028L30.3928 12.6531L31.1395 10.5567L31.2142 10.3321C31.2889 9.80801 31.2889 9.28391 31.3635 8.75982C31.7369 5.69014 32.1103 2.32098 28.4512 0.374351L27.7044 0L27.3311 0.748703C25.0161 5.39066 21.2824 8.83469 17.3246 12.4285C14.6363 14.8992 11.7986 17.4448 9.40899 20.5145L9.33431 20.6642Z" fill="#767067"/>
<path d="M51.1527 13.0274C51.7501 13.4018 51.6754 14.3002 51.6754 14.5997C51.1527 16.0222 50.3313 17.4448 49.5099 18.8673C48.6138 20.3647 47.7176 21.937 47.1202 23.659L46.0748 26.6538L48.4644 24.5574C50.4806 22.7606 52.3475 20.6642 54.1397 18.5678C55.2599 17.295 56.3053 16.0971 57.3508 15.0489C57.9482 14.5997 58.6949 14.3751 59.4417 14.1505C61.0099 13.7013 62.7274 13.1023 63.3995 11.1557C63.9969 9.73313 63.0261 8.23573 62.354 7.33728C62.2047 7.18754 62.13 6.96293 62.0553 6.81319L61.906 6.58858L61.6073 6.51371C59.2176 5.61527 56.7534 5.31579 54.0651 5.46553H53.7663L53.5423 5.61527C52.6462 6.36397 51.6008 6.73832 50.4806 7.11267C49.0618 7.63676 47.4936 8.16086 46.2988 9.50852C39.2793 13.851 33.4547 20.5893 28.6754 26.5789L28.6008 26.6538V26.9533C28.4514 27.4774 28.2274 27.7769 27.9287 27.8517C27.3313 28.0764 26.2858 27.5523 25.3897 27.103C24.9417 26.8784 24.4189 26.6538 23.9709 26.4292L23.2241 26.1297L22.9254 26.8784C22.5521 27.8517 21.88 28.8251 21.2079 29.7984C20.6852 30.4722 20.2371 31.146 19.7891 31.8947C15.7566 36.911 10.9774 42.0771 6.42219 47.0185C4.40596 49.1898 2.31505 51.5107 0.298817 53.682L0.224142 53.9066L0.149466 54.1312C-0.746637 57.2758 1.49362 59.3721 3.0618 60.9444C3.36051 61.2439 3.65921 61.5434 3.88323 61.768L4.18193 62.0675L4.62999 61.9926C5.89947 61.8428 7.09427 61.169 8.13973 60.1208C8.2144 60.1208 8.2144 60.1208 8.28908 60.1208C10.156 60.1208 11.2014 58.7732 12.0228 57.725C12.6202 56.9763 13.143 56.3024 13.8151 56.003C16.5034 58.9978 15.0099 63.1156 13.2923 67.1586L13.143 67.4581L13.2176 67.7576C13.591 69.1801 15.1592 73.7472 18.9676 74.8703L19.341 74.9451L19.6397 74.7205C22.1787 72.9236 23.2988 70.1534 24.2696 67.4581L24.3443 67.3084V67.1586C24.3443 58.4737 25.3151 50.0882 27.1819 42.2268C29.4222 34.4403 36.143 16.2468 51.1527 13.0274Z" fill="#767067"/>
<path d="M68.9999 27.6271L67.7305 25.6056L67.4318 25.4559C61.9058 23.8088 57.724 26.9533 53.9902 29.7235C53.6915 29.9481 53.3928 30.1727 53.0941 30.3973C50.2564 31.4455 47.5681 32.9429 45.0292 34.3655C42.5649 35.788 40.0259 37.2105 37.2629 38.1838C36.6655 38.1838 36.1428 38.3336 35.6201 38.5582C34.3506 38.9326 34.0519 38.9326 33.6038 38.2587L33.2305 37.6598L32.5584 37.8844C31.5129 38.2587 31.4383 39.1572 31.4383 39.6064C31.4383 39.6813 31.4383 39.831 31.4383 39.9059L30.9155 40.2053L31.1396 40.8792C31.6623 42.2268 32.409 43.7242 33.8279 44.3232L33.9772 44.3981H34.1266C34.4253 44.3981 34.8733 44.5478 35.2467 44.6976C36.1428 44.997 37.3376 45.3714 38.6071 44.5478C40.1006 43.7991 41.5194 42.9755 43.0129 42.152C48.3896 39.1572 53.9155 36.0875 59.8896 34.6649C60.711 35.1142 61.159 35.6383 61.159 36.1624C62.3538 52.9333 61.9058 67.533 59.8896 79.7369V79.8117V79.8866C60.1883 87.8977 54.1396 94.0371 47.4934 99.4277L45.4772 101.075L48.0909 100.925C48.987 100.85 49.7337 100.626 50.4805 100.326C50.9285 100.176 51.3766 100.027 51.8246 99.9518L52.0486 99.877C53.0941 99.278 54.2889 98.7539 55.5584 98.1549C60.6363 95.7591 66.3863 93.0638 66.8344 86.55C69.1493 73.2231 69.2986 59.9711 69.1493 47.6175V27.6271H68.9999Z" fill="#767067"/>
</g>
<defs>
<clipPath id="clip0_19_2">
<rect width="69" height="101" fill="white"/>
</clipPath>
</defs>
</svg>
