<svg width="106" height="80" viewBox="0 0 106 80" fill="none" xmlns="http://www.w3.org/2000/svg">
<g clip-path="url(#clip0_8_12)">
<path d="M20.5934 30.66C23.0618 29.1033 25.8123 28.1558 28.3512 26.6668C31.1722 25.0424 33.429 22.1998 36.3911 20.9138C37.2374 20.5077 38.2953 20.44 39.2121 19.9663C40.3405 19.3571 41.2574 18.5449 42.4563 18.0035C44.7837 16.9206 47.5342 16.5145 50.0731 16.1084C51.6246 15.8377 64.8129 13.7395 59.1004 10.4231C56.9846 9.20483 53.8109 10.6262 55.0099 7.17438C55.8562 4.73783 56.5614 3.38419 53.8815 1.55678C51.4131 -0.135266 43.1616 -1.4889 45.63 3.65492C46.4763 5.41465 48.3805 6.97133 48.2394 9.00179C48.0984 11.5737 44.7131 12.1152 42.6679 12.9273C30.8196 17.5297 20.4523 24.8393 8.81559 29.7801C6.27667 30.863 3.24407 31.8783 1.4104 33.9087C0.987248 34.3148 -0.282213 35.8715 0.0704153 36.5483C0.352518 37.0898 1.48093 37.0898 2.25671 37.2251C5.35984 37.6989 8.88612 38.0373 11.9892 37.1575C15.6566 36.0069 17.4902 32.6228 20.5934 30.66Z" fill="#767067"/>
<path d="M105.506 48.5279C102.967 46.7005 99.6527 45.753 97.819 43.1134C96.6201 41.3536 96.6906 37.4958 94.0812 37.022C94.0812 38.7141 94.1517 40.3384 94.0812 42.0305C94.0106 43.1134 94.0812 46.3621 93.0938 47.242C92.5296 47.7157 89.4265 47.6481 88.5096 47.6481C86.5349 47.7157 85.2655 46.7005 84.2076 45.1438C81.7392 41.6244 79.2708 36.4129 79.7645 32.1489C80.0466 29.78 81.175 27.6142 81.7392 25.313C82.3739 22.8088 82.7265 20.3046 83.4318 17.868C84.0665 15.6345 85.1244 13.5364 85.9707 11.3706C86.4644 10.22 88.2275 6.7682 87.5928 5.48224C87.1697 4.73774 86.6055 5.00847 86.0412 4.53469C85.1949 3.79019 84.7013 2.84265 83.6434 2.23351C81.9508 1.28596 80.2581 1.55669 78.7066 2.70728C76.8024 4.06092 75.1803 6.02369 73.4877 7.58038C71.4424 9.54315 69.1856 11.4382 67.493 13.6718C66.3646 15.2284 65.5888 17.4619 63.8257 18.4095C62.6973 19.0186 60.0878 18.8833 60.2994 20.643C61.6394 20.4399 62.5562 20.9814 63.8257 21.0491C65.9414 21.1844 66.7878 19.8308 68.2688 18.7479C68.833 18.3418 68.833 18.1388 69.5382 17.868C70.0319 17.665 70.2435 18.1388 70.5961 18.0034C72.2887 17.4619 73.1351 15.3638 74.8982 14.9577C79.2708 13.9425 77.155 20.1692 76.8729 22.132C76.4498 24.7716 77.7897 29.6447 74.8982 31.3367C73.6287 28.9002 73.6287 25.0423 70.8782 23.621C68.833 22.6058 63.8257 22.5381 64.2488 25.7191C64.4604 27.3435 66.0825 28.4941 66.0825 30.1861C66.0825 31.6075 65.1657 32.555 64.0373 33.2995C61.7099 34.8562 58.1836 34.8562 56.1384 36.6159C54.6573 37.8342 55.4331 40.2707 57.0552 41.3536C59.4531 42.9103 63.4025 40.3384 65.8004 40.2707C68.7625 40.2031 68.2688 43.9932 68.1277 46.0237C67.8456 49.4755 67.5635 52.8596 67.4225 56.3113C67.2814 60.1692 67.0699 64.0271 66.2941 67.8173C66.012 69.3739 65.6593 70.863 65.0246 72.352C64.2488 74.1794 62.8383 76.0068 62.5562 78.0372C62.1331 81.9628 65.8709 78.6464 66.9993 77.3604C69.1856 74.8562 70.7372 72.2843 71.7245 69.1032C73.4172 63.4179 73.9814 57.0558 74.2635 51.0998C74.4045 47.7834 73.9814 44.6701 73.8403 41.4213C73.7698 39.5939 74.4045 35.33 76.3087 38.6464C77.7897 41.1506 78.5655 43.9932 79.9055 46.5652C82.0213 50.4907 84.4192 52.2504 88.7917 53.6041C92.8117 54.89 96.5496 55.1608 100.64 54.0778C103.391 53.401 107.481 51.9797 105.506 48.5279Z" fill="#767067"/>
<path d="M35.8976 34.8562C39.9881 34.8562 44.7838 34.044 48.169 31.7429C49.2269 30.9984 55.01 26.2606 50.0027 27.0051C48.9448 27.1405 48.2396 28.1557 47.2522 28.4264C45.9122 28.8325 45.1364 28.088 43.7965 28.2234C42.1744 28.4264 40.7639 29.7801 39.2123 30.2538C37.5197 30.7276 35.4039 30.4569 34.0639 31.8782C32.3713 33.6379 33.7818 34.8562 35.8976 34.8562Z" fill="#767067"/>
<path d="M59.7353 50.8291C57.0553 45.55 51.3427 53.4011 49.4385 50.1523C47.8165 47.3097 56.068 40.4061 49.8617 38.8494C47.8165 38.3757 45.3481 39.6616 43.6554 40.6092C41.2576 41.8951 38.8597 43.2488 36.1797 44.1286C35.1218 44.467 31.525 44.5347 31.1019 45.0762C30.1145 46.2945 32.2303 48.1219 33.1471 48.528C34.8397 49.2048 37.0966 48.5956 38.6481 49.4755C40.6934 50.5584 39.2123 53.0626 38.5776 54.687C37.4492 57.7327 36.0387 64.8393 41.187 65.4484C45.9828 66.0576 46.1238 58.1388 48.6628 55.8376C50.567 54.1456 52.189 55.1608 52.2596 57.3943C52.2596 60.2369 49.7206 61.0491 48.3807 63.2149C46.8291 65.6515 49.368 67.3435 51.9069 67.0728C54.2343 66.8697 56.7027 65.6515 58.6069 64.4332C60.7226 63.0119 61.2868 61.8613 60.4405 59.5601C59.3121 56.5144 60.229 53.8748 59.7353 50.8291Z" fill="#767067"/>
</g>
<defs>
<clipPath id="clip0_8_12">
<rect width="106" height="80" fill="white"/>
</clipPath>
</defs>
</svg>
