<svg width="73" height="80" viewBox="0 0 73 80" fill="none" xmlns="http://www.w3.org/2000/svg">
<g clip-path="url(#clip0_8_22)">
<path d="M34.2289 3.38306C33.6319 3.51573 32.9685 3.6484 32.3052 3.71473C31.1112 3.91374 29.8508 4.04641 28.7894 4.57709L28.4578 4.64342L28.5904 4.9751C29.2538 6.43447 30.2488 7.36316 31.3102 8.35818C31.8408 8.88886 32.3715 9.35321 32.9022 10.0166L32.9685 10.0829C34.5606 11.0116 36.1526 11.2769 37.811 11.2769C38.9387 11.2769 40.0664 11.1443 41.2604 11.0116L41.8574 10.9452C45.7049 9.95022 50.083 6.89881 51.1443 2.45437L51.2107 2.25536L51.078 2.12269C47.2306 -1.4594 42.4544 0.397981 38.209 2.05636C36.816 2.5207 35.4893 3.05138 34.2289 3.38306Z" fill="#767067"/>
<path d="M72.5042 13.7313V13.5987L72.4379 13.466C71.0448 11.3433 68.7894 11.2769 66.6004 11.1443C64.942 11.0779 63.35 11.0116 62.0896 10.0166L61.8906 9.88389L61.6916 10.0166C58.1758 12.67 53.6651 13.267 49.287 13.7977C46.5672 14.1293 43.7812 14.5273 41.1941 15.3897C37.8773 16.7164 34.4279 17.3797 30.7132 18.1094C29.6518 18.3084 28.5904 18.5074 27.5291 18.7728H27.4627C25.2074 19.9668 22.554 20.5638 20.0332 21.2272C18.5075 21.5588 16.9155 21.9569 15.3898 22.4875L14.9918 21.8905C15.5224 19.5025 15.1908 17.2471 14.8591 15.058C14.5938 13.5323 14.3284 11.9403 14.3948 10.3482V9.75122L13.9304 10.0166C12.8027 10.6799 12.0067 11.6749 11.277 12.6036C10.9453 13.068 10.5473 13.5323 10.1493 13.9967C9.22062 14.9254 8.2256 15.854 7.0979 16.8491C2.78613 20.7628 -1.79099 24.7429 0.663407 31.5091C1.12775 32.3715 1.52576 33.3001 1.85744 34.1625C2.52079 35.8872 3.18414 37.6119 4.77618 39.005L4.84251 39.0713H4.90885C5.30686 39.1376 5.70487 39.204 6.10288 39.204C8.49094 39.204 9.68497 37.4129 10.8127 35.6882C11.874 34.0962 12.9354 32.4378 15.0581 31.9734H15.1244L15.1908 31.9071C19.2372 28.126 24.2787 26.4013 29.1875 24.7429C33.3666 23.3499 37.612 21.8905 41.3268 19.1045C42.5871 18.5738 43.9802 18.1094 45.2405 17.6451C47.7612 16.7827 50.3483 15.9204 52.6037 14.3283C53.4661 14.5273 54.3284 14.3283 55.1244 14.1957C56.1195 13.9967 56.9818 13.864 57.7778 14.3283C56.5175 16.1857 54.7264 18.6401 52.471 19.0381H52.4047L52.3384 19.1045C50.481 20.6302 48.4909 21.9569 46.5672 23.2172C44.2455 24.7429 41.8574 26.335 39.8011 28.1923L39.1377 28.7894H40.0001C43.8475 28.7894 47.3632 27.7943 50.282 26.7993C52.6037 26.2023 54.7928 25.1409 56.8491 24.1459C58.5075 23.3499 60.2322 22.5539 62.0233 21.9569L62.0896 21.8905C63.549 20.8292 65.2737 20.1658 66.9321 19.5688C68.7231 18.9054 70.5142 18.2421 72.1062 17.0481L72.1725 16.9817C72.8359 16.2521 72.7032 15.5224 72.5705 14.9254C72.5042 14.5937 72.4379 14.1957 72.5042 13.7313Z" fill="#767067"/>
<path d="M16.8492 58.7728C15.1245 61.2935 13.3334 63.9469 11.5424 66.4677C10.1493 67.9934 10.282 70.1161 11.874 71.7745L11.9404 71.8408H12.073C13.2007 71.9735 14.2621 71.8408 15.3235 71.7081C16.0531 71.6418 16.7828 71.5091 17.5125 71.5091H17.5788L17.6452 71.4428C19.5689 70.3151 20.8293 68.325 21.8906 66.534C22.8856 67.131 22.6866 67.927 22.2223 69.2537C21.8906 70.3151 21.4926 71.5091 22.0233 72.7695C22.2886 73.2338 22.355 73.8308 22.4213 74.4942C22.4876 75.2902 22.6203 76.2852 23.2173 77.0813C23.4163 77.2803 23.6153 77.4793 23.8143 77.6783C24.743 78.6733 25.8707 79.9337 27.4628 79.9337C27.8608 79.9337 28.2588 79.8673 28.6568 79.7346C29.8508 79.6683 30.3152 78.6733 30.7132 77.8773C30.8458 77.5456 30.9785 77.2803 31.1775 77.0149L31.2439 76.8822C31.4429 76.0199 31.5755 75.1575 31.7745 74.2952C33.9636 63.7479 36.219 52.869 43.7148 44.2454L43.7812 44.1128C43.9138 43.6484 44.3782 43.2504 44.8425 42.7861C45.4395 42.189 46.1692 41.5257 46.1029 40.5307L46.0366 39.801L45.5059 40.3317C41.5258 44.2454 38.806 49.0216 36.219 53.5987C34.2953 56.9818 32.3716 60.4312 29.9172 63.5489C29.6518 62.4876 29.7845 61.4925 29.9172 60.3648C30.0498 59.1045 30.2488 57.8441 29.7845 56.5174C31.5092 50.4809 36.1526 44.5108 43.9138 38.2753L44.0465 38.2089V38.0763C44.1792 37.1476 44.7762 36.5506 45.3732 35.9536C46.0366 35.2902 46.7662 34.6269 46.8989 33.4992V33.3002L46.6999 33.1675C45.0415 32.1061 43.5822 31.5755 41.9901 31.3764C38.607 31.1111 35.8873 32.6368 33.3002 34.1625C31.7082 35.0912 30.0498 36.0199 28.1924 36.5506H28.1261L28.0598 36.6169C27.4628 37.2803 26.6667 37.0813 25.8044 36.9486C24.8757 36.7496 23.8807 36.5506 23.2173 37.4793L23.0847 37.6119L23.151 37.8109C23.35 38.2753 23.4827 38.806 23.6153 39.3366C24.0797 40.9287 24.544 42.7861 26.6004 43.1177C26.6667 43.2504 26.6667 43.3167 26.7331 43.4494C26.9321 43.9138 27.0648 44.1791 26.7994 44.6434C23.2173 49.3532 20.0332 54.1293 16.8492 58.7728Z" fill="#767067"/>
<path d="M66.3349 55.257C66.2686 55.1907 66.2686 55.1243 66.2686 54.859C66.2686 54.7926 66.2686 54.7926 66.2686 54.7263V54.5936C65.0746 51.5422 62.0232 51.6749 59.2371 51.8076C58.2421 51.8739 57.3797 51.8739 56.5837 51.8076H56.451L56.3847 51.8739C54.5936 53.1343 52.6699 54.1293 50.8126 55.1243C49.4195 55.854 48.0265 56.5837 46.6335 57.446C46.5671 57.3134 46.5671 57.1807 46.6335 56.849C46.6335 56.7164 46.6335 56.5837 46.6998 56.451C49.0878 49.3532 52.2719 41.4593 59.6351 36.4842L59.7678 36.4179V35.1575L59.5688 35.0912C59.1708 34.9585 58.7728 34.7595 58.3747 34.6268C56.65 33.8971 54.66 33.0348 52.7363 34.2951C51.4096 35.1575 50.8126 36.4842 51.0116 37.8109C50.0829 39.1376 49.7512 40.6633 49.3532 42.189C48.8888 43.98 48.4908 45.7048 47.1641 47.0978L47.0978 47.1641V47.2305C46.4344 49.8175 45.2404 52.2056 44.1127 54.5936C43.2504 56.451 42.3217 58.3084 41.6583 60.2985C41.3266 60.9618 40.796 61.5588 40.2653 62.2222C38.9386 63.8142 37.6119 65.4062 38.5406 67.9933L38.6069 68.0596L38.6732 68.126C39.0713 68.4577 39.4693 68.9883 39.8673 69.5854C40.796 70.9121 41.9237 72.6368 44.1127 71.8407L44.3781 71.7744L44.3117 71.5091C44.1127 70.315 44.4444 69.32 45.4394 68.524C45.9701 68.723 46.0364 69.32 46.1691 70.1824C46.2354 70.713 46.3018 71.2437 46.5671 71.7081L46.6998 71.9734L46.9651 71.8407C49.0215 71.0447 50.7462 71.6417 52.6036 72.2388C53.864 72.6368 55.1243 73.0348 56.5837 73.0348C56.849 73.0348 57.1144 73.0348 57.3797 72.9684H57.4461C57.9767 72.7694 58.5737 72.6368 59.1708 72.5041C61.3598 71.9734 63.8142 71.4427 64.2122 68.7893C66.9983 66.0033 66.6666 61.7578 66.4013 57.9767C66.3349 57.247 66.3349 56.5837 66.2686 55.9203L66.733 55.456L66.3349 55.257ZM49.7512 65.1409C49.9502 64.7429 50.4145 64.4776 50.8126 64.4112C50.9452 64.4112 51.1442 64.4776 51.3432 64.6102C51.1442 64.9419 50.9452 65.3399 50.8126 65.7379C50.4809 66.5339 50.2819 67.0646 49.6185 67.131C49.2869 66.6003 49.4195 65.6716 49.7512 65.1409ZM59.3034 55.5887C59.1708 57.9767 58.6401 60.1658 57.7114 62.2885C56.5837 61.8905 55.3897 61.8242 54.262 61.6915C53.1343 61.5588 51.9402 61.4925 50.8789 61.0945C50.8789 60.9618 50.8126 60.8291 50.6799 60.6301C52.3383 57.9104 55.1243 55.9203 57.1807 54.7263C58.3747 54.66 59.1044 54.7927 59.3034 55.5887Z" fill="#767067"/>
</g>
<defs>
<clipPath id="clip0_8_22">
<rect width="72.6368" height="80" fill="white"/>
</clipPath>
</defs>
</svg>
