<svg width="51" height="58" viewBox="0 0 51 58" fill="none" xmlns="http://www.w3.org/2000/svg">
<g clip-path="url(#clip0_29_150)">
<path d="M50.9997 7.31092C50.9997 6.70168 50.5197 6.21429 49.9197 6.21429H26.5997V1.09664C26.5997 0.487395 26.1197 0 25.5197 0C24.9197 0 24.4397 0.487395 24.4397 1.09664V6.21429H1.07975C0.479746 6.21429 -0.000253905 6.70168 -0.000253905 7.31092C-0.000253905 7.92017 0.479746 8.40756 1.07975 8.40756H22.9197L12.5197 18.9678L0.319746 31.3151C-0.000253893 31.6401 -0.0802539 32.0868 0.0797461 32.493C0.239746 32.8992 0.639746 33.1835 1.07975 33.1835H10.7197L0.319746 43.7031C-0.120254 44.1499 -0.120254 44.8403 0.319746 45.2465C0.719746 45.6933 1.39975 45.6933 1.83975 45.2465L12.1997 34.7269L12.2397 56.8627C12.2397 57.3095 12.5197 57.7157 12.9197 57.8782C13.0397 57.9188 13.1997 57.9594 13.3197 57.9594C13.5997 57.9594 13.8797 57.8375 14.0797 57.6345L25.5197 46.0182L36.9597 57.6751C37.1597 57.8782 37.4397 58 37.7197 58C37.8397 58 37.9997 57.9594 38.1197 57.9188C38.5197 57.7563 38.7997 57.3501 38.7997 56.9034V34.7269L49.1597 45.2465C49.5997 45.6933 50.2797 45.6933 50.6797 45.2465C51.1197 44.7997 51.1197 44.1092 50.6797 43.7031L40.3197 33.1835H49.9197C50.3597 33.1835 50.7597 32.8992 50.9197 32.493C51.0797 32.0868 50.9997 31.5994 50.6797 31.3151L28.1197 8.40756H49.9597C50.5197 8.40756 50.9997 7.87955 50.9997 7.31092ZM14.3597 30.9902V20.1863L24.4397 9.95098V31.0308H14.3597V30.9902ZM35.1197 33.1835L25.5197 42.9314L15.9197 33.1835H35.1197ZM36.6397 30.9902H26.5997V9.95098L36.6397 20.1457V30.9902ZM12.1997 22.3796V31.0308H3.67975L12.1997 22.3796ZM14.3597 54.2633L14.3197 34.6863L23.9997 44.5154L14.3597 54.2633ZM27.0397 44.5154L36.6397 34.7675V54.3039L27.0397 44.5154ZM38.7997 30.9902V22.3389L47.3197 30.9902H38.7997Z" fill="#767067"/>
</g>
<defs>
<clipPath id="clip0_29_150">
<rect width="51" height="58" fill="white"/>
</clipPath>
</defs>
</svg>
