<svg width="71" height="80" viewBox="0 0 71 80" fill="none" xmlns="http://www.w3.org/2000/svg">
<g clip-path="url(#clip0_8_17)">
<path d="M52.2286 6.69428C53.3553 6.42916 54.946 6.16404 54.6146 4.57332C54.0844 1.39188 50.6378 0.79536 48.2518 0C44.2087 1.25932 39.9005 1.85584 35.7248 2.71748C34.333 3.24772 32.212 2.58492 31.4829 4.04308C32.8085 4.971 34.333 5.56752 35.7248 6.36288C40.6958 10.0083 46.5948 6.23032 52.2286 6.69428Z" fill="#334C3F"/>
<path d="M58.0613 36.2552C61.7067 32.3447 66.6114 28.5004 67.937 23.4631C68.401 19.5526 64.2916 17.4979 62.3032 14.6479C57.8624 11.4664 52.6926 14.7142 48.4507 16.2386C47.1251 15.0456 47.9204 12.7258 46.1309 11.9967C44.6064 11.4002 42.8832 11.9304 41.5575 12.5269C39.768 16.2386 36.1889 19.4863 33.8028 22.6678C36.5865 23.9271 40.2982 22.8666 42.8831 21.3422C46.5948 20.9445 50.1077 20.2154 53.8194 19.7514L54.9461 20.5468C55.4764 22.8666 55.0787 25.7166 53.3554 27.2411C51.6984 25.319 49.1798 25.3853 46.9925 25.1201C44.0762 26.9097 40.7622 27.9702 37.647 29.3621L36.3214 28.3679C35.6586 25.5178 32.5435 25.1201 30.9527 22.734C31.4167 22.0712 30.2237 21.7398 30.9527 21.1433C30.6876 16.9014 35.5923 10.8036 28.8318 8.88152C28.3015 8.41756 27.0422 8.48384 26.9759 9.41176C24.7887 21.7398 19.884 33.14 15.7083 44.739L14.913 45.5344C14.449 43.4797 14.7804 41.0936 14.7141 38.8401C15.4432 36.5866 16.6363 34.1342 15.7083 31.6819H15.2444C15.3107 31.8807 15.1118 32.0795 14.9793 32.2121C14.0513 37.3819 12.6595 42.3529 11.2676 47.3902C10.5385 47.9867 10.4722 49.5775 9.14661 49.3123C5.30237 43.082 7.35705 34.9959 7.22449 27.7051C7.29077 22.6015 13.3223 19.9503 13.0571 14.6479C12.792 11.9304 11.7315 9.2792 9.80941 7.48964L9.34545 7.9536C9.41173 11.4664 7.15821 13.7862 7.22449 17.2328C3.11513 27.1085 1.85581 38.8401 2.98257 50.1077C3.97677 54.1508 3.71165 59.3869 8.28497 61.2427C7.29077 64.5568 5.30237 67.4731 3.84421 70.5882C2.91629 72.7755 -0.397711 74.1011 0.132529 76.9511C0.397649 78.5418 2.18721 77.879 3.04885 78.807C6.09773 82.0547 8.68265 77.6139 11.2676 76.4872L13.1897 71.9138C17.763 59.3206 22.4026 46.7937 26.512 34.1342C27.2411 32.2784 27.1085 29.9586 28.6329 28.7655C30.6876 31.483 30.8865 34.9296 32.6097 37.7796C35.1284 40.2983 30.4225 40.4308 30.7539 42.6181C30.3562 44.2088 32.3446 44.9379 33.14 46.0646C36.1889 46.4623 39.5029 45.6007 42.4192 44.739C43.2808 44.5402 45.0041 43.8774 45.6006 45.2693C45.9983 50.8368 46.2634 57.0671 45.0704 62.3695L44.275 63.1649C43.1483 63.7614 41.9552 62.7672 40.8285 62.5683C38.9063 60.6462 35.3935 59.8509 35.2609 56.802C34.5981 53.2891 31.8144 50.7705 28.5667 49.8426C27.2411 51.7647 27.9039 54.4822 26.9759 56.5369C25.7166 58.9229 26.9097 61.6404 27.9701 63.6951C30.2899 64.1591 33.0074 64.1591 34.9295 62.5683C38.4424 63.894 39.2377 67.6719 41.8227 70.058C43.7448 70.9859 45.5344 72.7755 47.9867 71.6487C48.9809 71.3836 49.246 70.2568 49.9088 69.5278C51.1682 66.6777 51.367 63.0986 51.2344 59.9171C52.0961 55.2113 51.6984 50.0414 52.56 45.2693C51.831 44.1425 51.7647 42.8832 51.4333 41.5576C52.56 40.6959 53.7531 40.0994 55.145 39.9669C56.6694 39.4366 58.2601 38.111 58.0613 36.2552ZM41.8227 36.2552C40.3645 36.5203 40.3645 34.8633 39.7017 34.1342C39.6354 33.4051 39.7017 32.6098 40.4971 32.5435C44.5401 32.4109 48.1856 30.6214 52.0298 30.9528C50.8368 35.9238 45.2692 34.3993 41.8227 36.2552Z" fill="#334C3F"/>
<path d="M69.5941 54.3496C68.3348 51.6984 65.6173 50.638 63.4301 49.3124C61.5079 49.1135 59.1881 46.7274 57.5974 48.7158C57.8625 51.6322 58.9893 54.2834 59.7184 57.0008C61.5742 58.1939 63.0987 60.1823 65.2859 60.4474C66.9429 61.1102 69.0639 60.8451 69.8592 58.923C70.522 57.3322 69.5941 55.8741 69.5941 54.3496Z" fill="#334C3F"/>
</g>
<defs>
<clipPath id="clip0_8_17">
<rect width="70.058" height="80" fill="white"/>
</clipPath>
</defs>
</svg>
