<svg id="圖層_1" data-name="圖層 1" xmlns="http://www.w3.org/2000/svg" viewBox="0 0 92.42 134.91"><defs><style>.cls-1{fill:#756f67;}</style></defs><path class="cls-1" d="M12.5,27.56l-.45,2.27.26,1c.94,3.59,2.1,8.05,6.21,9.21l.59.16.45-.41A174.66,174.66,0,0,0,34.13,24.3c2-2.37,4.18-4.82,6.4-7.26l.15-.16,1-2.79.07-.29c.05-.69.13-1.39.21-2.09.47-4.06,1-8.65-3.85-11.19l-1-.52-.5,1c-3.11,6.21-8.11,10.76-13.4,15.57A89.66,89.66,0,0,0,12.67,27.35Z"/><path class="cls-1" d="M68.48,17.45c.8.46.73,1.67.68,2.1a36.84,36.84,0,0,1-2.87,5.67,38.64,38.64,0,0,0-3.2,6.44l-1.41,4,3.19-2.84a92.81,92.81,0,0,0,7.6-8c1.47-1.68,2.86-3.26,4.25-4.7A9.83,9.83,0,0,1,79.56,19c2.08-.64,4.43-1.36,5.31-4,.82-1.9-.51-3.85-1.38-5.15-.17-.24-.32-.47-.44-.67l-.21-.34-.37-.13A24.17,24.17,0,0,0,72.4,7.33l-.36,0-.28.23a12.92,12.92,0,0,1-4.08,2,12.36,12.36,0,0,0-5.56,3.24c-9.38,5.77-17.2,14.77-23.62,22.82l-.12.15-.06.18a1.9,1.9,0,0,1-.86,1.21c-.77.3-2.22-.44-3.39-1a15.53,15.53,0,0,0-1.85-.85l-1-.36-.38,1a17.85,17.85,0,0,1-2.34,3.86,28.57,28.57,0,0,0-1.89,2.84c-5.41,6.68-11.76,13.55-17.9,20.19C6,65.81,3.15,68.85.51,71.79L.33,72l-.07.25c-1.16,4.18,1.79,7,3.94,9.09.4.39.79.76,1.14,1.13l.39.41.56-.08A7.68,7.68,0,0,0,11,80.25h.15c2.47,0,3.85-1.78,5-3.24a6.83,6.83,0,0,1,2.41-2.29c3.55,4,1.62,9.53-.69,14.86l-.15.36.1.38c.52,1.85,2.58,8,7.7,9.45l.5.15.43-.31c3.43-2.41,4.93-6.11,6.16-9.7l.06-.17v-.19a141.82,141.82,0,0,1,3.84-33.27C39.39,46,48.41,21.66,68.48,17.45Z"/><path class="cls-1" d="M92.36,36.88l-1.67-2.74L90.28,34c-7.43-2.21-13,2-18,5.66l-1.17.87a69.55,69.55,0,0,0-10.77,5.31A68.48,68.48,0,0,1,50,51a7.78,7.78,0,0,0-2.24.47c-1.7.53-2.2.57-2.73-.37l-.46-.82-.88.32a2.38,2.38,0,0,0-1.51,2.33,3.63,3.63,0,0,1,0,.39l-.72.45.33.85c.69,1.81,1.67,3.76,3.65,4.61l.17.08h.19a6.33,6.33,0,0,1,1.48.38c1.2.4,2.85.94,4.46-.19,2-1,3.92-2.13,5.87-3.22,7.16-4,14.56-8.09,22.6-10,1.06.64,1.65,1.32,1.66,1.95,1.63,22.36,1.05,41.94-1.75,58.2l0,.11v.12c.44,10.7-7.73,18.87-16.61,26.1l-2.69,2.19,3.46-.23a11.55,11.55,0,0,0,3.2-.78,14.15,14.15,0,0,1,1.77-.53l.31-.12c1.42-.79,3-1.53,4.68-2.32,6.8-3.18,14.49-6.78,15.13-15.53,3.06-17.76,3.28-35.5,3.06-52Z"/></svg>