<?xml version="1.0" encoding="utf-8"?>
<!-- Generator: Adobe Illustrator 26.0.3, SVG Export Plug-In . SVG Version: 6.00 Build 0)  -->
<svg version="1.1" id="圖層_1" xmlns="http://www.w3.org/2000/svg" xmlns:xlink="http://www.w3.org/1999/xlink" x="0px" y="0px"
	 viewBox="0 0 455.7 150" style="enable-background:new 0 0 455.7 150;" xml:space="preserve">
<style type="text/css">
	.st0{fill:#FFFFFF;}
</style>
<g>
	<path class="st0" d="M204.2,45.4c-1.6-1.2-3.3-2-5.2-2.6c-2.3-0.7-4.7-1.2-7.1-1.7c-2.2-0.4-4.1-0.8-5.9-1.2
		c-1.6-0.3-3.1-0.9-4.5-1.7c-1.2-0.7-2.2-1.8-2.9-3c-0.7-1.6-1.1-3.3-1-5.1c0-3.7,1.2-6.3,3.6-7.8s5.7-2.2,9.9-2.2h13.9
		c1.2,0,2.2-1,2.2-2.2c0-0.6-0.2-1.1-0.6-1.5c-0.5-0.4-1.1-0.7-1.7-0.6h-13.7c-2.5,0-5,0.2-7.4,0.7c-2,0.4-3.9,1.2-5.6,2.4
		c-1.5,1.1-2.8,2.7-3.5,4.4c-0.9,2.1-1.3,4.4-1.2,6.7c-0.1,2.5,0.4,5,1.4,7.2c0.9,1.7,2.2,3.2,3.8,4.2c1.7,1.1,3.6,1.8,5.6,2.3
		c2.1,0.5,4.4,1,6.9,1.5c2.3,0.4,4.2,0.9,5.9,1.3c1.5,0.4,2.9,1,4.1,1.8c1,0.7,1.9,1.7,2.4,2.8c0.6,1.4,0.8,2.9,0.8,4.4
		c0,4.5-1.1,7.8-3.4,9.7c-2.2,1.9-5.5,2.9-9.7,2.9h-15.7c-1.1,0-2.1,0.9-2.1,2c0,0,0,0.1,0,0.1c0,0.5,0.2,1.1,0.6,1.5
		c0.4,0.4,0.9,0.6,1.5,0.6h15.7c5.7,0,10-1.3,12.9-3.9c2.9-2.6,4.4-6.9,4.4-13c0.1-2.1-0.3-4.3-1.1-6.2
		C206.7,47.9,205.6,46.5,204.2,45.4z"/>
	<path class="st0" d="M248.1,45.1v25.5c0,1.1,0.9,2.1,2.1,2.1c0,0,0,0,0.1,0c0.6,0,1.1-0.2,1.5-0.6c0.4-0.4,0.7-0.9,0.6-1.5V44.9
		c0-2-0.3-3.9-1-5.8c-0.6-1.6-1.6-3.1-2.8-4.3c-1.2-1.1-2.6-2-4.1-2.6c-1.5-0.6-3.2-0.9-4.8-0.9h-13.6V18.8c0-0.6-0.2-1.2-0.6-1.6
		c-0.4-0.4-1-0.6-1.5-0.6c-0.6,0-1.1,0.2-1.5,0.6c-0.4,0.4-0.6,1-0.6,1.6v51.8c0,0.6,0.2,1.1,0.6,1.5c0.4,0.4,0.9,0.6,1.5,0.6
		c0.6,0,1.1-0.2,1.5-0.6c0.4-0.4,0.7-0.9,0.6-1.5V35.5h13.6c2.3,0,4.4,1,5.9,2.6c0.8,0.9,1.4,1.9,1.8,3
		C247.9,42.4,248.2,43.7,248.1,45.1z"/>
	<path class="st0" d="M279.9,31.4c-2,0-4.1,0.3-6,1c-1.8,0.7-3.4,1.7-4.8,3c-1.4,1.4-2.5,3.1-3.2,5c-0.8,2.1-1.2,4.4-1.2,6.7v6.3
		c0,2.9,0.2,5.7,0.7,8.5c0.4,2.1,1.2,4.2,2.4,6c1.2,1.6,2.7,2.8,4.6,3.6c2.3,0.8,4.8,1.2,7.3,1.2h12.6c0.5,0,1.1-0.2,1.5-0.6
		c0.8-0.8,0.8-2.1,0-2.9c-0.4-0.4-1-0.6-1.5-0.6h-12.4c-1.8,0.1-3.5-0.3-5.1-0.9c-1.3-0.6-2.4-1.6-3.2-2.8c-0.9-1.4-1.5-2.9-1.8-4.5
		c-0.4-2.1-0.6-4.2-0.6-6.2h23.2c0.9,0,1.8-0.3,2.4-0.9c0.6-0.6,1-1.4,0.9-2.3v-3.8c0-5.2-1.3-9.1-4-11.8
		C288.8,32.7,284.9,31.4,279.9,31.4z M291.1,50.1h-22.2v-3c-0.2-3.1,0.9-6.2,2.9-8.5c1.9-2.1,4.6-3.2,8.1-3.2c3.8,0,6.6,1,8.5,3
		s2.8,4.9,2.8,8.7V50.1z"/>
	<path class="st0" d="M334.4,34.9c-1.2-1.1-2.6-2-4.1-2.6c-1.5-0.6-3.2-0.9-4.8-0.9H311c-0.9-0.1-1.8,0.3-2.5,1
		c-0.6,0.7-0.9,1.5-0.9,2.4v35.6c0,0.6,0.2,1.1,0.6,1.5c0.4,0.4,0.9,0.6,1.5,0.6c0.6,0,1.1-0.2,1.5-0.6c0.4-0.5,0.7-1.1,0.6-1.7
		V35.5h13.6c2.3,0,4.4,1,5.9,2.6c0.8,0.9,1.4,1.9,1.8,3c0.5,1.2,0.7,2.5,0.7,3.8v25.5c0,0.6,0.2,1.1,0.6,1.5
		c0.4,0.4,0.9,0.6,1.5,0.6c1.2,0,2.2-1,2.2-2.2V44.9c0-2-0.3-3.9-1-5.8C336.6,37.6,335.7,36.1,334.4,34.9z"/>
	<path class="st0" d="M406.5,63.1c-0.7,1.3-1.7,2.3-2.9,3.1c-1.3,0.8-2.7,1.4-4.2,1.7c-1.6,0.4-3.3,0.5-5,0.5h-13.5
		c-0.6,0-1.1,0.2-1.5,0.6c-0.4,0.4-0.6,1-0.6,1.5c0,1.1,0.9,2.1,2.1,2.1c0,0,0,0,0.1,0h13.5c2.3,0,4.6-0.2,6.9-0.7
		c2-0.5,3.9-1.3,5.5-2.5c1.6-1.1,2.9-2.7,3.7-4.4c0.9-2.1,1.4-4.3,1.3-6.6v-5.6c0.1-2-0.4-4.1-1.3-5.9c-0.8-1.6-2-3.1-3.4-4.1
		c-1.6-1.1-3.3-1.9-5.1-2.4c-2.1-0.6-4.2-0.8-6.4-0.8h-12.6V23.9h25c0.6,0,1.1-0.2,1.5-0.6c0.4-0.4,0.7-1,0.6-1.5
		c0-1.2-1-2.2-2.2-2.2h-25.8c-0.9,0-1.9,0.3-2.5,1c-0.7,0.7-1,1.6-1,2.6v17.1c0,0.9,0.3,1.8,1,2.5c0.7,0.6,1.6,1,2.5,0.9h13.3
		c1.6,0,3.1,0.2,4.6,0.6c1.4,0.3,2.7,0.9,3.9,1.7c1.1,0.7,2,1.7,2.6,2.8c0.6,1.3,1,2.6,0.9,4v5.6C407.6,60,407.3,61.6,406.5,63.1z"
		/>
	<path class="st0" d="M454,20.5c-1-1-2.3-1.6-3.7-1.5h-25.7c-0.5,0-1.1,0.2-1.5,0.6c-0.4,0.4-0.7,0.9-0.7,1.5c0,0.5,0.2,1.1,0.7,1.4
		c0.4,0.4,1,0.6,1.6,0.6h25.5c0.3,0,0.5,0.1,0.7,0.3c0.2,0.2,0.3,0.5,0.3,0.7c0,0.1,0,0.2,0,0.2c0,0.1,0,0.1,0,0.2l-19.9,45.2
		c-0.1,0.3-0.1,0.6-0.2,0.9c0,0.6,0.2,1.1,0.7,1.5c0.8,0.8,2.2,0.8,3,0c0.2-0.2,0.3-0.4,0.4-0.6L455.3,26c0.3-0.6,0.4-1.3,0.4-1.9
		C455.7,22.7,455.1,21.4,454,20.5z"/>
	<path class="st0" d="M302,146.9h-6.7v-18.2c0-2.8-2.3-5.1-5.1-5.1h-11.8l2.4-12.6h18.6c0.7-0.1,1.3-0.7,1.2-1.5
		c-0.1-0.6-0.6-1.2-1.2-1.2H263c-0.7-0.1-1.4,0.5-1.5,1.2s0.5,1.4,1.2,1.5c0.1,0,0.2,0,0.2,0h15.1l-2.4,12.6h-10.6
		c-0.7,0.1-1.3,0.7-1.2,1.5c0.1,0.6,0.6,1.2,1.2,1.2h10.1l-3.9,20.5c0,0,0,0,0,0.1H262c-0.7,0-1.3,0.6-1.3,1.3
		c0,0.7,0.6,1.3,1.3,1.3h40c0.7,0,1.3-0.6,1.3-1.3S302.8,146.9,302,146.9C302,146.9,302,146.9,302,146.9L302,146.9z M277.9,126.4
		h12.3c1.4,0,2.5,1.1,2.5,2.5l0,0v18.1H274L277.9,126.4z"/>
	<path class="st0" d="M351.9,118.2l-27.1,2.8v-11.9c0-0.7-0.6-1.3-1.3-1.3c-0.7,0-1.3,0.6-1.3,1.3v12.2l-10.5,1.1
		c-0.7,0.1-1.3,0.8-1.2,1.5c0.1,0.7,0.6,1.2,1.3,1.2h0.1l10.2-1.1v20.4c0,2.8,2.3,5.1,5.1,5.1h20.3c2.8,0,5.1-2.3,5.1-5.1
		c-0.1-0.7-0.7-1.3-1.5-1.2c-0.6,0.1-1.2,0.6-1.2,1.2c0,1.4-1.1,2.5-2.4,2.5c0,0,0,0,0,0h-20.3c-1.3,0-2.4-1.1-2.4-2.5v-20.8
		l27.4-2.9c0.7-0.1,1.3-0.7,1.2-1.5C353.4,118.7,352.7,118.1,351.9,118.2C352,118.2,351.9,118.2,351.9,118.2z"/>
	<path class="st0" d="M402.5,122.1h-21c-0.7,0-1.3,0.6-1.3,1.3c0,0.7,0.6,1.3,1.3,1.3h11.4c-0.1,0.1-0.1,0.3-0.1,0.4v19.3
		c0,1.4-1.1,2.5-2.4,2.5c0,0,0,0,0,0h-6.1c-0.7,0-1.3,0.6-1.3,1.3c0,0.7,0.6,1.3,1.3,1.3h6.1c2.8,0,5.1-2.3,5.1-5.1l0,0v-19.3
		c0-0.1,0-0.3-0.1-0.4h7.1c0.7,0,1.3-0.6,1.3-1.3S403.2,122.1,402.5,122.1C402.4,122.1,402.4,122.1,402.5,122.1L402.5,122.1z"/>
	<path class="st0" d="M381.5,112h17.9c0.7-0.1,1.3-0.7,1.2-1.5c-0.1-0.6-0.6-1.2-1.2-1.2h-17.9c-0.7-0.1-1.4,0.5-1.5,1.2
		s0.5,1.4,1.2,1.5C381.3,112,381.4,112,381.5,112z"/>
	<path class="st0" d="M449.5,135.8h-10v-4.5h12.4c0.7,0,1.3-0.6,1.3-1.3c0,0,0,0,0,0v-5.5c0-2.8-2.3-5.1-5.1-5.1h-10
		c-0.7,0-1.3,0.6-1.3,1.3c0,0,0,0,0,0c0,0.1,0,0.2,0.1,0.3c0,0.1-0.1,0.2-0.1,0.3v27c0,0.7,0.6,1.3,1.3,1.3c0,0,0,0,0,0h15.2
		c0.7,0,1.3-0.6,1.3-1.3v0v-7.3C454.7,138.1,452.4,135.8,449.5,135.8z M450.5,124.5v4.2h-11V122h8.6
		C449.5,122,450.6,123.1,450.5,124.5L450.5,124.5L450.5,124.5z M452,146.9h-12.5v-8.4h10c1.4,0,2.5,1.1,2.5,2.5L452,146.9z"/>
	<path class="st0" d="M454.3,111.7h-8.5v-4.1c0-0.7-0.6-1.3-1.3-1.3c-0.7,0-1.3,0.6-1.3,1.3v4.1h-8.6c-0.7,0-1.3,0.6-1.3,1.3
		c0,0,0,0,0,0v4.6c-0.1,0.7,0.5,1.4,1.2,1.5s1.4-0.5,1.5-1.2c0-0.1,0-0.2,0-0.2v-3.3h17.1v3.3c-0.1,0.7,0.5,1.4,1.2,1.5
		s1.4-0.5,1.5-1.2c0-0.1,0-0.2,0-0.2v-4.6C455.6,112.3,455,111.7,454.3,111.7z"/>
	<path class="st0" d="M205.7,134.2v-2.8h10.7c0.7,0.1,1.4-0.5,1.5-1.2s-0.5-1.4-1.2-1.5c-0.1,0-0.2,0-0.2,0h-10.7v-4.5
		c0.1-0.7-0.5-1.4-1.2-1.5c-0.7-0.1-1.4,0.5-1.5,1.2c0,0.1,0,0.2,0,0.2v4.5H189v-4.5c0-0.7-0.6-1.3-1.3-1.3c-0.7,0-1.3,0.6-1.3,1.3
		v4.5h-10.8c-0.7-0.1-1.4,0.5-1.5,1.2s0.5,1.4,1.2,1.5c0.1,0,0.2,0,0.2,0h10.8v2.8L174,145c-0.5,0.5-0.6,1.3-0.1,1.9c0,0,0,0,0,0
		c0.5,0.5,1.3,0.6,1.8,0.2c0,0,0,0,0,0l10.5-9.3v10.9c0,0.7,0.6,1.3,1.3,1.3c0.7,0,1.3-0.6,1.3-1.3v-10.8l6.1,5.5
		c0.1,0,0.1,0.1,0.2,0.1c0.1,0,0.1,0.1,0.2,0.1c0.1,0.1,0.3,0.1,0.5,0.1h0l0,0l0,0c0.2,0,0.3,0,0.5-0.1c0.1,0,0.1-0.1,0.2-0.1
		c0.1,0,0.1-0.1,0.2-0.1l6.2-5.5v10.8c-0.1,0.7,0.5,1.4,1.2,1.5c0.7,0.1,1.4-0.5,1.5-1.2c0-0.1,0-0.2,0-0.2v-10.9l10.5,9.3
		c0.6,0.5,1.4,0.4,1.9-0.1c0.5-0.6,0.4-1.4-0.1-1.9L205.7,134.2z M196,140.5l-7-6.2v-2.9h14.1v2.8L196,140.5z"/>
	<path class="st0" d="M178.4,111.1H192l-11.6,10.3c-0.6,0.5-0.6,1.3-0.1,1.9c0.3,0.3,0.6,0.5,1,0.5c0.3,0,0.6-0.1,0.9-0.3l12.5-11.1
		v10.2c0.1,0.7,0.7,1.3,1.5,1.2c0.6-0.1,1.2-0.6,1.2-1.2v-10.2l12.4,11.1c0.2,0.2,0.6,0.3,0.9,0.3c0.4,0,0.7-0.2,1-0.5
		c0.5-0.5,0.4-1.4-0.1-1.9c0,0,0,0,0,0L200,111.1h13.6c0.7-0.1,1.3-0.7,1.2-1.5c-0.1-0.6-0.6-1.2-1.2-1.2h-16.2v-3.1
		c0.1-0.7-0.5-1.4-1.2-1.5c-0.7-0.1-1.4,0.5-1.5,1.2c0,0.1,0,0.2,0,0.2v3.1h-16.3c-0.7-0.1-1.4,0.5-1.5,1.2s0.5,1.4,1.2,1.5
		C178.3,111.1,178.3,111.1,178.4,111.1z"/>
	<path class="st0" d="M370.6,109.6l-10.7,8.3c-0.6,0.5-0.7,1.3-0.2,1.9c0.3,0.3,0.7,0.5,1.1,0.5c0.3,0,0.6-0.1,0.8-0.3l10.8-8.3
		c0.6-0.4,0.7-1.3,0.2-1.9c0,0,0,0,0,0C372.1,109.3,371.2,109.2,370.6,109.6C370.6,109.6,370.6,109.6,370.6,109.6z"/>
	<path class="st0" d="M370.6,121.4l-10.7,8.3c-0.6,0.5-0.7,1.3-0.2,1.9c0.3,0.3,0.6,0.5,1,0.5c0.3,0,0.6-0.1,0.8-0.3l5.8-4.5v20.9
		c-0.1,0.7,0.5,1.4,1.2,1.5c0.7,0.1,1.4-0.5,1.5-1.2c0-0.1,0-0.2,0-0.2v-23l2.2-1.7c0.6-0.5,0.7-1.3,0.2-1.9
		S371.2,120.9,370.6,121.4L370.6,121.4L370.6,121.4z"/>
	<path class="st0" d="M431.2,117.1c0-0.1,0-0.1,0-0.2c0-0.1-0.1-0.1-0.1-0.2c-0.1-0.1-0.1-0.2-0.2-0.2l0,0l-7.6-6.8
		c0,0-0.1-0.1-0.1-0.1c-0.1-0.1-0.2-0.1-0.2-0.1c-0.1,0-0.2-0.1-0.2-0.1c-0.1,0-0.2,0-0.3,0h-0.2c-0.1,0-0.2,0-0.2,0.1l-0.2,0.1
		c0,0-0.1,0-0.1,0.1l-8.4,6.8v0.1c-0.1,0.1-0.1,0.1-0.2,0.2c0,0.1-0.1,0.1-0.1,0.2c0,0.1-0.1,0.1-0.1,0.2c0,0.1,0,0.2-0.1,0.3
		s0,0,0,0.1c0,0.1,0,0.1,0,0.2c0,0.1,0,0.2,0,0.3c0,0.1,0.1,0.2,0.1,0.2c0,0.1,0,0.1,0.1,0.2h0.1c0.1,0.1,0.2,0.2,0.3,0.3
		c0,0,0.1,0.1,0.1,0.1c0.2,0.1,0.4,0.1,0.5,0.1h16c0.2,0,0.4,0,0.5-0.1c0,0,0,0,0.1-0.1c0.1-0.1,0.3-0.2,0.4-0.3l0,0
		c0-0.1,0.1-0.1,0.1-0.2c0.1-0.1,0.1-0.2,0.1-0.3c0-0.1,0-0.2,0.1-0.3c0-0.1,0-0.1,0-0.2l0,0C431.2,117.4,431.2,117.2,431.2,117.1z
		 M422.2,112.4l4.2,3.7h-8.8L422.2,112.4z"/>
	<path class="st0" d="M424.2,141.4l-0.2-0.1c-0.1-0.1-0.2-0.1-0.2-0.1c-0.1,0-0.2,0-0.2-0.1c-0.1,0-0.2,0-0.2,0h-0.2
		c-0.1,0-0.2,0-0.2,0.1c-0.1,0-0.2,0.1-0.2,0.1l-0.2,0.1l-4.3,3.8v-6.8c0.1,0,0.1,0,0.2,0h11.4c0.7,0,1.3-0.6,1.3-1.3v-9.8
		c0-2.8-2.3-5.1-5.1-5.1h-9.1c-0.7,0-1.3,0.6-1.3,1.3s0.6,1.3,1.3,1.3c0,0,0,0,0,0h9.1c1.4,0,2.5,1.1,2.5,2.5v8.5h-10.1h-0.2v-4.4
		h8.1c0.7,0.1,1.4-0.5,1.5-1.2s-0.5-1.4-1.2-1.5c-0.1,0-0.2,0-0.2,0h-9.4c-0.7,0-1.3,0.6-1.3,1.3l0,0v18.2c0,0.1,0,0.1,0,0.2
		c0,0.1,0,0.2,0,0.3c0,0.1,0.1,0.2,0.1,0.3c0,0,0.1,0.1,0.1,0.2l0,0c0.1,0.1,0.2,0.2,0.3,0.2l0.1,0.1c0.2,0.1,0.3,0.1,0.5,0.1
		c0.2,0,0.3,0,0.5-0.1l0.2-0.1c0.1,0,0.1-0.1,0.2-0.1l5.7-5l5.7,5c0.5,0.5,1.4,0.5,1.9,0c0.5-0.5,0.5-1.4,0-1.9c0,0-0.1-0.1-0.1-0.1
		L424.2,141.4z"/>
	<path class="st0" d="M242.6,129.6c0,1.6-1.3,2.9-2.9,2.9c0,0,0,0,0,0l0,0c-1.6,0-2.9-1.3-2.9-2.9l0,0c0-1.6,1.3-2.9,2.9-2.9l0,0
		C241.3,126.7,242.6,128,242.6,129.6C242.6,129.6,242.6,129.6,242.6,129.6z"/>
	<path class="st0" d="M173.5,148.2"/>
	<path class="st0" d="M259.6,148.2"/>
	<path class="st0" d="M134.4,18.7c0-1.6-1.3-2.8-2.8-2.8H70.1V2.7c-0.1-1.6-1.4-2.8-3-2.7c-1.4,0.1-2.6,1.2-2.7,2.7v13.3H3
		c-1.6-0.1-2.9,1.1-3,2.7c-0.1,1.6,1.1,2.9,2.7,3c0.1,0,0.2,0,0.3,0h57.4L33,48.9l0,0l-32,32c-1.1,1.1-1.1,2.9,0,4
		c0.5,0.5,1.2,0.8,2,0.8h25.2L1,113.1c-1,1.2-0.8,3,0.4,4c1.1,0.9,2.6,0.9,3.6,0l27.3-27.1l0.1,57.3c0,1.1,0.7,2.2,1.7,2.6
		c0.3,0.1,0.7,0.2,1.1,0.2c0.7,0,1.5-0.3,2-0.8l30.1-30.1l30.1,30.1c0.5,0.5,1.2,0.8,2,0.8c0.4,0,0.7-0.1,1.1-0.2
		c1.1-0.4,1.8-1.5,1.8-2.6V89.9l27.3,27.3c1.2,1,3,0.8,4-0.4c0.9-1.1,0.9-2.6,0-3.6l-27.3-27.3h25.3c1.6,0,2.8-1.3,2.8-2.9
		c0-0.7-0.3-1.5-0.8-2L74.1,21.6h57.4C133.1,21.6,134.4,20.3,134.4,18.7z M37.9,80.2v-28l26.6-26.6v54.6L37.9,80.2z M92.6,85.9
		l-25.3,25.3L42,85.9L92.6,85.9z M96.6,80.2H70.1V25.6l26.5,26.5L96.6,80.2z M32.2,57.8v22.4H9.8L32.2,57.8z M38,140.5l-0.1-50.7
		l25.4,25.4L38,140.5z M71.3,115.2l25.3-25.3v50.6L71.3,115.2z M102.3,80.2V57.7l22.5,22.5L102.3,80.2z"/>
</g>
</svg>
