<?xml version="1.0" encoding="utf-8"?>
<!-- Generator: Adobe Illustrator 26.0.3, SVG Export Plug-In . SVG Version: 6.00 Build 0)  -->
<svg version="1.1" id="圖層_1" xmlns="http://www.w3.org/2000/svg" xmlns:xlink="http://www.w3.org/1999/xlink" x="0px" y="0px"
	 viewBox="0 0 25 25" style="enable-background:new 0 0 25 25;" xml:space="preserve">
<style type="text/css">
	.st0{fill:#E1DCD7;}
</style>
<path class="st0" d="M12.5,0C9.1,0,8.7,0,7.3,0.1C6,0.1,5.1,0.3,4.3,0.7C3.5,1,2.7,1.5,2.1,2.1C1.5,2.7,1,3.5,0.7,4.3
	C0.3,5.1,0.1,6,0.1,7.3C0,8.7,0,9.1,0,12.5c0,3.4,0,3.8,0.1,5.2c0.1,1.3,0.3,2.2,0.6,3c0.3,0.8,0.7,1.5,1.4,2.2
	c0.7,0.7,1.4,1.1,2.2,1.4c0.8,0.3,1.7,0.5,3,0.6C8.7,25,9.1,25,12.5,25s3.8,0,5.2-0.1c1.3-0.1,2.2-0.3,3-0.6
	c0.8-0.3,1.6-0.8,2.2-1.4c0.7-0.7,1.1-1.4,1.4-2.2c0.3-0.8,0.5-1.7,0.6-3c0.1-1.3,0.1-1.8,0.1-5.2s0-3.8-0.1-5.2
	c-0.1-1.3-0.3-2.2-0.6-3c-0.3-0.8-0.8-1.6-1.4-2.2c-0.6-0.6-1.4-1.1-2.2-1.4c-0.8-0.3-1.7-0.5-3-0.6C16.3,0,15.9,0,12.5,0L12.5,0
	L12.5,0z M11.4,2.3h1.1c3.3,0,3.7,0,5.1,0.1c1.2,0.1,1.9,0.3,2.3,0.4c0.6,0.2,1,0.5,1.4,0.9c0.4,0.4,0.7,0.9,0.9,1.4
	c0.2,0.4,0.4,1.1,0.4,2.3c0.1,1.3,0.1,1.7,0.1,5s0,3.7-0.1,5.1c-0.1,1.2-0.3,1.9-0.4,2.3c-0.2,0.5-0.5,1-0.9,1.4
	c-0.4,0.4-0.9,0.7-1.4,0.9c-0.4,0.2-1.1,0.4-2.3,0.4c-1.3,0.1-1.7,0.1-5.1,0.1s-3.7,0-5.1-0.1c-1.2-0.1-1.9-0.3-2.3-0.4
	c-0.5-0.2-1-0.5-1.4-0.9c-0.4-0.4-0.7-0.9-0.9-1.4c-0.2-0.4-0.4-1.1-0.4-2.3c-0.1-1.3-0.1-1.7-0.1-5.1c0-3.3,0-3.7,0.1-5
	c0.1-1.2,0.3-1.9,0.4-2.3c0.2-0.6,0.5-1,0.9-1.4C4.1,3.2,4.5,3,5.1,2.8c0.4-0.2,1.1-0.4,2.3-0.4C8.6,2.3,9.1,2.3,11.4,2.3
	C11.4,2.3,11.4,2.3,11.4,2.3z M19.2,4.3c-0.8,0-1.5,0.7-1.5,1.5s0.7,1.5,1.5,1.5l0,0c0.8,0,1.5-0.7,1.5-1.5S20,4.3,19.2,4.3z
	 M12.5,6.1C9,6,6,8.9,6,12.4s2.8,6.5,6.3,6.5c0.1,0,0.1,0,0.2,0c3.5-0.1,6.4-3,6.3-6.5C18.8,8.9,16,6.1,12.5,6.1z M12.5,8.3
	c2.3,0,4.2,1.9,4.2,4.2s-1.9,4.2-4.2,4.2c0,0,0,0,0,0c-2.3,0-4.2-1.9-4.2-4.2S10.2,8.3,12.5,8.3z"/>
</svg>
