<?xml version="1.0" encoding="utf-8"?>
<!-- Generator: Adobe Illustrator 26.0.3, SVG Export Plug-In . SVG Version: 6.00 Build 0)  -->
<svg version="1.1" id="圖層_1" xmlns="http://www.w3.org/2000/svg" xmlns:xlink="http://www.w3.org/1999/xlink" x="0px" y="0px"
	 viewBox="0 0 26 24" style="enable-background:new 0 0 26 24;" xml:space="preserve">
<style type="text/css">
	.st0{fill:#E1DCD7;}
</style>
<path class="st0" d="M12.3,24C12.3,24,12.3,24,12.3,24c-0.1,0-0.2,0-0.2-0.1l0,0c-0.3-0.2-0.2-0.7-0.1-1.2c0.1-0.3,0.1-0.6,0.1-1
	c0-0.1,0-0.3,0-0.4l0,0c-0.1-0.5-0.5-0.8-1-0.9h0c-0.2,0-0.3,0-0.4-0.1c-1.6-0.2-3-0.7-4.3-1.3l0.1,0c-0.7-0.3-1.3-0.7-1.9-1l0,0
	c-0.6-0.4-1.1-0.8-1.6-1.2l0,0c-0.5-0.4-0.9-0.9-1.3-1.4l0,0c-0.4-0.5-0.7-1-0.9-1.5l0-0.1C0.3,12.8,0,11.6,0,10.3
	c0-0.7,0.1-1.4,0.3-2.1l0,0.1c0.2-0.7,0.5-1.4,0.8-2l0,0C1.4,5.6,1.8,5,2.2,4.5l0,0C2.7,4,3.2,3.5,3.8,3l0,0C4.4,2.6,5,2.1,5.7,1.8
	l0.1,0c0.6-0.3,1.3-0.7,2.1-0.9l0.1,0c0.7-0.2,1.5-0.4,2.3-0.6l0.1,0C11.2,0.1,12.1,0,13,0s1.8,0.1,2.7,0.2l-0.1,0
	c0.9,0.2,1.8,0.4,2.5,0.6l-0.1,0c0.9,0.3,1.6,0.6,2.3,1l-0.1,0C21,2.1,21.6,2.6,22.2,3l0,0c0.6,0.5,1.1,1,1.6,1.5l0,0
	c0.4,0.5,0.8,1.1,1.2,1.7l0,0.1c0.3,0.6,0.6,1.2,0.7,1.9l0,0.1c0.2,0.6,0.3,1.3,0.3,2.1c0,1-0.2,2-0.5,2.9l0-0.1
	c-0.4,1-0.8,1.8-1.4,2.6l0,0c-0.1,0.1-0.2,0.2-0.2,0.3l0,0l0,0c-0.4,0.5-0.9,1-1.4,1.4l0,0c-1.7,1.6-3.6,3-5.6,4.4l-0.2,0.1
	c-0.7,0.5-1.6,1-2.5,1.5L14,23.4c-0.3,0.1-0.6,0.3-0.9,0.4l-0.1,0C12.8,23.9,12.6,24,12.3,24L12.3,24L12.3,24z M18.4,7.3
	c-0.4,0-0.7,0.3-0.7,0.7v5c0,0.4,0.3,0.7,0.7,0.7H21c0.4,0,0.7-0.3,0.7-0.7v-0.1c0-0.4-0.3-0.7-0.7-0.7h-1.9v-1.1H21
	c0.4,0,0.7-0.3,0.7-0.7v-0.1c0-0.4-0.3-0.7-0.7-0.7h-1.9V8.7H21c0.4,0,0.7-0.3,0.7-0.7V7.9c0-0.4-0.3-0.7-0.7-0.7L18.4,7.3z
	 M12.4,7.2c-0.4,0-0.7,0.3-0.7,0.7v5c0,0.4,0.3,0.7,0.7,0.7h0.1c0.4,0,0.7-0.3,0.7-0.7v-3l2.5,3.3c0,0,0,0,0.1,0.1l0,0
	c0.1,0.1,0.2,0.2,0.3,0.2l0,0c0.1,0,0.2,0.1,0.3,0.1h0h0.1c0.1,0,0.2,0,0.3-0.1l0,0c0.1,0,0.1-0.1,0.2-0.1v0
	c0.1-0.1,0.2-0.3,0.2-0.5v0v-5c0-0.4-0.3-0.7-0.7-0.7h-0.1c-0.4,0-0.7,0.3-0.7,0.7v2.9L13,7.6C12.9,7.4,12.7,7.2,12.4,7.2L12.4,7.2z
	 M10,7.2c-0.4,0-0.7,0.3-0.7,0.7v5c0,0.4,0.3,0.7,0.7,0.7H10c0.4,0,0.7-0.3,0.7-0.7v-5C10.7,7.5,10.4,7.2,10,7.2L10,7.2z M5.5,7.2
	c-0.4,0-0.7,0.3-0.7,0.7v5c0,0.4,0.3,0.7,0.7,0.7h2.6c0.4,0,0.7-0.3,0.7-0.7v-0.1c0-0.4-0.3-0.7-0.7-0.7H6.2V7.9
	C6.2,7.5,5.9,7.2,5.5,7.2L5.5,7.2z"/>
</svg>
