<svg xmlns="http://www.w3.org/2000/svg" viewBox="0 0 68.89 68.83"><defs><style>.cls-1{fill:#fff;}</style></defs><g id="圖層_3" data-name="圖層 3"><path class="cls-1" d="M34.47,68.83H5.31A5.1,5.1,0,0,1,0,63.58c0-.69,0-1.38,0-2.06,0-2,0-4.09.05-6.12.07-1.57.28-3.16.49-4.7.07-.56.15-1.11.22-1.67.4-3.27.81-6.55,1.22-9.82l.61-4.82c.05-.41.1-.82.14-1.22.09-.77.19-1.56.3-2.34a3,3,0,0,1,3-2.65h2v1.63H6.27a1.42,1.42,0,0,0-1.63,1.47L3.79,38,1.84,53.64a24.16,24.16,0,0,0-.17,2.6c0,2.54,0,5,0,7.45A3.51,3.51,0,0,0,5.16,67.2H63.23c2.62,0,4-1.39,4-4,0-.38,0-.77,0-1.16,0-.82,0-1.66,0-2.48a55.7,55.7,0,0,0-.7-10c-.06-.49-.12-1-.19-1.48q-.6-4.87-1.22-9.76l-.7-5.62-.18-1.41a1.41,1.41,0,0,0-1.6-1.43H55.34V28.2l.33,0h7A3,3,0,0,1,65.88,31c.29,2.34.59,4.68.88,7,.68,5.43,1.39,11,2,16.55a20.35,20.35,0,0,1,.08,2.92c0,.42,0,.83,0,1.25,0,1.65,0,3.26,0,4.87a5.15,5.15,0,0,1-5.24,5.22Z"/><path class="cls-1" d="M37.06,50.4A1.45,1.45,0,0,1,36,50.14c-.17-.18-.22-.53-.18-1.1q.53-6.1,1-12.21c.07-.86.29-1.06,1.15-1.06H59.08c.84,0,1.06.21,1.14,1.07q.51,6.1,1,12.21c0,.56,0,.91-.17,1.09a1.5,1.5,0,0,1-1.06.27h-23Zm17.75-1.66h4.76l-.22-2.64H54.81ZM44,48.73h3.68V46.08H44Zm-6.49,0h4.75V46.1H37.74Zm11.87,0h3.73V46.07H49.38Zm0-4.32h3.7V41.77H49.4Zm-5.42,0H47.7V41.77H44Zm10.85,0H59.2L59,41.78H54.83Zm-16.94,0h4.38V41.76H38.09ZM44,40.07H47.7V37.45H44Zm-5.76,0h4V37.45h-3.8Zm11.16,0h3.7V37.43h-3.7Zm5.43,0h4l-.24-2.63h-3.8Z"/><path class="cls-1" d="M19.28,40.65H7.56c-.74,0-1-.28-1-1V33.54c0-.74.27-1,1-1H9.79V15.29c0-.61.08-1,.54-1.14a.8.8,0,0,1,.3-.06,1.21,1.21,0,0,1,.82.5L12.73,16l.63-.64.84-.84a1.14,1.14,0,0,1,.74-.41,1.18,1.18,0,0,1,.75.42c.27.27.54.54.82.84l.62.64.19-.2.43-.46c.28-.31.55-.6.83-.87a1.05,1.05,0,0,1,.69-.37,1.11,1.11,0,0,1,.71.37l.76.73.45.45a.28.28,0,0,0,.21.08l.12,0,.14,0,.1-.11.33-.34c.26-.28.53-.57.82-.85a1,1,0,0,1,.7-.38,1.07,1.07,0,0,1,.7.37l.78.75.43.42a.32.32,0,0,0,.2.09l.11,0,.15,0,.4-.41.82-.86a1,1,0,0,1,.73-.41.84.84,0,0,1,.3.06c.39.16.54.44.54,1q0,6.43,0,12.88v4.48H31c.74,0,1,.29,1,1,0,2.07,0,4.12,0,6.1,0,.73-.28,1-1,1ZM8.2,39H30.34V37.42H8.2Zm20.6-3.25h1.54V34.18H28.8Zm-20.58,0H9.78V34.19H8.22Zm3.25,0H27.09V17.15l-.43.3a1.88,1.88,0,0,1-.92.44c-.22,0-.45-.16-.86-.57-.23-.23-.44-.47-.69-.74l-.39-.43-.2-.22-.2.22-.44.49c-.28.32-.53.6-.79.86a1.1,1.1,0,0,1-.72.4,1.07,1.07,0,0,1-.71-.39c-.27-.26-.52-.54-.81-.85l-.46-.5-.2-.22-.2.23-.29.34c-.17.19-.31.36-.46.51-.59.59-.94.89-1.21.89s-.62-.31-1.18-.87a4.42,4.42,0,0,1-.43-.57c-.09-.12-.18-.27-.3-.42l-.2-.28-.22.27c-.16.18-.29.34-.41.49a8.79,8.79,0,0,1-.58.67c-.51.52-.74.69-1,.69a2.17,2.17,0,0,1-.94-.42l-.41-.25Z"/><path class="cls-1" d="M48.53,32H44.35c-.68,0-1-.29-1-1,0-1.2,0-2.41,0-3.64V25.47H35.92c-2.2,0-3.36-1.17-3.37-3.38q0-9.37,0-18.76A3,3,0,0,1,35.91,0H61.18a3,3,0,0,1,3.35,3.32V22.16a3,3,0,0,1-3.29,3.31H53.69v2.29c0,1.09,0,2.18,0,3.27,0,.65-.3.94-.95.94ZM45.05,30.3h7V25.51h-7Zm16.09-6.45c1.3,0,1.76-.46,1.76-1.76q0-9.35,0-18.7c0-1.3-.46-1.76-1.76-1.76H36c-1.3,0-1.77.46-1.77,1.76V22.08c0,1.3.46,1.77,1.76,1.77h25.2Z"/><path class="cls-1" d="M20.61,64.49c-.79,0-1.06-.26-1.06-1,0-1.16,0-2.42,0-3.86,0-.82.26-1.07,1.09-1.07H48.12c1,0,1.24.22,1.24,1.21v3.72c0,.77-.28,1-1.06,1H20.61Zm.62-1.66H47.7V60.21H21.23Z"/><rect class="cls-1" x="7.66" y="54.23" width="57.91" height="1.55"/><rect class="cls-1" x="30.44" y="28.23" width="11.3" height="1.55"/><rect class="cls-1" x="4.08" y="54.24" width="1.56" height="1.54"/><rect class="cls-1" x="14.18" y="27.14" width="10.21" height="1.55"/><rect class="cls-1" x="14.16" y="31.48" width="10.22" height="1.54"/><rect class="cls-1" x="18.48" y="19.56" width="1.57" height="1.52"/><rect class="cls-1" x="14.17" y="22.79" width="1.54" height="1.55"/><rect class="cls-1" x="18.51" y="22.79" width="1.54" height="1.57"/><rect class="cls-1" x="14.18" y="19.54" width="1.54" height="1.54"/><path class="cls-1" d="M37,22.22c-1,0-1.21-.22-1.21-1.22V4.47c0-1,.21-1.22,1.21-1.22h23c1,0,1.23.22,1.23,1.21V7h-1.6V4.94H37.48V20.55H59.64V9.8h1.64V21c0,1-.22,1.2-1.23,1.2H37Z"/><rect class="cls-1" x="44.51" y="10.89" width="1.55" height="1.54"/><rect class="cls-1" x="40.19" y="10.88" width="1.54" height="1.55"/><rect class="cls-1" x="44.51" y="7.64" width="1.56" height="1.54"/><rect class="cls-1" x="40.19" y="7.63" width="1.55" height="1.54"/><rect class="cls-1" x="30.04" y="9.4" width="6.65" height="1.62" transform="translate(23.15 43.58) rotate(-90)"/></g></svg>