<svg xmlns="http://www.w3.org/2000/svg" viewBox="0 0 64.5 64.5"><defs><style>.cls-1{fill:#fff;}</style></defs><g id="圖層_3" data-name="圖層 3"><path class="cls-1" d="M51.77,64.5H44.42a1.21,1.21,0,0,1-.89-.26.92.92,0,0,1-.15-.74,5.19,5.19,0,0,0-1.79-4.67,8.3,8.3,0,0,1-2.14-3.75c-.84-2.54-1.73-5.1-2.59-7.58l-1.08-3.11a2.44,2.44,0,0,1,0-2,2.48,2.48,0,0,1,1.68-1.06,5.86,5.86,0,0,1,1.36-.21H39A2.84,2.84,0,0,1,41.49,43c.27.61.56,1.23.83,1.83.13.26.25.53.38.8l.1.22.52-.18V32H38.16c-2.34,0-3.47-1.14-3.47-3.47V3.38C34.69,1.17,35.85,0,38.06,0H61.15A3,3,0,0,1,64.5,3.33V28.67A3,3,0,0,1,61.2,32H49.37v4l.32-.06a5.32,5.32,0,0,1,.94-.09,2.92,2.92,0,0,1,2.86,1.92l.06.14.15,0,.9.12a10.26,10.26,0,0,1,1.75.32,2.56,2.56,0,0,1,1.53,1.75l.07.17h.19l.65,0,.62,0a3.37,3.37,0,0,1,.68.06A2.81,2.81,0,0,1,62.32,43c0,4.1,0,8.55,0,14a2,2,0,0,1-.19.66l-.06.12a1.51,1.51,0,0,1-.28.44,6.41,6.41,0,0,0-1.65,5.23.94.94,0,0,1-.15.75,1.13,1.13,0,0,1-.87.27ZM38.69,42.74a3.11,3.11,0,0,0-1.32.4l-.21.1.07.22a1.33,1.33,0,0,1,.05.19c0,.15.09.3.14.45.33,1,.67,1.94,1,2.91.78,2.2,1.58,4.48,2.28,6.74a10.81,10.81,0,0,0,2.83,4.84A4,4,0,0,1,45,62.26a.59.59,0,0,0,0,.27.29.29,0,0,0,0,.09l0,.22H58.76l-.12-.36c-.58-1.75.28-3,1.2-4.27.17-.25.35-.5.51-.75a.63.63,0,0,0,.07-.12,2.67,2.67,0,0,1,.09-.26,1.86,1.86,0,0,0,.18-.7c0-4,0-8.12,0-12.08v-.92c0-1-.51-1.63-1.33-1.64h0c-.84,0-1.34.62-1.35,1.67v2.51c0,1.22-.58,1.22-.8,1.23h0c-.55,0-.82-.4-.82-1.2q0-1.53,0-3.06V41.21c0-1-.53-1.63-1.34-1.64h0c-.85,0-1.37.62-1.37,1.61v5c0,.61-.31,1-.81,1s-.81-.37-.82-.93V39c0-1-.51-1.62-1.34-1.64h0c-.85,0-1.36.62-1.37,1.61v5.87c0,.44,0,.87,0,1.3,0,.6-.31,1-.8,1s-.8-.36-.82-.94c0-.14,0-.27,0-.41V29.22c0-.94-.53-1.57-1.32-1.57A1.44,1.44,0,0,0,45,29.19c0,.13,0,.26,0,.39V50.33c0,.91-.36,1.08-.66,1.13h-.18c-.36,0-.61-.21-.86-.76q-1.07-2.31-2.15-4.6c-.31-.67-.63-1.34-1-2S39.41,42.74,38.69,42.74ZM38.15,1.63c-1.41,0-1.83.42-1.83,1.82V26.26c0,.79,0,1.59,0,2.38,0,1.23.47,1.71,1.68,1.71h4.47a3,3,0,0,0,.42,0h.4l0-.23c.26-2.8,1.19-4.05,3-4.05s2.79,1.22,3,4.08l0,.25H61c1.39,0,1.83-.45,1.83-1.83V3.46c0-1.4-.43-1.83-1.83-1.83H38.15Z"/><path class="cls-1" d="M3.29,32A3,3,0,0,1,0,28.65V3.32A3,3,0,0,1,3.29,0H26.52a3,3,0,0,1,3.29,3.25V28.72A3,3,0,0,1,26.52,32H3.29Zm.1-30.35c-1.3,0-1.76.46-1.76,1.76v25.2c0,1.3.46,1.76,1.76,1.76h23c1.3,0,1.76-.46,1.76-1.76V3.39c0-1.3-.46-1.76-1.76-1.76h-23Z"/><path class="cls-1" d="M3.3,64.5A3,3,0,0,1,0,61.18V38a3,3,0,0,1,3.28-3.26H26.51A3,3,0,0,1,29.81,38V61.16a3,3,0,0,1-3.34,3.34H3.3Zm.09-28.19c-1.3,0-1.76.47-1.76,1.77v23c0,1.3.46,1.76,1.76,1.76h23c1.3,0,1.76-.46,1.76-1.77v-23c0-1.29-.46-1.75-1.76-1.76h-23Z"/><path class="cls-1" d="M53.66,23.3H51.31a23.24,23.24,0,0,1-3.09-.15,8.3,8.3,0,0,1-7-8.22,8.39,8.39,0,0,1,7-8.31,8.76,8.76,0,0,1,1.35-.1A8.37,8.37,0,0,1,58,15c0,.1,0,.2,0,.31a6.59,6.59,0,0,1-.06,1.19A2.82,2.82,0,0,1,56,18.79,3.22,3.22,0,0,1,55,19h0a2.94,2.94,0,0,1-1.92-.77l-.54-.44-.17.13A4.46,4.46,0,0,1,49.58,19a4.2,4.2,0,0,1-1.72-.39,4.09,4.09,0,0,1,1.68-7.81l.5,0a4.11,4.11,0,0,1,3.61,3.88,4.86,4.86,0,0,1,0,.54,6.82,6.82,0,0,0,0,.9,1.28,1.28,0,0,0,1.3,1.2h0a1.26,1.26,0,0,0,1.32-1.16c.33-3.17-1.1-6.82-5.07-7.81a7.6,7.6,0,0,0-1.86-.24,6.33,6.33,0,0,0-5,2.45,6.37,6.37,0,0,0-1,7.06,6.5,6.5,0,0,0,5.9,4c.5,0,1,0,1.69,0h2.66c.4,0,1.08.11,1.08.81a.7.7,0,0,1-.21.54,1.12,1.12,0,0,1-.83.27ZM49.59,12.47a2.39,2.39,0,0,0-1.72.73,2.35,2.35,0,0,0-.71,1.73,2.44,2.44,0,0,0,2.44,2.41,2.44,2.44,0,0,0,0-4.87Z"/><path class="cls-1" d="M17.51,27.09A9.37,9.37,0,0,1,11,24.49C9.42,23,7.77,21.31,5.81,19.28a9.25,9.25,0,0,1-2.63-6.55A9.41,9.41,0,0,1,5.81,6.18c.76-.79,1.54-1.56,2.34-2.34a1,1,0,0,1,.68-.36,1,1,0,0,1,.66.34C11.25,5.57,13,7.33,14.7,9a.79.79,0,0,1,0,1.29c-.37.39-.76.78-1.15,1.16l-1,1a3.51,3.51,0,0,0,0,5.14,3.78,3.78,0,0,0,2.66,1.2,3.61,3.61,0,0,0,2.49-1.06c.41-.4.83-.81,1.23-1.22l.93-.93a1.07,1.07,0,0,1,.71-.37,1,1,0,0,1,.68.36c1.63,1.62,3.3,3.29,5.12,5.12a.85.85,0,0,1,0,1.39l-.43.44c-.71.73-1.44,1.48-2.21,2.16a9.43,9.43,0,0,1-6.26,2.37ZM6.34,8.13A7.45,7.45,0,0,0,6,16.77a32.47,32.47,0,0,0,7.49,7.49,6.89,6.89,0,0,0,4,1.23,7.14,7.14,0,0,0,4.69-1.65l.22-.19-.95-1c-.93-.93-1.89-1.89-2.85-2.82a.62.62,0,0,0-.43-.14,1.23,1.23,0,0,0-.51.11,5.82,5.82,0,0,1-2.51.63,5,5,0,0,1-3-1,5.12,5.12,0,0,1-2.3-5.25,7.08,7.08,0,0,1,.44-1.42c.08-.22.16-.42.23-.63l0-.16L6.53,7.89ZM19.49,18.3l4.23,4.21,1-1-4.12-4.2ZM7.75,6.52,12,10.76l.87-1L8.79,5.65Z"/><path class="cls-1" d="M5.48,56.91c-.91,0-1.14-.24-1.14-1.16V43.43c0-.92.23-1.16,1.14-1.16H24.3c.94,0,1.17.24,1.18,1.2V55.72c0,1-.24,1.19-1.18,1.19H5.48Zm1.88-1.68H22.45l-5.09-4.51-.18.17c-1,1-1.64,1.32-2.24,1.32s-1.3-.4-2.29-1.33l-.18-.17ZM18.57,49.6l5.24,4.65V44.93ZM6,54.24l5.25-4.64L6,44.94Zm8.89-3.59L22.46,44H7.36Z"/></g></svg>