<svg xmlns="http://www.w3.org/2000/svg" viewBox="0 0 61.96 62.86"><defs><style>.cls-1{fill:#fff;}</style></defs><g id="圖層_3" data-name="圖層 3"><path class="cls-1" d="M50.92,62.86a11.1,11.1,0,0,1-10-6.39l0,0-.18-.4c-.47-1.12-.57-1.18-1.81-1.18H1.38a2.43,2.43,0,0,1-.78-.08,1,1,0,0,1-.6-1V33H1.94v1c0,.09,0,.15,0,.22,0,2.35,0,4.69,0,7V52.84h38v-.29a11.18,11.18,0,0,1,11-11.78,9.18,9.18,0,0,1,1.17.07l.3,0v-21H1.94v1.4c0,.87,0,1.73,0,2.59V25H0V5.81c0-.94.32-1.27,1.27-1.28H3.46l.06-.2c0-.16.09-.31.13-.47.09-.33.18-.65.28-1A4.64,4.64,0,0,1,5.54.58,2.72,2.72,0,0,1,7.16,0,2.76,2.76,0,0,1,8.87.65a5.22,5.22,0,0,1,1.73,3c0,.14.06.27.1.41l.09.43h2.72L13.64,4c.07-.25.13-.5.21-.76A5,5,0,0,1,15.35.74,2.83,2.83,0,0,1,17.18,0,2.76,2.76,0,0,1,19,.78a5.06,5.06,0,0,1,1.58,3,.85.85,0,0,0,.89.8h.13l.64,0h1.21l.06-.19c.06-.2.11-.39.15-.58a4.65,4.65,0,0,1,.38-1.09,7.8,7.8,0,0,1,1.44-2A2.44,2.44,0,0,1,27.17,0,2.79,2.79,0,0,1,29,.69a5.09,5.09,0,0,1,1.7,3.08.81.81,0,0,0,.86.77h.12l.66,0h1.25l.05-.2c0-.14.07-.27.1-.4a4,4,0,0,1,.2-.69l.12-.3a7.22,7.22,0,0,1,.7-1.42,2.83,2.83,0,0,1,5,.06,9,9,0,0,1,.91,2.21l0,0a.83.83,0,0,0,.85.71h.08l.68,0h1.2l.06-.18c.08-.24.16-.47.23-.69a10.35,10.35,0,0,1,.49-1.36C45,.76,45.94,0,47.23,0s2.22.7,3,2.28a6.63,6.63,0,0,1,.49,1.52.77.77,0,0,0,.83.7h.07c.28,0,.56,0,.84,0s.58,0,.87,0a1,1,0,0,1,1.08,1.11c0,.27,0,.54,0,.81v5.59c0,9.32,0,19,0,28.43a1.16,1.16,0,0,0,.83,1.23A11,11,0,0,1,61.12,56c-.17.4-.47.86-1,.86H60a.94.94,0,0,1-.69-.46,1.19,1.19,0,0,1,0-1,9.24,9.24,0,0,0,.65-4.61,9.05,9.05,0,0,0-8.14-8l-.71,0a9.06,9.06,0,1,0-.21,18.12A8.92,8.92,0,0,0,52,60.82l.39,0a1,1,0,0,1,.92.48.93.93,0,0,1,0,.87,1,1,0,0,1-.8.58A9.34,9.34,0,0,1,50.92,62.86ZM2,17.83H52.41V6.52h-6.7l0,.29A2.38,2.38,0,0,0,47.46,9.1a1.31,1.31,0,0,1,.66.61.81.81,0,0,1,0,.81,1.08,1.08,0,0,1-.93.47l-.21,0a3.29,3.29,0,0,1-2.51-2,12.66,12.66,0,0,1-.61-1.54c-.09-.25-.17-.5-.27-.75l-.06-.17H35.66l0,.3a2.31,2.31,0,0,0,1.79,2.25,1,1,0,0,1-.36,1.9,1.39,1.39,0,0,1-.35,0A3.72,3.72,0,0,1,34.1,8.38a10.66,10.66,0,0,1-.37-1.13l-.15-.53-.06-.2H25.67l0,.3A2.39,2.39,0,0,0,27.16,9c.36.09,1.17.36,1,1.17a1,1,0,0,1-1,.78,2.58,2.58,0,0,1-.38,0,3.54,3.54,0,0,1-2.46-2.16,13.54,13.54,0,0,1-.51-1.4c-.07-.23-.15-.46-.22-.69l-.07-.18H15.69V6.8a2.23,2.23,0,0,0,1.68,2.27,1,1,0,0,1,.77,1,.92.92,0,0,1-.82.87H17.2a4.82,4.82,0,0,1-1.81-.7A4.4,4.4,0,0,1,13.85,7.8c-.07-.25-.14-.5-.2-.74s-.15-.54-.15-.54h-8l.19.59c.28.9.57,1.82,1.82,2a.9.9,0,0,1,.64,1,.94.94,0,0,1-.83.82H7.23a4.12,4.12,0,0,1-1.52-.44A4.4,4.4,0,0,1,3.83,7.81c-.08-.24-.14-.5-.2-.74l-.09-.34,0-.2H2ZM17.12,2.08a.77.77,0,0,0-.45.12,2.73,2.73,0,0,0-1,2l0,.3h2.83l.45-.35L18.78,4l-.24-.45a9,9,0,0,0-.72-1.17A1,1,0,0,0,17.12,2.08ZM27.22,2a.93.93,0,0,0-.66.3,3.23,3.23,0,0,0-.9,1.91l-.05.31h3.48l-.22-.4c-.11-.2-.22-.39-.31-.58-.23-.41-.43-.8-.68-1.16A.79.79,0,0,0,27.22,2Zm10,0a.87.87,0,0,0-.72.43,11.13,11.13,0,0,0-.65,1.13l-.29.57-.22.4H39.1l-.22-.4c-.11-.2-.2-.39-.3-.58A10.44,10.44,0,0,0,38,2.4.93.93,0,0,0,37.21,2Zm10,0a.89.89,0,0,0-.71.41,11.13,11.13,0,0,0-.65,1.13c-.1.18-.19.36-.3.55l-.22.41h3.78l-.23-.41-.31-.57A9.79,9.79,0,0,0,48,2.37.9.9,0,0,0,47.23,2Zm-40,0a.93.93,0,0,0-.63.28,3.21,3.21,0,0,0-.93,1.89l0,.31h3.5l-.24-.4-.33-.59a13.21,13.21,0,0,0-.7-1.14A.75.75,0,0,0,7.18,2Z"/><path class="cls-1" d="M50,56.74a1.34,1.34,0,0,1-.75-.29c-.93-.68-1.91-1.4-3.08-2.29a1,1,0,0,1-.33-1.44.89.89,0,0,1,.73-.38,1.31,1.31,0,0,1,.76.27c.48.35,1,.7,1.46,1.08l.93.68.86-1.24L52,51l.86-1.26c.49-.73,1-1.45,1.48-2.16a1.17,1.17,0,0,1,.92-.61,1,1,0,0,1,.54.19A1,1,0,0,1,56,48.59c-1.94,2.85-3.63,5.34-5.2,7.61a1,1,0,0,1-.83.54Z"/><path class="cls-1" d="M33,28.69H29.87a1,1,0,0,1-1.14-1,.91.91,0,0,1,.26-.65,1.21,1.21,0,0,1,.86-.32h6.31a1,1,0,0,1,1.06,1,1,1,0,0,1-1,1H33Z"/><path class="cls-1" d="M33,37.35h-3.2a1,1,0,0,1-1.08-1,.88.88,0,0,1,.25-.65,1.18,1.18,0,0,1,.87-.32h6.3c.67,0,1.07.36,1.07,1a1,1,0,0,1-.27.7,1.08,1.08,0,0,1-.77.28Z"/><path class="cls-1" d="M44.52,37.35H41.34a1,1,0,0,1-.75-.3,1,1,0,0,1,.78-1.63h6.36a1,1,0,0,1,1.09,1,.93.93,0,0,1-.26.67,1.11,1.11,0,0,1-.8.31Z"/><path class="cls-1" d="M44.56,28.69H41.45c-.7,0-1.12-.37-1.12-1s.41-1,1.12-1h6.24c.67,0,1.13.39,1.13,1a1,1,0,0,1-1.13,1Z"/><path class="cls-1" d="M9.81,37.35h-3c-.75,0-1.2-.36-1.21-1a.92.92,0,0,1,.24-.66,1.3,1.3,0,0,1,.93-.31h6.18c.72,0,1.14.34,1.15.94a1,1,0,0,1-.25.67,1.27,1.27,0,0,1-.92.32H9.81Z"/><path class="cls-1" d="M9.82,46H6.67a1.21,1.21,0,0,1-.84-.32A1,1,0,0,1,5.57,45c0-.57.43-.92,1.1-.93H13c.67,0,1.08.36,1.09.93a.94.94,0,0,1-.25.69A1.22,1.22,0,0,1,13,46Z"/><path class="cls-1" d="M33.24,46H29.76a1,1,0,0,1-1-.68.81.81,0,0,1,.26-1,1.33,1.33,0,0,1,.74-.26c1.07,0,2.2,0,3.46,0h2.9c.67,0,1.07.36,1.07.94s-.41,1-1.1,1H33.24Z"/><path class="cls-1" d="M21.37,46h-3.1c-.68,0-1.11-.39-1.1-1s.41-.95,1.13-1h6.23a1.23,1.23,0,0,1,.88.32.92.92,0,0,1,.24.65,1,1,0,0,1-1.14,1Z"/><path class="cls-1" d="M21.38,28.69H18.29c-.7,0-1.12-.37-1.12-1a1,1,0,0,1,.24-.68,1.21,1.21,0,0,1,.86-.3h6.24c.69,0,1.13.38,1.14,1a1,1,0,0,1-1.12,1H21.38Z"/><path class="cls-1" d="M21.38,37.35H18.24a1,1,0,0,1-1.07-1,.89.89,0,0,1,.24-.67,1.15,1.15,0,0,1,.86-.3h6.29a1,1,0,0,1,1.09.94.88.88,0,0,1-.26.67,1.15,1.15,0,0,1-.85.32Z"/><path class="cls-1" d="M57.07,60.75a1,1,0,0,1-.7-1.63,1,1,0,0,1,.69-.3,1,1,0,0,1,1,1,.93.93,0,0,1-.91,1Z"/><rect class="cls-1" x="0.01" y="27.99" width="1.93" height="1.93"/></g></svg>