<svg id="圖層_1" data-name="圖層 1" xmlns="http://www.w3.org/2000/svg" viewBox="0 0 150.33 118.15"><defs><style>.cls-1{fill:#756f67;}</style></defs><path class="cls-1" d="M29.21,45.34c3.48-2.29,7.45-3.69,11-5.86C44.2,37,47.38,32.9,51.65,31c1.24-.57,2.69-.67,4-1.43,1.57-.93,2.94-2.11,4.59-2.9C63.52,25,67.45,24.39,71,23.78c2.23-.37,20.86-3.52,12.76-8.44-3-1.83-7.48.32-5.81-4.84,1.16-3.58,2.22-5.61-1.6-8.27C72.87-.23,61.24-2.27,64.66,5.37c1.15,2.58,3.91,4.86,3.72,7.9-.25,3.81-5,4.65-7.89,5.84C43.74,25.94,29,36.73,12.48,44c-3.59,1.59-7.87,3.13-10.55,6.15C1.42,50.75-.43,53,.09,54c.44.83,2,.8,3.14,1,4.45.75,9.4,1.23,13.78-.15C22.24,53.19,24.82,48.23,29.21,45.34Z"/><path class="cls-1" d="M149.57,71.7c-3.58-2.66-8.33-4.14-10.92-8-1.74-2.6-1.61-8.3-5.32-9,0,2.46.15,4.93,0,7.39-.08,1.6,0,6.45-1.44,7.72-.78.71-5.22.58-6.5.63-2.79.11-4.59-1.45-6.14-3.74-3.48-5.16-7-12.87-6.33-19.16.39-3.46,2-6.73,2.84-10.11.88-3.66,1.44-7.4,2.45-11a101.52,101.52,0,0,1,3.58-9.55c.65-1.72,3.23-6.82,2.26-8.65-.61-1.14-1.37-.73-2.16-1.44-1.22-1.1-1.92-2.53-3.4-3.4-2.43-1.42-4.81-1-7,.66-2.7,2-5,4.87-7.37,7.24-2.89,2.86-6.13,5.66-8.45,9-1.6,2.3-2.69,5.57-5.23,7-1.58.9-5.28.72-5,3.35,1.88-.28,3.22.5,5,.63,3,.22,4.15-1.76,6.31-3.43.8-.62.77-.91,1.82-1.31.7-.26,1,.44,1.53.24,2.38-.83,3.63-3.9,6.11-4.51,6.18-1.54,3.17,7.68,2.76,10.56-.56,3.93,1.35,11-2.81,13.62-1.81-3.62-1.75-9.34-5.71-11.42-2.93-1.54-10-1.65-9.37,3.09.33,2.41,2.61,4.11,2.62,6.63,0,2.09-1.33,3.49-2.94,4.62-3.33,2.33-8.26,2.34-11.24,4.94-2.1,1.83-1,5.43,1.27,7,3.4,2.31,9-1.52,12.41-1.6,4.25-.09,3.52,5.54,3.31,8.49-.36,5.07-.76,10.09-1,15.18a113.75,113.75,0,0,1-1.61,17,35.62,35.62,0,0,1-1.8,6.68c-1.09,2.7-3.12,5.42-3.45,8.39-.65,5.78,4.65.94,6.26-1a33.44,33.44,0,0,0,6.68-12.19c2.44-8.44,3.23-17.84,3.6-26.59.21-4.88-.36-9.46-.58-14.32-.12-2.69.76-9,3.5-4.11,2.07,3.74,3.16,8,5.13,11.74,3,5.78,6.39,8.36,12.6,10.41,5.74,1.9,11,2.34,16.83.69C146.63,78.9,152.41,76.79,149.57,71.7Z"/><path class="cls-1" d="M50.85,51.49c5.84,0,12.62-1.22,17.44-4.61,1.53-1.09,9.66-8.07,2.58-7-1.51.23-2.46,1.65-3.85,2.1-1.9.6-3-.51-4.93-.3-2.35.27-4.27,2.33-6.54,3-2.45.7-5.4.35-7.26,2.39C45.89,49.72,47.92,51.49,50.85,51.49Z"/><path class="cls-1" d="M84.68,75.13c-3.83-7.82-11.92,3.81-14.56-1-2.31-4.22,9.37-14.44.58-16.66-2.9-.73-6.38,1.23-8.79,2.58C58.46,62,55.14,64,51.34,65.16c-1.47.48-6.55.58-7.22,1.43-1.41,1.81,1.59,4.49,2.91,5.06,2.4,1,5.57.1,7.83,1.35,3,1.64.8,5.28-.08,7.75-1.59,4.52-3.61,15,3.74,15.9,6.85.87,7-10.82,10.57-14.16,2.67-2.5,5-1,5.09,2.33,0,4.21-3.64,5.4-5.52,8.57-2.16,3.63,1.43,6.06,5,5.73a21.25,21.25,0,0,0,9.49-3.93c3-2.09,3.8-3.83,2.58-7.2C84.09,83.55,85.38,79.63,84.68,75.13Z"/></svg>