<svg id="圖層_1" data-name="圖層 1" xmlns="http://www.w3.org/2000/svg" viewBox="0 0 150 25">
<defs>
    <style>.cls-1{fill:#334c3f;}</style>
</defs>
<path class="cls-1" d="M68.33,23.21H64.79V13.58a2.72,2.72,0,0,0-2.72-2.73H55.8l1.27-6.69H67a.71.71,0,1,0,0-1.42H47.62a.71.71,0,1,0,0,1.42h8l-1.26,6.69H48.72a.71.71,0,0,0,0,1.42h5.37L52,23.18s0,0,0,0H47.09a.71.71,0,0,0,0,1.42H68.33a.71.71,0,0,0,0-1.42ZM55.53,12.27h6.54a1.31,1.31,0,0,1,1.3,1.31v9.63H53.46Z"/><path class="cls-1" d="M94.88,7.94,80.47,9.46V3.11a.71.71,0,0,0-1.42,0v6.5l-5.59.59a.71.71,0,0,0-.63.78.72.72,0,0,0,.71.64h.07L79.05,11V21.9a2.72,2.72,0,0,0,2.72,2.73H92.58a2.73,2.73,0,0,0,2.73-2.73.72.72,0,0,0-1.43,0,1.31,1.31,0,0,1-1.3,1.31H81.77a1.31,1.31,0,0,1-1.3-1.31v-11L95,9.36a.71.71,0,0,0-.15-1.42Z"/><path class="cls-1" d="M121.76,10H110.61a.71.71,0,0,0,0,1.42h6a.54.54,0,0,0-.05.22V21.9a1.31,1.31,0,0,1-1.3,1.31H112a.71.71,0,1,0,0,1.42h3.26A2.73,2.73,0,0,0,118,21.9V11.64a.79.79,0,0,0,0-.22h3.78a.71.71,0,0,0,0-1.42Z"/><path class="cls-1" d="M110.61,4.66h9.54a.71.71,0,1,0,0-1.42h-9.54a.71.71,0,0,0,0,1.42Z"/><path class="cls-1" d="M146.79,17.32h-5.34V14.93H148a.7.7,0,0,0,.71-.7v-3A2.73,2.73,0,0,0,146,8.55h-5.29a.71.71,0,0,0-.71.72.66.66,0,0,0,0,.15,1,1,0,0,0,0,.17V23.92a.71.71,0,0,0,.71.71h8.06a.71.71,0,0,0,.71-.71V20A2.72,2.72,0,0,0,146.79,17.32Zm.54-6v2.23h-5.88V10H146A1.31,1.31,0,0,1,147.33,11.28Zm.76,11.93h-6.64V18.74h5.34a1.3,1.3,0,0,1,1.3,1.3Z"/><path class="cls-1" d="M149.29,4.51h-4.55V2.35a.71.71,0,1,0-1.42,0V4.51h-4.54a.71.71,0,0,0-.71.71V7.67a.71.71,0,1,0,1.42,0V5.93h9.09V7.67a.71.71,0,0,0,1.42,0V5.22A.71.71,0,0,0,149.29,4.51Z"/><path class="cls-1" d="M17.16,16.44V14.93h5.7a.7.7,0,0,0,.71-.7.71.71,0,0,0-.71-.72h-5.7V11.1a.71.71,0,1,0-1.42,0v2.41H8.26V11.1a.71.71,0,0,0-1.42,0v2.41H1.11a.71.71,0,0,0-.71.72.7.7,0,0,0,.71.7H6.84v1.49L.31,22.22a.7.7,0,0,0,0,1,.68.68,0,0,0,.53.24.73.73,0,0,0,.47-.18l5.58-5v5.79a.71.71,0,0,0,1.42,0V18.37l3.26,2.9.1.06a.33.33,0,0,0,.1.06.69.69,0,0,0,.24.05h0a.69.69,0,0,0,.24-.05.6.6,0,0,0,.11-.06l.1-.06,3.28-2.92v5.76a.71.71,0,0,0,1.42,0V18.34l5.55,4.94a.74.74,0,0,0,.48.18.71.71,0,0,0,.47-1.24ZM12,19.78,8.26,16.46V14.93h7.48v1.51Z"/><path class="cls-1" d="M2.64,4.16H9.88L3.71,9.65a.7.7,0,0,0-.06,1,.7.7,0,0,0,1,.06l6.64-5.9v5.44a.71.71,0,0,0,1.42,0V4.83l6.61,5.88a.74.74,0,0,0,.48.18.71.71,0,0,0,.47-1.24L14.1,4.16h7.23a.71.71,0,1,0,0-1.42H12.71V1.11a.71.71,0,0,0-1.42,0V2.74H2.64a.71.71,0,0,0,0,1.42Z"/><path class="cls-1" d="M104.82,3.39l-5.7,4.43a.71.71,0,0,0,.44,1.28.66.66,0,0,0,.43-.16l5.71-4.43a.7.7,0,0,0,.12-1A.71.71,0,0,0,104.82,3.39Z"/><path class="cls-1" d="M104.82,9.67l-5.7,4.43a.7.7,0,0,0-.13,1,.69.69,0,0,0,.57.28.7.7,0,0,0,.43-.15l3.1-2.41V23.92a.71.71,0,0,0,1.42,0V11.71l1.19-.93a.71.71,0,1,0-.88-1.11Z"/><path class="cls-1" d="M137,7.39a.53.53,0,0,0,0-.12l-.07-.09a.43.43,0,0,0-.09-.13l0,0-4.06-3.61-.07,0-.12-.07-.13,0-.14,0h-.12l-.14,0-.12.07-.08,0L127.36,7l0,0a.31.31,0,0,0-.09.11.76.76,0,0,0-.08.11.56.56,0,0,0,0,.12l0,.15v0s0,.06,0,.09l0,.15a.54.54,0,0,0,.07.13s0,.06,0,.08l0,0a.75.75,0,0,0,.17.14l.07,0a.68.68,0,0,0,.29.06h8.53a.82.82,0,0,0,.28,0l0,0,.2-.14a0,0,0,0,1,0,0l0-.09a.47.47,0,0,0,.08-.14.58.58,0,0,0,0-.14.43.43,0,0,0,0-.11h0A.76.76,0,0,0,137,7.39Zm-4.76-2.51,2.21,2h-4.65Z"/><path class="cls-1" d="M133.33,20.29l-.08-.05-.13-.07-.13,0h-.27l-.13,0a.47.47,0,0,0-.12.07l-.09.05-2.3,2V18.72l.09,0h6.06a.71.71,0,0,0,.71-.71V12.82a2.73,2.73,0,0,0-2.73-2.73h-4.84a.71.71,0,0,0,0,1.42h4.84a1.3,1.3,0,0,1,1.3,1.31v4.5h-5.34l-.09,0V14.93h4.28a.71.71,0,0,0,.72-.7.72.72,0,0,0-.72-.72h-5a.71.71,0,0,0-.71.72v9.69a.36.36,0,0,0,0,.1.8.8,0,0,0,0,.15,1,1,0,0,0,.08.14.56.56,0,0,0,.05.08h0a.67.67,0,0,0,.19.14l.05,0a.64.64,0,0,0,.28.06.75.75,0,0,0,.26-.05l.1-.06a.41.41,0,0,0,.11-.07l3-2.68,3,2.68a.71.71,0,0,0,.47.18.71.71,0,0,0,.47-1.24Z"/><path class="cls-1" d="M36.77,14a1.53,1.53,0,0,1-1.53,1.53h0A1.54,1.54,0,0,1,33.71,14h0a1.54,1.54,0,0,1,1.53-1.53h0A1.53,1.53,0,0,1,36.77,14Z"/></svg>