<svg width="32px" height="32px" xmlns="http://www.w3.org/2000/svg" viewBox="0 0 32 32"><defs><style>.cls-1{fill:#25282b;}</style></defs><title>shen57-favicon</title><g id="圖層_1" data-name="圖層 1"><path class="cls-1" d="M16.7,6.3V4.5a.7.7,0,1,0-1.4,0V6.3H5.8a.8.8,0,0,0-.7.8.8.8,0,0,0,.7.7h8.5l-9,9a.8.8,0,0,0-.2.8.8.8,0,0,0,.7.4H9.2L5.3,21.9c-.2.1-.2.3-.2.5s0,.4.2.5a.7.7,0,0,0,1,0L10.2,19v8.5a1,1,0,0,0,.4.7.8.8,0,0,0,.8-.2L16,23.4,20.6,28l.5.2h.3a1,1,0,0,0,.4-.7V19l3.9,3.9.5.2h0l.5-.2c.2-.1.2-.3.2-.5s0-.4-.2-.5L22.8,18h3.4a.8.8,0,0,0,.7-.5.7.7,0,0,0-.2-.7l-9-9h8.5a.8.8,0,0,0,.7-.7.8.8,0,0,0-.7-.8Zm7.8,10.3H21.8V13.9ZM19.4,18,16,21.4,12.6,18Zm-7.8-5.5,3.7-3.8v7.9H11.6ZM15,22.4l-3.4,3.4V19ZM20.4,19v6.8L17,22.4Zm-3.7-2.4V8.8l3.7,3.7v4.1Zm-6.5,0H7.5l2.7-2.7Z"/><path class="cls-1" d="M16,0A16,16,0,1,0,32,16,16,16,0,0,0,16,0ZM30.8,16A14.8,14.8,0,1,1,16,1.2,14.8,14.8,0,0,1,30.8,16Z"/></g></svg>