<?xml version="1.0" encoding="utf-8"?>
<!-- Generator: Adobe Illustrator 23.0.3, SVG Export Plug-In . SVG Version: 6.00 Build 0)  -->
<svg version="1.1" id="圖層_1" xmlns="http://www.w3.org/2000/svg" xmlns:xlink="http://www.w3.org/1999/xlink" x="0px" y="0px"
	 viewBox="0 0 32 32" style="enable-background:new 0 0 32 32;" xml:space="preserve" width="32px" height="32px">
<style type="text/css">
	.st0{fill:#FFFFFF;}
</style>
<g>
	<path class="st0" d="M16.7,6.3V4.5c0-0.4-0.3-0.7-0.7-0.7c-0.4,0-0.7,0.3-0.7,0.7c0,0,0,0,0,0v1.8H5.8C5.4,6.4,5.1,6.7,5.1,7.1
		c0,0.4,0.3,0.7,0.7,0.7h8.5l-9,9C5.1,17,5,17.3,5.1,17.6C5.2,17.8,5.5,18,5.8,18h3.4l-3.9,3.9c-0.2,0.1-0.2,0.3-0.2,0.5
		s0,0.4,0.2,0.5c0.3,0.3,0.7,0.3,1,0c0,0,0,0,0,0l3.9-3.9v8.5c0,0.3,0.2,0.5,0.4,0.7c0.3,0.1,0.6,0,0.8-0.2l4.6-4.6l4.6,4.6l0.5,0.2
		h0.3c0.2-0.2,0.4-0.4,0.4-0.7V19l3.9,3.9l0.5,0.2l0,0l0.5-0.2c0.2-0.1,0.2-0.3,0.2-0.5s0-0.4-0.2-0.5L22.8,18h3.4
		c0.3,0,0.6-0.2,0.7-0.5c0.1-0.3,0-0.5-0.2-0.7l-9-9h8.5c0.4,0,0.7-0.3,0.7-0.7c0-0.4-0.3-0.7-0.7-0.8L16.7,6.3z M24.5,16.6h-2.7
		v-2.7L24.5,16.6z M19.4,18L16,21.4L12.6,18H19.4z M11.6,12.5l3.7-3.8v7.9h-3.7L11.6,12.5z M15,22.4l-3.4,3.4V19L15,22.4z M20.4,19
		v6.8L17,22.4L20.4,19z M16.7,16.6V8.8l3.7,3.7v4.1H16.7z M10.2,16.6H7.5l2.7-2.7L10.2,16.6z"/>
	<path class="st0" d="M16,0C7.2,0,0,7.2,0,16s7.2,16,16,16s16-7.2,16-16S24.8,0,16,0z M30.8,16c0,8.2-6.6,14.8-14.8,14.8
		S1.2,24.2,1.2,16C1.2,7.8,7.8,1.2,16,1.2c0,0,0,0,0,0C24.2,1.2,30.8,7.8,30.8,16z"/>
</g>
</svg>
